solid OpenSCAD_Model
  facet normal 1 -0 0
    outer loop
      vertex 8.15 -8.65 1.5
      vertex 8.15 8.65 0
      vertex 8.15 8.65 1.5
    endloop
  endfacet
  facet normal 1 0 0
    outer loop
      vertex 8.15 8.65 0
      vertex 8.15 -8.65 1.5
      vertex 8.15 -8.65 0
    endloop
  endfacet
  facet normal 0 0 1
    outer loop
      vertex 3.98508 1.09724 1.5
      vertex 8.15 8.65 1.5
      vertex 4 1.401 1.5
    endloop
  endfacet
  facet normal 0 0 1
    outer loop
      vertex 8.15 8.65 1.5
      vertex 3.98508 1.70475 1.5
      vertex 4 1.401 1.5
    endloop
  endfacet
  facet normal 0 0 1
    outer loop
      vertex 8.15 8.65 1.5
      vertex 3.94045 2.00558 1.5
      vertex 3.98508 1.70475 1.5
    endloop
  endfacet
  facet normal 0 0 1
    outer loop
      vertex 8.15 8.65 1.5
      vertex 3.86656 2.30059 1.5
      vertex 3.94045 2.00558 1.5
    endloop
  endfacet
  facet normal 0 0 1
    outer loop
      vertex 8.15 8.65 1.5
      vertex 3.7641 2.58694 1.5
      vertex 3.86656 2.30059 1.5
    endloop
  endfacet
  facet normal 0 0 1
    outer loop
      vertex 8.15 8.65 1.5
      vertex 3.63407 2.86186 1.5
      vertex 3.7641 2.58694 1.5
    endloop
  endfacet
  facet normal 0 0 1
    outer loop
      vertex 8.15 8.65 1.5
      vertex 3.47772 3.12271 1.5
      vertex 3.63407 2.86186 1.5
    endloop
  endfacet
  facet normal 0 0 1
    outer loop
      vertex 8.15 8.65 1.5
      vertex 3.29656 3.36698 1.5
      vertex 3.47772 3.12271 1.5
    endloop
  endfacet
  facet normal 0 0 1
    outer loop
      vertex 8.15 8.65 1.5
      vertex 3.09232 3.59232 1.5
      vertex 3.29656 3.36698 1.5
    endloop
  endfacet
  facet normal 0 0 1
    outer loop
      vertex 8.15 8.65 1.5
      vertex 2.86698 3.79656 1.5
      vertex 3.09232 3.59232 1.5
    endloop
  endfacet
  facet normal 0 0 1
    outer loop
      vertex 8.15 8.65 1.5
      vertex 2.62271 3.97772 1.5
      vertex 2.86698 3.79656 1.5
    endloop
  endfacet
  facet normal 0 0 1
    outer loop
      vertex 8.15 8.65 1.5
      vertex 2.36186 4.13407 1.5
      vertex 2.62271 3.97772 1.5
    endloop
  endfacet
  facet normal 0 0 1
    outer loop
      vertex 8.15 8.65 1.5
      vertex 2.08694 4.2641 1.5
      vertex 2.36186 4.13407 1.5
    endloop
  endfacet
  facet normal 0 0 1
    outer loop
      vertex 8.15 8.65 1.5
      vertex 1.80059 4.36656 1.5
      vertex 2.08694 4.2641 1.5
    endloop
  endfacet
  facet normal 0 0 1
    outer loop
      vertex 8.15 8.65 1.5
      vertex 1.50558 4.44045 1.5
      vertex 1.80059 4.36656 1.5
    endloop
  endfacet
  facet normal 0 0 1
    outer loop
      vertex 8.15 8.65 1.5
      vertex 1.20475 4.48508 1.5
      vertex 1.50558 4.44045 1.5
    endloop
  endfacet
  facet normal 0 0 1
    outer loop
      vertex 8.15 8.65 1.5
      vertex 0.900999 4.5 1.5
      vertex 1.20475 4.48508 1.5
    endloop
  endfacet
  facet normal 0 0 1
    outer loop
      vertex 8.15 8.65 1.5
      vertex -0.900999 4.5 1.5
      vertex 0.900999 4.5 1.5
    endloop
  endfacet
  facet normal -0 0 1
    outer loop
      vertex -8.15 8.65 1.5
      vertex -0.900999 4.5 1.5
      vertex 8.15 8.65 1.5
    endloop
  endfacet
  facet normal 0 0 1
    outer loop
      vertex -0.900999 4.5 1.5
      vertex -8.15 8.65 1.5
      vertex -1.20475 4.48508 1.5
    endloop
  endfacet
  facet normal 0 0 1
    outer loop
      vertex -1.20475 4.48508 1.5
      vertex -8.15 8.65 1.5
      vertex -1.50558 4.44045 1.5
    endloop
  endfacet
  facet normal 0 0 1
    outer loop
      vertex -1.50558 4.44045 1.5
      vertex -8.15 8.65 1.5
      vertex -1.80059 4.36656 1.5
    endloop
  endfacet
  facet normal 0 0 1
    outer loop
      vertex -3.98508 1.70475 1.5
      vertex -8.15 8.65 1.5
      vertex -4 1.401 1.5
    endloop
  endfacet
  facet normal 0 0 1
    outer loop
      vertex -3.94045 2.00558 1.5
      vertex -8.15 8.65 1.5
      vertex -3.98508 1.70475 1.5
    endloop
  endfacet
  facet normal 0 0 1
    outer loop
      vertex -3.86656 2.30059 1.5
      vertex -8.15 8.65 1.5
      vertex -3.94045 2.00558 1.5
    endloop
  endfacet
  facet normal 0 0 1
    outer loop
      vertex -3.7641 2.58694 1.5
      vertex -8.15 8.65 1.5
      vertex -3.86656 2.30059 1.5
    endloop
  endfacet
  facet normal 0 0 1
    outer loop
      vertex -3.63407 2.86186 1.5
      vertex -8.15 8.65 1.5
      vertex -3.7641 2.58694 1.5
    endloop
  endfacet
  facet normal 0 0 1
    outer loop
      vertex -3.47772 3.12271 1.5
      vertex -8.15 8.65 1.5
      vertex -3.63407 2.86186 1.5
    endloop
  endfacet
  facet normal 0 0 1
    outer loop
      vertex -3.29656 3.36698 1.5
      vertex -8.15 8.65 1.5
      vertex -3.47772 3.12271 1.5
    endloop
  endfacet
  facet normal 0 0 1
    outer loop
      vertex -3.09232 3.59232 1.5
      vertex -8.15 8.65 1.5
      vertex -3.29656 3.36698 1.5
    endloop
  endfacet
  facet normal 0 0 1
    outer loop
      vertex -2.86698 3.79656 1.5
      vertex -8.15 8.65 1.5
      vertex -3.09232 3.59232 1.5
    endloop
  endfacet
  facet normal 0 0 1
    outer loop
      vertex -2.62271 3.97772 1.5
      vertex -8.15 8.65 1.5
      vertex -2.86698 3.79656 1.5
    endloop
  endfacet
  facet normal 0 0 1
    outer loop
      vertex -2.36186 4.13407 1.5
      vertex -8.15 8.65 1.5
      vertex -2.62271 3.97772 1.5
    endloop
  endfacet
  facet normal 0 0 1
    outer loop
      vertex -2.08694 4.2641 1.5
      vertex -8.15 8.65 1.5
      vertex -2.36186 4.13407 1.5
    endloop
  endfacet
  facet normal 0 0 1
    outer loop
      vertex -1.80059 4.36656 1.5
      vertex -8.15 8.65 1.5
      vertex -2.08694 4.2641 1.5
    endloop
  endfacet
  facet normal 0 0 1
    outer loop
      vertex 8.15 8.65 1.5
      vertex 3.98508 1.09724 1.5
      vertex 8.15 -8.65 1.5
    endloop
  endfacet
  facet normal -0 0 1
    outer loop
      vertex 3.94045 0.796414 1.5
      vertex 8.15 -8.65 1.5
      vertex 3.98508 1.09724 1.5
    endloop
  endfacet
  facet normal -0 0 1
    outer loop
      vertex 3.86656 0.501408 1.5
      vertex 8.15 -8.65 1.5
      vertex 3.94045 0.796414 1.5
    endloop
  endfacet
  facet normal -0 0 1
    outer loop
      vertex 2.96656 -2.30059 1.5
      vertex 8.15 -8.65 1.5
      vertex 3.86656 0.501408 1.5
    endloop
  endfacet
  facet normal -0 0 1
    outer loop
      vertex 2.8641 -2.58694 1.5
      vertex 8.15 -8.65 1.5
      vertex 2.96656 -2.30059 1.5
    endloop
  endfacet
  facet normal -0 0 1
    outer loop
      vertex 2.73407 -2.86186 1.5
      vertex 8.15 -8.65 1.5
      vertex 2.8641 -2.58694 1.5
    endloop
  endfacet
  facet normal -0 0 1
    outer loop
      vertex 2.57772 -3.12271 1.5
      vertex 8.15 -8.65 1.5
      vertex 2.73407 -2.86186 1.5
    endloop
  endfacet
  facet normal -0 0 1
    outer loop
      vertex 2.39656 -3.36698 1.5
      vertex 8.15 -8.65 1.5
      vertex 2.57772 -3.12271 1.5
    endloop
  endfacet
  facet normal -0 0 1
    outer loop
      vertex 2.19232 -3.59232 1.5
      vertex 8.15 -8.65 1.5
      vertex 2.39656 -3.36698 1.5
    endloop
  endfacet
  facet normal -0 0 1
    outer loop
      vertex 1.96698 -3.79656 1.5
      vertex 8.15 -8.65 1.5
      vertex 2.19232 -3.59232 1.5
    endloop
  endfacet
  facet normal -0 0 1
    outer loop
      vertex 1.72271 -3.97772 1.5
      vertex 8.15 -8.65 1.5
      vertex 1.96698 -3.79656 1.5
    endloop
  endfacet
  facet normal -0 0 1
    outer loop
      vertex 1.46186 -4.13407 1.5
      vertex 8.15 -8.65 1.5
      vertex 1.72271 -3.97772 1.5
    endloop
  endfacet
  facet normal -0 0 1
    outer loop
      vertex 1.18694 -4.2641 1.5
      vertex 8.15 -8.65 1.5
      vertex 1.46186 -4.13407 1.5
    endloop
  endfacet
  facet normal -0 0 1
    outer loop
      vertex 0.900592 -4.36656 1.5
      vertex 8.15 -8.65 1.5
      vertex 1.18694 -4.2641 1.5
    endloop
  endfacet
  facet normal -0 0 1
    outer loop
      vertex 0.605584 -4.44045 1.5
      vertex 8.15 -8.65 1.5
      vertex 0.900592 -4.36656 1.5
    endloop
  endfacet
  facet normal -0 0 1
    outer loop
      vertex 0.304754 -4.48508 1.5
      vertex 8.15 -8.65 1.5
      vertex 0.605584 -4.44045 1.5
    endloop
  endfacet
  facet normal -0 0 1
    outer loop
      vertex 0.000999451 -4.5 1.5
      vertex 8.15 -8.65 1.5
      vertex 0.304754 -4.48508 1.5
    endloop
  endfacet
  facet normal -0 0 1
    outer loop
      vertex -0.000999451 -4.5 1.5
      vertex 8.15 -8.65 1.5
      vertex 0.000999451 -4.5 1.5
    endloop
  endfacet
  facet normal 0 0 1
    outer loop
      vertex -8.15 -8.65 1.5
      vertex -0.000999451 -4.5 1.5
      vertex -0.304754 -4.48508 1.5
    endloop
  endfacet
  facet normal 0 0 1
    outer loop
      vertex -8.15 -8.65 1.5
      vertex -0.304754 -4.48508 1.5
      vertex -0.605584 -4.44045 1.5
    endloop
  endfacet
  facet normal 0 0 1
    outer loop
      vertex -8.15 -8.65 1.5
      vertex -0.605584 -4.44045 1.5
      vertex -0.900592 -4.36656 1.5
    endloop
  endfacet
  facet normal 0 0 1
    outer loop
      vertex -8.15 -8.65 1.5
      vertex -0.900592 -4.36656 1.5
      vertex -1.18694 -4.2641 1.5
    endloop
  endfacet
  facet normal 0 0 1
    outer loop
      vertex -8.15 8.65 1.5
      vertex -3.98508 1.09724 1.5
      vertex -4 1.401 1.5
    endloop
  endfacet
  facet normal 0 0 1
    outer loop
      vertex -8.15 -8.65 1.5
      vertex -3.98508 1.09724 1.5
      vertex -8.15 8.65 1.5
    endloop
  endfacet
  facet normal 0 0 1
    outer loop
      vertex -3.98508 1.09724 1.5
      vertex -8.15 -8.65 1.5
      vertex -3.94045 0.796414 1.5
    endloop
  endfacet
  facet normal 0 0 1
    outer loop
      vertex -3.94045 0.796414 1.5
      vertex -8.15 -8.65 1.5
      vertex -3.86656 0.501408 1.5
    endloop
  endfacet
  facet normal 0 0 1
    outer loop
      vertex -3.86656 0.501408 1.5
      vertex -8.15 -8.65 1.5
      vertex -2.96656 -2.30059 1.5
    endloop
  endfacet
  facet normal 0 0 1
    outer loop
      vertex -0.000999451 -4.5 1.5
      vertex -8.15 -8.65 1.5
      vertex 8.15 -8.65 1.5
    endloop
  endfacet
  facet normal 0 0 1
    outer loop
      vertex -1.46186 -4.13407 1.5
      vertex -8.15 -8.65 1.5
      vertex -1.18694 -4.2641 1.5
    endloop
  endfacet
  facet normal 0 0 1
    outer loop
      vertex -1.72271 -3.97772 1.5
      vertex -8.15 -8.65 1.5
      vertex -1.46186 -4.13407 1.5
    endloop
  endfacet
  facet normal 0 0 1
    outer loop
      vertex -1.96698 -3.79656 1.5
      vertex -8.15 -8.65 1.5
      vertex -1.72271 -3.97772 1.5
    endloop
  endfacet
  facet normal 0 0 1
    outer loop
      vertex -2.19232 -3.59232 1.5
      vertex -8.15 -8.65 1.5
      vertex -1.96698 -3.79656 1.5
    endloop
  endfacet
  facet normal 0 0 1
    outer loop
      vertex -2.39656 -3.36698 1.5
      vertex -8.15 -8.65 1.5
      vertex -2.19232 -3.59232 1.5
    endloop
  endfacet
  facet normal 0 0 1
    outer loop
      vertex -2.57772 -3.12271 1.5
      vertex -8.15 -8.65 1.5
      vertex -2.39656 -3.36698 1.5
    endloop
  endfacet
  facet normal 0 0 1
    outer loop
      vertex -2.73407 -2.86186 1.5
      vertex -8.15 -8.65 1.5
      vertex -2.57772 -3.12271 1.5
    endloop
  endfacet
  facet normal 0 0 1
    outer loop
      vertex -2.8641 -2.58694 1.5
      vertex -8.15 -8.65 1.5
      vertex -2.73407 -2.86186 1.5
    endloop
  endfacet
  facet normal 0 0 1
    outer loop
      vertex -2.96656 -2.30059 1.5
      vertex -8.15 -8.65 1.5
      vertex -2.8641 -2.58694 1.5
    endloop
  endfacet
  facet normal 0 0 -1
    outer loop
      vertex -8.15 -8.65 0
      vertex 8.15 8.65 0
      vertex 8.15 -8.65 0
    endloop
  endfacet
  facet normal -0 0 -1
    outer loop
      vertex 8.15 8.65 0
      vertex -8.15 -8.65 0
      vertex -8.15 8.65 0
    endloop
  endfacet
  facet normal -1 0 0
    outer loop
      vertex -8.15 -8.65 0
      vertex -8.15 8.65 1.5
      vertex -8.15 8.65 0
    endloop
  endfacet
  facet normal -1 -0 0
    outer loop
      vertex -8.15 8.65 1.5
      vertex -8.15 -8.65 0
      vertex -8.15 -8.65 1.5
    endloop
  endfacet
  facet normal 0 1 -0
    outer loop
      vertex 8.15 8.65 0
      vertex -8.15 8.65 1.5
      vertex 8.15 8.65 1.5
    endloop
  endfacet
  facet normal 0 1 0
    outer loop
      vertex -8.15 8.65 1.5
      vertex 8.15 8.65 0
      vertex -8.15 8.65 0
    endloop
  endfacet
  facet normal 0 -1 0
    outer loop
      vertex -8.15 -8.65 0
      vertex 8.15 -8.65 1.5
      vertex -8.15 -8.65 1.5
    endloop
  endfacet
  facet normal 0 -1 -0
    outer loop
      vertex 8.15 -8.65 1.5
      vertex -8.15 -8.65 0
      vertex 8.15 -8.65 0
    endloop
  endfacet
  facet normal -0.989173 -0.146752 3.05314e-19
    outer loop
      vertex -3.94045 0.796414 1.5
      vertex -3.98508 1.09724 6.5
      vertex -3.98508 1.09724 1.5
    endloop
  endfacet
  facet normal -0.989173 -0.146752 3.05314e-19
    outer loop
      vertex -3.98508 1.09724 6.5
      vertex -3.94045 0.796414 1.5
      vertex -3.94045 0.796414 6.5
    endloop
  endfacet
  facet normal 0 -1 0
    outer loop
      vertex -0.000999451 -4.5 1.5
      vertex 0.000999451 -4.5 6.5
      vertex -0.000999451 -4.5 6.5
    endloop
  endfacet
  facet normal 0 -1 -0
    outer loop
      vertex 0.000999451 -4.5 6.5
      vertex -0.000999451 -4.5 1.5
      vertex 0.000999451 -4.5 1.5
    endloop
  endfacet
  facet normal -0.04906 0.998796 0
    outer loop
      vertex -0.900999 4.5 1.5
      vertex -1.20475 4.48508 6.5
      vertex -0.900999 4.5 6.5
    endloop
  endfacet
  facet normal -0.04906 0.998796 0
    outer loop
      vertex -1.20475 4.48508 6.5
      vertex -0.900999 4.5 1.5
      vertex -1.20475 4.48508 1.5
    endloop
  endfacet
  facet normal -0.0490595 -0.998796 0
    outer loop
      vertex -0.304754 -4.48508 1.5
      vertex -0.000999451 -4.5 6.5
      vertex -0.304754 -4.48508 6.5
    endloop
  endfacet
  facet normal -0.0490595 -0.998796 -0
    outer loop
      vertex -0.000999451 -4.5 6.5
      vertex -0.304754 -4.48508 1.5
      vertex -0.000999451 -4.5 1.5
    endloop
  endfacet
  facet normal -0.998796 -0.0490586 2.63598e-19
    outer loop
      vertex -3.98508 1.09724 1.5
      vertex -4 1.401 6.5
      vertex -4 1.401 1.5
    endloop
  endfacet
  facet normal -0.998796 -0.0490586 2.63598e-19
    outer loop
      vertex -4 1.401 6.5
      vertex -3.98508 1.09724 1.5
      vertex -3.98508 1.09724 6.5
    endloop
  endfacet
  facet normal 0.595693 0.803212 -0
    outer loop
      vertex 2.86698 3.79656 1.5
      vertex 2.62271 3.97772 6.5
      vertex 2.86698 3.79656 6.5
    endloop
  endfacet
  facet normal 0.595693 0.803212 0
    outer loop
      vertex 2.62271 3.97772 6.5
      vertex 2.86698 3.79656 1.5
      vertex 2.62271 3.97772 1.5
    endloop
  endfacet
  facet normal 0.740945 0.671566 -7.81358e-19
    outer loop
      vertex 3.29656 3.36698 6.5
      vertex 3.09232 3.59232 1.5
      vertex 3.09232 3.59232 6.5
    endloop
  endfacet
  facet normal 0.740945 0.671566 -7.81358e-19
    outer loop
      vertex 3.09232 3.59232 1.5
      vertex 3.29656 3.36698 6.5
      vertex 3.29656 3.36698 1.5
    endloop
  endfacet
  facet normal -0.242961 0.970036 0
    outer loop
      vertex -1.50558 4.44045 1.5
      vertex -1.80059 4.36656 6.5
      vertex -1.50558 4.44045 6.5
    endloop
  endfacet
  facet normal -0.242961 0.970036 0
    outer loop
      vertex -1.80059 4.36656 6.5
      vertex -1.50558 4.44045 1.5
      vertex -1.80059 4.36656 1.5
    endloop
  endfacet
  facet normal 0.671566 -0.740945 0
    outer loop
      vertex 1.96698 -3.79656 1.5
      vertex 2.19232 -3.59232 6.5
      vertex 1.96698 -3.79656 6.5
    endloop
  endfacet
  facet normal 0.671566 -0.740945 0
    outer loop
      vertex 2.19232 -3.59232 6.5
      vertex 1.96698 -3.79656 1.5
      vertex 2.19232 -3.59232 1.5
    endloop
  endfacet
  facet normal -0.336897 0.941542 0
    outer loop
      vertex -1.80059 4.36656 1.5
      vertex -2.08694 4.2641 6.5
      vertex -1.80059 4.36656 6.5
    endloop
  endfacet
  facet normal -0.336897 0.941542 0
    outer loop
      vertex -2.08694 4.2641 6.5
      vertex -1.80059 4.36656 1.5
      vertex -2.08694 4.2641 1.5
    endloop
  endfacet
  facet normal -0.970036 0.242961 -2.26963e-19
    outer loop
      vertex -3.94045 2.00558 1.5
      vertex -3.86656 2.30059 6.5
      vertex -3.86656 2.30059 1.5
    endloop
  endfacet
  facet normal -0.970036 0.242961 -2.26963e-19
    outer loop
      vertex -3.86656 2.30059 6.5
      vertex -3.94045 2.00558 1.5
      vertex -3.94045 2.00558 6.5
    endloop
  endfacet
  facet normal -0.903986 -0.427562 1.48717e-18
    outer loop
      vertex -2.73407 -2.86186 1.5
      vertex -2.8641 -2.58694 6.5
      vertex -2.8641 -2.58694 1.5
    endloop
  endfacet
  facet normal -0.903986 -0.427562 1.48717e-18
    outer loop
      vertex -2.8641 -2.58694 6.5
      vertex -2.73407 -2.86186 1.5
      vertex -2.73407 -2.86186 6.5
    endloop
  endfacet
  facet normal -0.740945 -0.671566 -7.81358e-19
    outer loop
      vertex -2.19232 -3.59232 1.5
      vertex -2.39656 -3.36698 6.5
      vertex -2.39656 -3.36698 1.5
    endloop
  endfacet
  facet normal -0.740945 -0.671566 -7.81358e-19
    outer loop
      vertex -2.39656 -3.36698 6.5
      vertex -2.19232 -3.59232 1.5
      vertex -2.19232 -3.59232 6.5
    endloop
  endfacet
  facet normal -0.595693 -0.803212 0
    outer loop
      vertex -1.96698 -3.79656 1.5
      vertex -1.72271 -3.97772 6.5
      vertex -1.96698 -3.79656 6.5
    endloop
  endfacet
  facet normal -0.595693 -0.803212 -0
    outer loop
      vertex -1.72271 -3.97772 6.5
      vertex -1.96698 -3.79656 1.5
      vertex -1.72271 -3.97772 1.5
    endloop
  endfacet
  facet normal 0.952092 -0.305811 1.33272e-17
    outer loop
      vertex 2.96656 -2.30059 6.5
      vertex 3.86656 0.501408 1.5
      vertex 3.86656 0.501408 6.5
    endloop
  endfacet
  facet normal 0.952092 -0.305811 1.33272e-17
    outer loop
      vertex 3.86656 0.501408 1.5
      vertex 2.96656 -2.30059 6.5
      vertex 2.96656 -2.30059 1.5
    endloop
  endfacet
  facet normal -0.14675 0.989174 0
    outer loop
      vertex -1.20475 4.48508 1.5
      vertex -1.50558 4.44045 6.5
      vertex -1.20475 4.48508 6.5
    endloop
  endfacet
  facet normal -0.14675 0.989174 0
    outer loop
      vertex -1.50558 4.44045 6.5
      vertex -1.20475 4.48508 1.5
      vertex -1.50558 4.44045 1.5
    endloop
  endfacet
  facet normal -0.671566 -0.740945 0
    outer loop
      vertex -2.19232 -3.59232 1.5
      vertex -1.96698 -3.79656 6.5
      vertex -2.19232 -3.59232 6.5
    endloop
  endfacet
  facet normal -0.671566 -0.740945 -0
    outer loop
      vertex -1.96698 -3.79656 6.5
      vertex -2.19232 -3.59232 1.5
      vertex -1.96698 -3.79656 1.5
    endloop
  endfacet
  facet normal 0.970035 -0.242964 9.48943e-19
    outer loop
      vertex 3.86656 0.501408 6.5
      vertex 3.94045 0.796414 1.5
      vertex 3.94045 0.796414 6.5
    endloop
  endfacet
  facet normal 0.970035 -0.242964 9.48943e-19
    outer loop
      vertex 3.94045 0.796414 1.5
      vertex 3.86656 0.501408 6.5
      vertex 3.86656 0.501408 1.5
    endloop
  endfacet
  facet normal 0.671566 0.740945 -0
    outer loop
      vertex 3.09232 3.59232 1.5
      vertex 2.86698 3.79656 6.5
      vertex 3.09232 3.59232 6.5
    endloop
  endfacet
  facet normal 0.671566 0.740945 0
    outer loop
      vertex 2.86698 3.79656 6.5
      vertex 3.09232 3.59232 1.5
      vertex 2.86698 3.79656 1.5
    endloop
  endfacet
  facet normal 0.970036 0.242961 2.26963e-19
    outer loop
      vertex 3.94045 2.00558 6.5
      vertex 3.86656 2.30059 1.5
      vertex 3.86656 2.30059 6.5
    endloop
  endfacet
  facet normal 0.970036 0.242961 2.26963e-19
    outer loop
      vertex 3.86656 2.30059 1.5
      vertex 3.94045 2.00558 6.5
      vertex 3.94045 2.00558 1.5
    endloop
  endfacet
  facet normal 0.14675 0.989174 -0
    outer loop
      vertex 1.50558 4.44045 1.5
      vertex 1.20475 4.48508 6.5
      vertex 1.50558 4.44045 6.5
    endloop
  endfacet
  facet normal 0.14675 0.989174 0
    outer loop
      vertex 1.20475 4.48508 6.5
      vertex 1.50558 4.44045 1.5
      vertex 1.20475 4.48508 1.5
    endloop
  endfacet
  facet normal -0.242963 -0.970036 0
    outer loop
      vertex -0.900592 -4.36656 1.5
      vertex -0.605584 -4.44045 6.5
      vertex -0.900592 -4.36656 6.5
    endloop
  endfacet
  facet normal -0.242963 -0.970036 -0
    outer loop
      vertex -0.605584 -4.44045 6.5
      vertex -0.900592 -4.36656 1.5
      vertex -0.605584 -4.44045 1.5
    endloop
  endfacet
  facet normal 0.998796 -0.0490586 -2.63598e-19
    outer loop
      vertex 3.98508 1.09724 6.5
      vertex 4 1.401 1.5
      vertex 4 1.401 6.5
    endloop
  endfacet
  facet normal 0.998796 -0.0490586 -2.63598e-19
    outer loop
      vertex 4 1.401 1.5
      vertex 3.98508 1.09724 6.5
      vertex 3.98508 1.09724 1.5
    endloop
  endfacet
  facet normal -0.14675 -0.989174 0
    outer loop
      vertex -0.605584 -4.44045 1.5
      vertex -0.304754 -4.48508 6.5
      vertex -0.605584 -4.44045 6.5
    endloop
  endfacet
  facet normal -0.14675 -0.989174 -0
    outer loop
      vertex -0.304754 -4.48508 6.5
      vertex -0.605584 -4.44045 1.5
      vertex -0.304754 -4.48508 1.5
    endloop
  endfacet
  facet normal 0.941542 -0.336897 3.96941e-21
    outer loop
      vertex 2.8641 -2.58694 6.5
      vertex 2.96656 -2.30059 1.5
      vertex 2.96656 -2.30059 6.5
    endloop
  endfacet
  facet normal 0.941542 -0.336897 3.96941e-21
    outer loop
      vertex 2.96656 -2.30059 1.5
      vertex 2.8641 -2.58694 6.5
      vertex 2.8641 -2.58694 1.5
    endloop
  endfacet
  facet normal 0.0490595 -0.998796 0
    outer loop
      vertex 0.000999451 -4.5 1.5
      vertex 0.304754 -4.48508 6.5
      vertex 0.000999451 -4.5 6.5
    endloop
  endfacet
  facet normal 0.0490595 -0.998796 0
    outer loop
      vertex 0.304754 -4.48508 6.5
      vertex 0.000999451 -4.5 1.5
      vertex 0.304754 -4.48508 1.5
    endloop
  endfacet
  facet normal 0.803212 0.595693 -1.59128e-18
    outer loop
      vertex 3.47772 3.12271 6.5
      vertex 3.29656 3.36698 1.5
      vertex 3.29656 3.36698 6.5
    endloop
  endfacet
  facet normal 0.803212 0.595693 -1.59128e-18
    outer loop
      vertex 3.29656 3.36698 1.5
      vertex 3.47772 3.12271 6.5
      vertex 3.47772 3.12271 1.5
    endloop
  endfacet
  facet normal 0.14675 -0.989174 0
    outer loop
      vertex 0.304754 -4.48508 1.5
      vertex 0.605584 -4.44045 6.5
      vertex 0.304754 -4.48508 6.5
    endloop
  endfacet
  facet normal 0.14675 -0.989174 0
    outer loop
      vertex 0.605584 -4.44045 6.5
      vertex 0.304754 -4.48508 1.5
      vertex 0.605584 -4.44045 1.5
    endloop
  endfacet
  facet normal 0.336899 -0.941541 0
    outer loop
      vertex 0.900592 -4.36656 1.5
      vertex 1.18694 -4.2641 6.5
      vertex 0.900592 -4.36656 6.5
    endloop
  endfacet
  facet normal 0.336899 -0.941541 0
    outer loop
      vertex 1.18694 -4.2641 6.5
      vertex 0.900592 -4.36656 1.5
      vertex 1.18694 -4.2641 1.5
    endloop
  endfacet
  facet normal -0.857725 0.514109 -2.75719e-19
    outer loop
      vertex -3.63407 2.86186 1.5
      vertex -3.47772 3.12271 6.5
      vertex -3.47772 3.12271 1.5
    endloop
  endfacet
  facet normal -0.857725 0.514109 -2.75719e-19
    outer loop
      vertex -3.47772 3.12271 6.5
      vertex -3.63407 2.86186 1.5
      vertex -3.63407 2.86186 6.5
    endloop
  endfacet
  facet normal 0.989174 0.14675 1.15034e-19
    outer loop
      vertex 3.98508 1.70475 6.5
      vertex 3.94045 2.00558 1.5
      vertex 3.94045 2.00558 6.5
    endloop
  endfacet
  facet normal 0.989174 0.14675 1.15034e-19
    outer loop
      vertex 3.94045 2.00558 1.5
      vertex 3.98508 1.70475 6.5
      vertex 3.98508 1.70475 1.5
    endloop
  endfacet
  facet normal 0.427562 0.903986 -0
    outer loop
      vertex 2.36186 4.13407 1.5
      vertex 2.08694 4.2641 6.5
      vertex 2.36186 4.13407 6.5
    endloop
  endfacet
  facet normal 0.427562 0.903986 0
    outer loop
      vertex 2.08694 4.2641 6.5
      vertex 2.36186 4.13407 1.5
      vertex 2.08694 4.2641 1.5
    endloop
  endfacet
  facet normal 0 1 -0
    outer loop
      vertex 0.900999 4.5 1.5
      vertex -0.900999 4.5 6.5
      vertex 0.900999 4.5 6.5
    endloop
  endfacet
  facet normal 0 1 0
    outer loop
      vertex -0.900999 4.5 6.5
      vertex 0.900999 4.5 1.5
      vertex -0.900999 4.5 1.5
    endloop
  endfacet
  facet normal 0.514109 0.857725 -0
    outer loop
      vertex 2.62271 3.97772 1.5
      vertex 2.36186 4.13407 6.5
      vertex 2.62271 3.97772 6.5
    endloop
  endfacet
  facet normal 0.514109 0.857725 0
    outer loop
      vertex 2.36186 4.13407 6.5
      vertex 2.62271 3.97772 1.5
      vertex 2.36186 4.13407 1.5
    endloop
  endfacet
  facet normal -0.941542 -0.336897 -3.96941e-21
    outer loop
      vertex -2.8641 -2.58694 1.5
      vertex -2.96656 -2.30059 6.5
      vertex -2.96656 -2.30059 1.5
    endloop
  endfacet
  facet normal -0.941542 -0.336897 -3.96941e-21
    outer loop
      vertex -2.96656 -2.30059 6.5
      vertex -2.8641 -2.58694 1.5
      vertex -2.8641 -2.58694 6.5
    endloop
  endfacet
  facet normal 0.903986 0.427562 1.48717e-18
    outer loop
      vertex 3.7641 2.58694 6.5
      vertex 3.63407 2.86186 1.5
      vertex 3.63407 2.86186 6.5
    endloop
  endfacet
  facet normal 0.903986 0.427562 1.48717e-18
    outer loop
      vertex 3.63407 2.86186 1.5
      vertex 3.7641 2.58694 6.5
      vertex 3.7641 2.58694 1.5
    endloop
  endfacet
  facet normal -0.740945 0.671566 7.81358e-19
    outer loop
      vertex -3.29656 3.36698 1.5
      vertex -3.09232 3.59232 6.5
      vertex -3.09232 3.59232 1.5
    endloop
  endfacet
  facet normal -0.740945 0.671566 7.81358e-19
    outer loop
      vertex -3.09232 3.59232 6.5
      vertex -3.29656 3.36698 1.5
      vertex -3.29656 3.36698 6.5
    endloop
  endfacet
  facet normal -0.803212 0.595693 1.59128e-18
    outer loop
      vertex -3.47772 3.12271 1.5
      vertex -3.29656 3.36698 6.5
      vertex -3.29656 3.36698 1.5
    endloop
  endfacet
  facet normal -0.803212 0.595693 1.59128e-18
    outer loop
      vertex -3.29656 3.36698 6.5
      vertex -3.47772 3.12271 1.5
      vertex -3.47772 3.12271 6.5
    endloop
  endfacet
  facet normal -0.941542 0.336897 -7.88189e-19
    outer loop
      vertex -3.86656 2.30059 1.5
      vertex -3.7641 2.58694 6.5
      vertex -3.7641 2.58694 1.5
    endloop
  endfacet
  facet normal -0.941542 0.336897 -7.88189e-19
    outer loop
      vertex -3.7641 2.58694 6.5
      vertex -3.86656 2.30059 1.5
      vertex -3.86656 2.30059 6.5
    endloop
  endfacet
  facet normal 0.989173 -0.146752 -3.05314e-19
    outer loop
      vertex 3.94045 0.796414 6.5
      vertex 3.98508 1.09724 1.5
      vertex 3.98508 1.09724 6.5
    endloop
  endfacet
  facet normal 0.989173 -0.146752 -3.05314e-19
    outer loop
      vertex 3.98508 1.09724 1.5
      vertex 3.94045 0.796414 6.5
      vertex 3.94045 0.796414 1.5
    endloop
  endfacet
  facet normal -0.595693 0.803212 0
    outer loop
      vertex -2.62271 3.97772 1.5
      vertex -2.86698 3.79656 6.5
      vertex -2.62271 3.97772 6.5
    endloop
  endfacet
  facet normal -0.595693 0.803212 0
    outer loop
      vertex -2.86698 3.79656 6.5
      vertex -2.62271 3.97772 1.5
      vertex -2.86698 3.79656 1.5
    endloop
  endfacet
  facet normal -0.989174 0.14675 -1.15034e-19
    outer loop
      vertex -3.98508 1.70475 1.5
      vertex -3.94045 2.00558 6.5
      vertex -3.94045 2.00558 1.5
    endloop
  endfacet
  facet normal -0.989174 0.14675 -1.15034e-19
    outer loop
      vertex -3.94045 2.00558 6.5
      vertex -3.98508 1.70475 1.5
      vertex -3.98508 1.70475 6.5
    endloop
  endfacet
  facet normal -0.998796 0.0490602 3.92883e-20
    outer loop
      vertex -4 1.401 1.5
      vertex -3.98508 1.70475 6.5
      vertex -3.98508 1.70475 1.5
    endloop
  endfacet
  facet normal -0.998796 0.0490602 3.92883e-20
    outer loop
      vertex -3.98508 1.70475 6.5
      vertex -4 1.401 1.5
      vertex -4 1.401 6.5
    endloop
  endfacet
  facet normal -0.427562 0.903986 0
    outer loop
      vertex -2.08694 4.2641 1.5
      vertex -2.36186 4.13407 6.5
      vertex -2.08694 4.2641 6.5
    endloop
  endfacet
  facet normal -0.427562 0.903986 0
    outer loop
      vertex -2.36186 4.13407 6.5
      vertex -2.08694 4.2641 1.5
      vertex -2.36186 4.13407 1.5
    endloop
  endfacet
  facet normal 0.857725 0.514109 2.75719e-19
    outer loop
      vertex 3.63407 2.86186 6.5
      vertex 3.47772 3.12271 1.5
      vertex 3.47772 3.12271 6.5
    endloop
  endfacet
  facet normal 0.857725 0.514109 2.75719e-19
    outer loop
      vertex 3.47772 3.12271 1.5
      vertex 3.63407 2.86186 6.5
      vertex 3.63407 2.86186 1.5
    endloop
  endfacet
  facet normal 0.336897 0.941542 -0
    outer loop
      vertex 2.08694 4.2641 1.5
      vertex 1.80059 4.36656 6.5
      vertex 2.08694 4.2641 6.5
    endloop
  endfacet
  facet normal 0.336897 0.941542 0
    outer loop
      vertex 1.80059 4.36656 6.5
      vertex 2.08694 4.2641 1.5
      vertex 1.80059 4.36656 1.5
    endloop
  endfacet
  facet normal 0.998796 0.0490602 -3.92883e-20
    outer loop
      vertex 4 1.401 6.5
      vertex 3.98508 1.70475 1.5
      vertex 3.98508 1.70475 6.5
    endloop
  endfacet
  facet normal 0.998796 0.0490602 -3.92883e-20
    outer loop
      vertex 3.98508 1.70475 1.5
      vertex 4 1.401 6.5
      vertex 4 1.401 1.5
    endloop
  endfacet
  facet normal 0.04906 0.998796 -0
    outer loop
      vertex 1.20475 4.48508 1.5
      vertex 0.900999 4.5 6.5
      vertex 1.20475 4.48508 6.5
    endloop
  endfacet
  facet normal 0.04906 0.998796 0
    outer loop
      vertex 0.900999 4.5 6.5
      vertex 1.20475 4.48508 1.5
      vertex 0.900999 4.5 1.5
    endloop
  endfacet
  facet normal -0.952092 -0.305811 -1.33272e-17
    outer loop
      vertex -2.96656 -2.30059 1.5
      vertex -3.86656 0.501408 6.5
      vertex -3.86656 0.501408 1.5
    endloop
  endfacet
  facet normal -0.952092 -0.305811 -1.33272e-17
    outer loop
      vertex -3.86656 0.501408 6.5
      vertex -2.96656 -2.30059 1.5
      vertex -2.96656 -2.30059 6.5
    endloop
  endfacet
  facet normal 0.903986 -0.427562 -1.48717e-18
    outer loop
      vertex 2.73407 -2.86186 6.5
      vertex 2.8641 -2.58694 1.5
      vertex 2.8641 -2.58694 6.5
    endloop
  endfacet
  facet normal 0.903986 -0.427562 -1.48717e-18
    outer loop
      vertex 2.8641 -2.58694 1.5
      vertex 2.73407 -2.86186 6.5
      vertex 2.73407 -2.86186 1.5
    endloop
  endfacet
  facet normal 0.803212 -0.595693 -1.29858e-18
    outer loop
      vertex 2.39656 -3.36698 6.5
      vertex 2.57772 -3.12271 1.5
      vertex 2.57772 -3.12271 6.5
    endloop
  endfacet
  facet normal 0.803212 -0.595693 -1.29858e-18
    outer loop
      vertex 2.57772 -3.12271 1.5
      vertex 2.39656 -3.36698 6.5
      vertex 2.39656 -3.36698 1.5
    endloop
  endfacet
  facet normal -0.857725 -0.514109 1.67026e-18
    outer loop
      vertex -2.57772 -3.12271 1.5
      vertex -2.73407 -2.86186 6.5
      vertex -2.73407 -2.86186 1.5
    endloop
  endfacet
  facet normal -0.857725 -0.514109 1.67026e-18
    outer loop
      vertex -2.73407 -2.86186 6.5
      vertex -2.57772 -3.12271 1.5
      vertex -2.57772 -3.12271 6.5
    endloop
  endfacet
  facet normal -0.336899 -0.941541 0
    outer loop
      vertex -1.18694 -4.2641 1.5
      vertex -0.900592 -4.36656 6.5
      vertex -1.18694 -4.2641 6.5
    endloop
  endfacet
  facet normal -0.336899 -0.941541 -0
    outer loop
      vertex -0.900592 -4.36656 6.5
      vertex -1.18694 -4.2641 1.5
      vertex -0.900592 -4.36656 1.5
    endloop
  endfacet
  facet normal 0.242961 0.970036 -0
    outer loop
      vertex 1.80059 4.36656 1.5
      vertex 1.50558 4.44045 6.5
      vertex 1.80059 4.36656 6.5
    endloop
  endfacet
  facet normal 0.242961 0.970036 0
    outer loop
      vertex 1.50558 4.44045 6.5
      vertex 1.80059 4.36656 1.5
      vertex 1.50558 4.44045 1.5
    endloop
  endfacet
  facet normal -0.514109 0.857725 0
    outer loop
      vertex -2.36186 4.13407 1.5
      vertex -2.62271 3.97772 6.5
      vertex -2.36186 4.13407 6.5
    endloop
  endfacet
  facet normal -0.514109 0.857725 0
    outer loop
      vertex -2.62271 3.97772 6.5
      vertex -2.36186 4.13407 1.5
      vertex -2.62271 3.97772 1.5
    endloop
  endfacet
  facet normal 0.427562 -0.903986 0
    outer loop
      vertex 1.18694 -4.2641 1.5
      vertex 1.46186 -4.13407 6.5
      vertex 1.18694 -4.2641 6.5
    endloop
  endfacet
  facet normal 0.427562 -0.903986 0
    outer loop
      vertex 1.46186 -4.13407 6.5
      vertex 1.18694 -4.2641 1.5
      vertex 1.46186 -4.13407 1.5
    endloop
  endfacet
  facet normal -0.903986 0.427562 -1.48717e-18
    outer loop
      vertex -3.7641 2.58694 1.5
      vertex -3.63407 2.86186 6.5
      vertex -3.63407 2.86186 1.5
    endloop
  endfacet
  facet normal -0.903986 0.427562 -1.48717e-18
    outer loop
      vertex -3.63407 2.86186 6.5
      vertex -3.7641 2.58694 1.5
      vertex -3.7641 2.58694 6.5
    endloop
  endfacet
  facet normal 0.941542 0.336897 7.88189e-19
    outer loop
      vertex 3.86656 2.30059 6.5
      vertex 3.7641 2.58694 1.5
      vertex 3.7641 2.58694 6.5
    endloop
  endfacet
  facet normal 0.941542 0.336897 7.88189e-19
    outer loop
      vertex 3.7641 2.58694 1.5
      vertex 3.86656 2.30059 6.5
      vertex 3.86656 2.30059 1.5
    endloop
  endfacet
  facet normal 0.595693 -0.803212 0
    outer loop
      vertex 1.72271 -3.97772 1.5
      vertex 1.96698 -3.79656 6.5
      vertex 1.72271 -3.97772 6.5
    endloop
  endfacet
  facet normal 0.595693 -0.803212 0
    outer loop
      vertex 1.96698 -3.79656 6.5
      vertex 1.72271 -3.97772 1.5
      vertex 1.96698 -3.79656 1.5
    endloop
  endfacet
  facet normal -0.671566 0.740945 0
    outer loop
      vertex -2.86698 3.79656 1.5
      vertex -3.09232 3.59232 6.5
      vertex -2.86698 3.79656 6.5
    endloop
  endfacet
  facet normal -0.671566 0.740945 0
    outer loop
      vertex -3.09232 3.59232 6.5
      vertex -2.86698 3.79656 1.5
      vertex -3.09232 3.59232 1.5
    endloop
  endfacet
  facet normal -0.803212 -0.595693 1.29858e-18
    outer loop
      vertex -2.39656 -3.36698 1.5
      vertex -2.57772 -3.12271 6.5
      vertex -2.57772 -3.12271 1.5
    endloop
  endfacet
  facet normal -0.803212 -0.595693 1.29858e-18
    outer loop
      vertex -2.57772 -3.12271 6.5
      vertex -2.39656 -3.36698 1.5
      vertex -2.39656 -3.36698 6.5
    endloop
  endfacet
  facet normal 0.242963 -0.970036 0
    outer loop
      vertex 0.605584 -4.44045 1.5
      vertex 0.900592 -4.36656 6.5
      vertex 0.605584 -4.44045 6.5
    endloop
  endfacet
  facet normal 0.242963 -0.970036 0
    outer loop
      vertex 0.900592 -4.36656 6.5
      vertex 0.605584 -4.44045 1.5
      vertex 0.900592 -4.36656 1.5
    endloop
  endfacet
  facet normal 0.514109 -0.857725 0
    outer loop
      vertex 1.46186 -4.13407 1.5
      vertex 1.72271 -3.97772 6.5
      vertex 1.46186 -4.13407 6.5
    endloop
  endfacet
  facet normal 0.514109 -0.857725 0
    outer loop
      vertex 1.72271 -3.97772 6.5
      vertex 1.46186 -4.13407 1.5
      vertex 1.72271 -3.97772 1.5
    endloop
  endfacet
  facet normal 0.740945 -0.671566 7.81358e-19
    outer loop
      vertex 2.19232 -3.59232 6.5
      vertex 2.39656 -3.36698 1.5
      vertex 2.39656 -3.36698 6.5
    endloop
  endfacet
  facet normal 0.740945 -0.671566 7.81358e-19
    outer loop
      vertex 2.39656 -3.36698 1.5
      vertex 2.19232 -3.59232 6.5
      vertex 2.19232 -3.59232 1.5
    endloop
  endfacet
  facet normal -0.514109 -0.857725 0
    outer loop
      vertex -1.72271 -3.97772 1.5
      vertex -1.46186 -4.13407 6.5
      vertex -1.72271 -3.97772 6.5
    endloop
  endfacet
  facet normal -0.514109 -0.857725 -0
    outer loop
      vertex -1.46186 -4.13407 6.5
      vertex -1.72271 -3.97772 1.5
      vertex -1.46186 -4.13407 1.5
    endloop
  endfacet
  facet normal -0.427562 -0.903986 0
    outer loop
      vertex -1.46186 -4.13407 1.5
      vertex -1.18694 -4.2641 6.5
      vertex -1.46186 -4.13407 6.5
    endloop
  endfacet
  facet normal -0.427562 -0.903986 -0
    outer loop
      vertex -1.18694 -4.2641 6.5
      vertex -1.46186 -4.13407 1.5
      vertex -1.18694 -4.2641 1.5
    endloop
  endfacet
  facet normal 0.857725 -0.514109 -1.67026e-18
    outer loop
      vertex 2.57772 -3.12271 6.5
      vertex 2.73407 -2.86186 1.5
      vertex 2.73407 -2.86186 6.5
    endloop
  endfacet
  facet normal 0.857725 -0.514109 -1.67026e-18
    outer loop
      vertex 2.73407 -2.86186 1.5
      vertex 2.57772 -3.12271 6.5
      vertex 2.57772 -3.12271 1.5
    endloop
  endfacet
  facet normal -0.970035 -0.242964 -9.48943e-19
    outer loop
      vertex -3.86656 0.501408 1.5
      vertex -3.94045 0.796414 6.5
      vertex -3.94045 0.796414 1.5
    endloop
  endfacet
  facet normal -0.970035 -0.242964 -9.48943e-19
    outer loop
      vertex -3.94045 0.796414 6.5
      vertex -3.86656 0.501408 1.5
      vertex -3.86656 0.501408 6.5
    endloop
  endfacet
  facet normal 0 0 1
    outer loop
      vertex 3.98508 1.70475 6.5
      vertex 3.98508 1.09724 6.5
      vertex 4 1.401 6.5
    endloop
  endfacet
  facet normal 0 0 1
    outer loop
      vertex 3.94045 2.00558 6.5
      vertex 3.98508 1.09724 6.5
      vertex 3.98508 1.70475 6.5
    endloop
  endfacet
  facet normal 0 0 1
    outer loop
      vertex 3.94045 2.00558 6.5
      vertex 3.94045 0.796414 6.5
      vertex 3.98508 1.09724 6.5
    endloop
  endfacet
  facet normal 0 0 1
    outer loop
      vertex 3.86656 2.30059 6.5
      vertex 3.94045 0.796414 6.5
      vertex 3.94045 2.00558 6.5
    endloop
  endfacet
  facet normal 0 0 1
    outer loop
      vertex 3.86656 2.30059 6.5
      vertex 3.86656 0.501408 6.5
      vertex 3.94045 0.796414 6.5
    endloop
  endfacet
  facet normal 0 0 1
    outer loop
      vertex 3.7641 2.58694 6.5
      vertex 3.86656 0.501408 6.5
      vertex 3.86656 2.30059 6.5
    endloop
  endfacet
  facet normal 0 0 1
    outer loop
      vertex 3.63407 2.86186 6.5
      vertex 3.86656 0.501408 6.5
      vertex 3.7641 2.58694 6.5
    endloop
  endfacet
  facet normal 0 0 1
    outer loop
      vertex 3.47772 3.12271 6.5
      vertex 3.86656 0.501408 6.5
      vertex 3.63407 2.86186 6.5
    endloop
  endfacet
  facet normal 0 0 1
    outer loop
      vertex 3.29656 3.36698 6.5
      vertex 3.86656 0.501408 6.5
      vertex 3.47772 3.12271 6.5
    endloop
  endfacet
  facet normal 0 0 1
    outer loop
      vertex 3.09232 3.59232 6.5
      vertex 3.86656 0.501408 6.5
      vertex 3.29656 3.36698 6.5
    endloop
  endfacet
  facet normal 0 0 1
    outer loop
      vertex 0.900999 4.5 6.5
      vertex 3.86656 0.501408 6.5
      vertex 3.09232 3.59232 6.5
    endloop
  endfacet
  facet normal 0 0 1
    outer loop
      vertex 0.900999 4.5 6.5
      vertex 3.09232 3.59232 6.5
      vertex 2.86698 3.79656 6.5
    endloop
  endfacet
  facet normal 0 0 1
    outer loop
      vertex -3.86656 0.501408 6.5
      vertex 3.86656 0.501408 6.5
      vertex 0.900999 4.5 6.5
    endloop
  endfacet
  facet normal 0 0 1
    outer loop
      vertex 3.86656 0.501408 6.5
      vertex -3.86656 0.501408 6.5
      vertex 2.96656 -2.30059 6.5
    endloop
  endfacet
  facet normal 0 0 1
    outer loop
      vertex 0.900999 4.5 6.5
      vertex 2.86698 3.79656 6.5
      vertex 2.62271 3.97772 6.5
    endloop
  endfacet
  facet normal 0 -0 1
    outer loop
      vertex -2.96656 -2.30059 6.5
      vertex 2.96656 -2.30059 6.5
      vertex -3.86656 0.501408 6.5
    endloop
  endfacet
  facet normal 0 0 1
    outer loop
      vertex 2.96656 -2.30059 6.5
      vertex -2.96656 -2.30059 6.5
      vertex 2.8641 -2.58694 6.5
    endloop
  endfacet
  facet normal 0 0 1
    outer loop
      vertex 0.900999 4.5 6.5
      vertex 2.62271 3.97772 6.5
      vertex 2.36186 4.13407 6.5
    endloop
  endfacet
  facet normal 0 0 1
    outer loop
      vertex 2.8641 -2.58694 6.5
      vertex -2.96656 -2.30059 6.5
      vertex 2.73407 -2.86186 6.5
    endloop
  endfacet
  facet normal 0 0 1
    outer loop
      vertex 0.900999 4.5 6.5
      vertex 2.36186 4.13407 6.5
      vertex 2.08694 4.2641 6.5
    endloop
  endfacet
  facet normal 0 0 1
    outer loop
      vertex 2.57772 -3.12271 6.5
      vertex -2.96656 -2.30059 6.5
      vertex 2.39656 -3.36698 6.5
    endloop
  endfacet
  facet normal 0 0 1
    outer loop
      vertex 0.900999 4.5 6.5
      vertex 2.08694 4.2641 6.5
      vertex 1.80059 4.36656 6.5
    endloop
  endfacet
  facet normal 0 0 1
    outer loop
      vertex 2.39656 -3.36698 6.5
      vertex -2.96656 -2.30059 6.5
      vertex 2.19232 -3.59232 6.5
    endloop
  endfacet
  facet normal 0 0 1
    outer loop
      vertex 0.900999 4.5 6.5
      vertex 1.80059 4.36656 6.5
      vertex 1.50558 4.44045 6.5
    endloop
  endfacet
  facet normal 0 0 1
    outer loop
      vertex 2.19232 -3.59232 6.5
      vertex -2.96656 -2.30059 6.5
      vertex 1.96698 -3.79656 6.5
    endloop
  endfacet
  facet normal 0 0 1
    outer loop
      vertex 0.900999 4.5 6.5
      vertex 1.50558 4.44045 6.5
      vertex 1.20475 4.48508 6.5
    endloop
  endfacet
  facet normal 0 0 1
    outer loop
      vertex 1.96698 -3.79656 6.5
      vertex -2.96656 -2.30059 6.5
      vertex 1.72271 -3.97772 6.5
    endloop
  endfacet
  facet normal 0 0 1
    outer loop
      vertex 1.72271 -3.97772 6.5
      vertex -2.96656 -2.30059 6.5
      vertex 1.46186 -4.13407 6.5
    endloop
  endfacet
  facet normal 0 0 1
    outer loop
      vertex 1.46186 -4.13407 6.5
      vertex -2.96656 -2.30059 6.5
      vertex 1.18694 -4.2641 6.5
    endloop
  endfacet
  facet normal 0 0 1
    outer loop
      vertex 1.18694 -4.2641 6.5
      vertex -2.96656 -2.30059 6.5
      vertex 0.900592 -4.36656 6.5
    endloop
  endfacet
  facet normal 0 0 1
    outer loop
      vertex 0.900592 -4.36656 6.5
      vertex -2.96656 -2.30059 6.5
      vertex 0.605584 -4.44045 6.5
    endloop
  endfacet
  facet normal 0 0 1
    outer loop
      vertex 0.605584 -4.44045 6.5
      vertex -2.96656 -2.30059 6.5
      vertex 0.304754 -4.48508 6.5
    endloop
  endfacet
  facet normal 0 0 1
    outer loop
      vertex 0.304754 -4.48508 6.5
      vertex -2.96656 -2.30059 6.5
      vertex 0.000999451 -4.5 6.5
    endloop
  endfacet
  facet normal 0 0 1
    outer loop
      vertex 0.000999451 -4.5 6.5
      vertex -2.96656 -2.30059 6.5
      vertex -0.000999451 -4.5 6.5
    endloop
  endfacet
  facet normal 0 0 1
    outer loop
      vertex -0.000999451 -4.5 6.5
      vertex -2.96656 -2.30059 6.5
      vertex -0.304754 -4.48508 6.5
    endloop
  endfacet
  facet normal 0 0 1
    outer loop
      vertex -0.304754 -4.48508 6.5
      vertex -2.96656 -2.30059 6.5
      vertex -0.605584 -4.44045 6.5
    endloop
  endfacet
  facet normal 0 0 1
    outer loop
      vertex -3.86656 0.501408 6.5
      vertex 0.900999 4.5 6.5
      vertex -0.900999 4.5 6.5
    endloop
  endfacet
  facet normal 0 0 1
    outer loop
      vertex -0.605584 -4.44045 6.5
      vertex -2.96656 -2.30059 6.5
      vertex -0.900592 -4.36656 6.5
    endloop
  endfacet
  facet normal 0 0 1
    outer loop
      vertex -3.86656 0.501408 6.5
      vertex -0.900999 4.5 6.5
      vertex -1.20475 4.48508 6.5
    endloop
  endfacet
  facet normal 0 0 1
    outer loop
      vertex -0.900592 -4.36656 6.5
      vertex -2.96656 -2.30059 6.5
      vertex -1.18694 -4.2641 6.5
    endloop
  endfacet
  facet normal 0 0 1
    outer loop
      vertex -3.86656 0.501408 6.5
      vertex -1.20475 4.48508 6.5
      vertex -1.50558 4.44045 6.5
    endloop
  endfacet
  facet normal 0 0 1
    outer loop
      vertex -1.18694 -4.2641 6.5
      vertex -2.96656 -2.30059 6.5
      vertex -1.46186 -4.13407 6.5
    endloop
  endfacet
  facet normal 0 0 1
    outer loop
      vertex -3.86656 0.501408 6.5
      vertex -1.50558 4.44045 6.5
      vertex -1.80059 4.36656 6.5
    endloop
  endfacet
  facet normal 0 0 1
    outer loop
      vertex -1.46186 -4.13407 6.5
      vertex -2.96656 -2.30059 6.5
      vertex -1.72271 -3.97772 6.5
    endloop
  endfacet
  facet normal 0 0 1
    outer loop
      vertex -3.86656 0.501408 6.5
      vertex -1.80059 4.36656 6.5
      vertex -2.08694 4.2641 6.5
    endloop
  endfacet
  facet normal 0 0 1
    outer loop
      vertex -1.72271 -3.97772 6.5
      vertex -2.96656 -2.30059 6.5
      vertex -1.96698 -3.79656 6.5
    endloop
  endfacet
  facet normal 0 0 1
    outer loop
      vertex -3.86656 0.501408 6.5
      vertex -2.08694 4.2641 6.5
      vertex -2.36186 4.13407 6.5
    endloop
  endfacet
  facet normal 0 0 1
    outer loop
      vertex -1.96698 -3.79656 6.5
      vertex -2.96656 -2.30059 6.5
      vertex -2.19232 -3.59232 6.5
    endloop
  endfacet
  facet normal 0 0 1
    outer loop
      vertex -2.19232 -3.59232 6.5
      vertex -2.96656 -2.30059 6.5
      vertex -2.39656 -3.36698 6.5
    endloop
  endfacet
  facet normal 0 0 1
    outer loop
      vertex -3.86656 0.501408 6.5
      vertex -2.36186 4.13407 6.5
      vertex -2.62271 3.97772 6.5
    endloop
  endfacet
  facet normal 0 0 1
    outer loop
      vertex -2.39656 -3.36698 6.5
      vertex -2.96656 -2.30059 6.5
      vertex -2.57772 -3.12271 6.5
    endloop
  endfacet
  facet normal 0 0 1
    outer loop
      vertex -2.57772 -3.12271 6.5
      vertex -2.96656 -2.30059 6.5
      vertex -2.73407 -2.86186 6.5
    endloop
  endfacet
  facet normal 0 0 1
    outer loop
      vertex -3.86656 0.501408 6.5
      vertex -2.62271 3.97772 6.5
      vertex -2.86698 3.79656 6.5
    endloop
  endfacet
  facet normal 0 0 1
    outer loop
      vertex -2.73407 -2.86186 6.5
      vertex -2.96656 -2.30059 6.5
      vertex -2.8641 -2.58694 6.5
    endloop
  endfacet
  facet normal 0 0 1
    outer loop
      vertex -3.86656 0.501408 6.5
      vertex -2.86698 3.79656 6.5
      vertex -3.09232 3.59232 6.5
    endloop
  endfacet
  facet normal 0 0 1
    outer loop
      vertex -3.86656 0.501408 6.5
      vertex -3.09232 3.59232 6.5
      vertex -3.29656 3.36698 6.5
    endloop
  endfacet
  facet normal 0 0 1
    outer loop
      vertex -3.86656 0.501408 6.5
      vertex -3.29656 3.36698 6.5
      vertex -3.47772 3.12271 6.5
    endloop
  endfacet
  facet normal 0 0 1
    outer loop
      vertex -3.86656 0.501408 6.5
      vertex -3.47772 3.12271 6.5
      vertex -3.63407 2.86186 6.5
    endloop
  endfacet
  facet normal 0 0 1
    outer loop
      vertex -3.86656 0.501408 6.5
      vertex -3.63407 2.86186 6.5
      vertex -3.7641 2.58694 6.5
    endloop
  endfacet
  facet normal 0 0 1
    outer loop
      vertex -3.86656 0.501408 6.5
      vertex -3.7641 2.58694 6.5
      vertex -3.86656 2.30059 6.5
    endloop
  endfacet
  facet normal 0 0 1
    outer loop
      vertex 2.73407 -2.86186 6.5
      vertex -2.96656 -2.30059 6.5
      vertex 2.57772 -3.12271 6.5
    endloop
  endfacet
  facet normal -0 0 1
    outer loop
      vertex -3.94045 2.00558 6.5
      vertex -3.86656 0.501408 6.5
      vertex -3.86656 2.30059 6.5
    endloop
  endfacet
  facet normal 0 0 1
    outer loop
      vertex -3.94045 2.00558 6.5
      vertex -3.94045 0.796414 6.5
      vertex -3.86656 0.501408 6.5
    endloop
  endfacet
  facet normal -0 0 1
    outer loop
      vertex -3.98508 1.70475 6.5
      vertex -3.94045 0.796414 6.5
      vertex -3.94045 2.00558 6.5
    endloop
  endfacet
  facet normal 0 0 1
    outer loop
      vertex -3.98508 1.70475 6.5
      vertex -3.98508 1.09724 6.5
      vertex -3.94045 0.796414 6.5
    endloop
  endfacet
  facet normal 0 -0 1
    outer loop
      vertex -3.98508 1.09724 6.5
      vertex -3.98508 1.70475 6.5
      vertex -4 1.401 6.5
    endloop
  endfacet
endsolid OpenSCAD_Model
