solid OpenSCAD_Model
  facet normal 1 -0 0
    outer loop
      vertex 0.5 -0.5 1.25
      vertex 0.5 0.5 0.25
      vertex 0.5 0.5 1.25
    endloop
  endfacet
  facet normal 1 0 0
    outer loop
      vertex 0.5 0.5 0.25
      vertex 0.5 -0.5 1.25
      vertex 0.5 -0.5 0.25
    endloop
  endfacet
  facet normal -0 0 1
    outer loop
      vertex -0.5 0.5 1.25
      vertex 0.5 -0.5 1.25
      vertex 0.5 0.5 1.25
    endloop
  endfacet
  facet normal 0 0 1
    outer loop
      vertex 0.5 -0.5 1.25
      vertex -0.5 0.5 1.25
      vertex -0.5 -0.5 1.25
    endloop
  endfacet
  facet normal 0 0 -1
    outer loop
      vertex -0.5 -0.5 0.25
      vertex 0.5 0.5 0.25
      vertex 0.5 -0.5 0.25
    endloop
  endfacet
  facet normal -0 0 -1
    outer loop
      vertex 0.5 0.5 0.25
      vertex -0.5 -0.5 0.25
      vertex -0.5 0.5 0.25
    endloop
  endfacet
  facet normal -1 0 0
    outer loop
      vertex -0.5 -0.5 0.25
      vertex -0.5 0.5 1.25
      vertex -0.5 0.5 0.25
    endloop
  endfacet
  facet normal -1 -0 0
    outer loop
      vertex -0.5 0.5 1.25
      vertex -0.5 -0.5 0.25
      vertex -0.5 -0.5 1.25
    endloop
  endfacet
  facet normal 0 1 -0
    outer loop
      vertex 0.5 0.5 0.25
      vertex -0.5 0.5 1.25
      vertex 0.5 0.5 1.25
    endloop
  endfacet
  facet normal 0 1 0
    outer loop
      vertex -0.5 0.5 1.25
      vertex 0.5 0.5 0.25
      vertex -0.5 0.5 0.25
    endloop
  endfacet
  facet normal 0 -1 0
    outer loop
      vertex -0.5 -0.5 0.25
      vertex 0.5 -0.5 1.25
      vertex -0.5 -0.5 1.25
    endloop
  endfacet
  facet normal 0 -1 -0
    outer loop
      vertex 0.5 -0.5 1.25
      vertex -0.5 -0.5 0.25
      vertex 0.5 -0.5 0.25
    endloop
  endfacet
  facet normal -0.242963 0.970035 0
    outer loop
      vertex -2.56092 4.46445 1.5
      vertex -2.73703 4.42034 6.5
      vertex -2.56092 4.46445 6.5
    endloop
  endfacet
  facet normal -0.242963 0.970035 0
    outer loop
      vertex -2.73703 4.42034 6.5
      vertex -2.56092 4.46445 1.5
      vertex -2.73703 4.42034 1.5
    endloop
  endfacet
  facet normal -0.989176 -0.146732 -4.55894e-19
    outer loop
      vertex -4.01445 2.28908 1.5
      vertex -4.04109 2.46867 6.5
      vertex -4.04109 2.46867 1.5
    endloop
  endfacet
  facet normal -0.989176 -0.146732 -4.55894e-19
    outer loop
      vertex -4.04109 2.46867 6.5
      vertex -4.01445 2.28908 1.5
      vertex -4.01445 2.28908 6.5
    endloop
  endfacet
  facet normal -0.998795 -0.0490777 1.14169e-20
    outer loop
      vertex -4.04109 2.46867 1.5
      vertex -4.05 2.65 6.5
      vertex -4.05 2.65 1.5
    endloop
  endfacet
  facet normal -0.998795 -0.0490777 1.14169e-20
    outer loop
      vertex -4.05 2.65 6.5
      vertex -4.04109 2.46867 1.5
      vertex -4.04109 2.46867 6.5
    endloop
  endfacet
  facet normal 0 1 -0
    outer loop
      vertex 2.2 4.5 1.5
      vertex -2.2 4.5 6.5
      vertex 2.2 4.5 6.5
    endloop
  endfacet
  facet normal 0 1 0
    outer loop
      vertex -2.2 4.5 6.5
      vertex 2.2 4.5 1.5
      vertex -2.2 4.5 1.5
    endloop
  endfacet
  facet normal -0.336891 -0.941544 0
    outer loop
      vertex -1.95796 -4.35918 1.5
      vertex -1.78703 -4.42034 6.5
      vertex -1.95796 -4.35918 6.5
    endloop
  endfacet
  facet normal -0.336891 -0.941544 -0
    outer loop
      vertex -1.78703 -4.42034 6.5
      vertex -1.95796 -4.35918 1.5
      vertex -1.78703 -4.42034 1.5
    endloop
  endfacet
  facet normal 0.242963 0.970035 -0
    outer loop
      vertex 2.73703 4.42034 1.5
      vertex 2.56092 4.46445 6.5
      vertex 2.73703 4.42034 6.5
    endloop
  endfacet
  facet normal 0.242963 0.970035 0
    outer loop
      vertex 2.56092 4.46445 6.5
      vertex 2.73703 4.42034 1.5
      vertex 2.56092 4.46445 1.5
    endloop
  endfacet
  facet normal 0.514083 0.857741 -0
    outer loop
      vertex 3.2278 4.18822 1.5
      vertex 3.07208 4.28155 6.5
      vertex 3.2278 4.18822 6.5
    endloop
  endfacet
  facet normal 0.514083 0.857741 0
    outer loop
      vertex 3.07208 4.28155 6.5
      vertex 3.2278 4.18822 1.5
      vertex 3.07208 4.28155 1.5
    endloop
  endfacet
  facet normal -0.595682 0.80322 0
    outer loop
      vertex -3.2278 4.18822 1.5
      vertex -3.37363 4.08007 6.5
      vertex -3.2278 4.18822 6.5
    endloop
  endfacet
  facet normal -0.595682 0.80322 0
    outer loop
      vertex -3.37363 4.08007 6.5
      vertex -3.2278 4.18822 1.5
      vertex -3.37363 4.08007 1.5
    endloop
  endfacet
  facet normal -0.857741 0.514083 -4.79422e-19
    outer loop
      vertex -3.83155 3.52208 1.5
      vertex -3.73822 3.6778 6.5
      vertex -3.73822 3.6778 1.5
    endloop
  endfacet
  facet normal -0.857741 0.514083 -4.79422e-19
    outer loop
      vertex -3.73822 3.6778 6.5
      vertex -3.83155 3.52208 1.5
      vertex -3.83155 3.52208 6.5
    endloop
  endfacet
  facet normal -0.740956 0.671553 -1.30487e-18
    outer loop
      vertex -3.63007 3.82363 1.5
      vertex -3.50815 3.95815 6.5
      vertex -3.50815 3.95815 1.5
    endloop
  endfacet
  facet normal -0.740956 0.671553 -1.30487e-18
    outer loop
      vertex -3.50815 3.95815 6.5
      vertex -3.63007 3.82363 1.5
      vertex -3.63007 3.82363 6.5
    endloop
  endfacet
  facet normal -0.146732 -0.989176 0
    outer loop
      vertex -1.61092 -4.46445 1.5
      vertex -1.43133 -4.49109 6.5
      vertex -1.61092 -4.46445 6.5
    endloop
  endfacet
  facet normal -0.146732 -0.989176 -0
    outer loop
      vertex -1.43133 -4.49109 6.5
      vertex -1.61092 -4.46445 1.5
      vertex -1.43133 -4.49109 1.5
    endloop
  endfacet
  facet normal -0.0490777 0.998795 0
    outer loop
      vertex -2.2 4.5 1.5
      vertex -2.38133 4.49109 6.5
      vertex -2.2 4.5 6.5
    endloop
  endfacet
  facet normal -0.0490777 0.998795 0
    outer loop
      vertex -2.38133 4.49109 6.5
      vertex -2.2 4.5 1.5
      vertex -2.38133 4.49109 1.5
    endloop
  endfacet
  facet normal 0.595682 0.80322 -0
    outer loop
      vertex 3.37363 4.08007 1.5
      vertex 3.2278 4.18822 6.5
      vertex 3.37363 4.08007 6.5
    endloop
  endfacet
  facet normal 0.595682 0.80322 0
    outer loop
      vertex 3.2278 4.18822 6.5
      vertex 3.37363 4.08007 1.5
      vertex 3.2278 4.18822 1.5
    endloop
  endfacet
  facet normal 0.998795 0.0490777 1.14169e-20
    outer loop
      vertex 4.05 2.65 6.5
      vertex 4.04109 2.83133 1.5
      vertex 4.04109 2.83133 6.5
    endloop
  endfacet
  facet normal 0.998795 0.0490777 1.14169e-20
    outer loop
      vertex 4.04109 2.83133 1.5
      vertex 4.05 2.65 6.5
      vertex 4.05 2.65 1.5
    endloop
  endfacet
  facet normal -0.514083 -0.857741 0
    outer loop
      vertex -2.2778 -4.18822 1.5
      vertex -2.12208 -4.28155 6.5
      vertex -2.2778 -4.18822 6.5
    endloop
  endfacet
  facet normal -0.514083 -0.857741 -0
    outer loop
      vertex -2.12208 -4.28155 6.5
      vertex -2.2778 -4.18822 1.5
      vertex -2.12208 -4.28155 1.5
    endloop
  endfacet
  facet normal 0.336891 0.941544 -0
    outer loop
      vertex 2.90796 4.35918 1.5
      vertex 2.73703 4.42034 6.5
      vertex 2.90796 4.35918 6.5
    endloop
  endfacet
  facet normal 0.336891 0.941544 0
    outer loop
      vertex 2.73703 4.42034 6.5
      vertex 2.90796 4.35918 1.5
      vertex 2.73703 4.42034 1.5
    endloop
  endfacet
  facet normal 0.80322 -0.595682 9.243e-19
    outer loop
      vertex 2.68007 -3.82363 6.5
      vertex 2.78822 -3.6778 1.5
      vertex 2.78822 -3.6778 6.5
    endloop
  endfacet
  facet normal 0.80322 -0.595682 9.243e-19
    outer loop
      vertex 2.78822 -3.6778 1.5
      vertex 2.68007 -3.82363 6.5
      vertex 2.68007 -3.82363 1.5
    endloop
  endfacet
  facet normal 0.970035 0.242963 2.22644e-19
    outer loop
      vertex 4.01445 3.01092 6.5
      vertex 3.97034 3.18703 1.5
      vertex 3.97034 3.18703 6.5
    endloop
  endfacet
  facet normal 0.970035 0.242963 2.22644e-19
    outer loop
      vertex 3.97034 3.18703 1.5
      vertex 4.01445 3.01092 6.5
      vertex 4.01445 3.01092 1.5
    endloop
  endfacet
  facet normal 0 0 -1
    outer loop
      vertex 4.04109 2.46867 1.5
      vertex 4.04109 2.83133 1.5
      vertex 4.05 2.65 1.5
    endloop
  endfacet
  facet normal 0 0 -1
    outer loop
      vertex 4.01445 2.28908 1.5
      vertex 4.04109 2.83133 1.5
      vertex 4.04109 2.46867 1.5
    endloop
  endfacet
  facet normal 0 0 -1
    outer loop
      vertex 4.01445 2.28908 1.5
      vertex 4.01445 3.01092 1.5
      vertex 4.04109 2.83133 1.5
    endloop
  endfacet
  facet normal 0 0 -1
    outer loop
      vertex 4.01445 2.28908 1.5
      vertex 3.97034 3.18703 1.5
      vertex 4.01445 3.01092 1.5
    endloop
  endfacet
  facet normal 0 0 -1
    outer loop
      vertex 4.01445 2.28908 1.5
      vertex 3.90918 3.35796 1.5
      vertex 3.97034 3.18703 1.5
    endloop
  endfacet
  facet normal 0 0 -1
    outer loop
      vertex 4.01445 2.28908 1.5
      vertex 3.83155 3.52208 1.5
      vertex 3.90918 3.35796 1.5
    endloop
  endfacet
  facet normal 0 0 -1
    outer loop
      vertex 4.01445 2.28908 1.5
      vertex 3.73822 3.6778 1.5
      vertex 3.83155 3.52208 1.5
    endloop
  endfacet
  facet normal 0 0 -1
    outer loop
      vertex 4.01445 2.28908 1.5
      vertex 3.63007 3.82363 1.5
      vertex 3.73822 3.6778 1.5
    endloop
  endfacet
  facet normal 0 0 -1
    outer loop
      vertex 4.01445 2.28908 1.5
      vertex 3.50815 3.95815 1.5
      vertex 3.63007 3.82363 1.5
    endloop
  endfacet
  facet normal 0 0 -1
    outer loop
      vertex 4.01445 2.28908 1.5
      vertex 3.37363 4.08007 1.5
      vertex 3.50815 3.95815 1.5
    endloop
  endfacet
  facet normal 0 0 -1
    outer loop
      vertex 4.01445 2.28908 1.5
      vertex 3.2278 4.18822 1.5
      vertex 3.37363 4.08007 1.5
    endloop
  endfacet
  facet normal 0 0 -1
    outer loop
      vertex 4.01445 2.28908 1.5
      vertex 3.07208 4.28155 1.5
      vertex 3.2278 4.18822 1.5
    endloop
  endfacet
  facet normal 0 0 -1
    outer loop
      vertex -4.01445 2.28908 1.5
      vertex 4.01445 2.28908 1.5
      vertex 3.06445 -3.01092 1.5
    endloop
  endfacet
  facet normal 0 0 -1
    outer loop
      vertex 1.25 -4.5 1.5
      vertex 3.06445 -3.01092 1.5
      vertex 3.02034 -3.18703 1.5
    endloop
  endfacet
  facet normal 0 0 -1
    outer loop
      vertex 1.25 -4.5 1.5
      vertex 3.02034 -3.18703 1.5
      vertex 2.95918 -3.35796 1.5
    endloop
  endfacet
  facet normal 0 0 -1
    outer loop
      vertex 4.01445 2.28908 1.5
      vertex 2.2 4.5 1.5
      vertex 3.07208 4.28155 1.5
    endloop
  endfacet
  facet normal 0 0 -1
    outer loop
      vertex 1.25 -4.5 1.5
      vertex 2.95918 -3.35796 1.5
      vertex 2.88155 -3.52208 1.5
    endloop
  endfacet
  facet normal 0 0 -1
    outer loop
      vertex 1.25 -4.5 1.5
      vertex 2.88155 -3.52208 1.5
      vertex 2.78822 -3.6778 1.5
    endloop
  endfacet
  facet normal 0 0 -1
    outer loop
      vertex 3.07208 4.28155 1.5
      vertex 2.2 4.5 1.5
      vertex 2.90796 4.35918 1.5
    endloop
  endfacet
  facet normal 0 0 -1
    outer loop
      vertex 1.25 -4.5 1.5
      vertex 2.78822 -3.6778 1.5
      vertex 2.68007 -3.82363 1.5
    endloop
  endfacet
  facet normal 0 0 -1
    outer loop
      vertex 2.90796 4.35918 1.5
      vertex 2.2 4.5 1.5
      vertex 2.73703 4.42034 1.5
    endloop
  endfacet
  facet normal 0 0 -1
    outer loop
      vertex 1.25 -4.5 1.5
      vertex 2.68007 -3.82363 1.5
      vertex 2.55815 -3.95815 1.5
    endloop
  endfacet
  facet normal 0 0 -1
    outer loop
      vertex 1.25 -4.5 1.5
      vertex 2.55815 -3.95815 1.5
      vertex 2.42363 -4.08007 1.5
    endloop
  endfacet
  facet normal 0 0 -1
    outer loop
      vertex 2.73703 4.42034 1.5
      vertex 2.2 4.5 1.5
      vertex 2.56092 4.46445 1.5
    endloop
  endfacet
  facet normal 0 0 -1
    outer loop
      vertex 1.25 -4.5 1.5
      vertex 2.42363 -4.08007 1.5
      vertex 2.2778 -4.18822 1.5
    endloop
  endfacet
  facet normal 0 0 -1
    outer loop
      vertex 2.56092 4.46445 1.5
      vertex 2.2 4.5 1.5
      vertex 2.38133 4.49109 1.5
    endloop
  endfacet
  facet normal 0 0 -1
    outer loop
      vertex 1.25 -4.5 1.5
      vertex 2.2778 -4.18822 1.5
      vertex 2.12208 -4.28155 1.5
    endloop
  endfacet
  facet normal 0 0 -1
    outer loop
      vertex 1.25 -4.5 1.5
      vertex 2.12208 -4.28155 1.5
      vertex 1.95796 -4.35918 1.5
    endloop
  endfacet
  facet normal 0 0 -1
    outer loop
      vertex 1.25 -4.5 1.5
      vertex 1.95796 -4.35918 1.5
      vertex 1.78703 -4.42034 1.5
    endloop
  endfacet
  facet normal 0 0 -1
    outer loop
      vertex 1.25 -4.5 1.5
      vertex 1.78703 -4.42034 1.5
      vertex 1.61092 -4.46445 1.5
    endloop
  endfacet
  facet normal 0 0 -1
    outer loop
      vertex 1.25 -4.5 1.5
      vertex 1.61092 -4.46445 1.5
      vertex 1.43133 -4.49109 1.5
    endloop
  endfacet
  facet normal -0 0 -1
    outer loop
      vertex 3.06445 -3.01092 1.5
      vertex 1.25 -4.5 1.5
      vertex -3.06445 -3.01092 1.5
    endloop
  endfacet
  facet normal 0 0 -1
    outer loop
      vertex -3.06445 -3.01092 1.5
      vertex 1.25 -4.5 1.5
      vertex -1.25 -4.5 1.5
    endloop
  endfacet
  facet normal 0 0 -1
    outer loop
      vertex -3.06445 -3.01092 1.5
      vertex -1.25 -4.5 1.5
      vertex -1.43133 -4.49109 1.5
    endloop
  endfacet
  facet normal 0 0 -1
    outer loop
      vertex -3.06445 -3.01092 1.5
      vertex -1.43133 -4.49109 1.5
      vertex -1.61092 -4.46445 1.5
    endloop
  endfacet
  facet normal 0 0 -1
    outer loop
      vertex -3.06445 -3.01092 1.5
      vertex -1.61092 -4.46445 1.5
      vertex -1.78703 -4.42034 1.5
    endloop
  endfacet
  facet normal 0 0 -1
    outer loop
      vertex -3.06445 -3.01092 1.5
      vertex -1.78703 -4.42034 1.5
      vertex -1.95796 -4.35918 1.5
    endloop
  endfacet
  facet normal 0 0 -1
    outer loop
      vertex -3.06445 -3.01092 1.5
      vertex -1.95796 -4.35918 1.5
      vertex -2.12208 -4.28155 1.5
    endloop
  endfacet
  facet normal 0 0 -1
    outer loop
      vertex 3.06445 -3.01092 1.5
      vertex -3.06445 -3.01092 1.5
      vertex -4.01445 2.28908 1.5
    endloop
  endfacet
  facet normal 0 0 -1
    outer loop
      vertex -3.06445 -3.01092 1.5
      vertex -2.12208 -4.28155 1.5
      vertex -2.2778 -4.18822 1.5
    endloop
  endfacet
  facet normal 0 0 -1
    outer loop
      vertex 4.01445 2.28908 1.5
      vertex -4.01445 2.28908 1.5
      vertex 2.2 4.5 1.5
    endloop
  endfacet
  facet normal 0 0 -1
    outer loop
      vertex -3.06445 -3.01092 1.5
      vertex -2.2778 -4.18822 1.5
      vertex -2.42363 -4.08007 1.5
    endloop
  endfacet
  facet normal 0 0 -1
    outer loop
      vertex -3.06445 -3.01092 1.5
      vertex -2.42363 -4.08007 1.5
      vertex -2.55815 -3.95815 1.5
    endloop
  endfacet
  facet normal -0 0 -1
    outer loop
      vertex 2.2 4.5 1.5
      vertex -4.01445 2.28908 1.5
      vertex -2.2 4.5 1.5
    endloop
  endfacet
  facet normal 0 0 -1
    outer loop
      vertex -3.06445 -3.01092 1.5
      vertex -2.55815 -3.95815 1.5
      vertex -2.68007 -3.82363 1.5
    endloop
  endfacet
  facet normal 0 0 -1
    outer loop
      vertex -2.2 4.5 1.5
      vertex -4.01445 2.28908 1.5
      vertex -2.38133 4.49109 1.5
    endloop
  endfacet
  facet normal 0 0 -1
    outer loop
      vertex -3.06445 -3.01092 1.5
      vertex -2.68007 -3.82363 1.5
      vertex -2.78822 -3.6778 1.5
    endloop
  endfacet
  facet normal 0 0 -1
    outer loop
      vertex -3.06445 -3.01092 1.5
      vertex -2.78822 -3.6778 1.5
      vertex -2.88155 -3.52208 1.5
    endloop
  endfacet
  facet normal 0 0 -1
    outer loop
      vertex -2.38133 4.49109 1.5
      vertex -4.01445 2.28908 1.5
      vertex -2.56092 4.46445 1.5
    endloop
  endfacet
  facet normal 0 0 -1
    outer loop
      vertex -3.06445 -3.01092 1.5
      vertex -2.88155 -3.52208 1.5
      vertex -2.95918 -3.35796 1.5
    endloop
  endfacet
  facet normal 0 0 -1
    outer loop
      vertex -3.06445 -3.01092 1.5
      vertex -2.95918 -3.35796 1.5
      vertex -3.02034 -3.18703 1.5
    endloop
  endfacet
  facet normal 0 0 -1
    outer loop
      vertex -2.56092 4.46445 1.5
      vertex -4.01445 2.28908 1.5
      vertex -2.73703 4.42034 1.5
    endloop
  endfacet
  facet normal 0 0 -1
    outer loop
      vertex -2.73703 4.42034 1.5
      vertex -4.01445 2.28908 1.5
      vertex -2.90796 4.35918 1.5
    endloop
  endfacet
  facet normal 0 0 -1
    outer loop
      vertex -2.90796 4.35918 1.5
      vertex -4.01445 2.28908 1.5
      vertex -3.07208 4.28155 1.5
    endloop
  endfacet
  facet normal 0 0 -1
    outer loop
      vertex -3.07208 4.28155 1.5
      vertex -4.01445 2.28908 1.5
      vertex -3.2278 4.18822 1.5
    endloop
  endfacet
  facet normal 0 0 -1
    outer loop
      vertex -3.2278 4.18822 1.5
      vertex -4.01445 2.28908 1.5
      vertex -3.37363 4.08007 1.5
    endloop
  endfacet
  facet normal 0 0 -1
    outer loop
      vertex -3.37363 4.08007 1.5
      vertex -4.01445 2.28908 1.5
      vertex -3.50815 3.95815 1.5
    endloop
  endfacet
  facet normal 0 0 -1
    outer loop
      vertex -3.50815 3.95815 1.5
      vertex -4.01445 2.28908 1.5
      vertex -3.63007 3.82363 1.5
    endloop
  endfacet
  facet normal 0 0 -1
    outer loop
      vertex -3.63007 3.82363 1.5
      vertex -4.01445 2.28908 1.5
      vertex -3.73822 3.6778 1.5
    endloop
  endfacet
  facet normal 0 0 -1
    outer loop
      vertex -3.73822 3.6778 1.5
      vertex -4.01445 2.28908 1.5
      vertex -3.83155 3.52208 1.5
    endloop
  endfacet
  facet normal 0 0 -1
    outer loop
      vertex -3.83155 3.52208 1.5
      vertex -4.01445 2.28908 1.5
      vertex -3.90918 3.35796 1.5
    endloop
  endfacet
  facet normal 0 0 -1
    outer loop
      vertex -3.90918 3.35796 1.5
      vertex -4.01445 2.28908 1.5
      vertex -3.97034 3.18703 1.5
    endloop
  endfacet
  facet normal 0 0 -1
    outer loop
      vertex -4.01445 2.28908 1.5
      vertex -4.01445 3.01092 1.5
      vertex -3.97034 3.18703 1.5
    endloop
  endfacet
  facet normal 0 0 -1
    outer loop
      vertex -4.04109 2.46867 1.5
      vertex -4.01445 3.01092 1.5
      vertex -4.01445 2.28908 1.5
    endloop
  endfacet
  facet normal 0 0 -1
    outer loop
      vertex -4.04109 2.46867 1.5
      vertex -4.04109 2.83133 1.5
      vertex -4.01445 3.01092 1.5
    endloop
  endfacet
  facet normal 0 -0 -1
    outer loop
      vertex -4.04109 2.83133 1.5
      vertex -4.04109 2.46867 1.5
      vertex -4.05 2.65 1.5
    endloop
  endfacet
  facet normal 0.80322 0.595682 3.51294e-19
    outer loop
      vertex 3.73822 3.6778 6.5
      vertex 3.63007 3.82363 1.5
      vertex 3.63007 3.82363 6.5
    endloop
  endfacet
  facet normal 0.80322 0.595682 3.51294e-19
    outer loop
      vertex 3.63007 3.82363 1.5
      vertex 3.73822 3.6778 6.5
      vertex 3.73822 3.6778 1.5
    endloop
  endfacet
  facet normal -0.857741 -0.514083 4.79422e-19
    outer loop
      vertex -2.78822 -3.6778 1.5
      vertex -2.88155 -3.52208 6.5
      vertex -2.88155 -3.52208 1.5
    endloop
  endfacet
  facet normal -0.857741 -0.514083 4.79422e-19
    outer loop
      vertex -2.88155 -3.52208 6.5
      vertex -2.78822 -3.6778 1.5
      vertex -2.78822 -3.6778 6.5
    endloop
  endfacet
  facet normal 0.427587 -0.903974 0
    outer loop
      vertex 1.95796 -4.35918 1.5
      vertex 2.12208 -4.28155 6.5
      vertex 1.95796 -4.35918 6.5
    endloop
  endfacet
  facet normal 0.427587 -0.903974 0
    outer loop
      vertex 2.12208 -4.28155 6.5
      vertex 1.95796 -4.35918 1.5
      vertex 2.12208 -4.28155 1.5
    endloop
  endfacet
  facet normal -0.740956 -0.671553 4.69527e-19
    outer loop
      vertex -2.55815 -3.95815 1.5
      vertex -2.68007 -3.82363 6.5
      vertex -2.68007 -3.82363 1.5
    endloop
  endfacet
  facet normal -0.740956 -0.671553 4.69527e-19
    outer loop
      vertex -2.68007 -3.82363 6.5
      vertex -2.55815 -3.95815 1.5
      vertex -2.55815 -3.95815 6.5
    endloop
  endfacet
  facet normal 0.984313 -0.176433 -9.56721e-18
    outer loop
      vertex 3.06445 -3.01092 6.5
      vertex 4.01445 2.28908 1.5
      vertex 4.01445 2.28908 6.5
    endloop
  endfacet
  facet normal 0.984313 -0.176433 -9.56721e-18
    outer loop
      vertex 4.01445 2.28908 1.5
      vertex 3.06445 -3.01092 6.5
      vertex 3.06445 -3.01092 1.5
    endloop
  endfacet
  facet normal -0.998795 0.0490777 -1.14169e-20
    outer loop
      vertex -4.05 2.65 1.5
      vertex -4.04109 2.83133 6.5
      vertex -4.04109 2.83133 1.5
    endloop
  endfacet
  facet normal -0.998795 0.0490777 -1.14169e-20
    outer loop
      vertex -4.04109 2.83133 6.5
      vertex -4.05 2.65 1.5
      vertex -4.05 2.65 6.5
    endloop
  endfacet
  facet normal 0.903974 0.427587 8.51777e-19
    outer loop
      vertex 3.90918 3.35796 6.5
      vertex 3.83155 3.52208 1.5
      vertex 3.83155 3.52208 6.5
    endloop
  endfacet
  facet normal 0.903974 0.427587 8.51777e-19
    outer loop
      vertex 3.83155 3.52208 1.5
      vertex 3.90918 3.35796 6.5
      vertex 3.90918 3.35796 1.5
    endloop
  endfacet
  facet normal 0.989176 -0.146732 4.55894e-19
    outer loop
      vertex 4.01445 2.28908 6.5
      vertex 4.04109 2.46867 1.5
      vertex 4.04109 2.46867 6.5
    endloop
  endfacet
  facet normal 0.989176 -0.146732 4.55894e-19
    outer loop
      vertex 4.04109 2.46867 1.5
      vertex 4.01445 2.28908 6.5
      vertex 4.01445 2.28908 1.5
    endloop
  endfacet
  facet normal -0.970035 -0.242963 2.22644e-19
    outer loop
      vertex -3.02034 -3.18703 1.5
      vertex -3.06445 -3.01092 6.5
      vertex -3.06445 -3.01092 1.5
    endloop
  endfacet
  facet normal -0.970035 -0.242963 2.22644e-19
    outer loop
      vertex -3.06445 -3.01092 6.5
      vertex -3.02034 -3.18703 1.5
      vertex -3.02034 -3.18703 6.5
    endloop
  endfacet
  facet normal 0.0490777 -0.998795 0
    outer loop
      vertex 1.25 -4.5 1.5
      vertex 1.43133 -4.49109 6.5
      vertex 1.25 -4.5 6.5
    endloop
  endfacet
  facet normal 0.0490777 -0.998795 0
    outer loop
      vertex 1.43133 -4.49109 6.5
      vertex 1.25 -4.5 1.5
      vertex 1.43133 -4.49109 1.5
    endloop
  endfacet
  facet normal 0.0490777 0.998795 -0
    outer loop
      vertex 2.38133 4.49109 1.5
      vertex 2.2 4.5 6.5
      vertex 2.38133 4.49109 6.5
    endloop
  endfacet
  facet normal 0.0490777 0.998795 0
    outer loop
      vertex 2.2 4.5 6.5
      vertex 2.38133 4.49109 1.5
      vertex 2.2 4.5 1.5
    endloop
  endfacet
  facet normal 0.146732 -0.989176 0
    outer loop
      vertex 1.43133 -4.49109 1.5
      vertex 1.61092 -4.46445 6.5
      vertex 1.43133 -4.49109 6.5
    endloop
  endfacet
  facet normal 0.146732 -0.989176 0
    outer loop
      vertex 1.61092 -4.46445 6.5
      vertex 1.43133 -4.49109 1.5
      vertex 1.61092 -4.46445 1.5
    endloop
  endfacet
  facet normal 0.941544 0.336891 1.52664e-19
    outer loop
      vertex 3.97034 3.18703 6.5
      vertex 3.90918 3.35796 1.5
      vertex 3.90918 3.35796 6.5
    endloop
  endfacet
  facet normal 0.941544 0.336891 1.52664e-19
    outer loop
      vertex 3.90918 3.35796 1.5
      vertex 3.97034 3.18703 6.5
      vertex 3.97034 3.18703 1.5
    endloop
  endfacet
  facet normal 0.514083 -0.857741 0
    outer loop
      vertex 2.12208 -4.28155 1.5
      vertex 2.2778 -4.18822 6.5
      vertex 2.12208 -4.28155 6.5
    endloop
  endfacet
  facet normal 0.514083 -0.857741 0
    outer loop
      vertex 2.2778 -4.18822 6.5
      vertex 2.12208 -4.28155 1.5
      vertex 2.2778 -4.18822 1.5
    endloop
  endfacet
  facet normal -0.146732 0.989176 0
    outer loop
      vertex -2.38133 4.49109 1.5
      vertex -2.56092 4.46445 6.5
      vertex -2.38133 4.49109 6.5
    endloop
  endfacet
  facet normal -0.146732 0.989176 0
    outer loop
      vertex -2.56092 4.46445 6.5
      vertex -2.38133 4.49109 1.5
      vertex -2.56092 4.46445 1.5
    endloop
  endfacet
  facet normal 0.146732 0.989176 -0
    outer loop
      vertex 2.56092 4.46445 1.5
      vertex 2.38133 4.49109 6.5
      vertex 2.56092 4.46445 6.5
    endloop
  endfacet
  facet normal 0.146732 0.989176 0
    outer loop
      vertex 2.38133 4.49109 6.5
      vertex 2.56092 4.46445 1.5
      vertex 2.38133 4.49109 1.5
    endloop
  endfacet
  facet normal 0.989176 0.146732 -4.55894e-19
    outer loop
      vertex 4.04109 2.83133 6.5
      vertex 4.01445 3.01092 1.5
      vertex 4.01445 3.01092 6.5
    endloop
  endfacet
  facet normal 0.989176 0.146732 -4.55894e-19
    outer loop
      vertex 4.01445 3.01092 1.5
      vertex 4.04109 2.83133 6.5
      vertex 4.04109 2.83133 1.5
    endloop
  endfacet
  facet normal 0 -1 0
    outer loop
      vertex -1.25 -4.5 1.5
      vertex 1.25 -4.5 6.5
      vertex -1.25 -4.5 6.5
    endloop
  endfacet
  facet normal 0 -1 -0
    outer loop
      vertex 1.25 -4.5 6.5
      vertex -1.25 -4.5 1.5
      vertex 1.25 -4.5 1.5
    endloop
  endfacet
  facet normal -0.941544 -0.336891 1.52664e-19
    outer loop
      vertex -2.95918 -3.35796 1.5
      vertex -3.02034 -3.18703 6.5
      vertex -3.02034 -3.18703 1.5
    endloop
  endfacet
  facet normal -0.941544 -0.336891 1.52664e-19
    outer loop
      vertex -3.02034 -3.18703 6.5
      vertex -2.95918 -3.35796 1.5
      vertex -2.95918 -3.35796 6.5
    endloop
  endfacet
  facet normal 0.740956 0.671553 1.30487e-18
    outer loop
      vertex 3.63007 3.82363 6.5
      vertex 3.50815 3.95815 1.5
      vertex 3.50815 3.95815 6.5
    endloop
  endfacet
  facet normal 0.740956 0.671553 1.30487e-18
    outer loop
      vertex 3.50815 3.95815 1.5
      vertex 3.63007 3.82363 6.5
      vertex 3.63007 3.82363 1.5
    endloop
  endfacet
  facet normal -0.336891 0.941544 0
    outer loop
      vertex -2.73703 4.42034 1.5
      vertex -2.90796 4.35918 6.5
      vertex -2.73703 4.42034 6.5
    endloop
  endfacet
  facet normal -0.336891 0.941544 0
    outer loop
      vertex -2.90796 4.35918 6.5
      vertex -2.73703 4.42034 1.5
      vertex -2.90796 4.35918 1.5
    endloop
  endfacet
  facet normal -0.595682 -0.80322 0
    outer loop
      vertex -2.42363 -4.08007 1.5
      vertex -2.2778 -4.18822 6.5
      vertex -2.42363 -4.08007 6.5
    endloop
  endfacet
  facet normal -0.595682 -0.80322 -0
    outer loop
      vertex -2.2778 -4.18822 6.5
      vertex -2.42363 -4.08007 1.5
      vertex -2.2778 -4.18822 1.5
    endloop
  endfacet
  facet normal -0.427587 0.903974 0
    outer loop
      vertex -2.90796 4.35918 1.5
      vertex -3.07208 4.28155 6.5
      vertex -2.90796 4.35918 6.5
    endloop
  endfacet
  facet normal -0.427587 0.903974 0
    outer loop
      vertex -3.07208 4.28155 6.5
      vertex -2.90796 4.35918 1.5
      vertex -3.07208 4.28155 1.5
    endloop
  endfacet
  facet normal -0.80322 0.595682 -3.51294e-19
    outer loop
      vertex -3.73822 3.6778 1.5
      vertex -3.63007 3.82363 6.5
      vertex -3.63007 3.82363 1.5
    endloop
  endfacet
  facet normal -0.80322 0.595682 -3.51294e-19
    outer loop
      vertex -3.63007 3.82363 6.5
      vertex -3.73822 3.6778 1.5
      vertex -3.73822 3.6778 6.5
    endloop
  endfacet
  facet normal -0.941544 0.336891 -1.52664e-19
    outer loop
      vertex -3.97034 3.18703 1.5
      vertex -3.90918 3.35796 6.5
      vertex -3.90918 3.35796 1.5
    endloop
  endfacet
  facet normal -0.941544 0.336891 -1.52664e-19
    outer loop
      vertex -3.90918 3.35796 6.5
      vertex -3.97034 3.18703 1.5
      vertex -3.97034 3.18703 6.5
    endloop
  endfacet
  facet normal -0.970035 0.242963 -2.22644e-19
    outer loop
      vertex -4.01445 3.01092 1.5
      vertex -3.97034 3.18703 6.5
      vertex -3.97034 3.18703 1.5
    endloop
  endfacet
  facet normal -0.970035 0.242963 -2.22644e-19
    outer loop
      vertex -3.97034 3.18703 6.5
      vertex -4.01445 3.01092 1.5
      vertex -4.01445 3.01092 6.5
    endloop
  endfacet
  facet normal 0.998795 -0.0490777 -1.14169e-20
    outer loop
      vertex 4.04109 2.46867 6.5
      vertex 4.05 2.65 1.5
      vertex 4.05 2.65 6.5
    endloop
  endfacet
  facet normal 0.998795 -0.0490777 -1.14169e-20
    outer loop
      vertex 4.05 2.65 1.5
      vertex 4.04109 2.46867 6.5
      vertex 4.04109 2.46867 1.5
    endloop
  endfacet
  facet normal 0.970035 -0.242963 -2.22644e-19
    outer loop
      vertex 3.02034 -3.18703 6.5
      vertex 3.06445 -3.01092 1.5
      vertex 3.06445 -3.01092 6.5
    endloop
  endfacet
  facet normal 0.970035 -0.242963 -2.22644e-19
    outer loop
      vertex 3.06445 -3.01092 1.5
      vertex 3.02034 -3.18703 6.5
      vertex 3.02034 -3.18703 1.5
    endloop
  endfacet
  facet normal -0.989176 0.146732 4.55894e-19
    outer loop
      vertex -4.04109 2.83133 1.5
      vertex -4.01445 3.01092 6.5
      vertex -4.01445 3.01092 1.5
    endloop
  endfacet
  facet normal -0.989176 0.146732 4.55894e-19
    outer loop
      vertex -4.01445 3.01092 6.5
      vertex -4.04109 2.83133 1.5
      vertex -4.04109 2.83133 6.5
    endloop
  endfacet
  facet normal -0.984313 -0.176433 9.56721e-18
    outer loop
      vertex -3.06445 -3.01092 1.5
      vertex -4.01445 2.28908 6.5
      vertex -4.01445 2.28908 1.5
    endloop
  endfacet
  facet normal -0.984313 -0.176433 9.56721e-18
    outer loop
      vertex -4.01445 2.28908 6.5
      vertex -3.06445 -3.01092 1.5
      vertex -3.06445 -3.01092 6.5
    endloop
  endfacet
  facet normal 0.740956 -0.671553 -4.69527e-19
    outer loop
      vertex 2.55815 -3.95815 6.5
      vertex 2.68007 -3.82363 1.5
      vertex 2.68007 -3.82363 6.5
    endloop
  endfacet
  facet normal 0.740956 -0.671553 -4.69527e-19
    outer loop
      vertex 2.68007 -3.82363 1.5
      vertex 2.55815 -3.95815 6.5
      vertex 2.55815 -3.95815 1.5
    endloop
  endfacet
  facet normal 0.903974 -0.427587 -8.51777e-19
    outer loop
      vertex 2.88155 -3.52208 6.5
      vertex 2.95918 -3.35796 1.5
      vertex 2.95918 -3.35796 6.5
    endloop
  endfacet
  facet normal 0.903974 -0.427587 -8.51777e-19
    outer loop
      vertex 2.95918 -3.35796 1.5
      vertex 2.88155 -3.52208 6.5
      vertex 2.88155 -3.52208 1.5
    endloop
  endfacet
  facet normal -0.671553 0.740956 0
    outer loop
      vertex -3.37363 4.08007 1.5
      vertex -3.50815 3.95815 6.5
      vertex -3.37363 4.08007 6.5
    endloop
  endfacet
  facet normal -0.671553 0.740956 0
    outer loop
      vertex -3.50815 3.95815 6.5
      vertex -3.37363 4.08007 1.5
      vertex -3.50815 3.95815 1.5
    endloop
  endfacet
  facet normal -0.0490777 -0.998795 0
    outer loop
      vertex -1.43133 -4.49109 1.5
      vertex -1.25 -4.5 6.5
      vertex -1.43133 -4.49109 6.5
    endloop
  endfacet
  facet normal -0.0490777 -0.998795 -0
    outer loop
      vertex -1.25 -4.5 6.5
      vertex -1.43133 -4.49109 1.5
      vertex -1.25 -4.5 1.5
    endloop
  endfacet
  facet normal -0.514083 0.857741 0
    outer loop
      vertex -3.07208 4.28155 1.5
      vertex -3.2278 4.18822 6.5
      vertex -3.07208 4.28155 6.5
    endloop
  endfacet
  facet normal -0.514083 0.857741 0
    outer loop
      vertex -3.2278 4.18822 6.5
      vertex -3.07208 4.28155 1.5
      vertex -3.2278 4.18822 1.5
    endloop
  endfacet
  facet normal -0.903974 0.427587 -8.51777e-19
    outer loop
      vertex -3.90918 3.35796 1.5
      vertex -3.83155 3.52208 6.5
      vertex -3.83155 3.52208 1.5
    endloop
  endfacet
  facet normal -0.903974 0.427587 -8.51777e-19
    outer loop
      vertex -3.83155 3.52208 6.5
      vertex -3.90918 3.35796 1.5
      vertex -3.90918 3.35796 6.5
    endloop
  endfacet
  facet normal 0.857741 0.514083 4.79422e-19
    outer loop
      vertex 3.83155 3.52208 6.5
      vertex 3.73822 3.6778 1.5
      vertex 3.73822 3.6778 6.5
    endloop
  endfacet
  facet normal 0.857741 0.514083 4.79422e-19
    outer loop
      vertex 3.73822 3.6778 1.5
      vertex 3.83155 3.52208 6.5
      vertex 3.83155 3.52208 1.5
    endloop
  endfacet
  facet normal -0.427587 -0.903974 0
    outer loop
      vertex -2.12208 -4.28155 1.5
      vertex -1.95796 -4.35918 6.5
      vertex -2.12208 -4.28155 6.5
    endloop
  endfacet
  facet normal -0.427587 -0.903974 -0
    outer loop
      vertex -1.95796 -4.35918 6.5
      vertex -2.12208 -4.28155 1.5
      vertex -1.95796 -4.35918 1.5
    endloop
  endfacet
  facet normal 0.336891 -0.941544 0
    outer loop
      vertex 1.78703 -4.42034 1.5
      vertex 1.95796 -4.35918 6.5
      vertex 1.78703 -4.42034 6.5
    endloop
  endfacet
  facet normal 0.336891 -0.941544 0
    outer loop
      vertex 1.95796 -4.35918 6.5
      vertex 1.78703 -4.42034 1.5
      vertex 1.95796 -4.35918 1.5
    endloop
  endfacet
  facet normal -0.903974 -0.427587 8.51777e-19
    outer loop
      vertex -2.88155 -3.52208 1.5
      vertex -2.95918 -3.35796 6.5
      vertex -2.95918 -3.35796 1.5
    endloop
  endfacet
  facet normal -0.903974 -0.427587 8.51777e-19
    outer loop
      vertex -2.95918 -3.35796 6.5
      vertex -2.88155 -3.52208 1.5
      vertex -2.88155 -3.52208 6.5
    endloop
  endfacet
  facet normal 0.671553 0.740956 -0
    outer loop
      vertex 3.50815 3.95815 1.5
      vertex 3.37363 4.08007 6.5
      vertex 3.50815 3.95815 6.5
    endloop
  endfacet
  facet normal 0.671553 0.740956 0
    outer loop
      vertex 3.37363 4.08007 6.5
      vertex 3.50815 3.95815 1.5
      vertex 3.37363 4.08007 1.5
    endloop
  endfacet
  facet normal 0.242963 -0.970035 0
    outer loop
      vertex 1.61092 -4.46445 1.5
      vertex 1.78703 -4.42034 6.5
      vertex 1.61092 -4.46445 6.5
    endloop
  endfacet
  facet normal 0.242963 -0.970035 0
    outer loop
      vertex 1.78703 -4.42034 6.5
      vertex 1.61092 -4.46445 1.5
      vertex 1.78703 -4.42034 1.5
    endloop
  endfacet
  facet normal 0.941544 -0.336891 -1.52664e-19
    outer loop
      vertex 2.95918 -3.35796 6.5
      vertex 3.02034 -3.18703 1.5
      vertex 3.02034 -3.18703 6.5
    endloop
  endfacet
  facet normal 0.941544 -0.336891 -1.52664e-19
    outer loop
      vertex 3.02034 -3.18703 1.5
      vertex 2.95918 -3.35796 6.5
      vertex 2.95918 -3.35796 1.5
    endloop
  endfacet
  facet normal -0.242963 -0.970035 0
    outer loop
      vertex -1.78703 -4.42034 1.5
      vertex -1.61092 -4.46445 6.5
      vertex -1.78703 -4.42034 6.5
    endloop
  endfacet
  facet normal -0.242963 -0.970035 -0
    outer loop
      vertex -1.61092 -4.46445 6.5
      vertex -1.78703 -4.42034 1.5
      vertex -1.61092 -4.46445 1.5
    endloop
  endfacet
  facet normal 0.427587 0.903974 -0
    outer loop
      vertex 3.07208 4.28155 1.5
      vertex 2.90796 4.35918 6.5
      vertex 3.07208 4.28155 6.5
    endloop
  endfacet
  facet normal 0.427587 0.903974 0
    outer loop
      vertex 2.90796 4.35918 6.5
      vertex 3.07208 4.28155 1.5
      vertex 2.90796 4.35918 1.5
    endloop
  endfacet
  facet normal -0.671553 -0.740956 0
    outer loop
      vertex -2.55815 -3.95815 1.5
      vertex -2.42363 -4.08007 6.5
      vertex -2.55815 -3.95815 6.5
    endloop
  endfacet
  facet normal -0.671553 -0.740956 -0
    outer loop
      vertex -2.42363 -4.08007 6.5
      vertex -2.55815 -3.95815 1.5
      vertex -2.42363 -4.08007 1.5
    endloop
  endfacet
  facet normal 0.595682 -0.80322 0
    outer loop
      vertex 2.2778 -4.18822 1.5
      vertex 2.42363 -4.08007 6.5
      vertex 2.2778 -4.18822 6.5
    endloop
  endfacet
  facet normal 0.595682 -0.80322 0
    outer loop
      vertex 2.42363 -4.08007 6.5
      vertex 2.2778 -4.18822 1.5
      vertex 2.42363 -4.08007 1.5
    endloop
  endfacet
  facet normal 0.857741 -0.514083 -4.79422e-19
    outer loop
      vertex 2.78822 -3.6778 6.5
      vertex 2.88155 -3.52208 1.5
      vertex 2.88155 -3.52208 6.5
    endloop
  endfacet
  facet normal 0.857741 -0.514083 -4.79422e-19
    outer loop
      vertex 2.88155 -3.52208 1.5
      vertex 2.78822 -3.6778 6.5
      vertex 2.78822 -3.6778 1.5
    endloop
  endfacet
  facet normal 0.671553 -0.740956 0
    outer loop
      vertex 2.42363 -4.08007 1.5
      vertex 2.55815 -3.95815 6.5
      vertex 2.42363 -4.08007 6.5
    endloop
  endfacet
  facet normal 0.671553 -0.740956 0
    outer loop
      vertex 2.55815 -3.95815 6.5
      vertex 2.42363 -4.08007 1.5
      vertex 2.55815 -3.95815 1.5
    endloop
  endfacet
  facet normal -0.80322 -0.595682 -9.243e-19
    outer loop
      vertex -2.68007 -3.82363 1.5
      vertex -2.78822 -3.6778 6.5
      vertex -2.78822 -3.6778 1.5
    endloop
  endfacet
  facet normal -0.80322 -0.595682 -9.243e-19
    outer loop
      vertex -2.78822 -3.6778 6.5
      vertex -2.68007 -3.82363 1.5
      vertex -2.68007 -3.82363 6.5
    endloop
  endfacet
  facet normal 0 0 1
    outer loop
      vertex 4.04109 2.83133 6.5
      vertex 4.04109 2.46867 6.5
      vertex 4.05 2.65 6.5
    endloop
  endfacet
  facet normal 0 0 1
    outer loop
      vertex 4.01445 3.01092 6.5
      vertex 4.04109 2.46867 6.5
      vertex 4.04109 2.83133 6.5
    endloop
  endfacet
  facet normal 0 0 1
    outer loop
      vertex 4.01445 3.01092 6.5
      vertex 4.01445 2.28908 6.5
      vertex 4.04109 2.46867 6.5
    endloop
  endfacet
  facet normal 0 0 1
    outer loop
      vertex 3.97034 3.18703 6.5
      vertex 4.01445 2.28908 6.5
      vertex 4.01445 3.01092 6.5
    endloop
  endfacet
  facet normal 0 0 1
    outer loop
      vertex 3.90918 3.35796 6.5
      vertex 4.01445 2.28908 6.5
      vertex 3.97034 3.18703 6.5
    endloop
  endfacet
  facet normal 0 0 1
    outer loop
      vertex 3.83155 3.52208 6.5
      vertex 4.01445 2.28908 6.5
      vertex 3.90918 3.35796 6.5
    endloop
  endfacet
  facet normal 0 0 1
    outer loop
      vertex 3.73822 3.6778 6.5
      vertex 4.01445 2.28908 6.5
      vertex 3.83155 3.52208 6.5
    endloop
  endfacet
  facet normal 0 0 1
    outer loop
      vertex 3.63007 3.82363 6.5
      vertex 4.01445 2.28908 6.5
      vertex 3.73822 3.6778 6.5
    endloop
  endfacet
  facet normal 0 0 1
    outer loop
      vertex 3.50815 3.95815 6.5
      vertex 4.01445 2.28908 6.5
      vertex 3.63007 3.82363 6.5
    endloop
  endfacet
  facet normal 0 0 1
    outer loop
      vertex 3.37363 4.08007 6.5
      vertex 4.01445 2.28908 6.5
      vertex 3.50815 3.95815 6.5
    endloop
  endfacet
  facet normal 0 0 1
    outer loop
      vertex 3.2278 4.18822 6.5
      vertex 4.01445 2.28908 6.5
      vertex 3.37363 4.08007 6.5
    endloop
  endfacet
  facet normal 0 0 1
    outer loop
      vertex 3.07208 4.28155 6.5
      vertex 4.01445 2.28908 6.5
      vertex 3.2278 4.18822 6.5
    endloop
  endfacet
  facet normal 0 0 1
    outer loop
      vertex 2.2 4.5 6.5
      vertex 4.01445 2.28908 6.5
      vertex 3.07208 4.28155 6.5
    endloop
  endfacet
  facet normal 0 0 1
    outer loop
      vertex -4.01445 2.28908 6.5
      vertex 4.01445 2.28908 6.5
      vertex 2.2 4.5 6.5
    endloop
  endfacet
  facet normal 0 0 1
    outer loop
      vertex 4.01445 2.28908 6.5
      vertex -4.01445 2.28908 6.5
      vertex 3.06445 -3.01092 6.5
    endloop
  endfacet
  facet normal 0 0 1
    outer loop
      vertex 2.2 4.5 6.5
      vertex 3.07208 4.28155 6.5
      vertex 2.90796 4.35918 6.5
    endloop
  endfacet
  facet normal 0 -0 1
    outer loop
      vertex -3.06445 -3.01092 6.5
      vertex 3.06445 -3.01092 6.5
      vertex -4.01445 2.28908 6.5
    endloop
  endfacet
  facet normal 0 -0 1
    outer loop
      vertex 1.25 -4.5 6.5
      vertex 3.06445 -3.01092 6.5
      vertex -3.06445 -3.01092 6.5
    endloop
  endfacet
  facet normal 0 0 1
    outer loop
      vertex 2.2 4.5 6.5
      vertex 2.90796 4.35918 6.5
      vertex 2.73703 4.42034 6.5
    endloop
  endfacet
  facet normal 0 0 1
    outer loop
      vertex 3.02034 -3.18703 6.5
      vertex 1.25 -4.5 6.5
      vertex 2.95918 -3.35796 6.5
    endloop
  endfacet
  facet normal 0 0 1
    outer loop
      vertex 2.2 4.5 6.5
      vertex 2.73703 4.42034 6.5
      vertex 2.56092 4.46445 6.5
    endloop
  endfacet
  facet normal 0 0 1
    outer loop
      vertex 2.95918 -3.35796 6.5
      vertex 1.25 -4.5 6.5
      vertex 2.88155 -3.52208 6.5
    endloop
  endfacet
  facet normal 0 0 1
    outer loop
      vertex 2.88155 -3.52208 6.5
      vertex 1.25 -4.5 6.5
      vertex 2.78822 -3.6778 6.5
    endloop
  endfacet
  facet normal 0 0 1
    outer loop
      vertex 2.2 4.5 6.5
      vertex 2.56092 4.46445 6.5
      vertex 2.38133 4.49109 6.5
    endloop
  endfacet
  facet normal 0 0 1
    outer loop
      vertex 2.78822 -3.6778 6.5
      vertex 1.25 -4.5 6.5
      vertex 2.68007 -3.82363 6.5
    endloop
  endfacet
  facet normal 0 0 1
    outer loop
      vertex 2.68007 -3.82363 6.5
      vertex 1.25 -4.5 6.5
      vertex 2.55815 -3.95815 6.5
    endloop
  endfacet
  facet normal 0 0 1
    outer loop
      vertex 2.42363 -4.08007 6.5
      vertex 1.25 -4.5 6.5
      vertex 2.2778 -4.18822 6.5
    endloop
  endfacet
  facet normal 0 0 1
    outer loop
      vertex 2.2778 -4.18822 6.5
      vertex 1.25 -4.5 6.5
      vertex 2.12208 -4.28155 6.5
    endloop
  endfacet
  facet normal 0 0 1
    outer loop
      vertex 2.12208 -4.28155 6.5
      vertex 1.25 -4.5 6.5
      vertex 1.95796 -4.35918 6.5
    endloop
  endfacet
  facet normal 0 0 1
    outer loop
      vertex 1.95796 -4.35918 6.5
      vertex 1.25 -4.5 6.5
      vertex 1.78703 -4.42034 6.5
    endloop
  endfacet
  facet normal 0 0 1
    outer loop
      vertex 1.78703 -4.42034 6.5
      vertex 1.25 -4.5 6.5
      vertex 1.61092 -4.46445 6.5
    endloop
  endfacet
  facet normal 0 0 1
    outer loop
      vertex 1.61092 -4.46445 6.5
      vertex 1.25 -4.5 6.5
      vertex 1.43133 -4.49109 6.5
    endloop
  endfacet
  facet normal 0 0 1
    outer loop
      vertex 2.55815 -3.95815 6.5
      vertex 1.25 -4.5 6.5
      vertex 2.42363 -4.08007 6.5
    endloop
  endfacet
  facet normal 0 0 1
    outer loop
      vertex 1.25 -4.5 6.5
      vertex -3.06445 -3.01092 6.5
      vertex -1.25 -4.5 6.5
    endloop
  endfacet
  facet normal 0 0 1
    outer loop
      vertex -1.25 -4.5 6.5
      vertex -3.06445 -3.01092 6.5
      vertex -1.43133 -4.49109 6.5
    endloop
  endfacet
  facet normal 0 0 1
    outer loop
      vertex -1.43133 -4.49109 6.5
      vertex -3.06445 -3.01092 6.5
      vertex -1.61092 -4.46445 6.5
    endloop
  endfacet
  facet normal 0 0 1
    outer loop
      vertex -1.61092 -4.46445 6.5
      vertex -3.06445 -3.01092 6.5
      vertex -1.78703 -4.42034 6.5
    endloop
  endfacet
  facet normal 0 0 1
    outer loop
      vertex -1.78703 -4.42034 6.5
      vertex -3.06445 -3.01092 6.5
      vertex -1.95796 -4.35918 6.5
    endloop
  endfacet
  facet normal 0 0 1
    outer loop
      vertex -4.01445 2.28908 6.5
      vertex 2.2 4.5 6.5
      vertex -2.2 4.5 6.5
    endloop
  endfacet
  facet normal 0 0 1
    outer loop
      vertex -1.95796 -4.35918 6.5
      vertex -3.06445 -3.01092 6.5
      vertex -2.12208 -4.28155 6.5
    endloop
  endfacet
  facet normal 0 0 1
    outer loop
      vertex -4.01445 2.28908 6.5
      vertex -2.2 4.5 6.5
      vertex -2.38133 4.49109 6.5
    endloop
  endfacet
  facet normal 0 0 1
    outer loop
      vertex -2.12208 -4.28155 6.5
      vertex -3.06445 -3.01092 6.5
      vertex -2.2778 -4.18822 6.5
    endloop
  endfacet
  facet normal 0 0 1
    outer loop
      vertex -2.2778 -4.18822 6.5
      vertex -3.06445 -3.01092 6.5
      vertex -2.42363 -4.08007 6.5
    endloop
  endfacet
  facet normal 0 0 1
    outer loop
      vertex -4.01445 2.28908 6.5
      vertex -2.38133 4.49109 6.5
      vertex -2.56092 4.46445 6.5
    endloop
  endfacet
  facet normal 0 0 1
    outer loop
      vertex -2.42363 -4.08007 6.5
      vertex -3.06445 -3.01092 6.5
      vertex -2.55815 -3.95815 6.5
    endloop
  endfacet
  facet normal 0 0 1
    outer loop
      vertex -4.01445 2.28908 6.5
      vertex -2.56092 4.46445 6.5
      vertex -2.73703 4.42034 6.5
    endloop
  endfacet
  facet normal 0 0 1
    outer loop
      vertex -2.55815 -3.95815 6.5
      vertex -3.06445 -3.01092 6.5
      vertex -2.68007 -3.82363 6.5
    endloop
  endfacet
  facet normal 0 0 1
    outer loop
      vertex -2.68007 -3.82363 6.5
      vertex -3.06445 -3.01092 6.5
      vertex -2.78822 -3.6778 6.5
    endloop
  endfacet
  facet normal 0 0 1
    outer loop
      vertex -4.01445 2.28908 6.5
      vertex -2.73703 4.42034 6.5
      vertex -2.90796 4.35918 6.5
    endloop
  endfacet
  facet normal 0 0 1
    outer loop
      vertex -2.78822 -3.6778 6.5
      vertex -3.06445 -3.01092 6.5
      vertex -2.88155 -3.52208 6.5
    endloop
  endfacet
  facet normal 0 0 1
    outer loop
      vertex -2.88155 -3.52208 6.5
      vertex -3.06445 -3.01092 6.5
      vertex -2.95918 -3.35796 6.5
    endloop
  endfacet
  facet normal 0 0 1
    outer loop
      vertex -2.95918 -3.35796 6.5
      vertex -3.06445 -3.01092 6.5
      vertex -3.02034 -3.18703 6.5
    endloop
  endfacet
  facet normal 0 0 1
    outer loop
      vertex -4.01445 2.28908 6.5
      vertex -2.90796 4.35918 6.5
      vertex -3.07208 4.28155 6.5
    endloop
  endfacet
  facet normal 0 0 1
    outer loop
      vertex -4.01445 2.28908 6.5
      vertex -3.07208 4.28155 6.5
      vertex -3.2278 4.18822 6.5
    endloop
  endfacet
  facet normal 0 0 1
    outer loop
      vertex -4.01445 2.28908 6.5
      vertex -3.2278 4.18822 6.5
      vertex -3.37363 4.08007 6.5
    endloop
  endfacet
  facet normal 0 0 1
    outer loop
      vertex -4.01445 2.28908 6.5
      vertex -3.37363 4.08007 6.5
      vertex -3.50815 3.95815 6.5
    endloop
  endfacet
  facet normal 0 0 1
    outer loop
      vertex -4.01445 2.28908 6.5
      vertex -3.50815 3.95815 6.5
      vertex -3.63007 3.82363 6.5
    endloop
  endfacet
  facet normal 0 0 1
    outer loop
      vertex -4.01445 2.28908 6.5
      vertex -3.63007 3.82363 6.5
      vertex -3.73822 3.6778 6.5
    endloop
  endfacet
  facet normal 0 0 1
    outer loop
      vertex -4.01445 2.28908 6.5
      vertex -3.73822 3.6778 6.5
      vertex -3.83155 3.52208 6.5
    endloop
  endfacet
  facet normal 0 0 1
    outer loop
      vertex -4.01445 2.28908 6.5
      vertex -3.83155 3.52208 6.5
      vertex -3.90918 3.35796 6.5
    endloop
  endfacet
  facet normal 0 0 1
    outer loop
      vertex -4.01445 2.28908 6.5
      vertex -3.90918 3.35796 6.5
      vertex -3.97034 3.18703 6.5
    endloop
  endfacet
  facet normal 0 0 1
    outer loop
      vertex -4.01445 2.28908 6.5
      vertex -3.97034 3.18703 6.5
      vertex -4.01445 3.01092 6.5
    endloop
  endfacet
  facet normal 0 0 1
    outer loop
      vertex 3.06445 -3.01092 6.5
      vertex 1.25 -4.5 6.5
      vertex 3.02034 -3.18703 6.5
    endloop
  endfacet
  facet normal -0 0 1
    outer loop
      vertex -4.04109 2.83133 6.5
      vertex -4.01445 2.28908 6.5
      vertex -4.01445 3.01092 6.5
    endloop
  endfacet
  facet normal 0 0 1
    outer loop
      vertex -4.04109 2.83133 6.5
      vertex -4.04109 2.46867 6.5
      vertex -4.01445 2.28908 6.5
    endloop
  endfacet
  facet normal 0 -0 1
    outer loop
      vertex -4.04109 2.46867 6.5
      vertex -4.04109 2.83133 6.5
      vertex -4.05 2.65 6.5
    endloop
  endfacet
endsolid OpenSCAD_Model
