solid OpenSCAD_Model
  facet normal -1 0 0
    outer loop
      vertex -57 0 0
      vertex -57 2.5 0
      vertex -57 2.5 -25
    endloop
  endfacet
  facet normal -1 0 -0
    outer loop
      vertex -57 0.0240631 0.490082
      vertex -57 2.5 0
      vertex -57 0 0
    endloop
  endfacet
  facet normal -1 0 0
    outer loop
      vertex -57 2.5 0
      vertex -57 1.82803 3.86505
      vertex -57 2.22214 4.15733
    endloop
  endfacet
  facet normal -1 0 0
    outer loop
      vertex -57 2.5 0
      vertex -57 1.46446 3.53552
      vertex -57 1.82803 3.86505
    endloop
  endfacet
  facet normal -1 0 0
    outer loop
      vertex -57 2.5 0
      vertex -57 1.13493 3.17195
      vertex -57 1.46446 3.53552
    endloop
  endfacet
  facet normal -1 0 0
    outer loop
      vertex -57 2.5 0
      vertex -57 0.842651 2.77785
      vertex -57 1.13493 3.17195
    endloop
  endfacet
  facet normal -1 0 0
    outer loop
      vertex -57 2.5 0
      vertex -57 0.590393 2.35698
      vertex -57 0.842651 2.77785
    endloop
  endfacet
  facet normal -1 0 0
    outer loop
      vertex -57 2.5 0
      vertex -57 0.3806 1.91341
      vertex -57 0.590393 2.35698
    endloop
  endfacet
  facet normal -1 0 0
    outer loop
      vertex -57 2.5 0
      vertex -57 0.215286 1.45142
      vertex -57 0.3806 1.91341
    endloop
  endfacet
  facet normal -1 0 0
    outer loop
      vertex -57 2.5 0
      vertex -57 0.0960693 0.975449
      vertex -57 0.215286 1.45142
    endloop
  endfacet
  facet normal -1 0 0
    outer loop
      vertex -57 0 0
      vertex -57 2.5 -25
      vertex -57 0 -25
    endloop
  endfacet
  facet normal -1 0 0
    outer loop
      vertex -57 2.5 0
      vertex -57 0.0240631 0.490082
      vertex -57 0.0960693 0.975449
    endloop
  endfacet
  facet normal -1 0 0
    outer loop
      vertex -57 7.5 0
      vertex -57 10 0
      vertex -57 10 -49
    endloop
  endfacet
  facet normal -1 0 0
    outer loop
      vertex -57 10 0
      vertex -57 7.5 0
      vertex -57 9.97592 0.490082
    endloop
  endfacet
  facet normal -1 0 0
    outer loop
      vertex -57 7.48796 0.245041
      vertex -57 9.97592 0.490082
      vertex -57 7.5 0
    endloop
  endfacet
  facet normal -1 -0 0
    outer loop
      vertex -57 9.97592 0.490082
      vertex -57 7.48796 0.245041
      vertex -57 9.90392 0.975449
    endloop
  endfacet
  facet normal -1 0 0
    outer loop
      vertex -57 7.45195 0.487717
      vertex -57 9.90392 0.975449
      vertex -57 7.48796 0.245041
    endloop
  endfacet
  facet normal -1 -0 0
    outer loop
      vertex -57 9.90392 0.975449
      vertex -57 7.45195 0.487717
      vertex -57 9.7847 1.45142
    endloop
  endfacet
  facet normal -1 0 0
    outer loop
      vertex -57 7.39235 0.725708
      vertex -57 9.7847 1.45142
      vertex -57 7.45195 0.487717
    endloop
  endfacet
  facet normal -1 -0 0
    outer loop
      vertex -57 9.7847 1.45142
      vertex -57 7.39235 0.725708
      vertex -57 9.61938 1.91341
    endloop
  endfacet
  facet normal -1 0 0
    outer loop
      vertex -57 7.30969 0.956696
      vertex -57 9.61938 1.91341
      vertex -57 7.39235 0.725708
    endloop
  endfacet
  facet normal -1 -0 0
    outer loop
      vertex -57 9.61938 1.91341
      vertex -57 7.30969 0.956696
      vertex -57 9.40959 2.35698
    endloop
  endfacet
  facet normal -1 0 0
    outer loop
      vertex -57 7.5 0
      vertex -57 10 -49
      vertex -57 7.5 -49
    endloop
  endfacet
  facet normal -1 0 0
    outer loop
      vertex -57 7.20479 1.17848
      vertex -57 9.40959 2.35698
      vertex -57 7.30969 0.956696
    endloop
  endfacet
  facet normal -1 -0 0
    outer loop
      vertex -57 9.40959 2.35698
      vertex -57 7.20479 1.17848
      vertex -57 9.15733 2.77785
    endloop
  endfacet
  facet normal -1 0 0
    outer loop
      vertex -57 7.07866 1.38892
      vertex -57 9.15733 2.77785
      vertex -57 7.20479 1.17848
    endloop
  endfacet
  facet normal -1 -0 0
    outer loop
      vertex -57 9.15733 2.77785
      vertex -57 7.07866 1.38892
      vertex -57 8.86505 3.17195
    endloop
  endfacet
  facet normal -1 0 0
    outer loop
      vertex -57 6.93253 1.58597
      vertex -57 8.86505 3.17195
      vertex -57 7.07866 1.38892
    endloop
  endfacet
  facet normal -1 -0 0
    outer loop
      vertex -57 8.86505 3.17195
      vertex -57 6.93253 1.58597
      vertex -57 8.53552 3.53552
    endloop
  endfacet
  facet normal -1 0 0
    outer loop
      vertex -57 6.76776 1.76776
      vertex -57 8.53552 3.53552
      vertex -57 6.93253 1.58597
    endloop
  endfacet
  facet normal -1 -0 0
    outer loop
      vertex -57 8.53552 3.53552
      vertex -57 6.76776 1.76776
      vertex -57 8.17195 3.86505
    endloop
  endfacet
  facet normal -1 0 0
    outer loop
      vertex -57 6.58597 1.93253
      vertex -57 8.17195 3.86505
      vertex -57 6.76776 1.76776
    endloop
  endfacet
  facet normal -1 -0 0
    outer loop
      vertex -57 8.17195 3.86505
      vertex -57 6.58597 1.93253
      vertex -57 7.77785 4.15733
    endloop
  endfacet
  facet normal -1 0 0
    outer loop
      vertex -57 6.38892 2.07866
      vertex -57 7.77785 4.15733
      vertex -57 6.58597 1.93253
    endloop
  endfacet
  facet normal -1 -0 0
    outer loop
      vertex -57 7.77785 4.15733
      vertex -57 6.38892 2.07866
      vertex -57 7.35698 4.40959
    endloop
  endfacet
  facet normal -1 0 0
    outer loop
      vertex -57 6.17848 2.20479
      vertex -57 7.35698 4.40959
      vertex -57 6.38892 2.07866
    endloop
  endfacet
  facet normal -1 -0 0
    outer loop
      vertex -57 7.35698 4.40959
      vertex -57 6.17848 2.20479
      vertex -57 6.91341 4.61938
    endloop
  endfacet
  facet normal -1 0 0
    outer loop
      vertex -57 5.9567 2.30969
      vertex -57 6.91341 4.61938
      vertex -57 6.17848 2.20479
    endloop
  endfacet
  facet normal -1 -0 0
    outer loop
      vertex -57 6.91341 4.61938
      vertex -57 5.9567 2.30969
      vertex -57 6.45142 4.7847
    endloop
  endfacet
  facet normal -1 0 0
    outer loop
      vertex -57 5.72571 2.39235
      vertex -57 6.45142 4.7847
      vertex -57 5.9567 2.30969
    endloop
  endfacet
  facet normal -1 -0 0
    outer loop
      vertex -57 6.45142 4.7847
      vertex -57 5.72571 2.39235
      vertex -57 5.97545 4.90392
    endloop
  endfacet
  facet normal -1 0 0
    outer loop
      vertex -57 5.48772 2.45195
      vertex -57 5.97545 4.90392
      vertex -57 5.72571 2.39235
    endloop
  endfacet
  facet normal -1 -0 0
    outer loop
      vertex -57 5.97545 4.90392
      vertex -57 5.48772 2.45195
      vertex -57 5.49008 4.97592
    endloop
  endfacet
  facet normal -1 0 0
    outer loop
      vertex -57 5.24504 2.48796
      vertex -57 5.49008 4.97592
      vertex -57 5.48772 2.45195
    endloop
  endfacet
  facet normal -1 0 0
    outer loop
      vertex -57 5 2.5
      vertex -57 5.49008 4.97592
      vertex -57 5.24504 2.48796
    endloop
  endfacet
  facet normal -1 0 0
    outer loop
      vertex -57 5 2.5
      vertex -57 5 5
      vertex -57 5.49008 4.97592
    endloop
  endfacet
  facet normal -1 0 0
    outer loop
      vertex -57 4.75494 2.48796
      vertex -57 5 5
      vertex -57 5 2.5
    endloop
  endfacet
  facet normal -1 0 0
    outer loop
      vertex -57 4.5099 4.97592
      vertex -57 4.75494 2.48796
      vertex -57 4.51227 2.45195
    endloop
  endfacet
  facet normal -1 0 0
    outer loop
      vertex -57 4.75494 2.48796
      vertex -57 4.5099 4.97592
      vertex -57 5 5
    endloop
  endfacet
  facet normal -1 0 0
    outer loop
      vertex -57 4.02454 4.90392
      vertex -57 4.51227 2.45195
      vertex -57 4.27428 2.39235
    endloop
  endfacet
  facet normal -1 0 0
    outer loop
      vertex -57 3.54857 4.7847
      vertex -57 4.27428 2.39235
      vertex -57 4.04329 2.30969
    endloop
  endfacet
  facet normal -1 0 0
    outer loop
      vertex -57 4.51227 2.45195
      vertex -57 4.02454 4.90392
      vertex -57 4.5099 4.97592
    endloop
  endfacet
  facet normal -1 0 0
    outer loop
      vertex -57 3.08658 4.61938
      vertex -57 4.04329 2.30969
      vertex -57 3.8215 2.20479
    endloop
  endfacet
  facet normal -1 0 0
    outer loop
      vertex -57 2.64301 4.40959
      vertex -57 3.8215 2.20479
      vertex -57 3.61107 2.07866
    endloop
  endfacet
  facet normal -1 0 0
    outer loop
      vertex -57 4.27428 2.39235
      vertex -57 3.54857 4.7847
      vertex -57 4.02454 4.90392
    endloop
  endfacet
  facet normal -1 0 0
    outer loop
      vertex -57 2.22214 4.15733
      vertex -57 3.61107 2.07866
      vertex -57 3.41402 1.93253
    endloop
  endfacet
  facet normal -1 0 0
    outer loop
      vertex -57 2.22214 4.15733
      vertex -57 3.41402 1.93253
      vertex -57 3.23222 1.76776
    endloop
  endfacet
  facet normal -1 0 0
    outer loop
      vertex -57 4.04329 2.30969
      vertex -57 3.08658 4.61938
      vertex -57 3.54857 4.7847
    endloop
  endfacet
  facet normal -1 0 0
    outer loop
      vertex -57 2.22214 4.15733
      vertex -57 3.23222 1.76776
      vertex -57 3.06746 1.58597
    endloop
  endfacet
  facet normal -1 0 0
    outer loop
      vertex -57 2.22214 4.15733
      vertex -57 3.06746 1.58597
      vertex -57 2.92133 1.38892
    endloop
  endfacet
  facet normal -1 0 0
    outer loop
      vertex -57 2.22214 4.15733
      vertex -57 2.92133 1.38892
      vertex -57 2.7952 1.17848
    endloop
  endfacet
  facet normal -1 0 0
    outer loop
      vertex -57 2.22214 4.15733
      vertex -57 2.7952 1.17848
      vertex -57 2.69029 0.956696
    endloop
  endfacet
  facet normal -1 0 0
    outer loop
      vertex -57 3.8215 2.20479
      vertex -57 2.64301 4.40959
      vertex -57 3.08658 4.61938
    endloop
  endfacet
  facet normal -1 0 0
    outer loop
      vertex -57 2.22214 4.15733
      vertex -57 2.69029 0.956696
      vertex -57 2.60764 0.725708
    endloop
  endfacet
  facet normal -1 0 0
    outer loop
      vertex -57 2.22214 4.15733
      vertex -57 2.60764 0.725708
      vertex -57 2.54803 0.487717
    endloop
  endfacet
  facet normal -1 0 0
    outer loop
      vertex -57 2.22214 4.15733
      vertex -57 2.54803 0.487717
      vertex -57 2.51202 0.245041
    endloop
  endfacet
  facet normal -1 0 0
    outer loop
      vertex -57 2.22214 4.15733
      vertex -57 2.51202 0.245041
      vertex -57 2.5 0
    endloop
  endfacet
  facet normal -1 0 0
    outer loop
      vertex -57 3.61107 2.07866
      vertex -57 2.22214 4.15733
      vertex -57 2.64301 4.40959
    endloop
  endfacet
  facet normal 1 0 0
    outer loop
      vertex -27 9.97592 0.490082
      vertex -27 7.48796 0.245041
      vertex -27 7.5 0
    endloop
  endfacet
  facet normal 1 0 0
    outer loop
      vertex -27 8.17195 3.86505
      vertex -27 7.45195 0.487717
      vertex -27 7.48796 0.245041
    endloop
  endfacet
  facet normal 1 0 0
    outer loop
      vertex -27 8.17195 3.86505
      vertex -27 7.39235 0.725708
      vertex -27 7.45195 0.487717
    endloop
  endfacet
  facet normal 1 0 0
    outer loop
      vertex -27 6.38892 2.07866
      vertex -27 7.77785 4.15733
      vertex -27 7.35698 4.40959
    endloop
  endfacet
  facet normal 1 0 0
    outer loop
      vertex -27 8.17195 3.86505
      vertex -27 7.30969 0.956696
      vertex -27 7.39235 0.725708
    endloop
  endfacet
  facet normal 1 0 0
    outer loop
      vertex -27 8.17195 3.86505
      vertex -27 7.20479 1.17848
      vertex -27 7.30969 0.956696
    endloop
  endfacet
  facet normal 1 0 0
    outer loop
      vertex -27 8.17195 3.86505
      vertex -27 7.07866 1.38892
      vertex -27 7.20479 1.17848
    endloop
  endfacet
  facet normal 1 0 0
    outer loop
      vertex -27 8.17195 3.86505
      vertex -27 6.93253 1.58597
      vertex -27 7.07866 1.38892
    endloop
  endfacet
  facet normal 1 0 0
    outer loop
      vertex -27 6.17848 2.20479
      vertex -27 7.35698 4.40959
      vertex -27 6.91341 4.61938
    endloop
  endfacet
  facet normal 1 0 0
    outer loop
      vertex -27 8.17195 3.86505
      vertex -27 6.76776 1.76776
      vertex -27 6.93253 1.58597
    endloop
  endfacet
  facet normal 1 0 0
    outer loop
      vertex -27 8.17195 3.86505
      vertex -27 6.58597 1.93253
      vertex -27 6.76776 1.76776
    endloop
  endfacet
  facet normal 1 0 0
    outer loop
      vertex -27 5.9567 2.30969
      vertex -27 6.91341 4.61938
      vertex -27 6.45142 4.7847
    endloop
  endfacet
  facet normal 1 0 0
    outer loop
      vertex -27 7.77785 4.15733
      vertex -27 6.38892 2.07866
      vertex -27 6.58597 1.93253
    endloop
  endfacet
  facet normal 1 0 0
    outer loop
      vertex -27 7.35698 4.40959
      vertex -27 6.17848 2.20479
      vertex -27 6.38892 2.07866
    endloop
  endfacet
  facet normal 1 0 0
    outer loop
      vertex -27 5.72571 2.39235
      vertex -27 6.45142 4.7847
      vertex -27 5.97545 4.90392
    endloop
  endfacet
  facet normal 1 0 0
    outer loop
      vertex -27 6.91341 4.61938
      vertex -27 5.9567 2.30969
      vertex -27 6.17848 2.20479
    endloop
  endfacet
  facet normal 1 0 0
    outer loop
      vertex -27 6.45142 4.7847
      vertex -27 5.72571 2.39235
      vertex -27 5.9567 2.30969
    endloop
  endfacet
  facet normal 1 0 0
    outer loop
      vertex -27 5.48772 2.45195
      vertex -27 5.97545 4.90392
      vertex -27 5.49008 4.97592
    endloop
  endfacet
  facet normal 1 0 0
    outer loop
      vertex -27 5.97545 4.90392
      vertex -27 5.48772 2.45195
      vertex -27 5.72571 2.39235
    endloop
  endfacet
  facet normal 1 0 0
    outer loop
      vertex -27 5.49008 4.97592
      vertex -27 5.24504 2.48796
      vertex -27 5.48772 2.45195
    endloop
  endfacet
  facet normal 1 0 0
    outer loop
      vertex -27 5 5
      vertex -27 5.24504 2.48796
      vertex -27 5.49008 4.97592
    endloop
  endfacet
  facet normal 1 0 0
    outer loop
      vertex -27 5 5
      vertex -27 5 2.5
      vertex -27 5.24504 2.48796
    endloop
  endfacet
  facet normal 1 0 0
    outer loop
      vertex -27 5 5
      vertex -27 4.75494 2.48796
      vertex -27 5 2.5
    endloop
  endfacet
  facet normal 1 -0 0
    outer loop
      vertex -27 4.5099 4.97592
      vertex -27 4.75494 2.48796
      vertex -27 5 5
    endloop
  endfacet
  facet normal 1 0 0
    outer loop
      vertex -27 4.75494 2.48796
      vertex -27 4.5099 4.97592
      vertex -27 4.51227 2.45195
    endloop
  endfacet
  facet normal 1 -0 0
    outer loop
      vertex -27 4.02454 4.90392
      vertex -27 4.51227 2.45195
      vertex -27 4.5099 4.97592
    endloop
  endfacet
  facet normal 1 0 0
    outer loop
      vertex -27 4.51227 2.45195
      vertex -27 4.02454 4.90392
      vertex -27 4.27428 2.39235
    endloop
  endfacet
  facet normal 1 -0 0
    outer loop
      vertex -27 3.54857 4.7847
      vertex -27 4.27428 2.39235
      vertex -27 4.02454 4.90392
    endloop
  endfacet
  facet normal 1 0 0
    outer loop
      vertex -27 4.27428 2.39235
      vertex -27 3.54857 4.7847
      vertex -27 4.04329 2.30969
    endloop
  endfacet
  facet normal 1 -0 0
    outer loop
      vertex -27 3.08658 4.61938
      vertex -27 4.04329 2.30969
      vertex -27 3.54857 4.7847
    endloop
  endfacet
  facet normal 1 0 0
    outer loop
      vertex -27 4.04329 2.30969
      vertex -27 3.08658 4.61938
      vertex -27 3.8215 2.20479
    endloop
  endfacet
  facet normal 1 -0 0
    outer loop
      vertex -27 2.64301 4.40959
      vertex -27 3.8215 2.20479
      vertex -27 3.08658 4.61938
    endloop
  endfacet
  facet normal 1 0 0
    outer loop
      vertex -27 3.8215 2.20479
      vertex -27 2.64301 4.40959
      vertex -27 3.61107 2.07866
    endloop
  endfacet
  facet normal 1 -0 0
    outer loop
      vertex -27 2.22214 4.15733
      vertex -27 3.61107 2.07866
      vertex -27 2.64301 4.40959
    endloop
  endfacet
  facet normal 1 0 0
    outer loop
      vertex -27 3.61107 2.07866
      vertex -27 2.22214 4.15733
      vertex -27 3.41402 1.93253
    endloop
  endfacet
  facet normal 1 -0 0
    outer loop
      vertex -27 1.82803 3.86505
      vertex -27 3.41402 1.93253
      vertex -27 2.22214 4.15733
    endloop
  endfacet
  facet normal 1 0 0
    outer loop
      vertex -27 3.41402 1.93253
      vertex -27 1.82803 3.86505
      vertex -27 3.23222 1.76776
    endloop
  endfacet
  facet normal 1 -0 0
    outer loop
      vertex -27 1.46446 3.53552
      vertex -27 3.23222 1.76776
      vertex -27 1.82803 3.86505
    endloop
  endfacet
  facet normal 1 0 0
    outer loop
      vertex -27 3.23222 1.76776
      vertex -27 1.46446 3.53552
      vertex -27 3.06746 1.58597
    endloop
  endfacet
  facet normal 1 -0 0
    outer loop
      vertex -27 1.13493 3.17195
      vertex -27 3.06746 1.58597
      vertex -27 1.46446 3.53552
    endloop
  endfacet
  facet normal 1 0 0
    outer loop
      vertex -27 3.06746 1.58597
      vertex -27 1.13493 3.17195
      vertex -27 2.92133 1.38892
    endloop
  endfacet
  facet normal 1 -0 0
    outer loop
      vertex -27 0.842651 2.77785
      vertex -27 2.92133 1.38892
      vertex -27 1.13493 3.17195
    endloop
  endfacet
  facet normal 1 0 0
    outer loop
      vertex -27 2.92133 1.38892
      vertex -27 0.842651 2.77785
      vertex -27 2.7952 1.17848
    endloop
  endfacet
  facet normal 1 -0 0
    outer loop
      vertex -27 0.590393 2.35698
      vertex -27 2.7952 1.17848
      vertex -27 0.842651 2.77785
    endloop
  endfacet
  facet normal 1 0 0
    outer loop
      vertex -27 2.7952 1.17848
      vertex -27 0.590393 2.35698
      vertex -27 2.69029 0.956696
    endloop
  endfacet
  facet normal 1 -0 0
    outer loop
      vertex -27 0.3806 1.91341
      vertex -27 2.69029 0.956696
      vertex -27 0.590393 2.35698
    endloop
  endfacet
  facet normal 1 0 0
    outer loop
      vertex -27 2.69029 0.956696
      vertex -27 0.3806 1.91341
      vertex -27 2.60764 0.725708
    endloop
  endfacet
  facet normal 1 -0 0
    outer loop
      vertex -27 0.215286 1.45142
      vertex -27 2.60764 0.725708
      vertex -27 0.3806 1.91341
    endloop
  endfacet
  facet normal 1 0 0
    outer loop
      vertex -27 2.60764 0.725708
      vertex -27 0.215286 1.45142
      vertex -27 2.54803 0.487717
    endloop
  endfacet
  facet normal 1 -0 0
    outer loop
      vertex -27 0.0960693 0.975449
      vertex -27 2.54803 0.487717
      vertex -27 0.215286 1.45142
    endloop
  endfacet
  facet normal 1 0 0
    outer loop
      vertex -27 2.54803 0.487717
      vertex -27 0.0960693 0.975449
      vertex -27 2.51202 0.245041
    endloop
  endfacet
  facet normal 1 -0 0
    outer loop
      vertex -27 0.0240631 0.490082
      vertex -27 2.51202 0.245041
      vertex -27 0.0960693 0.975449
    endloop
  endfacet
  facet normal 1 0 0
    outer loop
      vertex -27 2.51202 0.245041
      vertex -27 0.0240631 0.490082
      vertex -27 2.5 0
    endloop
  endfacet
  facet normal 1 0 0
    outer loop
      vertex -27 2.5 0
      vertex -27 0.0240631 0.490082
      vertex -27 0 0
    endloop
  endfacet
  facet normal 1 0 0
    outer loop
      vertex -27 2.5 0
      vertex -27 0 0
      vertex -27 2.5 -25
    endloop
  endfacet
  facet normal 1 0 0
    outer loop
      vertex -27 2.5 -25
      vertex -27 0 0
      vertex -27 0 -25
    endloop
  endfacet
  facet normal 1 0 0
    outer loop
      vertex -27 7.5 0
      vertex -27 10 0
      vertex -27 9.97592 0.490082
    endloop
  endfacet
  facet normal 1 0 0
    outer loop
      vertex -27 7.48796 0.245041
      vertex -27 9.97592 0.490082
      vertex -27 9.90392 0.975449
    endloop
  endfacet
  facet normal 1 0 0
    outer loop
      vertex -27 7.48796 0.245041
      vertex -27 9.90392 0.975449
      vertex -27 9.7847 1.45142
    endloop
  endfacet
  facet normal 1 0 0
    outer loop
      vertex -27 7.48796 0.245041
      vertex -27 9.7847 1.45142
      vertex -27 9.61938 1.91341
    endloop
  endfacet
  facet normal 1 0 0
    outer loop
      vertex -27 7.48796 0.245041
      vertex -27 9.61938 1.91341
      vertex -27 9.40959 2.35698
    endloop
  endfacet
  facet normal 1 0 0
    outer loop
      vertex -27 7.48796 0.245041
      vertex -27 9.40959 2.35698
      vertex -27 9.15733 2.77785
    endloop
  endfacet
  facet normal 1 0 0
    outer loop
      vertex -27 7.48796 0.245041
      vertex -27 9.15733 2.77785
      vertex -27 8.86505 3.17195
    endloop
  endfacet
  facet normal 1 0 0
    outer loop
      vertex -27 7.48796 0.245041
      vertex -27 8.86505 3.17195
      vertex -27 8.53552 3.53552
    endloop
  endfacet
  facet normal 1 0 0
    outer loop
      vertex -27 7.48796 0.245041
      vertex -27 8.53552 3.53552
      vertex -27 8.17195 3.86505
    endloop
  endfacet
  facet normal 1 0 0
    outer loop
      vertex -27 6.58597 1.93253
      vertex -27 8.17195 3.86505
      vertex -27 7.77785 4.15733
    endloop
  endfacet
  facet normal 1 0 0
    outer loop
      vertex -27 10 0
      vertex -27 7.5 0
      vertex -27 10 -49
    endloop
  endfacet
  facet normal 1 0 0
    outer loop
      vertex -27 10 -49
      vertex -27 7.5 0
      vertex -27 7.5 -49
    endloop
  endfacet
  facet normal 0 1 0
    outer loop
      vertex -27 10 0
      vertex -36 10 -27
      vertex -57 10 0
    endloop
  endfacet
  facet normal 0 1 -0
    outer loop
      vertex -27 10 -49
      vertex -36 10 -27
      vertex -27 10 0
    endloop
  endfacet
  facet normal 0 1 0
    outer loop
      vertex -36 10 -47
      vertex -27 10 -49
      vertex -48 10 -47
    endloop
  endfacet
  facet normal 0 1 0
    outer loop
      vertex -36 10 -27
      vertex -27 10 -49
      vertex -36 10 -47
    endloop
  endfacet
  facet normal 0 1 -0
    outer loop
      vertex -48 10 -27
      vertex -57 10 0
      vertex -36 10 -27
    endloop
  endfacet
  facet normal 0 1 0
    outer loop
      vertex -57 10 -49
      vertex -48 10 -27
      vertex -48 10 -47
    endloop
  endfacet
  facet normal 0 1 0
    outer loop
      vertex -48 10 -27
      vertex -57 10 -49
      vertex -57 10 0
    endloop
  endfacet
  facet normal 0 1 0
    outer loop
      vertex -57 10 -49
      vertex -48 10 -47
      vertex -27 10 -49
    endloop
  endfacet
  facet normal -8.97848e-21 0.998795 0.0490754
    outer loop
      vertex -27 10 0
      vertex -57 9.97592 0.490082
      vertex -27 9.97592 0.490082
    endloop
  endfacet
  facet normal -8.97848e-21 0.998795 0.0490754
    outer loop
      vertex -57 9.97592 0.490082
      vertex -27 10 0
      vertex -57 10 0
    endloop
  endfacet
  facet normal 3.7153e-21 0.989176 0.146736
    outer loop
      vertex -27 9.97592 0.490082
      vertex -57 9.90392 0.975449
      vertex -27 9.90392 0.975449
    endloop
  endfacet
  facet normal 3.7153e-21 0.989176 0.146736
    outer loop
      vertex -57 9.90392 0.975449
      vertex -27 9.97592 0.490082
      vertex -57 9.97592 0.490082
    endloop
  endfacet
  facet normal -4.24524e-20 0.970033 0.242971
    outer loop
      vertex -27 9.90392 0.975449
      vertex -57 9.7847 1.45142
      vertex -27 9.7847 1.45142
    endloop
  endfacet
  facet normal -4.24524e-20 0.970033 0.242971
    outer loop
      vertex -57 9.7847 1.45142
      vertex -27 9.90392 0.975449
      vertex -57 9.90392 0.975449
    endloop
  endfacet
  facet normal -1.80337e-19 0.941533 0.336921
    outer loop
      vertex -27 9.7847 1.45142
      vertex -57 9.61938 1.91341
      vertex -27 9.61938 1.91341
    endloop
  endfacet
  facet normal -1.80337e-19 0.941533 0.336921
    outer loop
      vertex -57 9.61938 1.91341
      vertex -27 9.7847 1.45142
      vertex -57 9.7847 1.45142
    endloop
  endfacet
  facet normal 1.33494e-19 0.903992 0.42755
    outer loop
      vertex -27 9.61938 1.91341
      vertex -57 9.40959 2.35698
      vertex -27 9.40959 2.35698
    endloop
  endfacet
  facet normal 1.33494e-19 0.903992 0.42755
    outer loop
      vertex -57 9.40959 2.35698
      vertex -27 9.61938 1.91341
      vertex -57 9.61938 1.91341
    endloop
  endfacet
  facet normal 3.28117e-19 0.857728 0.514103
    outer loop
      vertex -27 9.40959 2.35698
      vertex -57 9.15733 2.77785
      vertex -27 9.15733 2.77785
    endloop
  endfacet
  facet normal 3.28117e-19 0.857728 0.514103
    outer loop
      vertex -57 9.15733 2.77785
      vertex -27 9.40959 2.35698
      vertex -57 9.40959 2.35698
    endloop
  endfacet
  facet normal -1.26354e-19 0.803212 0.595693
    outer loop
      vertex -27 9.15733 2.77785
      vertex -57 8.86505 3.17195
      vertex -27 8.86505 3.17195
    endloop
  endfacet
  facet normal -1.26354e-19 0.803212 0.595693
    outer loop
      vertex -57 8.86505 3.17195
      vertex -27 9.15733 2.77785
      vertex -57 9.15733 2.77785
    endloop
  endfacet
  facet normal 2.4133e-19 0.740942 0.671569
    outer loop
      vertex -27 8.86505 3.17195
      vertex -57 8.53552 3.53552
      vertex -27 8.53552 3.53552
    endloop
  endfacet
  facet normal 2.4133e-19 0.740942 0.671569
    outer loop
      vertex -57 8.53552 3.53552
      vertex -27 8.86505 3.17195
      vertex -57 8.86505 3.17195
    endloop
  endfacet
  facet normal -0 0.671569 0.740942
    outer loop
      vertex -57 8.53552 3.53552
      vertex -27 8.17195 3.86505
      vertex -27 8.53552 3.53552
    endloop
  endfacet
  facet normal 0 0.671569 0.740942
    outer loop
      vertex -27 8.17195 3.86505
      vertex -57 8.53552 3.53552
      vertex -57 8.17195 3.86505
    endloop
  endfacet
  facet normal -0 0.595693 0.803212
    outer loop
      vertex -57 8.17195 3.86505
      vertex -27 7.77785 4.15733
      vertex -27 8.17195 3.86505
    endloop
  endfacet
  facet normal 0 0.595693 0.803212
    outer loop
      vertex -27 7.77785 4.15733
      vertex -57 8.17195 3.86505
      vertex -57 7.77785 4.15733
    endloop
  endfacet
  facet normal -0 0.514103 0.857728
    outer loop
      vertex -57 7.77785 4.15733
      vertex -27 7.35698 4.40959
      vertex -27 7.77785 4.15733
    endloop
  endfacet
  facet normal 0 0.514103 0.857728
    outer loop
      vertex -27 7.35698 4.40959
      vertex -57 7.77785 4.15733
      vertex -57 7.35698 4.40959
    endloop
  endfacet
  facet normal -0 0.42755 0.903992
    outer loop
      vertex -57 7.35698 4.40959
      vertex -27 6.91341 4.61938
      vertex -27 7.35698 4.40959
    endloop
  endfacet
  facet normal 0 0.42755 0.903992
    outer loop
      vertex -27 6.91341 4.61938
      vertex -57 7.35698 4.40959
      vertex -57 6.91341 4.61938
    endloop
  endfacet
  facet normal -0 0.336921 0.941533
    outer loop
      vertex -57 6.91341 4.61938
      vertex -27 6.45142 4.7847
      vertex -27 6.91341 4.61938
    endloop
  endfacet
  facet normal 0 0.336921 0.941533
    outer loop
      vertex -27 6.45142 4.7847
      vertex -57 6.91341 4.61938
      vertex -57 6.45142 4.7847
    endloop
  endfacet
  facet normal -0 0.242972 0.970033
    outer loop
      vertex -57 6.45142 4.7847
      vertex -27 5.97545 4.90392
      vertex -27 6.45142 4.7847
    endloop
  endfacet
  facet normal 0 0.242972 0.970033
    outer loop
      vertex -27 5.97545 4.90392
      vertex -57 6.45142 4.7847
      vertex -57 5.97545 4.90392
    endloop
  endfacet
  facet normal -0 0.146735 0.989176
    outer loop
      vertex -57 5.97545 4.90392
      vertex -27 5.49008 4.97592
      vertex -27 5.97545 4.90392
    endloop
  endfacet
  facet normal 0 0.146735 0.989176
    outer loop
      vertex -27 5.49008 4.97592
      vertex -57 5.97545 4.90392
      vertex -57 5.49008 4.97592
    endloop
  endfacet
  facet normal -0 0.0490756 0.998795
    outer loop
      vertex -57 5.49008 4.97592
      vertex -27 5 5
      vertex -27 5.49008 4.97592
    endloop
  endfacet
  facet normal 0 0.0490756 0.998795
    outer loop
      vertex -27 5 5
      vertex -57 5.49008 4.97592
      vertex -57 5 5
    endloop
  endfacet
  facet normal 0 -0.0490736 0.998795
    outer loop
      vertex -57 5 5
      vertex -27 4.5099 4.97592
      vertex -27 5 5
    endloop
  endfacet
  facet normal 0 -0.0490736 0.998795
    outer loop
      vertex -27 4.5099 4.97592
      vertex -57 5 5
      vertex -57 4.5099 4.97592
    endloop
  endfacet
  facet normal 0 -0.146738 0.989175
    outer loop
      vertex -57 4.5099 4.97592
      vertex -27 4.02454 4.90392
      vertex -27 4.5099 4.97592
    endloop
  endfacet
  facet normal 0 -0.146738 0.989175
    outer loop
      vertex -27 4.02454 4.90392
      vertex -57 4.5099 4.97592
      vertex -57 4.02454 4.90392
    endloop
  endfacet
  facet normal 0 -0.242972 0.970033
    outer loop
      vertex -57 4.02454 4.90392
      vertex -27 3.54857 4.7847
      vertex -27 4.02454 4.90392
    endloop
  endfacet
  facet normal 0 -0.242972 0.970033
    outer loop
      vertex -27 3.54857 4.7847
      vertex -57 4.02454 4.90392
      vertex -57 3.54857 4.7847
    endloop
  endfacet
  facet normal 0 -0.336921 0.941533
    outer loop
      vertex -57 3.54857 4.7847
      vertex -27 3.08658 4.61938
      vertex -27 3.54857 4.7847
    endloop
  endfacet
  facet normal 0 -0.336921 0.941533
    outer loop
      vertex -27 3.08658 4.61938
      vertex -57 3.54857 4.7847
      vertex -57 3.08658 4.61938
    endloop
  endfacet
  facet normal 0 -0.42755 0.903992
    outer loop
      vertex -57 3.08658 4.61938
      vertex -27 2.64301 4.40959
      vertex -27 3.08658 4.61938
    endloop
  endfacet
  facet normal 0 -0.42755 0.903992
    outer loop
      vertex -27 2.64301 4.40959
      vertex -57 3.08658 4.61938
      vertex -57 2.64301 4.40959
    endloop
  endfacet
  facet normal 0 -0.514103 0.857728
    outer loop
      vertex -57 2.64301 4.40959
      vertex -27 2.22214 4.15733
      vertex -27 2.64301 4.40959
    endloop
  endfacet
  facet normal 0 -0.514103 0.857728
    outer loop
      vertex -27 2.22214 4.15733
      vertex -57 2.64301 4.40959
      vertex -57 2.22214 4.15733
    endloop
  endfacet
  facet normal 0 -0.595684 0.803219
    outer loop
      vertex -57 2.22214 4.15733
      vertex -27 1.82803 3.86505
      vertex -27 2.22214 4.15733
    endloop
  endfacet
  facet normal 0 -0.595684 0.803219
    outer loop
      vertex -27 1.82803 3.86505
      vertex -57 2.22214 4.15733
      vertex -57 1.82803 3.86505
    endloop
  endfacet
  facet normal 0 -0.671569 0.740942
    outer loop
      vertex -57 1.82803 3.86505
      vertex -27 1.46446 3.53552
      vertex -27 1.82803 3.86505
    endloop
  endfacet
  facet normal 0 -0.671569 0.740942
    outer loop
      vertex -27 1.46446 3.53552
      vertex -57 1.82803 3.86505
      vertex -57 1.46446 3.53552
    endloop
  endfacet
  facet normal -2.4133e-19 -0.740942 0.671569
    outer loop
      vertex -57 1.13493 3.17195
      vertex -27 1.46446 3.53552
      vertex -57 1.46446 3.53552
    endloop
  endfacet
  facet normal -2.4133e-19 -0.740942 0.671569
    outer loop
      vertex -27 1.46446 3.53552
      vertex -57 1.13493 3.17195
      vertex -27 1.13493 3.17195
    endloop
  endfacet
  facet normal 1.15802e-19 -0.803213 0.595692
    outer loop
      vertex -57 0.842651 2.77785
      vertex -27 1.13493 3.17195
      vertex -57 1.13493 3.17195
    endloop
  endfacet
  facet normal 1.15802e-19 -0.803213 0.595692
    outer loop
      vertex -27 1.13493 3.17195
      vertex -57 0.842651 2.77785
      vertex -27 0.842651 2.77785
    endloop
  endfacet
  facet normal -1.03495e-19 -0.85773 0.5141
    outer loop
      vertex -57 0.590393 2.35698
      vertex -27 0.842651 2.77785
      vertex -57 0.842651 2.77785
    endloop
  endfacet
  facet normal -1.03495e-19 -0.85773 0.5141
    outer loop
      vertex -27 0.842651 2.77785
      vertex -57 0.590393 2.35698
      vertex -27 0.590393 2.35698
    endloop
  endfacet
  facet normal 4.95184e-20 -0.903989 0.427555
    outer loop
      vertex -57 0.3806 1.91341
      vertex -27 0.590393 2.35698
      vertex -57 0.590393 2.35698
    endloop
  endfacet
  facet normal 4.95184e-20 -0.903989 0.427555
    outer loop
      vertex -27 0.590393 2.35698
      vertex -57 0.3806 1.91341
      vertex -27 0.3806 1.91341
    endloop
  endfacet
  facet normal -7.69179e-20 -0.941537 0.33691
    outer loop
      vertex -57 0.215286 1.45142
      vertex -27 0.3806 1.91341
      vertex -57 0.3806 1.91341
    endloop
  endfacet
  facet normal -7.69179e-20 -0.941537 0.33691
    outer loop
      vertex -27 0.3806 1.91341
      vertex -57 0.215286 1.45142
      vertex -27 0.215286 1.45142
    endloop
  endfacet
  facet normal 6.73402e-20 -0.970035 0.242965
    outer loop
      vertex -57 0.0960693 0.975449
      vertex -27 0.215286 1.45142
      vertex -57 0.215286 1.45142
    endloop
  endfacet
  facet normal 6.73402e-20 -0.970035 0.242965
    outer loop
      vertex -27 0.215286 1.45142
      vertex -57 0.0960693 0.975449
      vertex -27 0.0960693 0.975449
    endloop
  endfacet
  facet normal -4.28221e-20 -0.989174 0.146748
    outer loop
      vertex -57 0.0240631 0.490082
      vertex -27 0.0960693 0.975449
      vertex -57 0.0960693 0.975449
    endloop
  endfacet
  facet normal -4.28221e-20 -0.989174 0.146748
    outer loop
      vertex -27 0.0960693 0.975449
      vertex -57 0.0240631 0.490082
      vertex -27 0.0240631 0.490082
    endloop
  endfacet
  facet normal -1.76586e-20 -0.998797 0.0490411
    outer loop
      vertex -57 0 0
      vertex -27 0.0240631 0.490082
      vertex -57 0.0240631 0.490082
    endloop
  endfacet
  facet normal -1.76586e-20 -0.998797 0.0490411
    outer loop
      vertex -27 0.0240631 0.490082
      vertex -57 0 0
      vertex -27 0 0
    endloop
  endfacet
  facet normal 0 -1 0
    outer loop
      vertex -57 0 -25
      vertex -27 0 0
      vertex -57 0 0
    endloop
  endfacet
  facet normal 0 -1 -0
    outer loop
      vertex -27 0 0
      vertex -57 0 -25
      vertex -27 0 -25
    endloop
  endfacet
  facet normal 0 0 -1
    outer loop
      vertex -57 0 -25
      vertex -27 2.5 -25
      vertex -27 0 -25
    endloop
  endfacet
  facet normal -0 0 -1
    outer loop
      vertex -27 2.5 -25
      vertex -57 0 -25
      vertex -57 2.5 -25
    endloop
  endfacet
  facet normal 0 1 -0
    outer loop
      vertex -27 2.5 -25
      vertex -57 2.5 0
      vertex -27 2.5 0
    endloop
  endfacet
  facet normal 0 1 0
    outer loop
      vertex -57 2.5 0
      vertex -27 2.5 -25
      vertex -57 2.5 -25
    endloop
  endfacet
  facet normal 1.82751e-20 0.998799 -0.0489941
    outer loop
      vertex -27 2.5 0
      vertex -57 2.51202 0.245041
      vertex -27 2.51202 0.245041
    endloop
  endfacet
  facet normal 1.82751e-20 0.998799 -0.0489941
    outer loop
      vertex -57 2.51202 0.245041
      vertex -27 2.5 0
      vertex -57 2.5 0
    endloop
  endfacet
  facet normal -7.39231e-21 0.989169 -0.14678
    outer loop
      vertex -27 2.51202 0.245041
      vertex -57 2.54803 0.487717
      vertex -27 2.54803 0.487717
    endloop
  endfacet
  facet normal -7.39231e-21 0.989169 -0.14678
    outer loop
      vertex -57 2.54803 0.487717
      vertex -27 2.51202 0.245041
      vertex -57 2.51202 0.245041
    endloop
  endfacet
  facet normal -5.39432e-22 0.970035 -0.242966
    outer loop
      vertex -27 2.54803 0.487717
      vertex -57 2.60764 0.725708
      vertex -27 2.60764 0.725708
    endloop
  endfacet
  facet normal -5.39432e-22 0.970035 -0.242966
    outer loop
      vertex -57 2.60764 0.725708
      vertex -27 2.54803 0.487717
      vertex -57 2.54803 0.487717
    endloop
  endfacet
  facet normal -5.09102e-20 0.941543 -0.336894
    outer loop
      vertex -27 2.60764 0.725708
      vertex -57 2.69029 0.956696
      vertex -27 2.69029 0.956696
    endloop
  endfacet
  facet normal -5.09102e-20 0.941543 -0.336894
    outer loop
      vertex -57 2.69029 0.956696
      vertex -27 2.60764 0.725708
      vertex -57 2.60764 0.725708
    endloop
  endfacet
  facet normal 5.24591e-20 0.903967 -0.427602
    outer loop
      vertex -27 2.69029 0.956696
      vertex -57 2.7952 1.17848
      vertex -27 2.7952 1.17848
    endloop
  endfacet
  facet normal 5.24591e-20 0.903967 -0.427602
    outer loop
      vertex -57 2.7952 1.17848
      vertex -27 2.69029 0.956696
      vertex -57 2.69029 0.956696
    endloop
  endfacet
  facet normal -6.79201e-20 0.857734 -0.514094
    outer loop
      vertex -27 2.7952 1.17848
      vertex -57 2.92133 1.38892
      vertex -27 2.92133 1.38892
    endloop
  endfacet
  facet normal -6.79201e-20 0.857734 -0.514094
    outer loop
      vertex -57 2.92133 1.38892
      vertex -27 2.7952 1.17848
      vertex -57 2.7952 1.17848
    endloop
  endfacet
  facet normal -8.59433e-20 0.803231 -0.595667
    outer loop
      vertex -27 2.92133 1.38892
      vertex -57 3.06746 1.58597
      vertex -27 3.06746 1.58597
    endloop
  endfacet
  facet normal -8.59433e-20 0.803231 -0.595667
    outer loop
      vertex -57 3.06746 1.58597
      vertex -27 2.92133 1.38892
      vertex -57 2.92133 1.38892
    endloop
  endfacet
  facet normal 2.30744e-19 0.740961 -0.671548
    outer loop
      vertex -27 3.06746 1.58597
      vertex -57 3.23222 1.76776
      vertex -27 3.23222 1.76776
    endloop
  endfacet
  facet normal 2.30744e-19 0.740961 -0.671548
    outer loop
      vertex -57 3.23222 1.76776
      vertex -27 3.06746 1.58597
      vertex -57 3.06746 1.58597
    endloop
  endfacet
  facet normal 0 0.67155 -0.740959
    outer loop
      vertex -57 3.23222 1.76776
      vertex -27 3.41402 1.93253
      vertex -27 3.23222 1.76776
    endloop
  endfacet
  facet normal 0 0.67155 -0.740959
    outer loop
      vertex -27 3.41402 1.93253
      vertex -57 3.23222 1.76776
      vertex -57 3.41402 1.93253
    endloop
  endfacet
  facet normal 0 0.595667 -0.803231
    outer loop
      vertex -57 3.41402 1.93253
      vertex -27 3.61107 2.07866
      vertex -27 3.41402 1.93253
    endloop
  endfacet
  facet normal 0 0.595667 -0.803231
    outer loop
      vertex -27 3.61107 2.07866
      vertex -57 3.41402 1.93253
      vertex -57 3.61107 2.07866
    endloop
  endfacet
  facet normal 0 0.514112 -0.857723
    outer loop
      vertex -57 3.61107 2.07866
      vertex -27 3.8215 2.20479
      vertex -27 3.61107 2.07866
    endloop
  endfacet
  facet normal 0 0.514112 -0.857723
    outer loop
      vertex -27 3.8215 2.20479
      vertex -57 3.61107 2.07866
      vertex -57 3.8215 2.20479
    endloop
  endfacet
  facet normal 0 0.427559 -0.903987
    outer loop
      vertex -57 3.8215 2.20479
      vertex -27 4.04329 2.30969
      vertex -27 3.8215 2.20479
    endloop
  endfacet
  facet normal 0 0.427559 -0.903987
    outer loop
      vertex -27 4.04329 2.30969
      vertex -57 3.8215 2.20479
      vertex -57 4.04329 2.30969
    endloop
  endfacet
  facet normal 0 0.336928 -0.941531
    outer loop
      vertex -57 4.04329 2.30969
      vertex -27 4.27428 2.39235
      vertex -27 4.04329 2.30969
    endloop
  endfacet
  facet normal 0 0.336928 -0.941531
    outer loop
      vertex -27 4.27428 2.39235
      vertex -57 4.04329 2.30969
      vertex -57 4.27428 2.39235
    endloop
  endfacet
  facet normal 0 0.242929 -0.970044
    outer loop
      vertex -57 4.27428 2.39235
      vertex -27 4.51227 2.45195
      vertex -27 4.27428 2.39235
    endloop
  endfacet
  facet normal 0 0.242929 -0.970044
    outer loop
      vertex -27 4.51227 2.45195
      vertex -57 4.27428 2.39235
      vertex -57 4.51227 2.45195
    endloop
  endfacet
  facet normal 0 0.146784 -0.989169
    outer loop
      vertex -57 4.51227 2.45195
      vertex -27 4.75494 2.48796
      vertex -27 4.51227 2.45195
    endloop
  endfacet
  facet normal 0 0.146784 -0.989169
    outer loop
      vertex -27 4.75494 2.48796
      vertex -57 4.51227 2.45195
      vertex -57 4.75494 2.48796
    endloop
  endfacet
  facet normal 0 0.0490716 -0.998795
    outer loop
      vertex -57 4.75494 2.48796
      vertex -27 5 2.5
      vertex -27 4.75494 2.48796
    endloop
  endfacet
  facet normal 0 0.0490716 -0.998795
    outer loop
      vertex -27 5 2.5
      vertex -57 4.75494 2.48796
      vertex -57 5 2.5
    endloop
  endfacet
  facet normal 0 -0.0490756 -0.998795
    outer loop
      vertex -57 5 2.5
      vertex -27 5.24504 2.48796
      vertex -27 5 2.5
    endloop
  endfacet
  facet normal -0 -0.0490756 -0.998795
    outer loop
      vertex -27 5.24504 2.48796
      vertex -57 5 2.5
      vertex -57 5.24504 2.48796
    endloop
  endfacet
  facet normal 0 -0.146778 -0.98917
    outer loop
      vertex -57 5.24504 2.48796
      vertex -27 5.48772 2.45195
      vertex -27 5.24504 2.48796
    endloop
  endfacet
  facet normal -0 -0.146778 -0.98917
    outer loop
      vertex -27 5.48772 2.45195
      vertex -57 5.24504 2.48796
      vertex -57 5.48772 2.45195
    endloop
  endfacet
  facet normal 0 -0.242929 -0.970044
    outer loop
      vertex -57 5.48772 2.45195
      vertex -27 5.72571 2.39235
      vertex -27 5.48772 2.45195
    endloop
  endfacet
  facet normal -0 -0.242929 -0.970044
    outer loop
      vertex -27 5.72571 2.39235
      vertex -57 5.48772 2.45195
      vertex -57 5.72571 2.39235
    endloop
  endfacet
  facet normal 0 -0.336928 -0.941531
    outer loop
      vertex -57 5.72571 2.39235
      vertex -27 5.9567 2.30969
      vertex -27 5.72571 2.39235
    endloop
  endfacet
  facet normal -0 -0.336928 -0.941531
    outer loop
      vertex -27 5.9567 2.30969
      vertex -57 5.72571 2.39235
      vertex -57 5.9567 2.30969
    endloop
  endfacet
  facet normal 0 -0.427575 -0.90398
    outer loop
      vertex -57 5.9567 2.30969
      vertex -27 6.17848 2.20479
      vertex -27 5.9567 2.30969
    endloop
  endfacet
  facet normal -0 -0.427575 -0.90398
    outer loop
      vertex -27 6.17848 2.20479
      vertex -57 5.9567 2.30969
      vertex -57 6.17848 2.20479
    endloop
  endfacet
  facet normal 0 -0.514094 -0.857734
    outer loop
      vertex -57 6.17848 2.20479
      vertex -27 6.38892 2.07866
      vertex -27 6.17848 2.20479
    endloop
  endfacet
  facet normal -0 -0.514094 -0.857734
    outer loop
      vertex -27 6.38892 2.07866
      vertex -57 6.17848 2.20479
      vertex -57 6.38892 2.07866
    endloop
  endfacet
  facet normal 0 -0.595667 -0.803231
    outer loop
      vertex -57 6.38892 2.07866
      vertex -27 6.58597 1.93253
      vertex -27 6.38892 2.07866
    endloop
  endfacet
  facet normal -0 -0.595667 -0.803231
    outer loop
      vertex -27 6.58597 1.93253
      vertex -57 6.38892 2.07866
      vertex -57 6.58597 1.93253
    endloop
  endfacet
  facet normal 0 -0.67157 -0.740941
    outer loop
      vertex -57 6.58597 1.93253
      vertex -27 6.76776 1.76776
      vertex -27 6.58597 1.93253
    endloop
  endfacet
  facet normal -0 -0.67157 -0.740941
    outer loop
      vertex -27 6.76776 1.76776
      vertex -57 6.58597 1.93253
      vertex -57 6.76776 1.76776
    endloop
  endfacet
  facet normal -5.59298e-20 -0.740941 -0.67157
    outer loop
      vertex -57 6.93253 1.58597
      vertex -27 6.76776 1.76776
      vertex -57 6.76776 1.76776
    endloop
  endfacet
  facet normal -5.59298e-20 -0.740941 -0.67157
    outer loop
      vertex -27 6.76776 1.76776
      vertex -57 6.93253 1.58597
      vertex -27 6.93253 1.58597
    endloop
  endfacet
  facet normal -1.88993e-20 -0.803231 -0.595667
    outer loop
      vertex -57 7.07866 1.38892
      vertex -27 6.93253 1.58597
      vertex -57 6.93253 1.58597
    endloop
  endfacet
  facet normal -1.88993e-20 -0.803231 -0.595667
    outer loop
      vertex -27 6.93253 1.58597
      vertex -57 7.07866 1.38892
      vertex -27 7.07866 1.38892
    endloop
  endfacet
  facet normal 3.79031e-20 -0.857734 -0.514094
    outer loop
      vertex -57 7.20479 1.17848
      vertex -27 7.07866 1.38892
      vertex -57 7.07866 1.38892
    endloop
  endfacet
  facet normal 3.79031e-20 -0.857734 -0.514094
    outer loop
      vertex -27 7.07866 1.38892
      vertex -57 7.20479 1.17848
      vertex -27 7.20479 1.17848
    endloop
  endfacet
  facet normal 1.83309e-19 -0.903983 -0.427568
    outer loop
      vertex -57 7.30969 0.956696
      vertex -27 7.20479 1.17848
      vertex -57 7.20479 1.17848
    endloop
  endfacet
  facet normal 1.83309e-19 -0.903983 -0.427568
    outer loop
      vertex -27 7.20479 1.17848
      vertex -57 7.30969 0.956696
      vertex -27 7.30969 0.956696
    endloop
  endfacet
  facet normal -6.40864e-20 -0.94153 -0.33693
    outer loop
      vertex -57 7.39235 0.725708
      vertex -27 7.30969 0.956696
      vertex -57 7.30969 0.956696
    endloop
  endfacet
  facet normal -6.40864e-20 -0.94153 -0.33693
    outer loop
      vertex -27 7.30969 0.956696
      vertex -57 7.39235 0.725708
      vertex -27 7.39235 0.725708
    endloop
  endfacet
  facet normal 8.39958e-20 -0.970044 -0.242928
    outer loop
      vertex -57 7.45195 0.487717
      vertex -27 7.39235 0.725708
      vertex -57 7.39235 0.725708
    endloop
  endfacet
  facet normal 8.39958e-20 -0.970044 -0.242928
    outer loop
      vertex -27 7.39235 0.725708
      vertex -57 7.45195 0.487717
      vertex -27 7.45195 0.487717
    endloop
  endfacet
  facet normal -2.20829e-20 -0.989169 -0.14678
    outer loop
      vertex -57 7.48796 0.245041
      vertex -27 7.45195 0.487717
      vertex -57 7.45195 0.487717
    endloop
  endfacet
  facet normal -2.20829e-20 -0.989169 -0.14678
    outer loop
      vertex -27 7.45195 0.487717
      vertex -57 7.48796 0.245041
      vertex -27 7.48796 0.245041
    endloop
  endfacet
  facet normal -4.48924e-21 -0.998795 -0.0490754
    outer loop
      vertex -57 7.5 0
      vertex -27 7.48796 0.245041
      vertex -57 7.48796 0.245041
    endloop
  endfacet
  facet normal -4.48924e-21 -0.998795 -0.0490754
    outer loop
      vertex -27 7.48796 0.245041
      vertex -57 7.5 0
      vertex -27 7.5 0
    endloop
  endfacet
  facet normal 0 -1 0
    outer loop
      vertex -57 7.5 -49
      vertex -27 7.5 0
      vertex -57 7.5 0
    endloop
  endfacet
  facet normal 0 -1 -0
    outer loop
      vertex -27 7.5 0
      vertex -57 7.5 -49
      vertex -27 7.5 -49
    endloop
  endfacet
  facet normal 0 0 -1
    outer loop
      vertex -57 7.5 -49
      vertex -27 10 -49
      vertex -27 7.5 -49
    endloop
  endfacet
  facet normal -0 0 -1
    outer loop
      vertex -27 10 -49
      vertex -57 7.5 -49
      vertex -57 10 -49
    endloop
  endfacet
  facet normal -0.83205 0.5547 0
    outer loop
      vertex -48 10 -47
      vertex -46 13 -27
      vertex -46 13 -47
    endloop
  endfacet
  facet normal -0.83205 0.5547 0
    outer loop
      vertex -46 13 -27
      vertex -48 10 -47
      vertex -48 10 -27
    endloop
  endfacet
  facet normal 0 0 -1
    outer loop
      vertex -36 10 -47
      vertex -46 13 -47
      vertex -38 13 -47
    endloop
  endfacet
  facet normal 0 -0 -1
    outer loop
      vertex -46 13 -47
      vertex -36 10 -47
      vertex -48 10 -47
    endloop
  endfacet
  facet normal -0 0 1
    outer loop
      vertex -46 13 -27
      vertex -36 10 -27
      vertex -38 13 -27
    endloop
  endfacet
  facet normal 0 0 1
    outer loop
      vertex -36 10 -27
      vertex -46 13 -27
      vertex -48 10 -27
    endloop
  endfacet
  facet normal 0 1 -0
    outer loop
      vertex -38 13 -47
      vertex -46 13 -27
      vertex -38 13 -27
    endloop
  endfacet
  facet normal 0 1 0
    outer loop
      vertex -46 13 -27
      vertex -38 13 -47
      vertex -46 13 -47
    endloop
  endfacet
  facet normal 0.83205 0.5547 0
    outer loop
      vertex -36 10 -27
      vertex -38 13 -47
      vertex -38 13 -27
    endloop
  endfacet
  facet normal 0.83205 0.5547 0
    outer loop
      vertex -38 13 -47
      vertex -36 10 -27
      vertex -36 10 -47
    endloop
  endfacet
  facet normal 0.851658 -0.524097 0
    outer loop
      vertex 38.75 0 58.8
      vertex 40.75 3.25 38.2
      vertex 40.75 3.25 58.8
    endloop
  endfacet
  facet normal 0.851658 -0.524097 0
    outer loop
      vertex 40.75 3.25 38.2
      vertex 38.75 0 58.8
      vertex 38.75 0 38.2
    endloop
  endfacet
  facet normal -0 0 1
    outer loop
      vertex 40.75 3.25 38.2
      vertex 51.25 0 38.2
      vertex 49.25 3.25 38.2
    endloop
  endfacet
  facet normal 0 0 1
    outer loop
      vertex 51.25 0 38.2
      vertex 40.75 3.25 38.2
      vertex 38.75 0 38.2
    endloop
  endfacet
  facet normal 0 0 1
    outer loop
      vertex 51.25 3.25 58.8
      vertex 49.25 3.25 58.8
      vertex 51.25 0 58.8
    endloop
  endfacet
  facet normal -0 0 1
    outer loop
      vertex 38.75 3.25 58.8
      vertex 38.75 0 58.8
      vertex 40.75 3.25 58.8
    endloop
  endfacet
  facet normal 0 -1 0
    outer loop
      vertex 40.75 3.25 38.2
      vertex 49.25 3.25 58.8
      vertex 40.75 3.25 58.8
    endloop
  endfacet
  facet normal 0 -1 -0
    outer loop
      vertex 49.25 3.25 58.8
      vertex 40.75 3.25 38.2
      vertex 49.25 3.25 38.2
    endloop
  endfacet
  facet normal 0 -1 0
    outer loop
      vertex 40.75 3.25 58.8
      vertex 38.75 3.25 60
      vertex 38.75 3.25 58.8
    endloop
  endfacet
  facet normal 0 -1 0
    outer loop
      vertex 38.75 3.25 60
      vertex 40.75 3.25 58.8
      vertex 51.25 3.25 60
    endloop
  endfacet
  facet normal 0 -1 0
    outer loop
      vertex 49.25 3.25 58.8
      vertex 51.25 3.25 60
      vertex 40.75 3.25 58.8
    endloop
  endfacet
  facet normal 0 -1 -0
    outer loop
      vertex 51.25 3.25 60
      vertex 49.25 3.25 58.8
      vertex 51.25 3.25 58.8
    endloop
  endfacet
  facet normal 0 -1 0
    outer loop
      vertex 25 0 57
      vertex 28 0 60
      vertex 27.7059 0 59.9855
    endloop
  endfacet
  facet normal 0 -1 0
    outer loop
      vertex 25 0 57
      vertex 27.7059 0 59.9855
      vertex 27.4147 0 59.9424
    endloop
  endfacet
  facet normal 0 -1 0
    outer loop
      vertex 25 0 57
      vertex 27.4147 0 59.9424
      vertex 27.1292 0 59.8708
    endloop
  endfacet
  facet normal 0 -1 0
    outer loop
      vertex 25 0 57
      vertex 27.1292 0 59.8708
      vertex 26.8519 0 59.7716
    endloop
  endfacet
  facet normal 0 -1 0
    outer loop
      vertex 25 0 57
      vertex 26.8519 0 59.7716
      vertex 26.5858 0 59.6458
    endloop
  endfacet
  facet normal 0 -1 0
    outer loop
      vertex 25 0 57
      vertex 26.5858 0 59.6458
      vertex 26.3333 0 59.4944
    endloop
  endfacet
  facet normal 0 -1 0
    outer loop
      vertex 25 0 57
      vertex 26.3333 0 59.4944
      vertex 26.0968 0 59.319
    endloop
  endfacet
  facet normal 0 -1 0
    outer loop
      vertex 25 0 57
      vertex 26.0968 0 59.319
      vertex 25.8787 0 59.1213
    endloop
  endfacet
  facet normal 0 -1 0
    outer loop
      vertex 25 0 57
      vertex 25.8787 0 59.1213
      vertex 25.681 0 58.9032
    endloop
  endfacet
  facet normal 0 -1 0
    outer loop
      vertex 28 0 60
      vertex 38.75 0 58.8
      vertex 38.75 0 60
    endloop
  endfacet
  facet normal 0 -1 0
    outer loop
      vertex 25 0 57
      vertex 25.681 0 58.9032
      vertex 25.5056 0 58.6667
    endloop
  endfacet
  facet normal 0 -1 0
    outer loop
      vertex 25 0 57
      vertex 25.5056 0 58.6667
      vertex 25.3542 0 58.4142
    endloop
  endfacet
  facet normal 0 -1 0
    outer loop
      vertex 25 0 57
      vertex 25.3542 0 58.4142
      vertex 25.2284 0 58.1481
    endloop
  endfacet
  facet normal 0 -1 0
    outer loop
      vertex 25 0 57
      vertex 25.2284 0 58.1481
      vertex 25.1292 0 57.8708
    endloop
  endfacet
  facet normal 0 -1 0
    outer loop
      vertex 25 0 57
      vertex 25.1292 0 57.8708
      vertex 25.0576 0 57.5853
    endloop
  endfacet
  facet normal 0 -1 0
    outer loop
      vertex 25 0 57
      vertex 25.0576 0 57.5853
      vertex 25.0145 0 57.2941
    endloop
  endfacet
  facet normal 0 -1 -0
    outer loop
      vertex 28 0 60
      vertex 25 0 57
      vertex 38.75 0 58.8
    endloop
  endfacet
  facet normal 0 -1 0
    outer loop
      vertex 25 0 57
      vertex 38.75 0 38.2
      vertex 38.75 0 58.8
    endloop
  endfacet
  facet normal 0 -1 0
    outer loop
      vertex 28 0 0
      vertex 38.75 0 38.2
      vertex 25 0 3
    endloop
  endfacet
  facet normal 0 -1 0
    outer loop
      vertex 25 0 3
      vertex 38.75 0 38.2
      vertex 25 0 57
    endloop
  endfacet
  facet normal 0 -1 0
    outer loop
      vertex 51.25 0 58.8
      vertex 62 0 60
      vertex 51.25 0 60
    endloop
  endfacet
  facet normal 0 -1 0
    outer loop
      vertex 65 0 57
      vertex 62 0 60
      vertex 51.25 0 58.8
    endloop
  endfacet
  facet normal 0 -1 0
    outer loop
      vertex 62 0 60
      vertex 65 0 57
      vertex 62.2941 0 59.9855
    endloop
  endfacet
  facet normal 0 -1 0
    outer loop
      vertex 62.2941 0 59.9855
      vertex 65 0 57
      vertex 62.5853 0 59.9424
    endloop
  endfacet
  facet normal 0 -1 0
    outer loop
      vertex 62.5853 0 59.9424
      vertex 65 0 57
      vertex 62.8708 0 59.8708
    endloop
  endfacet
  facet normal 0 -1 0
    outer loop
      vertex 62.8708 0 59.8708
      vertex 65 0 57
      vertex 63.1481 0 59.7716
    endloop
  endfacet
  facet normal 0 -1 0
    outer loop
      vertex 63.1481 0 59.7716
      vertex 65 0 57
      vertex 63.4142 0 59.6458
    endloop
  endfacet
  facet normal 0 -1 0
    outer loop
      vertex 63.4142 0 59.6458
      vertex 65 0 57
      vertex 63.6667 0 59.4944
    endloop
  endfacet
  facet normal 0 -1 0
    outer loop
      vertex 63.6667 0 59.4944
      vertex 65 0 57
      vertex 63.9032 0 59.319
    endloop
  endfacet
  facet normal 0 -1 0
    outer loop
      vertex 63.9032 0 59.319
      vertex 65 0 57
      vertex 64.1213 0 59.1213
    endloop
  endfacet
  facet normal 0 -1 0
    outer loop
      vertex 64.1213 0 59.1213
      vertex 65 0 57
      vertex 64.319 0 58.9032
    endloop
  endfacet
  facet normal 0 -1 0
    outer loop
      vertex 64.319 0 58.9032
      vertex 65 0 57
      vertex 64.4944 0 58.6667
    endloop
  endfacet
  facet normal 0 -1 0
    outer loop
      vertex 64.4944 0 58.6667
      vertex 65 0 57
      vertex 64.6458 0 58.4142
    endloop
  endfacet
  facet normal 0 -1 0
    outer loop
      vertex 64.6458 0 58.4142
      vertex 65 0 57
      vertex 64.7716 0 58.1481
    endloop
  endfacet
  facet normal 0 -1 0
    outer loop
      vertex 64.7716 0 58.1481
      vertex 65 0 57
      vertex 64.8708 0 57.8708
    endloop
  endfacet
  facet normal 0 -1 0
    outer loop
      vertex 64.8708 0 57.8708
      vertex 65 0 57
      vertex 64.9424 0 57.5853
    endloop
  endfacet
  facet normal 0 -1 0
    outer loop
      vertex 64.9424 0 57.5853
      vertex 65 0 57
      vertex 64.9855 0 57.2941
    endloop
  endfacet
  facet normal 0 -1 0
    outer loop
      vertex 51.25 0 38.2
      vertex 65 0 57
      vertex 51.25 0 58.8
    endloop
  endfacet
  facet normal 0 -1 0
    outer loop
      vertex 51.25 0 38.2
      vertex 65 0 3
      vertex 65 0 57
    endloop
  endfacet
  facet normal 0 -1 -0
    outer loop
      vertex 38.75 0 38.2
      vertex 28 0 0
      vertex 51.25 0 38.2
    endloop
  endfacet
  facet normal 0 -1 0
    outer loop
      vertex 28 0 0
      vertex 25 0 3
      vertex 25.0145 0 2.70595
    endloop
  endfacet
  facet normal 0 -1 0
    outer loop
      vertex 62 0 0
      vertex 51.25 0 38.2
      vertex 28 0 0
    endloop
  endfacet
  facet normal 0 -1 0
    outer loop
      vertex 28 0 0
      vertex 25.0145 0 2.70595
      vertex 25.0576 0 2.41473
    endloop
  endfacet
  facet normal 0 -1 0
    outer loop
      vertex 51.25 0 38.2
      vertex 62 0 0
      vertex 65 0 3
    endloop
  endfacet
  facet normal 0 -1 0
    outer loop
      vertex 28 0 0
      vertex 25.0576 0 2.41473
      vertex 25.1292 0 2.12915
    endloop
  endfacet
  facet normal 0 -1 0
    outer loop
      vertex 65 0 3
      vertex 62 0 0
      vertex 64.9855 0 2.70595
    endloop
  endfacet
  facet normal 0 -1 0
    outer loop
      vertex 28 0 0
      vertex 25.1292 0 2.12915
      vertex 25.2284 0 1.85194
    endloop
  endfacet
  facet normal 0 -1 0
    outer loop
      vertex 64.9855 0 2.70595
      vertex 62 0 0
      vertex 64.9424 0 2.41473
    endloop
  endfacet
  facet normal 0 -1 0
    outer loop
      vertex 28 0 0
      vertex 25.2284 0 1.85194
      vertex 25.3542 0 1.58582
    endloop
  endfacet
  facet normal 0 -1 0
    outer loop
      vertex 64.9424 0 2.41473
      vertex 62 0 0
      vertex 64.8708 0 2.12915
    endloop
  endfacet
  facet normal 0 -1 0
    outer loop
      vertex 28 0 0
      vertex 25.3542 0 1.58582
      vertex 25.5056 0 1.33328
    endloop
  endfacet
  facet normal 0 -1 0
    outer loop
      vertex 64.8708 0 2.12915
      vertex 62 0 0
      vertex 64.7716 0 1.85194
    endloop
  endfacet
  facet normal 0 -1 0
    outer loop
      vertex 28 0 0
      vertex 25.5056 0 1.33328
      vertex 25.681 0 1.09682
    endloop
  endfacet
  facet normal 0 -1 0
    outer loop
      vertex 64.7716 0 1.85194
      vertex 62 0 0
      vertex 64.6458 0 1.58582
    endloop
  endfacet
  facet normal 0 -1 0
    outer loop
      vertex 28 0 0
      vertex 25.681 0 1.09682
      vertex 25.8787 0 0.878677
    endloop
  endfacet
  facet normal 0 -1 0
    outer loop
      vertex 64.6458 0 1.58582
      vertex 62 0 0
      vertex 64.4944 0 1.33328
    endloop
  endfacet
  facet normal 0 -1 0
    outer loop
      vertex 28 0 0
      vertex 25.8787 0 0.878677
      vertex 26.0968 0 0.680969
    endloop
  endfacet
  facet normal 0 -1 0
    outer loop
      vertex 64.4944 0 1.33328
      vertex 62 0 0
      vertex 64.319 0 1.09682
    endloop
  endfacet
  facet normal 0 -1 0
    outer loop
      vertex 28 0 0
      vertex 26.0968 0 0.680969
      vertex 26.3333 0 0.505585
    endloop
  endfacet
  facet normal 0 -1 0
    outer loop
      vertex 64.319 0 1.09682
      vertex 62 0 0
      vertex 64.1213 0 0.878677
    endloop
  endfacet
  facet normal 0 -1 0
    outer loop
      vertex 28 0 0
      vertex 26.3333 0 0.505585
      vertex 26.5858 0 0.354233
    endloop
  endfacet
  facet normal 0 -1 0
    outer loop
      vertex 64.1213 0 0.878677
      vertex 62 0 0
      vertex 63.9032 0 0.680969
    endloop
  endfacet
  facet normal 0 -1 0
    outer loop
      vertex 28 0 0
      vertex 26.5858 0 0.354233
      vertex 26.8519 0 0.228363
    endloop
  endfacet
  facet normal 0 -1 0
    outer loop
      vertex 63.9032 0 0.680969
      vertex 62 0 0
      vertex 63.6667 0 0.505585
    endloop
  endfacet
  facet normal 0 -1 0
    outer loop
      vertex 28 0 0
      vertex 26.8519 0 0.228363
      vertex 27.1292 0 0.129181
    endloop
  endfacet
  facet normal 0 -1 0
    outer loop
      vertex 63.6667 0 0.505585
      vertex 62 0 0
      vertex 63.4142 0 0.354233
    endloop
  endfacet
  facet normal 0 -1 0
    outer loop
      vertex 28 0 0
      vertex 27.1292 0 0.129181
      vertex 27.4147 0 0.0576477
    endloop
  endfacet
  facet normal 0 -1 0
    outer loop
      vertex 63.4142 0 0.354233
      vertex 62 0 0
      vertex 63.1481 0 0.228363
    endloop
  endfacet
  facet normal 0 -1 0
    outer loop
      vertex 28 0 0
      vertex 27.4147 0 0.0576477
      vertex 27.7059 0 0.0144501
    endloop
  endfacet
  facet normal 0 -1 0
    outer loop
      vertex 63.1481 0 0.228363
      vertex 62 0 0
      vertex 62.8708 0 0.129181
    endloop
  endfacet
  facet normal 0 -1 0
    outer loop
      vertex 62.8708 0 0.129181
      vertex 62 0 0
      vertex 62.5853 0 0.0576477
    endloop
  endfacet
  facet normal 0 -1 0
    outer loop
      vertex 62.5853 0 0.0576477
      vertex 62 0 0
      vertex 62.2941 0 0.0144501
    endloop
  endfacet
  facet normal -0.851658 -0.524097 0
    outer loop
      vertex 51.25 0 38.2
      vertex 49.25 3.25 58.8
      vertex 49.25 3.25 38.2
    endloop
  endfacet
  facet normal -0.851658 -0.524097 0
    outer loop
      vertex 49.25 3.25 58.8
      vertex 51.25 0 38.2
      vertex 51.25 0 58.8
    endloop
  endfacet
  facet normal 1 -0 0
    outer loop
      vertex 38.75 0 60
      vertex 38.75 3.25 58.8
      vertex 38.75 3.25 60
    endloop
  endfacet
  facet normal 1 0 0
    outer loop
      vertex 38.75 3.25 58.8
      vertex 38.75 0 60
      vertex 38.75 0 58.8
    endloop
  endfacet
  facet normal -1 0 0
    outer loop
      vertex 51.25 0 58.8
      vertex 51.25 3.25 60
      vertex 51.25 3.25 58.8
    endloop
  endfacet
  facet normal -1 -0 0
    outer loop
      vertex 51.25 3.25 60
      vertex 51.25 0 58.8
      vertex 51.25 0 60
    endloop
  endfacet
  facet normal 0.514246 1.37053e-18 0.857643
    outer loop
      vertex 63.4142 5 59.6458
      vertex 63.6667 0 59.4944
      vertex 63.6667 5 59.4944
    endloop
  endfacet
  facet normal 0.514246 1.37053e-18 0.857643
    outer loop
      vertex 63.6667 0 59.4944
      vertex 63.4142 5 59.6458
      vertex 63.4142 0 59.6458
    endloop
  endfacet
  facet normal 0.941565 -0 0.336831
    outer loop
      vertex 64.7716 0 58.1481
      vertex 64.8708 5 57.8708
      vertex 64.7716 5 58.1481
    endloop
  endfacet
  facet normal 0.941565 0 0.336831
    outer loop
      vertex 64.8708 5 57.8708
      vertex 64.7716 0 58.1481
      vertex 64.8708 0 57.8708
    endloop
  endfacet
  facet normal 0.741536 0 -0.670913
    outer loop
      vertex 64.319 0 1.09682
      vertex 64.3 5 1.07582
      vertex 64.319 5 1.09682
    endloop
  endfacet
  facet normal 0.740914 -5.24878e-06 -0.6716
    outer loop
      vertex 64.319 0 1.09682
      vertex 64.1213 5 0.878677
      vertex 64.3 5 1.07582
    endloop
  endfacet
  facet normal 0.740974 0 -0.671534
    outer loop
      vertex 64.1213 5 0.878677
      vertex 64.319 0 1.09682
      vertex 64.1213 0 0.878677
    endloop
  endfacet
  facet normal -0.146738 -1.8297e-19 -0.989175
    outer loop
      vertex 27.4147 0 0.0576477
      vertex 27.7059 5 0.0144501
      vertex 27.7059 0 0.0144501
    endloop
  endfacet
  facet normal -0.146738 -1.8297e-19 -0.989175
    outer loop
      vertex 27.7059 5 0.0144501
      vertex 27.4147 0 0.0576477
      vertex 27.4147 5 0.0576477
    endloop
  endfacet
  facet normal 0 0 -1
    outer loop
      vertex 62 0 0
      vertex 28 0 0
      vertex 62 5 0
    endloop
  endfacet
  facet normal 0 0 -1
    outer loop
      vertex 62 5 0
      vertex 64.3 14.9 0
      vertex 64.3 5 0
    endloop
  endfacet
  facet normal 0 0 -1
    outer loop
      vertex 28 5 0
      vertex 62 5 0
      vertex 28 0 0
    endloop
  endfacet
  facet normal 0 0 -1
    outer loop
      vertex 62 5 0
      vertex 28 5 0
      vertex 64.3 14.9 0
    endloop
  endfacet
  facet normal 0 0 -1
    outer loop
      vertex 25.7 14.9 0
      vertex 28 5 0
      vertex 25.7 5 0
    endloop
  endfacet
  facet normal 0 0 -1
    outer loop
      vertex 28 5 0
      vertex 25.7 14.9 0
      vertex 64.3 14.9 0
    endloop
  endfacet
  facet normal -0.427594 1.26874e-18 -0.903971
    outer loop
      vertex 26.5858 0 0.354233
      vertex 26.8519 5 0.228363
      vertex 26.8519 0 0.228363
    endloop
  endfacet
  facet normal -0.427594 1.26874e-18 -0.903971
    outer loop
      vertex 26.8519 5 0.228363
      vertex 26.5858 0 0.354233
      vertex 26.5858 5 0.354233
    endloop
  endfacet
  facet normal 0.336831 -5.01773e-19 0.941565
    outer loop
      vertex 62.8708 5 59.8708
      vertex 63.1481 0 59.7716
      vertex 63.1481 5 59.7716
    endloop
  endfacet
  facet normal 0.336831 -5.01773e-19 0.941565
    outer loop
      vertex 63.1481 0 59.7716
      vertex 62.8708 5 59.8708
      vertex 62.8708 0 59.8708
    endloop
  endfacet
  facet normal 0.4274 5.7914e-19 0.904063
    outer loop
      vertex 63.1481 5 59.7716
      vertex 63.4142 0 59.6458
      vertex 63.4142 5 59.6458
    endloop
  endfacet
  facet normal 0.4274 5.7914e-19 0.904063
    outer loop
      vertex 63.4142 0 59.6458
      vertex 63.1481 5 59.7716
      vertex 63.1481 0 59.7716
    endloop
  endfacet
  facet normal -0.336777 -3.45145e-19 -0.941584
    outer loop
      vertex 26.8519 0 0.228363
      vertex 27.1292 5 0.129181
      vertex 27.1292 0 0.129181
    endloop
  endfacet
  facet normal -0.336777 -3.45145e-19 -0.941584
    outer loop
      vertex 27.1292 5 0.129181
      vertex 26.8519 0 0.228363
      vertex 26.8519 5 0.228363
    endloop
  endfacet
  facet normal -0.80316 0 -0.595764
    outer loop
      vertex 25.681 0 1.09682
      vertex 25.5056 5 1.33328
      vertex 25.681 5 1.09682
    endloop
  endfacet
  facet normal -0.80316 -0 -0.595764
    outer loop
      vertex 25.5056 5 1.33328
      vertex 25.681 0 1.09682
      vertex 25.5056 0 1.33328
    endloop
  endfacet
  facet normal 1 -0 0
    outer loop
      vertex 65 0 57
      vertex 65 5 3
      vertex 65 5 57
    endloop
  endfacet
  facet normal 1 0 0
    outer loop
      vertex 65 5 3
      vertex 65 0 57
      vertex 65 0 3
    endloop
  endfacet
  facet normal -0.989225 0 -0.146403
    outer loop
      vertex 25.0576 0 2.41473
      vertex 25.0145 5 2.70595
      vertex 25.0576 5 2.41473
    endloop
  endfacet
  facet normal -0.989225 -0 -0.146403
    outer loop
      vertex 25.0145 5 2.70595
      vertex 25.0576 0 2.41473
      vertex 25.0145 0 2.70595
    endloop
  endfacet
  facet normal 0.904075 0 -0.427374
    outer loop
      vertex 64.7716 0 1.85194
      vertex 64.6458 5 1.58582
      vertex 64.7716 5 1.85194
    endloop
  endfacet
  facet normal 0.904075 0 -0.427374
    outer loop
      vertex 64.6458 5 1.58582
      vertex 64.7716 0 1.85194
      vertex 64.6458 0 1.58582
    endloop
  endfacet
  facet normal 0.904063 -0 0.4274
    outer loop
      vertex 64.6458 0 58.4142
      vertex 64.7716 5 58.1481
      vertex 64.6458 5 58.4142
    endloop
  endfacet
  facet normal 0.904063 0 0.4274
    outer loop
      vertex 64.7716 5 58.1481
      vertex 64.6458 0 58.4142
      vertex 64.7716 0 58.1481
    endloop
  endfacet
  facet normal -0.243255 -1.06485e-18 0.969962
    outer loop
      vertex 27.1292 5 59.8708
      vertex 27.4147 0 59.9424
      vertex 27.4147 5 59.9424
    endloop
  endfacet
  facet normal -0.243255 -1.06485e-18 0.969962
    outer loop
      vertex 27.4147 0 59.9424
      vertex 27.1292 5 59.8708
      vertex 27.1292 0 59.8708
    endloop
  endfacet
  facet normal -0.969978 0 -0.243191
    outer loop
      vertex 25.1292 0 2.12915
      vertex 25.0576 5 2.41473
      vertex 25.1292 5 2.12915
    endloop
  endfacet
  facet normal -0.969978 -0 -0.243191
    outer loop
      vertex 25.0576 5 2.41473
      vertex 25.1292 0 2.12915
      vertex 25.0576 0 2.41473
    endloop
  endfacet
  facet normal -0.0492431 -2.59404e-21 0.998787
    outer loop
      vertex 27.7059 5 59.9855
      vertex 28 0 60
      vertex 28 5 60
    endloop
  endfacet
  facet normal -0.0492431 -2.59404e-21 0.998787
    outer loop
      vertex 28 0 60
      vertex 27.7059 5 59.9855
      vertex 27.7059 0 59.9855
    endloop
  endfacet
  facet normal 0.146413 2.61307e-19 0.989224
    outer loop
      vertex 62.2941 5 59.9855
      vertex 62.5853 0 59.9424
      vertex 62.5853 5 59.9424
    endloop
  endfacet
  facet normal 0.146413 2.61307e-19 0.989224
    outer loop
      vertex 62.5853 0 59.9424
      vertex 62.2941 5 59.9855
      vertex 62.2941 0 59.9855
    endloop
  endfacet
  facet normal 0.998786 0 -0.0492515
    outer loop
      vertex 65 0 3
      vertex 64.9855 5 2.70595
      vertex 65 5 3
    endloop
  endfacet
  facet normal 0.998786 0 -0.0492515
    outer loop
      vertex 64.9855 5 2.70595
      vertex 65 0 3
      vertex 64.9855 0 2.70595
    endloop
  endfacet
  facet normal -1 0 0
    outer loop
      vertex 25 0 3
      vertex 25 5 57
      vertex 25 5 3
    endloop
  endfacet
  facet normal -1 -0 0
    outer loop
      vertex 25 5 57
      vertex 25 0 3
      vertex 25 0 57
    endloop
  endfacet
  facet normal 0.0492431 2.59404e-21 0.998787
    outer loop
      vertex 62 5 60
      vertex 62.2941 0 59.9855
      vertex 62.2941 5 59.9855
    endloop
  endfacet
  facet normal 0.0492431 2.59404e-21 0.998787
    outer loop
      vertex 62.2941 0 59.9855
      vertex 62 5 60
      vertex 62 0 60
    endloop
  endfacet
  facet normal -0.595699 1.37677e-18 0.803208
    outer loop
      vertex 26.0968 5 59.319
      vertex 26.3333 0 59.4944
      vertex 26.3333 5 59.4944
    endloop
  endfacet
  facet normal -0.595699 1.37677e-18 0.803208
    outer loop
      vertex 26.3333 0 59.4944
      vertex 26.0968 5 59.319
      vertex 26.0968 0 59.319
    endloop
  endfacet
  facet normal 0 0 1
    outer loop
      vertex 62 5 60
      vertex 51.25 3.25 60
      vertex 62 0 60
    endloop
  endfacet
  facet normal 0 0 1
    outer loop
      vertex 62 5 60
      vertex 38.75 3.25 60
      vertex 51.25 3.25 60
    endloop
  endfacet
  facet normal -0 0 1
    outer loop
      vertex 28 5 60
      vertex 38.75 3.25 60
      vertex 62 5 60
    endloop
  endfacet
  facet normal 0 0 1
    outer loop
      vertex 28 0 60
      vertex 38.75 3.25 60
      vertex 28 5 60
    endloop
  endfacet
  facet normal 0 0 1
    outer loop
      vertex 38.75 3.25 60
      vertex 28 0 60
      vertex 38.75 0 60
    endloop
  endfacet
  facet normal 0 0 1
    outer loop
      vertex 62 0 60
      vertex 51.25 3.25 60
      vertex 51.25 0 60
    endloop
  endfacet
  facet normal 0.243255 -4.36362e-19 0.969962
    outer loop
      vertex 62.5853 5 59.9424
      vertex 62.8708 0 59.8708
      vertex 62.8708 5 59.8708
    endloop
  endfacet
  facet normal 0.243255 -4.36362e-19 0.969962
    outer loop
      vertex 62.8708 0 59.8708
      vertex 62.5853 5 59.9424
      vertex 62.5853 0 59.9424
    endloop
  endfacet
  facet normal 0.243042 1.00001e-18 -0.970016
    outer loop
      vertex 62.5853 0 0.0576477
      vertex 62.8708 5 0.129181
      vertex 62.8708 0 0.129181
    endloop
  endfacet
  facet normal 0.243042 1.00001e-18 -0.970016
    outer loop
      vertex 62.8708 5 0.129181
      vertex 62.5853 0 0.0576477
      vertex 62.5853 5 0.0576477
    endloop
  endfacet
  facet normal 0.427594 -1.26874e-18 -0.903971
    outer loop
      vertex 63.1481 0 0.228363
      vertex 63.4142 5 0.354233
      vertex 63.4142 0 0.354233
    endloop
  endfacet
  facet normal 0.427594 -1.26874e-18 -0.903971
    outer loop
      vertex 63.4142 5 0.354233
      vertex 63.1481 0 0.228363
      vertex 63.1481 5 0.228363
    endloop
  endfacet
  facet normal 0.989224 -0 0.146413
    outer loop
      vertex 64.9424 0 57.5853
      vertex 64.9855 5 57.2941
      vertex 64.9424 5 57.5853
    endloop
  endfacet
  facet normal 0.989224 0 0.146413
    outer loop
      vertex 64.9855 5 57.2941
      vertex 64.9424 0 57.5853
      vertex 64.9855 0 57.2941
    endloop
  endfacet
  facet normal -0.740914 -0 -0.6716
    outer loop
      vertex 25.8787 5 0.878677
      vertex 25.8787 0 0.878677
      vertex 25.7 5 1.07582
    endloop
  endfacet
  facet normal -0.740974 -4.74388e-06 -0.671534
    outer loop
      vertex 25.681 0 1.09682
      vertex 25.7 5 1.07582
      vertex 25.8787 0 0.878677
    endloop
  endfacet
  facet normal -0.741536 -5.25325e-20 -0.670913
    outer loop
      vertex 25.7 5 1.07582
      vertex 25.681 0 1.09682
      vertex 25.681 5 1.09682
    endloop
  endfacet
  facet normal -0.989224 0 0.146413
    outer loop
      vertex 25.0145 0 57.2941
      vertex 25.0576 5 57.5853
      vertex 25.0145 5 57.2941
    endloop
  endfacet
  facet normal -0.989224 0 0.146413
    outer loop
      vertex 25.0576 5 57.5853
      vertex 25.0145 0 57.2941
      vertex 25.0576 0 57.5853
    endloop
  endfacet
  facet normal -0.671622 3.60996e-19 -0.740894
    outer loop
      vertex 25.8787 0 0.878677
      vertex 26.0968 5 0.680969
      vertex 26.0968 0 0.680969
    endloop
  endfacet
  facet normal -0.671622 3.60996e-19 -0.740894
    outer loop
      vertex 26.0968 5 0.680969
      vertex 25.8787 0 0.878677
      vertex 25.8787 5 0.878677
    endloop
  endfacet
  facet normal -0.998787 0 0.0492431
    outer loop
      vertex 25 0 57
      vertex 25.0145 5 57.2941
      vertex 25 5 57
    endloop
  endfacet
  facet normal -0.998787 0 0.0492431
    outer loop
      vertex 25.0145 5 57.2941
      vertex 25 0 57
      vertex 25.0145 0 57.2941
    endloop
  endfacet
  facet normal 0.803208 -0 0.595699
    outer loop
      vertex 64.319 0 58.9032
      vertex 64.4944 5 58.6667
      vertex 64.319 5 58.9032
    endloop
  endfacet
  facet normal 0.803208 0 0.595699
    outer loop
      vertex 64.4944 5 58.6667
      vertex 64.319 0 58.9032
      vertex 64.4944 0 58.6667
    endloop
  endfacet
  facet normal -0.740908 0 0.671607
    outer loop
      vertex 25.681 0 58.9032
      vertex 25.8787 5 59.1213
      vertex 25.681 5 58.9032
    endloop
  endfacet
  facet normal -0.740908 0 0.671607
    outer loop
      vertex 25.8787 5 59.1213
      vertex 25.681 0 58.9032
      vertex 25.8787 0 59.1213
    endloop
  endfacet
  facet normal 0.857679 0 -0.514186
    outer loop
      vertex 64.6458 0 1.58582
      vertex 64.4944 5 1.33328
      vertex 64.6458 5 1.58582
    endloop
  endfacet
  facet normal 0.857679 0 -0.514186
    outer loop
      vertex 64.4944 5 1.33328
      vertex 64.6458 0 1.58582
      vertex 64.4944 0 1.33328
    endloop
  endfacet
  facet normal 0.80316 0 -0.595764
    outer loop
      vertex 64.4944 0 1.33328
      vertex 64.319 5 1.09682
      vertex 64.4944 5 1.33328
    endloop
  endfacet
  facet normal 0.80316 0 -0.595764
    outer loop
      vertex 64.319 5 1.09682
      vertex 64.4944 0 1.33328
      vertex 64.319 0 1.09682
    endloop
  endfacet
  facet normal 0.94153 0 -0.336928
    outer loop
      vertex 64.8708 0 2.12915
      vertex 64.7716 5 1.85194
      vertex 64.8708 5 2.12915
    endloop
  endfacet
  facet normal 0.94153 0 -0.336928
    outer loop
      vertex 64.7716 5 1.85194
      vertex 64.8708 0 2.12915
      vertex 64.7716 0 1.85194
    endloop
  endfacet
  facet normal 0.514126 -1.2965e-18 -0.857715
    outer loop
      vertex 63.4142 0 0.354233
      vertex 63.6667 5 0.505585
      vertex 63.6667 0 0.505585
    endloop
  endfacet
  facet normal 0.514126 -1.2965e-18 -0.857715
    outer loop
      vertex 63.6667 5 0.505585
      vertex 63.4142 0 0.354233
      vertex 63.4142 5 0.354233
    endloop
  endfacet
  facet normal -0.0490741 1.72729e-19 -0.998795
    outer loop
      vertex 27.7059 0 0.0144501
      vertex 28 5 0
      vertex 28 0 0
    endloop
  endfacet
  facet normal -0.0490741 1.72729e-19 -0.998795
    outer loop
      vertex 28 5 0
      vertex 27.7059 0 0.0144501
      vertex 27.7059 5 0.0144501
    endloop
  endfacet
  facet normal -0.514126 1.2965e-18 -0.857715
    outer loop
      vertex 26.3333 0 0.505585
      vertex 26.5858 5 0.354233
      vertex 26.5858 0 0.354233
    endloop
  endfacet
  facet normal -0.514126 1.2965e-18 -0.857715
    outer loop
      vertex 26.5858 5 0.354233
      vertex 26.3333 0 0.505585
      vertex 26.3333 5 0.505585
    endloop
  endfacet
  facet normal -0.336831 -4.85898e-19 0.941565
    outer loop
      vertex 26.8519 5 59.7716
      vertex 27.1292 0 59.8708
      vertex 27.1292 5 59.8708
    endloop
  endfacet
  facet normal -0.336831 -4.85898e-19 0.941565
    outer loop
      vertex 27.1292 0 59.8708
      vertex 26.8519 5 59.7716
      vertex 26.8519 0 59.7716
    endloop
  endfacet
  facet normal -0.243042 1.79242e-19 -0.970016
    outer loop
      vertex 27.1292 0 0.129181
      vertex 27.4147 5 0.0576477
      vertex 27.4147 0 0.0576477
    endloop
  endfacet
  facet normal -0.243042 1.79242e-19 -0.970016
    outer loop
      vertex 27.4147 5 0.0576477
      vertex 27.1292 0 0.129181
      vertex 27.1292 5 0.129181
    endloop
  endfacet
  facet normal 0.671622 7.06783e-19 -0.740894
    outer loop
      vertex 63.9032 0 0.680969
      vertex 64.1213 5 0.878677
      vertex 64.1213 0 0.878677
    endloop
  endfacet
  facet normal 0.671622 7.06783e-19 -0.740894
    outer loop
      vertex 64.1213 5 0.878677
      vertex 63.9032 0 0.680969
      vertex 63.9032 5 0.680969
    endloop
  endfacet
  facet normal 0.336777 -9.79868e-19 -0.941584
    outer loop
      vertex 62.8708 0 0.129181
      vertex 63.1481 5 0.228363
      vertex 63.1481 0 0.228363
    endloop
  endfacet
  facet normal 0.336777 -9.79868e-19 -0.941584
    outer loop
      vertex 63.1481 5 0.228363
      vertex 62.8708 0 0.129181
      vertex 62.8708 5 0.129181
    endloop
  endfacet
  facet normal -0.94153 0 -0.336928
    outer loop
      vertex 25.2284 0 1.85194
      vertex 25.1292 5 2.12915
      vertex 25.2284 5 1.85194
    endloop
  endfacet
  facet normal -0.94153 -0 -0.336928
    outer loop
      vertex 25.1292 5 2.12915
      vertex 25.2284 0 1.85194
      vertex 25.1292 0 2.12915
    endloop
  endfacet
  facet normal -0.4274 -5.7914e-19 0.904063
    outer loop
      vertex 26.5858 5 59.6458
      vertex 26.8519 0 59.7716
      vertex 26.8519 5 59.7716
    endloop
  endfacet
  facet normal -0.4274 -5.7914e-19 0.904063
    outer loop
      vertex 26.8519 0 59.7716
      vertex 26.5858 5 59.6458
      vertex 26.5858 0 59.6458
    endloop
  endfacet
  facet normal -0.998786 0 -0.0492515
    outer loop
      vertex 25.0145 0 2.70595
      vertex 25 5 3
      vertex 25.0145 5 2.70595
    endloop
  endfacet
  facet normal -0.998786 -0 -0.0492515
    outer loop
      vertex 25 5 3
      vertex 25.0145 0 2.70595
      vertex 25 0 3
    endloop
  endfacet
  facet normal 0.969978 0 -0.243191
    outer loop
      vertex 64.9424 0 2.41473
      vertex 64.8708 5 2.12915
      vertex 64.9424 5 2.41473
    endloop
  endfacet
  facet normal 0.969978 0 -0.243191
    outer loop
      vertex 64.8708 5 2.12915
      vertex 64.9424 0 2.41473
      vertex 64.8708 0 2.12915
    endloop
  endfacet
  facet normal 0.595663 7.03651e-19 -0.803234
    outer loop
      vertex 63.6667 0 0.505585
      vertex 63.9032 5 0.680969
      vertex 63.9032 0 0.680969
    endloop
  endfacet
  facet normal 0.595663 7.03651e-19 -0.803234
    outer loop
      vertex 63.9032 5 0.680969
      vertex 63.6667 0 0.505585
      vertex 63.6667 5 0.505585
    endloop
  endfacet
  facet normal 0.0490741 -1.72729e-19 -0.998795
    outer loop
      vertex 62 0 0
      vertex 62.2941 5 0.0144501
      vertex 62.2941 0 0.0144501
    endloop
  endfacet
  facet normal 0.0490741 -1.72729e-19 -0.998795
    outer loop
      vertex 62.2941 5 0.0144501
      vertex 62 0 0
      vertex 62 5 0
    endloop
  endfacet
  facet normal 0.857643 -0 0.514246
    outer loop
      vertex 64.4944 0 58.6667
      vertex 64.6458 5 58.4142
      vertex 64.4944 5 58.6667
    endloop
  endfacet
  facet normal 0.857643 0 0.514246
    outer loop
      vertex 64.6458 5 58.4142
      vertex 64.4944 0 58.6667
      vertex 64.6458 0 58.4142
    endloop
  endfacet
  facet normal 0.671607 1.41229e-18 0.740908
    outer loop
      vertex 63.9032 5 59.319
      vertex 64.1213 0 59.1213
      vertex 64.1213 5 59.1213
    endloop
  endfacet
  facet normal 0.671607 1.41229e-18 0.740908
    outer loop
      vertex 64.1213 0 59.1213
      vertex 63.9032 5 59.319
      vertex 63.9032 0 59.319
    endloop
  endfacet
  facet normal -0.671607 2.25364e-18 0.740908
    outer loop
      vertex 25.8787 5 59.1213
      vertex 26.0968 0 59.319
      vertex 26.0968 5 59.319
    endloop
  endfacet
  facet normal -0.671607 2.25364e-18 0.740908
    outer loop
      vertex 26.0968 0 59.319
      vertex 25.8787 5 59.1213
      vertex 25.8787 0 59.1213
    endloop
  endfacet
  facet normal -0.595663 -7.03651e-19 -0.803234
    outer loop
      vertex 26.0968 0 0.680969
      vertex 26.3333 5 0.505585
      vertex 26.3333 0 0.505585
    endloop
  endfacet
  facet normal -0.595663 -7.03651e-19 -0.803234
    outer loop
      vertex 26.3333 5 0.505585
      vertex 26.0968 0 0.680969
      vertex 26.0968 5 0.680969
    endloop
  endfacet
  facet normal 0.998787 -0 0.0492431
    outer loop
      vertex 64.9855 0 57.2941
      vertex 65 5 57
      vertex 64.9855 5 57.2941
    endloop
  endfacet
  facet normal 0.998787 0 0.0492431
    outer loop
      vertex 65 5 57
      vertex 64.9855 0 57.2941
      vertex 65 0 57
    endloop
  endfacet
  facet normal -0.969962 0 0.243255
    outer loop
      vertex 25.0576 0 57.5853
      vertex 25.1292 5 57.8708
      vertex 25.0576 5 57.5853
    endloop
  endfacet
  facet normal -0.969962 0 0.243255
    outer loop
      vertex 25.1292 5 57.8708
      vertex 25.0576 0 57.5853
      vertex 25.1292 0 57.8708
    endloop
  endfacet
  facet normal -0.857679 0 -0.514186
    outer loop
      vertex 25.5056 0 1.33328
      vertex 25.3542 5 1.58582
      vertex 25.5056 5 1.33328
    endloop
  endfacet
  facet normal -0.857679 -0 -0.514186
    outer loop
      vertex 25.3542 5 1.58582
      vertex 25.5056 0 1.33328
      vertex 25.3542 0 1.58582
    endloop
  endfacet
  facet normal -0.904075 0 -0.427374
    outer loop
      vertex 25.3542 0 1.58582
      vertex 25.2284 5 1.85194
      vertex 25.3542 5 1.58582
    endloop
  endfacet
  facet normal -0.904075 -0 -0.427374
    outer loop
      vertex 25.2284 5 1.85194
      vertex 25.3542 0 1.58582
      vertex 25.2284 0 1.85194
    endloop
  endfacet
  facet normal -0.803208 0 0.595699
    outer loop
      vertex 25.5056 0 58.6667
      vertex 25.681 5 58.9032
      vertex 25.5056 5 58.6667
    endloop
  endfacet
  facet normal -0.803208 0 0.595699
    outer loop
      vertex 25.681 5 58.9032
      vertex 25.5056 0 58.6667
      vertex 25.681 0 58.9032
    endloop
  endfacet
  facet normal -0.514246 -1.37053e-18 0.857643
    outer loop
      vertex 26.3333 5 59.4944
      vertex 26.5858 0 59.6458
      vertex 26.5858 5 59.6458
    endloop
  endfacet
  facet normal -0.514246 -1.37053e-18 0.857643
    outer loop
      vertex 26.5858 0 59.6458
      vertex 26.3333 5 59.4944
      vertex 26.3333 0 59.4944
    endloop
  endfacet
  facet normal 0.595699 -1.37677e-18 0.803208
    outer loop
      vertex 63.6667 5 59.4944
      vertex 63.9032 0 59.319
      vertex 63.9032 5 59.319
    endloop
  endfacet
  facet normal 0.595699 -1.37677e-18 0.803208
    outer loop
      vertex 63.9032 0 59.319
      vertex 63.6667 5 59.4944
      vertex 63.6667 0 59.4944
    endloop
  endfacet
  facet normal -0.941565 0 0.336831
    outer loop
      vertex 25.1292 0 57.8708
      vertex 25.2284 5 58.1481
      vertex 25.1292 5 57.8708
    endloop
  endfacet
  facet normal -0.941565 0 0.336831
    outer loop
      vertex 25.2284 5 58.1481
      vertex 25.1292 0 57.8708
      vertex 25.2284 0 58.1481
    endloop
  endfacet
  facet normal 0.989225 0 -0.146403
    outer loop
      vertex 64.9855 0 2.70595
      vertex 64.9424 5 2.41473
      vertex 64.9855 5 2.70595
    endloop
  endfacet
  facet normal 0.989225 0 -0.146403
    outer loop
      vertex 64.9424 5 2.41473
      vertex 64.9855 0 2.70595
      vertex 64.9424 0 2.41473
    endloop
  endfacet
  facet normal -0.146413 5.54983e-20 0.989224
    outer loop
      vertex 27.4147 5 59.9424
      vertex 27.7059 0 59.9855
      vertex 27.7059 5 59.9855
    endloop
  endfacet
  facet normal -0.146413 5.54983e-20 0.989224
    outer loop
      vertex 27.7059 0 59.9855
      vertex 27.4147 5 59.9424
      vertex 27.4147 0 59.9424
    endloop
  endfacet
  facet normal 0.146738 -3.69392e-19 -0.989175
    outer loop
      vertex 62.2941 0 0.0144501
      vertex 62.5853 5 0.0576477
      vertex 62.5853 0 0.0576477
    endloop
  endfacet
  facet normal 0.146738 -3.69392e-19 -0.989175
    outer loop
      vertex 62.5853 5 0.0576477
      vertex 62.2941 0 0.0144501
      vertex 62.2941 5 0.0144501
    endloop
  endfacet
  facet normal -0.857643 0 0.514246
    outer loop
      vertex 25.3542 0 58.4142
      vertex 25.5056 5 58.6667
      vertex 25.3542 5 58.4142
    endloop
  endfacet
  facet normal -0.857643 0 0.514246
    outer loop
      vertex 25.5056 5 58.6667
      vertex 25.3542 0 58.4142
      vertex 25.5056 0 58.6667
    endloop
  endfacet
  facet normal 0.740908 -0 0.671607
    outer loop
      vertex 64.1213 0 59.1213
      vertex 64.319 5 58.9032
      vertex 64.1213 5 59.1213
    endloop
  endfacet
  facet normal 0.740908 0 0.671607
    outer loop
      vertex 64.319 5 58.9032
      vertex 64.1213 0 59.1213
      vertex 64.319 0 58.9032
    endloop
  endfacet
  facet normal -0.904063 0 0.4274
    outer loop
      vertex 25.2284 0 58.1481
      vertex 25.3542 5 58.4142
      vertex 25.2284 5 58.1481
    endloop
  endfacet
  facet normal -0.904063 0 0.4274
    outer loop
      vertex 25.3542 5 58.4142
      vertex 25.2284 0 58.1481
      vertex 25.3542 0 58.4142
    endloop
  endfacet
  facet normal 0 1 -0
    outer loop
      vertex 62.3 5 3
      vertex 27.7 5 9
      vertex 62.3 5 9
    endloop
  endfacet
  facet normal 0 1 0
    outer loop
      vertex 27.7 5 9
      vertex 62.3 5 3
      vertex 27.7 5 3
    endloop
  endfacet
  facet normal 0 1 0
    outer loop
      vertex 65 5 57
      vertex 62 5 60
      vertex 62.2941 5 59.9855
    endloop
  endfacet
  facet normal 0 1 0
    outer loop
      vertex 62 5 60
      vertex 65 5 57
      vertex 28 5 60
    endloop
  endfacet
  facet normal 0 1 0
    outer loop
      vertex 65 5 57
      vertex 62.2941 5 59.9855
      vertex 62.5853 5 59.9424
    endloop
  endfacet
  facet normal 0 1 0
    outer loop
      vertex 25 5 57
      vertex 28 5 60
      vertex 65 5 57
    endloop
  endfacet
  facet normal 0 1 0
    outer loop
      vertex 65 5 57
      vertex 62.5853 5 59.9424
      vertex 62.8708 5 59.8708
    endloop
  endfacet
  facet normal 0 1 0
    outer loop
      vertex 28 5 60
      vertex 25 5 57
      vertex 27.7059 5 59.9855
    endloop
  endfacet
  facet normal 0 1 0
    outer loop
      vertex 65 5 57
      vertex 62.8708 5 59.8708
      vertex 63.1481 5 59.7716
    endloop
  endfacet
  facet normal 0 1 0
    outer loop
      vertex 27.7059 5 59.9855
      vertex 25 5 57
      vertex 27.4147 5 59.9424
    endloop
  endfacet
  facet normal 0 1 0
    outer loop
      vertex 65 5 57
      vertex 63.1481 5 59.7716
      vertex 63.4142 5 59.6458
    endloop
  endfacet
  facet normal 0 1 0
    outer loop
      vertex 27.4147 5 59.9424
      vertex 25 5 57
      vertex 27.1292 5 59.8708
    endloop
  endfacet
  facet normal 0 1 0
    outer loop
      vertex 65 5 57
      vertex 63.4142 5 59.6458
      vertex 63.6667 5 59.4944
    endloop
  endfacet
  facet normal 0 1 0
    outer loop
      vertex 27.1292 5 59.8708
      vertex 25 5 57
      vertex 26.8519 5 59.7716
    endloop
  endfacet
  facet normal 0 1 0
    outer loop
      vertex 65 5 57
      vertex 63.6667 5 59.4944
      vertex 63.9032 5 59.319
    endloop
  endfacet
  facet normal 0 1 0
    outer loop
      vertex 26.8519 5 59.7716
      vertex 25 5 57
      vertex 26.5858 5 59.6458
    endloop
  endfacet
  facet normal 0 1 0
    outer loop
      vertex 65 5 57
      vertex 63.9032 5 59.319
      vertex 64.1213 5 59.1213
    endloop
  endfacet
  facet normal 0 1 0
    outer loop
      vertex 26.5858 5 59.6458
      vertex 25 5 57
      vertex 26.3333 5 59.4944
    endloop
  endfacet
  facet normal 0 1 0
    outer loop
      vertex 65 5 57
      vertex 64.1213 5 59.1213
      vertex 64.319 5 58.9032
    endloop
  endfacet
  facet normal 0 1 0
    outer loop
      vertex 26.3333 5 59.4944
      vertex 25 5 57
      vertex 26.0968 5 59.319
    endloop
  endfacet
  facet normal 0 1 0
    outer loop
      vertex 65 5 57
      vertex 64.319 5 58.9032
      vertex 64.4944 5 58.6667
    endloop
  endfacet
  facet normal 0 1 0
    outer loop
      vertex 26.0968 5 59.319
      vertex 25 5 57
      vertex 25.8787 5 59.1213
    endloop
  endfacet
  facet normal 0 1 0
    outer loop
      vertex 65 5 57
      vertex 64.4944 5 58.6667
      vertex 64.6458 5 58.4142
    endloop
  endfacet
  facet normal 0 1 0
    outer loop
      vertex 25.8787 5 59.1213
      vertex 25 5 57
      vertex 25.681 5 58.9032
    endloop
  endfacet
  facet normal 0 1 0
    outer loop
      vertex 65 5 57
      vertex 64.6458 5 58.4142
      vertex 64.7716 5 58.1481
    endloop
  endfacet
  facet normal 0 1 0
    outer loop
      vertex 25.681 5 58.9032
      vertex 25 5 57
      vertex 25.5056 5 58.6667
    endloop
  endfacet
  facet normal 0 1 0
    outer loop
      vertex 65 5 57
      vertex 64.7716 5 58.1481
      vertex 64.8708 5 57.8708
    endloop
  endfacet
  facet normal 0 1 0
    outer loop
      vertex 25.5056 5 58.6667
      vertex 25 5 57
      vertex 25.3542 5 58.4142
    endloop
  endfacet
  facet normal 0 1 0
    outer loop
      vertex 65 5 57
      vertex 64.8708 5 57.8708
      vertex 64.9424 5 57.5853
    endloop
  endfacet
  facet normal 0 1 0
    outer loop
      vertex 25.3542 5 58.4142
      vertex 25 5 57
      vertex 25.2284 5 58.1481
    endloop
  endfacet
  facet normal 0 1 0
    outer loop
      vertex 65 5 57
      vertex 64.9424 5 57.5853
      vertex 64.9855 5 57.2941
    endloop
  endfacet
  facet normal 0 1 0
    outer loop
      vertex 25.2284 5 58.1481
      vertex 25 5 57
      vertex 25.1292 5 57.8708
    endloop
  endfacet
  facet normal 0 1 0
    outer loop
      vertex 25.1292 5 57.8708
      vertex 25 5 57
      vertex 25.0576 5 57.5853
    endloop
  endfacet
  facet normal 0 1 0
    outer loop
      vertex 25.0576 5 57.5853
      vertex 25 5 57
      vertex 25.0145 5 57.2941
    endloop
  endfacet
  facet normal 0 1 0
    outer loop
      vertex 62.3 5 9
      vertex 65 5 57
      vertex 64.3 5 9
    endloop
  endfacet
  facet normal 0 1 -0
    outer loop
      vertex 65 5 3
      vertex 64.3 5 9
      vertex 65 5 57
    endloop
  endfacet
  facet normal 0 1 0
    outer loop
      vertex 64.3 5 1.07582
      vertex 65 5 3
      vertex 64.9855 5 2.70595
    endloop
  endfacet
  facet normal 0 1 0
    outer loop
      vertex 64.3 5 1.07582
      vertex 64.9855 5 2.70595
      vertex 64.9424 5 2.41473
    endloop
  endfacet
  facet normal 0 1 0
    outer loop
      vertex 64.3 5 1.07582
      vertex 64.9424 5 2.41473
      vertex 64.8708 5 2.12915
    endloop
  endfacet
  facet normal 0 1 0
    outer loop
      vertex 64.3 5 1.07582
      vertex 64.8708 5 2.12915
      vertex 64.7716 5 1.85194
    endloop
  endfacet
  facet normal 0 1 0
    outer loop
      vertex 64.3 5 1.07582
      vertex 64.7716 5 1.85194
      vertex 64.6458 5 1.58582
    endloop
  endfacet
  facet normal 0 1 0
    outer loop
      vertex 64.3 5 1.07582
      vertex 64.6458 5 1.58582
      vertex 64.4944 5 1.33328
    endloop
  endfacet
  facet normal 0 1 0
    outer loop
      vertex 64.3 5 1.07582
      vertex 64.4944 5 1.33328
      vertex 64.319 5 1.09682
    endloop
  endfacet
  facet normal 0 1 0
    outer loop
      vertex 65 5 3
      vertex 64.3 5 1.07582
      vertex 64.3 5 9
    endloop
  endfacet
  facet normal 0 1 0
    outer loop
      vertex 65 5 57
      vertex 62.3 5 9
      vertex 25 5 57
    endloop
  endfacet
  facet normal 0 1 -0
    outer loop
      vertex 27.7 5 9
      vertex 25 5 57
      vertex 62.3 5 9
    endloop
  endfacet
  facet normal 0 1 -0
    outer loop
      vertex 25.7 5 9
      vertex 25 5 57
      vertex 27.7 5 9
    endloop
  endfacet
  facet normal 0 1 0
    outer loop
      vertex 25.7 5 9
      vertex 25 5 3
      vertex 25 5 57
    endloop
  endfacet
  facet normal 0 1 -0
    outer loop
      vertex 25.7 5 1.07582
      vertex 25 5 3
      vertex 25.7 5 9
    endloop
  endfacet
  facet normal 0 1 0
    outer loop
      vertex 25 5 3
      vertex 25.7 5 1.07582
      vertex 25.0145 5 2.70595
    endloop
  endfacet
  facet normal 0 1 0
    outer loop
      vertex 25.0145 5 2.70595
      vertex 25.7 5 1.07582
      vertex 25.0576 5 2.41473
    endloop
  endfacet
  facet normal 0 1 0
    outer loop
      vertex 25.0576 5 2.41473
      vertex 25.7 5 1.07582
      vertex 25.1292 5 2.12915
    endloop
  endfacet
  facet normal 0 1 0
    outer loop
      vertex 25.1292 5 2.12915
      vertex 25.7 5 1.07582
      vertex 25.2284 5 1.85194
    endloop
  endfacet
  facet normal 0 1 0
    outer loop
      vertex 25.2284 5 1.85194
      vertex 25.7 5 1.07582
      vertex 25.3542 5 1.58582
    endloop
  endfacet
  facet normal 0 1 0
    outer loop
      vertex 25.3542 5 1.58582
      vertex 25.7 5 1.07582
      vertex 25.5056 5 1.33328
    endloop
  endfacet
  facet normal 0 1 0
    outer loop
      vertex 25.5056 5 1.33328
      vertex 25.7 5 1.07582
      vertex 25.681 5 1.09682
    endloop
  endfacet
  facet normal 0.969962 -0 0.243255
    outer loop
      vertex 64.8708 0 57.8708
      vertex 64.9424 5 57.5853
      vertex 64.8708 5 57.8708
    endloop
  endfacet
  facet normal 0.969962 0 0.243255
    outer loop
      vertex 64.9424 5 57.5853
      vertex 64.8708 0 57.8708
      vertex 64.9424 0 57.5853
    endloop
  endfacet
  facet normal 1 0 0
    outer loop
      vertex 64.3 5 1.07582
      vertex 64.3 14.9 9
      vertex 64.3 5 9
    endloop
  endfacet
  facet normal 1 0 0
    outer loop
      vertex 64.3 14.9 9
      vertex 64.3 5 1.07582
      vertex 64.3 14.9 0
    endloop
  endfacet
  facet normal 1 0 0
    outer loop
      vertex 64.3 5 1.07582
      vertex 64.3 5 0
      vertex 64.3 14.9 0
    endloop
  endfacet
  facet normal -0 0 1
    outer loop
      vertex 27.7 12.9 3
      vertex 62.3 5 3
      vertex 62.3 12.9 3
    endloop
  endfacet
  facet normal 0 0 1
    outer loop
      vertex 62.3 5 3
      vertex 27.7 12.9 3
      vertex 27.7 5 3
    endloop
  endfacet
  facet normal -1 0 0
    outer loop
      vertex 25.7 14.9 0
      vertex 25.7 5 1.07582
      vertex 25.7 14.9 9
    endloop
  endfacet
  facet normal -1 0 0
    outer loop
      vertex 25.7 5 0
      vertex 25.7 5 1.07582
      vertex 25.7 14.9 0
    endloop
  endfacet
  facet normal -1 -0 0
    outer loop
      vertex 25.7 14.9 9
      vertex 25.7 5 1.07582
      vertex 25.7 5 9
    endloop
  endfacet
  facet normal 0 1 -0
    outer loop
      vertex 64.3 14.9 0
      vertex 25.7 14.9 9
      vertex 64.3 14.9 9
    endloop
  endfacet
  facet normal 0 1 0
    outer loop
      vertex 25.7 14.9 9
      vertex 64.3 14.9 0
      vertex 25.7 14.9 0
    endloop
  endfacet
  facet normal 0 -1 0
    outer loop
      vertex 64.1213 5 0.878677
      vertex 64.3 5 0
      vertex 64.3 5 1.07582
    endloop
  endfacet
  facet normal 0 -1 0
    outer loop
      vertex 63.9032 5 0.680969
      vertex 64.3 5 0
      vertex 64.1213 5 0.878677
    endloop
  endfacet
  facet normal 0 -1 0
    outer loop
      vertex 63.6667 5 0.505585
      vertex 64.3 5 0
      vertex 63.9032 5 0.680969
    endloop
  endfacet
  facet normal 0 -1 0
    outer loop
      vertex 63.4142 5 0.354233
      vertex 64.3 5 0
      vertex 63.6667 5 0.505585
    endloop
  endfacet
  facet normal 0 -1 0
    outer loop
      vertex 63.1481 5 0.228363
      vertex 64.3 5 0
      vertex 63.4142 5 0.354233
    endloop
  endfacet
  facet normal 0 -1 0
    outer loop
      vertex 62.8708 5 0.129181
      vertex 64.3 5 0
      vertex 63.1481 5 0.228363
    endloop
  endfacet
  facet normal 0 -1 0
    outer loop
      vertex 62.5853 5 0.0576477
      vertex 64.3 5 0
      vertex 62.8708 5 0.129181
    endloop
  endfacet
  facet normal 0 -1 0
    outer loop
      vertex 62.2941 5 0.0144501
      vertex 64.3 5 0
      vertex 62.5853 5 0.0576477
    endloop
  endfacet
  facet normal 0 -1 0
    outer loop
      vertex 64.3 5 0
      vertex 62.2941 5 0.0144501
      vertex 62 5 0
    endloop
  endfacet
  facet normal 0 -1 0
    outer loop
      vertex 25.7 5 0
      vertex 25.8787 5 0.878677
      vertex 25.7 5 1.07582
    endloop
  endfacet
  facet normal 0 -1 0
    outer loop
      vertex 25.7 5 0
      vertex 26.0968 5 0.680969
      vertex 25.8787 5 0.878677
    endloop
  endfacet
  facet normal 0 -1 0
    outer loop
      vertex 25.7 5 0
      vertex 26.3333 5 0.505585
      vertex 26.0968 5 0.680969
    endloop
  endfacet
  facet normal 0 -1 0
    outer loop
      vertex 25.7 5 0
      vertex 26.5858 5 0.354233
      vertex 26.3333 5 0.505585
    endloop
  endfacet
  facet normal 0 -1 0
    outer loop
      vertex 25.7 5 0
      vertex 26.8519 5 0.228363
      vertex 26.5858 5 0.354233
    endloop
  endfacet
  facet normal 0 -1 0
    outer loop
      vertex 25.7 5 0
      vertex 27.1292 5 0.129181
      vertex 26.8519 5 0.228363
    endloop
  endfacet
  facet normal 0 -1 0
    outer loop
      vertex 25.7 5 0
      vertex 27.4147 5 0.0576477
      vertex 27.1292 5 0.129181
    endloop
  endfacet
  facet normal 0 -1 0
    outer loop
      vertex 25.7 5 0
      vertex 27.7059 5 0.0144501
      vertex 27.4147 5 0.0576477
    endloop
  endfacet
  facet normal 0 -1 -0
    outer loop
      vertex 27.7059 5 0.0144501
      vertex 25.7 5 0
      vertex 28 5 0
    endloop
  endfacet
  facet normal 1 -0 0
    outer loop
      vertex 27.7 5 9
      vertex 27.7 12.9 3
      vertex 27.7 12.9 9
    endloop
  endfacet
  facet normal 1 0 0
    outer loop
      vertex 27.7 12.9 3
      vertex 27.7 5 9
      vertex 27.7 5 3
    endloop
  endfacet
  facet normal 0 0 1
    outer loop
      vertex 64.3 14.9 9
      vertex 62.3 12.9 9
      vertex 64.3 5 9
    endloop
  endfacet
  facet normal 0 0 1
    outer loop
      vertex 64.3 14.9 9
      vertex 27.7 12.9 9
      vertex 62.3 12.9 9
    endloop
  endfacet
  facet normal -0 0 1
    outer loop
      vertex 25.7 14.9 9
      vertex 27.7 12.9 9
      vertex 64.3 14.9 9
    endloop
  endfacet
  facet normal 0 0 1
    outer loop
      vertex 25.7 5 9
      vertex 27.7 12.9 9
      vertex 25.7 14.9 9
    endloop
  endfacet
  facet normal 0 0 1
    outer loop
      vertex 27.7 12.9 9
      vertex 25.7 5 9
      vertex 27.7 5 9
    endloop
  endfacet
  facet normal 0 0 1
    outer loop
      vertex 64.3 5 9
      vertex 62.3 12.9 9
      vertex 62.3 5 9
    endloop
  endfacet
  facet normal -1 0 0
    outer loop
      vertex 62.3 5 3
      vertex 62.3 12.9 9
      vertex 62.3 12.9 3
    endloop
  endfacet
  facet normal -1 -0 0
    outer loop
      vertex 62.3 12.9 9
      vertex 62.3 5 3
      vertex 62.3 5 9
    endloop
  endfacet
  facet normal 0 -1 0
    outer loop
      vertex 27.7 12.9 3
      vertex 62.3 12.9 9
      vertex 27.7 12.9 9
    endloop
  endfacet
  facet normal 0 -1 -0
    outer loop
      vertex 62.3 12.9 9
      vertex 27.7 12.9 3
      vertex 62.3 12.9 3
    endloop
  endfacet
endsolid OpenSCAD_Model
