solid OpenSCAD_Model
  facet normal 0.851658 -0.524097 0
    outer loop
      vertex -6.25 0 58.8
      vertex -4.25 3.25 38.2
      vertex -4.25 3.25 58.8
    endloop
  endfacet
  facet normal 0.851658 -0.524097 0
    outer loop
      vertex -4.25 3.25 38.2
      vertex -6.25 0 58.8
      vertex -6.25 0 38.2
    endloop
  endfacet
  facet normal -0 0 1
    outer loop
      vertex -4.25 3.25 38.2
      vertex 6.25 0 38.2
      vertex 4.25 3.25 38.2
    endloop
  endfacet
  facet normal 0 0 1
    outer loop
      vertex 6.25 0 38.2
      vertex -4.25 3.25 38.2
      vertex -6.25 0 38.2
    endloop
  endfacet
  facet normal 0 0 1
    outer loop
      vertex 6.25 3.25 58.8
      vertex 4.25 3.25 58.8
      vertex 6.25 0 58.8
    endloop
  endfacet
  facet normal -0 0 1
    outer loop
      vertex -6.25 3.25 58.8
      vertex -6.25 0 58.8
      vertex -4.25 3.25 58.8
    endloop
  endfacet
  facet normal 0 -1 0
    outer loop
      vertex -4.25 3.25 38.2
      vertex 4.25 3.25 58.8
      vertex -4.25 3.25 58.8
    endloop
  endfacet
  facet normal 0 -1 -0
    outer loop
      vertex 4.25 3.25 58.8
      vertex -4.25 3.25 38.2
      vertex 4.25 3.25 38.2
    endloop
  endfacet
  facet normal 0 -1 0
    outer loop
      vertex -4.25 3.25 58.8
      vertex -6.25 3.25 60
      vertex -6.25 3.25 58.8
    endloop
  endfacet
  facet normal 0 -1 0
    outer loop
      vertex -6.25 3.25 60
      vertex -4.25 3.25 58.8
      vertex 6.25 3.25 60
    endloop
  endfacet
  facet normal 0 -1 0
    outer loop
      vertex 4.25 3.25 58.8
      vertex 6.25 3.25 60
      vertex -4.25 3.25 58.8
    endloop
  endfacet
  facet normal 0 -1 -0
    outer loop
      vertex 6.25 3.25 60
      vertex 4.25 3.25 58.8
      vertex 6.25 3.25 58.8
    endloop
  endfacet
  facet normal 0 -1 0
    outer loop
      vertex -20 0 57
      vertex -17 0 60
      vertex -17.2941 0 59.9855
    endloop
  endfacet
  facet normal 0 -1 0
    outer loop
      vertex -20 0 57
      vertex -17.2941 0 59.9855
      vertex -17.5853 0 59.9424
    endloop
  endfacet
  facet normal 0 -1 0
    outer loop
      vertex -20 0 57
      vertex -17.5853 0 59.9424
      vertex -17.8708 0 59.8708
    endloop
  endfacet
  facet normal 0 -1 0
    outer loop
      vertex -20 0 57
      vertex -17.8708 0 59.8708
      vertex -18.1481 0 59.7716
    endloop
  endfacet
  facet normal 0 -1 0
    outer loop
      vertex -20 0 57
      vertex -18.1481 0 59.7716
      vertex -18.4142 0 59.6458
    endloop
  endfacet
  facet normal 0 -1 0
    outer loop
      vertex -20 0 57
      vertex -18.4142 0 59.6458
      vertex -18.6667 0 59.4944
    endloop
  endfacet
  facet normal 0 -1 0
    outer loop
      vertex -20 0 57
      vertex -18.6667 0 59.4944
      vertex -18.9032 0 59.319
    endloop
  endfacet
  facet normal 0 -1 0
    outer loop
      vertex -20 0 57
      vertex -18.9032 0 59.319
      vertex -19.1213 0 59.1213
    endloop
  endfacet
  facet normal 0 -1 0
    outer loop
      vertex -20 0 57
      vertex -19.1213 0 59.1213
      vertex -19.319 0 58.9032
    endloop
  endfacet
  facet normal 0 -1 0
    outer loop
      vertex -17 0 60
      vertex -6.25 0 58.8
      vertex -6.25 0 60
    endloop
  endfacet
  facet normal 0 -1 0
    outer loop
      vertex -20 0 57
      vertex -19.319 0 58.9032
      vertex -19.4944 0 58.6667
    endloop
  endfacet
  facet normal 0 -1 0
    outer loop
      vertex -20 0 57
      vertex -19.4944 0 58.6667
      vertex -19.6458 0 58.4142
    endloop
  endfacet
  facet normal 0 -1 0
    outer loop
      vertex -20 0 57
      vertex -19.6458 0 58.4142
      vertex -19.7716 0 58.1481
    endloop
  endfacet
  facet normal 0 -1 0
    outer loop
      vertex -20 0 57
      vertex -19.7716 0 58.1481
      vertex -19.8708 0 57.8708
    endloop
  endfacet
  facet normal 0 -1 0
    outer loop
      vertex -20 0 57
      vertex -19.8708 0 57.8708
      vertex -19.9424 0 57.5853
    endloop
  endfacet
  facet normal 0 -1 0
    outer loop
      vertex -20 0 57
      vertex -19.9424 0 57.5853
      vertex -19.9855 0 57.2941
    endloop
  endfacet
  facet normal 0 -1 -0
    outer loop
      vertex -17 0 60
      vertex -20 0 57
      vertex -6.25 0 58.8
    endloop
  endfacet
  facet normal 0 -1 0
    outer loop
      vertex -20 0 57
      vertex -6.25 0 38.2
      vertex -6.25 0 58.8
    endloop
  endfacet
  facet normal 0 -1 0
    outer loop
      vertex -17 0 0
      vertex -6.25 0 38.2
      vertex -20 0 3
    endloop
  endfacet
  facet normal 0 -1 0
    outer loop
      vertex -20 0 3
      vertex -6.25 0 38.2
      vertex -20 0 57
    endloop
  endfacet
  facet normal 0 -1 0
    outer loop
      vertex 6.25 0 58.8
      vertex 17 0 60
      vertex 6.25 0 60
    endloop
  endfacet
  facet normal 0 -1 0
    outer loop
      vertex 20 0 57
      vertex 17 0 60
      vertex 6.25 0 58.8
    endloop
  endfacet
  facet normal 0 -1 0
    outer loop
      vertex 17 0 60
      vertex 20 0 57
      vertex 17.2941 0 59.9855
    endloop
  endfacet
  facet normal 0 -1 0
    outer loop
      vertex 17.2941 0 59.9855
      vertex 20 0 57
      vertex 17.5853 0 59.9424
    endloop
  endfacet
  facet normal 0 -1 0
    outer loop
      vertex 17.5853 0 59.9424
      vertex 20 0 57
      vertex 17.8708 0 59.8708
    endloop
  endfacet
  facet normal 0 -1 0
    outer loop
      vertex 17.8708 0 59.8708
      vertex 20 0 57
      vertex 18.1481 0 59.7716
    endloop
  endfacet
  facet normal 0 -1 0
    outer loop
      vertex 18.1481 0 59.7716
      vertex 20 0 57
      vertex 18.4142 0 59.6458
    endloop
  endfacet
  facet normal 0 -1 0
    outer loop
      vertex 18.4142 0 59.6458
      vertex 20 0 57
      vertex 18.6667 0 59.4944
    endloop
  endfacet
  facet normal 0 -1 0
    outer loop
      vertex 18.6667 0 59.4944
      vertex 20 0 57
      vertex 18.9032 0 59.319
    endloop
  endfacet
  facet normal 0 -1 0
    outer loop
      vertex 18.9032 0 59.319
      vertex 20 0 57
      vertex 19.1213 0 59.1213
    endloop
  endfacet
  facet normal 0 -1 0
    outer loop
      vertex 19.1213 0 59.1213
      vertex 20 0 57
      vertex 19.319 0 58.9032
    endloop
  endfacet
  facet normal 0 -1 0
    outer loop
      vertex 19.319 0 58.9032
      vertex 20 0 57
      vertex 19.4944 0 58.6667
    endloop
  endfacet
  facet normal 0 -1 0
    outer loop
      vertex 19.4944 0 58.6667
      vertex 20 0 57
      vertex 19.6458 0 58.4142
    endloop
  endfacet
  facet normal 0 -1 0
    outer loop
      vertex 19.6458 0 58.4142
      vertex 20 0 57
      vertex 19.7716 0 58.1481
    endloop
  endfacet
  facet normal 0 -1 0
    outer loop
      vertex 19.7716 0 58.1481
      vertex 20 0 57
      vertex 19.8708 0 57.8708
    endloop
  endfacet
  facet normal 0 -1 0
    outer loop
      vertex 19.8708 0 57.8708
      vertex 20 0 57
      vertex 19.9424 0 57.5853
    endloop
  endfacet
  facet normal 0 -1 0
    outer loop
      vertex 19.9424 0 57.5853
      vertex 20 0 57
      vertex 19.9855 0 57.2941
    endloop
  endfacet
  facet normal 0 -1 0
    outer loop
      vertex 6.25 0 38.2
      vertex 20 0 57
      vertex 6.25 0 58.8
    endloop
  endfacet
  facet normal 0 -1 0
    outer loop
      vertex 6.25 0 38.2
      vertex 20 0 3
      vertex 20 0 57
    endloop
  endfacet
  facet normal 0 -1 -0
    outer loop
      vertex -6.25 0 38.2
      vertex -17 0 0
      vertex 6.25 0 38.2
    endloop
  endfacet
  facet normal 0 -1 0
    outer loop
      vertex -17 0 0
      vertex -20 0 3
      vertex -19.9855 0 2.70595
    endloop
  endfacet
  facet normal 0 -1 0
    outer loop
      vertex 17 0 0
      vertex 6.25 0 38.2
      vertex -17 0 0
    endloop
  endfacet
  facet normal 0 -1 0
    outer loop
      vertex -17 0 0
      vertex -19.9855 0 2.70595
      vertex -19.9424 0 2.41473
    endloop
  endfacet
  facet normal 0 -1 0
    outer loop
      vertex 6.25 0 38.2
      vertex 17 0 0
      vertex 20 0 3
    endloop
  endfacet
  facet normal 0 -1 0
    outer loop
      vertex -17 0 0
      vertex -19.9424 0 2.41473
      vertex -19.8708 0 2.12915
    endloop
  endfacet
  facet normal 0 -1 0
    outer loop
      vertex 20 0 3
      vertex 17 0 0
      vertex 19.9855 0 2.70595
    endloop
  endfacet
  facet normal 0 -1 0
    outer loop
      vertex -17 0 0
      vertex -19.8708 0 2.12915
      vertex -19.7716 0 1.85194
    endloop
  endfacet
  facet normal 0 -1 0
    outer loop
      vertex 19.9855 0 2.70595
      vertex 17 0 0
      vertex 19.9424 0 2.41473
    endloop
  endfacet
  facet normal 0 -1 0
    outer loop
      vertex -17 0 0
      vertex -19.7716 0 1.85194
      vertex -19.6458 0 1.58582
    endloop
  endfacet
  facet normal 0 -1 0
    outer loop
      vertex 19.9424 0 2.41473
      vertex 17 0 0
      vertex 19.8708 0 2.12915
    endloop
  endfacet
  facet normal 0 -1 0
    outer loop
      vertex -17 0 0
      vertex -19.6458 0 1.58582
      vertex -19.4944 0 1.33328
    endloop
  endfacet
  facet normal 0 -1 0
    outer loop
      vertex 19.8708 0 2.12915
      vertex 17 0 0
      vertex 19.7716 0 1.85194
    endloop
  endfacet
  facet normal 0 -1 0
    outer loop
      vertex -17 0 0
      vertex -19.4944 0 1.33328
      vertex -19.319 0 1.09682
    endloop
  endfacet
  facet normal 0 -1 0
    outer loop
      vertex 19.7716 0 1.85194
      vertex 17 0 0
      vertex 19.6458 0 1.58582
    endloop
  endfacet
  facet normal 0 -1 0
    outer loop
      vertex -17 0 0
      vertex -19.319 0 1.09682
      vertex -19.1213 0 0.878677
    endloop
  endfacet
  facet normal 0 -1 0
    outer loop
      vertex 19.6458 0 1.58582
      vertex 17 0 0
      vertex 19.4944 0 1.33328
    endloop
  endfacet
  facet normal 0 -1 0
    outer loop
      vertex -17 0 0
      vertex -19.1213 0 0.878677
      vertex -18.9032 0 0.680969
    endloop
  endfacet
  facet normal 0 -1 0
    outer loop
      vertex 19.4944 0 1.33328
      vertex 17 0 0
      vertex 19.319 0 1.09682
    endloop
  endfacet
  facet normal 0 -1 0
    outer loop
      vertex -17 0 0
      vertex -18.9032 0 0.680969
      vertex -18.6667 0 0.505585
    endloop
  endfacet
  facet normal 0 -1 0
    outer loop
      vertex 19.319 0 1.09682
      vertex 17 0 0
      vertex 19.1213 0 0.878677
    endloop
  endfacet
  facet normal 0 -1 0
    outer loop
      vertex -17 0 0
      vertex -18.6667 0 0.505585
      vertex -18.4142 0 0.354233
    endloop
  endfacet
  facet normal 0 -1 0
    outer loop
      vertex 19.1213 0 0.878677
      vertex 17 0 0
      vertex 18.9032 0 0.680969
    endloop
  endfacet
  facet normal 0 -1 0
    outer loop
      vertex -17 0 0
      vertex -18.4142 0 0.354233
      vertex -18.1481 0 0.228363
    endloop
  endfacet
  facet normal 0 -1 0
    outer loop
      vertex 18.9032 0 0.680969
      vertex 17 0 0
      vertex 18.6667 0 0.505585
    endloop
  endfacet
  facet normal 0 -1 0
    outer loop
      vertex -17 0 0
      vertex -18.1481 0 0.228363
      vertex -17.8708 0 0.129181
    endloop
  endfacet
  facet normal 0 -1 0
    outer loop
      vertex 18.6667 0 0.505585
      vertex 17 0 0
      vertex 18.4142 0 0.354233
    endloop
  endfacet
  facet normal 0 -1 0
    outer loop
      vertex -17 0 0
      vertex -17.8708 0 0.129181
      vertex -17.5853 0 0.0576477
    endloop
  endfacet
  facet normal 0 -1 0
    outer loop
      vertex 18.4142 0 0.354233
      vertex 17 0 0
      vertex 18.1481 0 0.228363
    endloop
  endfacet
  facet normal 0 -1 0
    outer loop
      vertex -17 0 0
      vertex -17.5853 0 0.0576477
      vertex -17.2941 0 0.0144501
    endloop
  endfacet
  facet normal 0 -1 0
    outer loop
      vertex 18.1481 0 0.228363
      vertex 17 0 0
      vertex 17.8708 0 0.129181
    endloop
  endfacet
  facet normal 0 -1 0
    outer loop
      vertex 17.8708 0 0.129181
      vertex 17 0 0
      vertex 17.5853 0 0.0576477
    endloop
  endfacet
  facet normal 0 -1 0
    outer loop
      vertex 17.5853 0 0.0576477
      vertex 17 0 0
      vertex 17.2941 0 0.0144501
    endloop
  endfacet
  facet normal -0.851658 -0.524097 0
    outer loop
      vertex 6.25 0 38.2
      vertex 4.25 3.25 58.8
      vertex 4.25 3.25 38.2
    endloop
  endfacet
  facet normal -0.851658 -0.524097 0
    outer loop
      vertex 4.25 3.25 58.8
      vertex 6.25 0 38.2
      vertex 6.25 0 58.8
    endloop
  endfacet
  facet normal 1 -0 0
    outer loop
      vertex -6.25 0 60
      vertex -6.25 3.25 58.8
      vertex -6.25 3.25 60
    endloop
  endfacet
  facet normal 1 0 0
    outer loop
      vertex -6.25 3.25 58.8
      vertex -6.25 0 60
      vertex -6.25 0 58.8
    endloop
  endfacet
  facet normal -1 0 0
    outer loop
      vertex 6.25 0 58.8
      vertex 6.25 3.25 60
      vertex 6.25 3.25 58.8
    endloop
  endfacet
  facet normal -1 -0 0
    outer loop
      vertex 6.25 3.25 60
      vertex 6.25 0 58.8
      vertex 6.25 0 60
    endloop
  endfacet
  facet normal 0.514246 1.37053e-18 0.857643
    outer loop
      vertex 18.4142 5 59.6458
      vertex 18.6667 0 59.4944
      vertex 18.6667 5 59.4944
    endloop
  endfacet
  facet normal 0.514246 1.37053e-18 0.857643
    outer loop
      vertex 18.6667 0 59.4944
      vertex 18.4142 5 59.6458
      vertex 18.4142 0 59.6458
    endloop
  endfacet
  facet normal 0.941565 -0 0.336831
    outer loop
      vertex 19.7716 0 58.1481
      vertex 19.8708 5 57.8708
      vertex 19.7716 5 58.1481
    endloop
  endfacet
  facet normal 0.941565 0 0.336831
    outer loop
      vertex 19.8708 5 57.8708
      vertex 19.7716 0 58.1481
      vertex 19.8708 0 57.8708
    endloop
  endfacet
  facet normal 0.741536 0 -0.670913
    outer loop
      vertex 19.319 0 1.09682
      vertex 19.3 5 1.07582
      vertex 19.319 5 1.09682
    endloop
  endfacet
  facet normal 0.740914 -5.24878e-06 -0.6716
    outer loop
      vertex 19.319 0 1.09682
      vertex 19.1213 5 0.878677
      vertex 19.3 5 1.07582
    endloop
  endfacet
  facet normal 0.740974 0 -0.671534
    outer loop
      vertex 19.1213 5 0.878677
      vertex 19.319 0 1.09682
      vertex 19.1213 0 0.878677
    endloop
  endfacet
  facet normal -0.146738 -1.8297e-19 -0.989175
    outer loop
      vertex -17.5853 0 0.0576477
      vertex -17.2941 5 0.0144501
      vertex -17.2941 0 0.0144501
    endloop
  endfacet
  facet normal -0.146738 -1.8297e-19 -0.989175
    outer loop
      vertex -17.2941 5 0.0144501
      vertex -17.5853 0 0.0576477
      vertex -17.5853 5 0.0576477
    endloop
  endfacet
  facet normal 0 0 -1
    outer loop
      vertex 17 0 0
      vertex -17 0 0
      vertex 17 5 0
    endloop
  endfacet
  facet normal 0 0 -1
    outer loop
      vertex 17 5 0
      vertex 19.3 14.9 0
      vertex 19.3 5 0
    endloop
  endfacet
  facet normal 0 0 -1
    outer loop
      vertex -17 5 0
      vertex 17 5 0
      vertex -17 0 0
    endloop
  endfacet
  facet normal 0 0 -1
    outer loop
      vertex 17 5 0
      vertex -17 5 0
      vertex 19.3 14.9 0
    endloop
  endfacet
  facet normal 0 0 -1
    outer loop
      vertex -19.3 14.9 0
      vertex -17 5 0
      vertex -19.3 5 0
    endloop
  endfacet
  facet normal 0 0 -1
    outer loop
      vertex -17 5 0
      vertex -19.3 14.9 0
      vertex 19.3 14.9 0
    endloop
  endfacet
  facet normal -0.427594 1.26874e-18 -0.903971
    outer loop
      vertex -18.4142 0 0.354233
      vertex -18.1481 5 0.228363
      vertex -18.1481 0 0.228363
    endloop
  endfacet
  facet normal -0.427594 1.26874e-18 -0.903971
    outer loop
      vertex -18.1481 5 0.228363
      vertex -18.4142 0 0.354233
      vertex -18.4142 5 0.354233
    endloop
  endfacet
  facet normal 0.336831 4.85898e-19 0.941565
    outer loop
      vertex 17.8708 5 59.8708
      vertex 18.1481 0 59.7716
      vertex 18.1481 5 59.7716
    endloop
  endfacet
  facet normal 0.336831 4.85898e-19 0.941565
    outer loop
      vertex 18.1481 0 59.7716
      vertex 17.8708 5 59.8708
      vertex 17.8708 0 59.8708
    endloop
  endfacet
  facet normal 0.4274 5.7914e-19 0.904063
    outer loop
      vertex 18.1481 5 59.7716
      vertex 18.4142 0 59.6458
      vertex 18.4142 5 59.6458
    endloop
  endfacet
  facet normal 0.4274 5.7914e-19 0.904063
    outer loop
      vertex 18.4142 0 59.6458
      vertex 18.1481 5 59.7716
      vertex 18.1481 0 59.7716
    endloop
  endfacet
  facet normal -0.336777 -3.45145e-19 -0.941584
    outer loop
      vertex -18.1481 0 0.228363
      vertex -17.8708 5 0.129181
      vertex -17.8708 0 0.129181
    endloop
  endfacet
  facet normal -0.336777 -3.45145e-19 -0.941584
    outer loop
      vertex -17.8708 5 0.129181
      vertex -18.1481 0 0.228363
      vertex -18.1481 5 0.228363
    endloop
  endfacet
  facet normal -0.80316 0 -0.595764
    outer loop
      vertex -19.319 0 1.09682
      vertex -19.4944 5 1.33328
      vertex -19.319 5 1.09682
    endloop
  endfacet
  facet normal -0.80316 -0 -0.595764
    outer loop
      vertex -19.4944 5 1.33328
      vertex -19.319 0 1.09682
      vertex -19.4944 0 1.33328
    endloop
  endfacet
  facet normal 1 -0 0
    outer loop
      vertex 20 0 57
      vertex 20 5 3
      vertex 20 5 57
    endloop
  endfacet
  facet normal 1 0 0
    outer loop
      vertex 20 5 3
      vertex 20 0 57
      vertex 20 0 3
    endloop
  endfacet
  facet normal -0.989225 0 -0.146403
    outer loop
      vertex -19.9424 0 2.41473
      vertex -19.9855 5 2.70595
      vertex -19.9424 5 2.41473
    endloop
  endfacet
  facet normal -0.989225 -0 -0.146403
    outer loop
      vertex -19.9855 5 2.70595
      vertex -19.9424 0 2.41473
      vertex -19.9855 0 2.70595
    endloop
  endfacet
  facet normal 0.904075 0 -0.427374
    outer loop
      vertex 19.7716 0 1.85194
      vertex 19.6458 5 1.58582
      vertex 19.7716 5 1.85194
    endloop
  endfacet
  facet normal 0.904075 0 -0.427374
    outer loop
      vertex 19.6458 5 1.58582
      vertex 19.7716 0 1.85194
      vertex 19.6458 0 1.58582
    endloop
  endfacet
  facet normal 0.904063 -0 0.4274
    outer loop
      vertex 19.6458 0 58.4142
      vertex 19.7716 5 58.1481
      vertex 19.6458 5 58.4142
    endloop
  endfacet
  facet normal 0.904063 0 0.4274
    outer loop
      vertex 19.7716 5 58.1481
      vertex 19.6458 0 58.4142
      vertex 19.7716 0 58.1481
    endloop
  endfacet
  facet normal -0.243255 -1.06485e-18 0.969962
    outer loop
      vertex -17.8708 5 59.8708
      vertex -17.5853 0 59.9424
      vertex -17.5853 5 59.9424
    endloop
  endfacet
  facet normal -0.243255 -1.06485e-18 0.969962
    outer loop
      vertex -17.5853 0 59.9424
      vertex -17.8708 5 59.8708
      vertex -17.8708 0 59.8708
    endloop
  endfacet
  facet normal -0.969978 0 -0.243191
    outer loop
      vertex -19.8708 0 2.12915
      vertex -19.9424 5 2.41473
      vertex -19.8708 5 2.12915
    endloop
  endfacet
  facet normal -0.969978 -0 -0.243191
    outer loop
      vertex -19.9424 5 2.41473
      vertex -19.8708 0 2.12915
      vertex -19.9424 0 2.41473
    endloop
  endfacet
  facet normal -0.0492431 -2.59404e-21 0.998787
    outer loop
      vertex -17.2941 5 59.9855
      vertex -17 0 60
      vertex -17 5 60
    endloop
  endfacet
  facet normal -0.0492431 -2.59404e-21 0.998787
    outer loop
      vertex -17 0 60
      vertex -17.2941 5 59.9855
      vertex -17.2941 0 59.9855
    endloop
  endfacet
  facet normal 0.146413 -5.54983e-20 0.989224
    outer loop
      vertex 17.2941 5 59.9855
      vertex 17.5853 0 59.9424
      vertex 17.5853 5 59.9424
    endloop
  endfacet
  facet normal 0.146413 -5.54983e-20 0.989224
    outer loop
      vertex 17.5853 0 59.9424
      vertex 17.2941 5 59.9855
      vertex 17.2941 0 59.9855
    endloop
  endfacet
  facet normal 0.998786 0 -0.0492515
    outer loop
      vertex 20 0 3
      vertex 19.9855 5 2.70595
      vertex 20 5 3
    endloop
  endfacet
  facet normal 0.998786 0 -0.0492515
    outer loop
      vertex 19.9855 5 2.70595
      vertex 20 0 3
      vertex 19.9855 0 2.70595
    endloop
  endfacet
  facet normal -1 0 0
    outer loop
      vertex -20 0 3
      vertex -20 5 57
      vertex -20 5 3
    endloop
  endfacet
  facet normal -1 -0 0
    outer loop
      vertex -20 5 57
      vertex -20 0 3
      vertex -20 0 57
    endloop
  endfacet
  facet normal 0.0492431 2.59404e-21 0.998787
    outer loop
      vertex 17 5 60
      vertex 17.2941 0 59.9855
      vertex 17.2941 5 59.9855
    endloop
  endfacet
  facet normal 0.0492431 2.59404e-21 0.998787
    outer loop
      vertex 17.2941 0 59.9855
      vertex 17 5 60
      vertex 17 0 60
    endloop
  endfacet
  facet normal -0.595699 1.37677e-18 0.803208
    outer loop
      vertex -18.9032 5 59.319
      vertex -18.6667 0 59.4944
      vertex -18.6667 5 59.4944
    endloop
  endfacet
  facet normal -0.595699 1.37677e-18 0.803208
    outer loop
      vertex -18.6667 0 59.4944
      vertex -18.9032 5 59.319
      vertex -18.9032 0 59.319
    endloop
  endfacet
  facet normal 0 0 1
    outer loop
      vertex 17 5 60
      vertex 6.25 3.25 60
      vertex 17 0 60
    endloop
  endfacet
  facet normal 0 0 1
    outer loop
      vertex 17 5 60
      vertex -6.25 3.25 60
      vertex 6.25 3.25 60
    endloop
  endfacet
  facet normal -0 0 1
    outer loop
      vertex -17 5 60
      vertex -6.25 3.25 60
      vertex 17 5 60
    endloop
  endfacet
  facet normal 0 0 1
    outer loop
      vertex -17 0 60
      vertex -6.25 3.25 60
      vertex -17 5 60
    endloop
  endfacet
  facet normal 0 0 1
    outer loop
      vertex -6.25 3.25 60
      vertex -17 0 60
      vertex -6.25 0 60
    endloop
  endfacet
  facet normal 0 0 1
    outer loop
      vertex 17 0 60
      vertex 6.25 3.25 60
      vertex 6.25 0 60
    endloop
  endfacet
  facet normal 0.243255 1.06485e-18 0.969962
    outer loop
      vertex 17.5853 5 59.9424
      vertex 17.8708 0 59.8708
      vertex 17.8708 5 59.8708
    endloop
  endfacet
  facet normal 0.243255 1.06485e-18 0.969962
    outer loop
      vertex 17.8708 0 59.8708
      vertex 17.5853 5 59.9424
      vertex 17.5853 0 59.9424
    endloop
  endfacet
  facet normal 0.243042 -1.79242e-19 -0.970016
    outer loop
      vertex 17.5853 0 0.0576477
      vertex 17.8708 5 0.129181
      vertex 17.8708 0 0.129181
    endloop
  endfacet
  facet normal 0.243042 -1.79242e-19 -0.970016
    outer loop
      vertex 17.8708 5 0.129181
      vertex 17.5853 0 0.0576477
      vertex 17.5853 5 0.0576477
    endloop
  endfacet
  facet normal 0.427594 -1.26874e-18 -0.903971
    outer loop
      vertex 18.1481 0 0.228363
      vertex 18.4142 5 0.354233
      vertex 18.4142 0 0.354233
    endloop
  endfacet
  facet normal 0.427594 -1.26874e-18 -0.903971
    outer loop
      vertex 18.4142 5 0.354233
      vertex 18.1481 0 0.228363
      vertex 18.1481 5 0.228363
    endloop
  endfacet
  facet normal 0.989224 -0 0.146413
    outer loop
      vertex 19.9424 0 57.5853
      vertex 19.9855 5 57.2941
      vertex 19.9424 5 57.5853
    endloop
  endfacet
  facet normal 0.989224 0 0.146413
    outer loop
      vertex 19.9855 5 57.2941
      vertex 19.9424 0 57.5853
      vertex 19.9855 0 57.2941
    endloop
  endfacet
  facet normal -0.740914 -0 -0.6716
    outer loop
      vertex -19.1213 5 0.878677
      vertex -19.1213 0 0.878677
      vertex -19.3 5 1.07582
    endloop
  endfacet
  facet normal -0.740974 -4.74388e-06 -0.671534
    outer loop
      vertex -19.319 0 1.09682
      vertex -19.3 5 1.07582
      vertex -19.1213 0 0.878677
    endloop
  endfacet
  facet normal -0.741536 -5.25325e-20 -0.670913
    outer loop
      vertex -19.3 5 1.07582
      vertex -19.319 0 1.09682
      vertex -19.319 5 1.09682
    endloop
  endfacet
  facet normal -0.989224 0 0.146413
    outer loop
      vertex -19.9855 0 57.2941
      vertex -19.9424 5 57.5853
      vertex -19.9855 5 57.2941
    endloop
  endfacet
  facet normal -0.989224 0 0.146413
    outer loop
      vertex -19.9424 5 57.5853
      vertex -19.9855 0 57.2941
      vertex -19.9424 0 57.5853
    endloop
  endfacet
  facet normal -0.671622 3.60996e-19 -0.740894
    outer loop
      vertex -19.1213 0 0.878677
      vertex -18.9032 5 0.680969
      vertex -18.9032 0 0.680969
    endloop
  endfacet
  facet normal -0.671622 3.60996e-19 -0.740894
    outer loop
      vertex -18.9032 5 0.680969
      vertex -19.1213 0 0.878677
      vertex -19.1213 5 0.878677
    endloop
  endfacet
  facet normal -0.998787 0 0.0492431
    outer loop
      vertex -20 0 57
      vertex -19.9855 5 57.2941
      vertex -20 5 57
    endloop
  endfacet
  facet normal -0.998787 0 0.0492431
    outer loop
      vertex -19.9855 5 57.2941
      vertex -20 0 57
      vertex -19.9855 0 57.2941
    endloop
  endfacet
  facet normal 0.803208 -0 0.595699
    outer loop
      vertex 19.319 0 58.9032
      vertex 19.4944 5 58.6667
      vertex 19.319 5 58.9032
    endloop
  endfacet
  facet normal 0.803208 0 0.595699
    outer loop
      vertex 19.4944 5 58.6667
      vertex 19.319 0 58.9032
      vertex 19.4944 0 58.6667
    endloop
  endfacet
  facet normal -0.740908 0 0.671607
    outer loop
      vertex -19.319 0 58.9032
      vertex -19.1213 5 59.1213
      vertex -19.319 5 58.9032
    endloop
  endfacet
  facet normal -0.740908 0 0.671607
    outer loop
      vertex -19.1213 5 59.1213
      vertex -19.319 0 58.9032
      vertex -19.1213 0 59.1213
    endloop
  endfacet
  facet normal 0.857679 0 -0.514186
    outer loop
      vertex 19.6458 0 1.58582
      vertex 19.4944 5 1.33328
      vertex 19.6458 5 1.58582
    endloop
  endfacet
  facet normal 0.857679 0 -0.514186
    outer loop
      vertex 19.4944 5 1.33328
      vertex 19.6458 0 1.58582
      vertex 19.4944 0 1.33328
    endloop
  endfacet
  facet normal 0.80316 0 -0.595764
    outer loop
      vertex 19.4944 0 1.33328
      vertex 19.319 5 1.09682
      vertex 19.4944 5 1.33328
    endloop
  endfacet
  facet normal 0.80316 0 -0.595764
    outer loop
      vertex 19.319 5 1.09682
      vertex 19.4944 0 1.33328
      vertex 19.319 0 1.09682
    endloop
  endfacet
  facet normal 0.94153 0 -0.336928
    outer loop
      vertex 19.8708 0 2.12915
      vertex 19.7716 5 1.85194
      vertex 19.8708 5 2.12915
    endloop
  endfacet
  facet normal 0.94153 0 -0.336928
    outer loop
      vertex 19.7716 5 1.85194
      vertex 19.8708 0 2.12915
      vertex 19.7716 0 1.85194
    endloop
  endfacet
  facet normal 0.514126 -1.2965e-18 -0.857715
    outer loop
      vertex 18.4142 0 0.354233
      vertex 18.6667 5 0.505585
      vertex 18.6667 0 0.505585
    endloop
  endfacet
  facet normal 0.514126 -1.2965e-18 -0.857715
    outer loop
      vertex 18.6667 5 0.505585
      vertex 18.4142 0 0.354233
      vertex 18.4142 5 0.354233
    endloop
  endfacet
  facet normal -0.0490741 1.72729e-19 -0.998795
    outer loop
      vertex -17.2941 0 0.0144501
      vertex -17 5 0
      vertex -17 0 0
    endloop
  endfacet
  facet normal -0.0490741 1.72729e-19 -0.998795
    outer loop
      vertex -17 5 0
      vertex -17.2941 0 0.0144501
      vertex -17.2941 5 0.0144501
    endloop
  endfacet
  facet normal -0.514126 1.2965e-18 -0.857715
    outer loop
      vertex -18.6667 0 0.505585
      vertex -18.4142 5 0.354233
      vertex -18.4142 0 0.354233
    endloop
  endfacet
  facet normal -0.514126 1.2965e-18 -0.857715
    outer loop
      vertex -18.4142 5 0.354233
      vertex -18.6667 0 0.505585
      vertex -18.6667 5 0.505585
    endloop
  endfacet
  facet normal -0.336831 -4.85898e-19 0.941565
    outer loop
      vertex -18.1481 5 59.7716
      vertex -17.8708 0 59.8708
      vertex -17.8708 5 59.8708
    endloop
  endfacet
  facet normal -0.336831 -4.85898e-19 0.941565
    outer loop
      vertex -17.8708 0 59.8708
      vertex -18.1481 5 59.7716
      vertex -18.1481 0 59.7716
    endloop
  endfacet
  facet normal -0.243042 1.79242e-19 -0.970016
    outer loop
      vertex -17.8708 0 0.129181
      vertex -17.5853 5 0.0576477
      vertex -17.5853 0 0.0576477
    endloop
  endfacet
  facet normal -0.243042 1.79242e-19 -0.970016
    outer loop
      vertex -17.5853 5 0.0576477
      vertex -17.8708 0 0.129181
      vertex -17.8708 5 0.129181
    endloop
  endfacet
  facet normal 0.671622 -3.60996e-19 -0.740894
    outer loop
      vertex 18.9032 0 0.680969
      vertex 19.1213 5 0.878677
      vertex 19.1213 0 0.878677
    endloop
  endfacet
  facet normal 0.671622 -3.60996e-19 -0.740894
    outer loop
      vertex 19.1213 5 0.878677
      vertex 18.9032 0 0.680969
      vertex 18.9032 5 0.680969
    endloop
  endfacet
  facet normal 0.336777 3.45145e-19 -0.941584
    outer loop
      vertex 17.8708 0 0.129181
      vertex 18.1481 5 0.228363
      vertex 18.1481 0 0.228363
    endloop
  endfacet
  facet normal 0.336777 3.45145e-19 -0.941584
    outer loop
      vertex 18.1481 5 0.228363
      vertex 17.8708 0 0.129181
      vertex 17.8708 5 0.129181
    endloop
  endfacet
  facet normal -0.94153 0 -0.336928
    outer loop
      vertex -19.7716 0 1.85194
      vertex -19.8708 5 2.12915
      vertex -19.7716 5 1.85194
    endloop
  endfacet
  facet normal -0.94153 -0 -0.336928
    outer loop
      vertex -19.8708 5 2.12915
      vertex -19.7716 0 1.85194
      vertex -19.8708 0 2.12915
    endloop
  endfacet
  facet normal -0.4274 -5.7914e-19 0.904063
    outer loop
      vertex -18.4142 5 59.6458
      vertex -18.1481 0 59.7716
      vertex -18.1481 5 59.7716
    endloop
  endfacet
  facet normal -0.4274 -5.7914e-19 0.904063
    outer loop
      vertex -18.1481 0 59.7716
      vertex -18.4142 5 59.6458
      vertex -18.4142 0 59.6458
    endloop
  endfacet
  facet normal -0.998786 0 -0.0492515
    outer loop
      vertex -19.9855 0 2.70595
      vertex -20 5 3
      vertex -19.9855 5 2.70595
    endloop
  endfacet
  facet normal -0.998786 -0 -0.0492515
    outer loop
      vertex -20 5 3
      vertex -19.9855 0 2.70595
      vertex -20 0 3
    endloop
  endfacet
  facet normal 0.969978 0 -0.243191
    outer loop
      vertex 19.9424 0 2.41473
      vertex 19.8708 5 2.12915
      vertex 19.9424 5 2.41473
    endloop
  endfacet
  facet normal 0.969978 0 -0.243191
    outer loop
      vertex 19.8708 5 2.12915
      vertex 19.9424 0 2.41473
      vertex 19.8708 0 2.12915
    endloop
  endfacet
  facet normal 0.595663 7.03651e-19 -0.803234
    outer loop
      vertex 18.6667 0 0.505585
      vertex 18.9032 5 0.680969
      vertex 18.9032 0 0.680969
    endloop
  endfacet
  facet normal 0.595663 7.03651e-19 -0.803234
    outer loop
      vertex 18.9032 5 0.680969
      vertex 18.6667 0 0.505585
      vertex 18.6667 5 0.505585
    endloop
  endfacet
  facet normal 0.0490741 -1.72729e-19 -0.998795
    outer loop
      vertex 17 0 0
      vertex 17.2941 5 0.0144501
      vertex 17.2941 0 0.0144501
    endloop
  endfacet
  facet normal 0.0490741 -1.72729e-19 -0.998795
    outer loop
      vertex 17.2941 5 0.0144501
      vertex 17 0 0
      vertex 17 5 0
    endloop
  endfacet
  facet normal 0.857643 -0 0.514246
    outer loop
      vertex 19.4944 0 58.6667
      vertex 19.6458 5 58.4142
      vertex 19.4944 5 58.6667
    endloop
  endfacet
  facet normal 0.857643 0 0.514246
    outer loop
      vertex 19.6458 5 58.4142
      vertex 19.4944 0 58.6667
      vertex 19.6458 0 58.4142
    endloop
  endfacet
  facet normal 0.671607 -2.25364e-18 0.740908
    outer loop
      vertex 18.9032 5 59.319
      vertex 19.1213 0 59.1213
      vertex 19.1213 5 59.1213
    endloop
  endfacet
  facet normal 0.671607 -2.25364e-18 0.740908
    outer loop
      vertex 19.1213 0 59.1213
      vertex 18.9032 5 59.319
      vertex 18.9032 0 59.319
    endloop
  endfacet
  facet normal -0.671607 2.25364e-18 0.740908
    outer loop
      vertex -19.1213 5 59.1213
      vertex -18.9032 0 59.319
      vertex -18.9032 5 59.319
    endloop
  endfacet
  facet normal -0.671607 2.25364e-18 0.740908
    outer loop
      vertex -18.9032 0 59.319
      vertex -19.1213 5 59.1213
      vertex -19.1213 0 59.1213
    endloop
  endfacet
  facet normal -0.595663 -7.03651e-19 -0.803234
    outer loop
      vertex -18.9032 0 0.680969
      vertex -18.6667 5 0.505585
      vertex -18.6667 0 0.505585
    endloop
  endfacet
  facet normal -0.595663 -7.03651e-19 -0.803234
    outer loop
      vertex -18.6667 5 0.505585
      vertex -18.9032 0 0.680969
      vertex -18.9032 5 0.680969
    endloop
  endfacet
  facet normal 0.998787 -0 0.0492431
    outer loop
      vertex 19.9855 0 57.2941
      vertex 20 5 57
      vertex 19.9855 5 57.2941
    endloop
  endfacet
  facet normal 0.998787 0 0.0492431
    outer loop
      vertex 20 5 57
      vertex 19.9855 0 57.2941
      vertex 20 0 57
    endloop
  endfacet
  facet normal -0.969962 0 0.243255
    outer loop
      vertex -19.9424 0 57.5853
      vertex -19.8708 5 57.8708
      vertex -19.9424 5 57.5853
    endloop
  endfacet
  facet normal -0.969962 0 0.243255
    outer loop
      vertex -19.8708 5 57.8708
      vertex -19.9424 0 57.5853
      vertex -19.8708 0 57.8708
    endloop
  endfacet
  facet normal -0.857679 0 -0.514186
    outer loop
      vertex -19.4944 0 1.33328
      vertex -19.6458 5 1.58582
      vertex -19.4944 5 1.33328
    endloop
  endfacet
  facet normal -0.857679 -0 -0.514186
    outer loop
      vertex -19.6458 5 1.58582
      vertex -19.4944 0 1.33328
      vertex -19.6458 0 1.58582
    endloop
  endfacet
  facet normal -0.904075 0 -0.427374
    outer loop
      vertex -19.6458 0 1.58582
      vertex -19.7716 5 1.85194
      vertex -19.6458 5 1.58582
    endloop
  endfacet
  facet normal -0.904075 -0 -0.427374
    outer loop
      vertex -19.7716 5 1.85194
      vertex -19.6458 0 1.58582
      vertex -19.7716 0 1.85194
    endloop
  endfacet
  facet normal -0.803208 0 0.595699
    outer loop
      vertex -19.4944 0 58.6667
      vertex -19.319 5 58.9032
      vertex -19.4944 5 58.6667
    endloop
  endfacet
  facet normal -0.803208 0 0.595699
    outer loop
      vertex -19.319 5 58.9032
      vertex -19.4944 0 58.6667
      vertex -19.319 0 58.9032
    endloop
  endfacet
  facet normal -0.514246 -1.37053e-18 0.857643
    outer loop
      vertex -18.6667 5 59.4944
      vertex -18.4142 0 59.6458
      vertex -18.4142 5 59.6458
    endloop
  endfacet
  facet normal -0.514246 -1.37053e-18 0.857643
    outer loop
      vertex -18.4142 0 59.6458
      vertex -18.6667 5 59.4944
      vertex -18.6667 0 59.4944
    endloop
  endfacet
  facet normal 0.595699 -1.37677e-18 0.803208
    outer loop
      vertex 18.6667 5 59.4944
      vertex 18.9032 0 59.319
      vertex 18.9032 5 59.319
    endloop
  endfacet
  facet normal 0.595699 -1.37677e-18 0.803208
    outer loop
      vertex 18.9032 0 59.319
      vertex 18.6667 5 59.4944
      vertex 18.6667 0 59.4944
    endloop
  endfacet
  facet normal -0.941565 0 0.336831
    outer loop
      vertex -19.8708 0 57.8708
      vertex -19.7716 5 58.1481
      vertex -19.8708 5 57.8708
    endloop
  endfacet
  facet normal -0.941565 0 0.336831
    outer loop
      vertex -19.7716 5 58.1481
      vertex -19.8708 0 57.8708
      vertex -19.7716 0 58.1481
    endloop
  endfacet
  facet normal 0.989225 0 -0.146403
    outer loop
      vertex 19.9855 0 2.70595
      vertex 19.9424 5 2.41473
      vertex 19.9855 5 2.70595
    endloop
  endfacet
  facet normal 0.989225 0 -0.146403
    outer loop
      vertex 19.9424 5 2.41473
      vertex 19.9855 0 2.70595
      vertex 19.9424 0 2.41473
    endloop
  endfacet
  facet normal -0.146413 5.54983e-20 0.989224
    outer loop
      vertex -17.5853 5 59.9424
      vertex -17.2941 0 59.9855
      vertex -17.2941 5 59.9855
    endloop
  endfacet
  facet normal -0.146413 5.54983e-20 0.989224
    outer loop
      vertex -17.2941 0 59.9855
      vertex -17.5853 5 59.9424
      vertex -17.5853 0 59.9424
    endloop
  endfacet
  facet normal 0.146738 1.8297e-19 -0.989175
    outer loop
      vertex 17.2941 0 0.0144501
      vertex 17.5853 5 0.0576477
      vertex 17.5853 0 0.0576477
    endloop
  endfacet
  facet normal 0.146738 1.8297e-19 -0.989175
    outer loop
      vertex 17.5853 5 0.0576477
      vertex 17.2941 0 0.0144501
      vertex 17.2941 5 0.0144501
    endloop
  endfacet
  facet normal -0.857643 0 0.514246
    outer loop
      vertex -19.6458 0 58.4142
      vertex -19.4944 5 58.6667
      vertex -19.6458 5 58.4142
    endloop
  endfacet
  facet normal -0.857643 0 0.514246
    outer loop
      vertex -19.4944 5 58.6667
      vertex -19.6458 0 58.4142
      vertex -19.4944 0 58.6667
    endloop
  endfacet
  facet normal 0.740908 -0 0.671607
    outer loop
      vertex 19.1213 0 59.1213
      vertex 19.319 5 58.9032
      vertex 19.1213 5 59.1213
    endloop
  endfacet
  facet normal 0.740908 0 0.671607
    outer loop
      vertex 19.319 5 58.9032
      vertex 19.1213 0 59.1213
      vertex 19.319 0 58.9032
    endloop
  endfacet
  facet normal -0.904063 0 0.4274
    outer loop
      vertex -19.7716 0 58.1481
      vertex -19.6458 5 58.4142
      vertex -19.7716 5 58.1481
    endloop
  endfacet
  facet normal -0.904063 0 0.4274
    outer loop
      vertex -19.6458 5 58.4142
      vertex -19.7716 0 58.1481
      vertex -19.6458 0 58.4142
    endloop
  endfacet
  facet normal 0 1 -0
    outer loop
      vertex 17.3 5 3
      vertex -17.3 5 9
      vertex 17.3 5 9
    endloop
  endfacet
  facet normal 0 1 0
    outer loop
      vertex -17.3 5 9
      vertex 17.3 5 3
      vertex -17.3 5 3
    endloop
  endfacet
  facet normal 0 1 0
    outer loop
      vertex 20 5 57
      vertex 17 5 60
      vertex 17.2941 5 59.9855
    endloop
  endfacet
  facet normal 0 1 0
    outer loop
      vertex 17 5 60
      vertex 20 5 57
      vertex -17 5 60
    endloop
  endfacet
  facet normal 0 1 0
    outer loop
      vertex 20 5 57
      vertex 17.2941 5 59.9855
      vertex 17.5853 5 59.9424
    endloop
  endfacet
  facet normal 0 1 0
    outer loop
      vertex -20 5 57
      vertex -17 5 60
      vertex 20 5 57
    endloop
  endfacet
  facet normal 0 1 0
    outer loop
      vertex 20 5 57
      vertex 17.5853 5 59.9424
      vertex 17.8708 5 59.8708
    endloop
  endfacet
  facet normal 0 1 0
    outer loop
      vertex -17 5 60
      vertex -20 5 57
      vertex -17.2941 5 59.9855
    endloop
  endfacet
  facet normal 0 1 0
    outer loop
      vertex 20 5 57
      vertex 17.8708 5 59.8708
      vertex 18.1481 5 59.7716
    endloop
  endfacet
  facet normal 0 1 0
    outer loop
      vertex -17.2941 5 59.9855
      vertex -20 5 57
      vertex -17.5853 5 59.9424
    endloop
  endfacet
  facet normal 0 1 0
    outer loop
      vertex 20 5 57
      vertex 18.1481 5 59.7716
      vertex 18.4142 5 59.6458
    endloop
  endfacet
  facet normal 0 1 0
    outer loop
      vertex -17.5853 5 59.9424
      vertex -20 5 57
      vertex -17.8708 5 59.8708
    endloop
  endfacet
  facet normal 0 1 0
    outer loop
      vertex 20 5 57
      vertex 18.4142 5 59.6458
      vertex 18.6667 5 59.4944
    endloop
  endfacet
  facet normal 0 1 0
    outer loop
      vertex -17.8708 5 59.8708
      vertex -20 5 57
      vertex -18.1481 5 59.7716
    endloop
  endfacet
  facet normal 0 1 0
    outer loop
      vertex 20 5 57
      vertex 18.6667 5 59.4944
      vertex 18.9032 5 59.319
    endloop
  endfacet
  facet normal 0 1 0
    outer loop
      vertex -18.1481 5 59.7716
      vertex -20 5 57
      vertex -18.4142 5 59.6458
    endloop
  endfacet
  facet normal 0 1 0
    outer loop
      vertex 20 5 57
      vertex 18.9032 5 59.319
      vertex 19.1213 5 59.1213
    endloop
  endfacet
  facet normal 0 1 0
    outer loop
      vertex -18.4142 5 59.6458
      vertex -20 5 57
      vertex -18.6667 5 59.4944
    endloop
  endfacet
  facet normal 0 1 0
    outer loop
      vertex 20 5 57
      vertex 19.1213 5 59.1213
      vertex 19.319 5 58.9032
    endloop
  endfacet
  facet normal 0 1 0
    outer loop
      vertex -18.6667 5 59.4944
      vertex -20 5 57
      vertex -18.9032 5 59.319
    endloop
  endfacet
  facet normal 0 1 0
    outer loop
      vertex 20 5 57
      vertex 19.319 5 58.9032
      vertex 19.4944 5 58.6667
    endloop
  endfacet
  facet normal 0 1 0
    outer loop
      vertex -18.9032 5 59.319
      vertex -20 5 57
      vertex -19.1213 5 59.1213
    endloop
  endfacet
  facet normal 0 1 0
    outer loop
      vertex 20 5 57
      vertex 19.4944 5 58.6667
      vertex 19.6458 5 58.4142
    endloop
  endfacet
  facet normal 0 1 0
    outer loop
      vertex -19.1213 5 59.1213
      vertex -20 5 57
      vertex -19.319 5 58.9032
    endloop
  endfacet
  facet normal 0 1 0
    outer loop
      vertex 20 5 57
      vertex 19.6458 5 58.4142
      vertex 19.7716 5 58.1481
    endloop
  endfacet
  facet normal 0 1 0
    outer loop
      vertex -19.319 5 58.9032
      vertex -20 5 57
      vertex -19.4944 5 58.6667
    endloop
  endfacet
  facet normal 0 1 0
    outer loop
      vertex 20 5 57
      vertex 19.7716 5 58.1481
      vertex 19.8708 5 57.8708
    endloop
  endfacet
  facet normal 0 1 0
    outer loop
      vertex -19.4944 5 58.6667
      vertex -20 5 57
      vertex -19.6458 5 58.4142
    endloop
  endfacet
  facet normal 0 1 0
    outer loop
      vertex 20 5 57
      vertex 19.8708 5 57.8708
      vertex 19.9424 5 57.5853
    endloop
  endfacet
  facet normal 0 1 0
    outer loop
      vertex -19.6458 5 58.4142
      vertex -20 5 57
      vertex -19.7716 5 58.1481
    endloop
  endfacet
  facet normal 0 1 0
    outer loop
      vertex 20 5 57
      vertex 19.9424 5 57.5853
      vertex 19.9855 5 57.2941
    endloop
  endfacet
  facet normal 0 1 0
    outer loop
      vertex -19.7716 5 58.1481
      vertex -20 5 57
      vertex -19.8708 5 57.8708
    endloop
  endfacet
  facet normal 0 1 0
    outer loop
      vertex -19.8708 5 57.8708
      vertex -20 5 57
      vertex -19.9424 5 57.5853
    endloop
  endfacet
  facet normal 0 1 0
    outer loop
      vertex -19.9424 5 57.5853
      vertex -20 5 57
      vertex -19.9855 5 57.2941
    endloop
  endfacet
  facet normal 0 1 0
    outer loop
      vertex 17.3 5 9
      vertex 20 5 57
      vertex 19.3 5 9
    endloop
  endfacet
  facet normal 0 1 -0
    outer loop
      vertex 20 5 3
      vertex 19.3 5 9
      vertex 20 5 57
    endloop
  endfacet
  facet normal 0 1 0
    outer loop
      vertex 19.3 5 1.07582
      vertex 20 5 3
      vertex 19.9855 5 2.70595
    endloop
  endfacet
  facet normal 0 1 0
    outer loop
      vertex 19.3 5 1.07582
      vertex 19.9855 5 2.70595
      vertex 19.9424 5 2.41473
    endloop
  endfacet
  facet normal 0 1 0
    outer loop
      vertex 19.3 5 1.07582
      vertex 19.9424 5 2.41473
      vertex 19.8708 5 2.12915
    endloop
  endfacet
  facet normal 0 1 0
    outer loop
      vertex 19.3 5 1.07582
      vertex 19.8708 5 2.12915
      vertex 19.7716 5 1.85194
    endloop
  endfacet
  facet normal 0 1 0
    outer loop
      vertex 19.3 5 1.07582
      vertex 19.7716 5 1.85194
      vertex 19.6458 5 1.58582
    endloop
  endfacet
  facet normal 0 1 0
    outer loop
      vertex 19.3 5 1.07582
      vertex 19.6458 5 1.58582
      vertex 19.4944 5 1.33328
    endloop
  endfacet
  facet normal 0 1 0
    outer loop
      vertex 19.3 5 1.07582
      vertex 19.4944 5 1.33328
      vertex 19.319 5 1.09682
    endloop
  endfacet
  facet normal 0 1 0
    outer loop
      vertex 20 5 3
      vertex 19.3 5 1.07582
      vertex 19.3 5 9
    endloop
  endfacet
  facet normal 0 1 0
    outer loop
      vertex 20 5 57
      vertex 17.3 5 9
      vertex -20 5 57
    endloop
  endfacet
  facet normal 0 1 -0
    outer loop
      vertex -17.3 5 9
      vertex -20 5 57
      vertex 17.3 5 9
    endloop
  endfacet
  facet normal 0 1 -0
    outer loop
      vertex -19.3 5 9
      vertex -20 5 57
      vertex -17.3 5 9
    endloop
  endfacet
  facet normal 0 1 0
    outer loop
      vertex -19.3 5 9
      vertex -20 5 3
      vertex -20 5 57
    endloop
  endfacet
  facet normal 0 1 -0
    outer loop
      vertex -19.3 5 1.07582
      vertex -20 5 3
      vertex -19.3 5 9
    endloop
  endfacet
  facet normal 0 1 0
    outer loop
      vertex -20 5 3
      vertex -19.3 5 1.07582
      vertex -19.9855 5 2.70595
    endloop
  endfacet
  facet normal 0 1 0
    outer loop
      vertex -19.9855 5 2.70595
      vertex -19.3 5 1.07582
      vertex -19.9424 5 2.41473
    endloop
  endfacet
  facet normal 0 1 0
    outer loop
      vertex -19.9424 5 2.41473
      vertex -19.3 5 1.07582
      vertex -19.8708 5 2.12915
    endloop
  endfacet
  facet normal 0 1 0
    outer loop
      vertex -19.8708 5 2.12915
      vertex -19.3 5 1.07582
      vertex -19.7716 5 1.85194
    endloop
  endfacet
  facet normal 0 1 0
    outer loop
      vertex -19.7716 5 1.85194
      vertex -19.3 5 1.07582
      vertex -19.6458 5 1.58582
    endloop
  endfacet
  facet normal 0 1 0
    outer loop
      vertex -19.6458 5 1.58582
      vertex -19.3 5 1.07582
      vertex -19.4944 5 1.33328
    endloop
  endfacet
  facet normal 0 1 0
    outer loop
      vertex -19.4944 5 1.33328
      vertex -19.3 5 1.07582
      vertex -19.319 5 1.09682
    endloop
  endfacet
  facet normal 0.969962 -0 0.243255
    outer loop
      vertex 19.8708 0 57.8708
      vertex 19.9424 5 57.5853
      vertex 19.8708 5 57.8708
    endloop
  endfacet
  facet normal 0.969962 0 0.243255
    outer loop
      vertex 19.9424 5 57.5853
      vertex 19.8708 0 57.8708
      vertex 19.9424 0 57.5853
    endloop
  endfacet
  facet normal 1 0 0
    outer loop
      vertex 19.3 5 1.07582
      vertex 19.3 14.9 9
      vertex 19.3 5 9
    endloop
  endfacet
  facet normal 1 0 0
    outer loop
      vertex 19.3 14.9 9
      vertex 19.3 5 1.07582
      vertex 19.3 14.9 0
    endloop
  endfacet
  facet normal 1 0 0
    outer loop
      vertex 19.3 5 1.07582
      vertex 19.3 5 0
      vertex 19.3 14.9 0
    endloop
  endfacet
  facet normal -0 0 1
    outer loop
      vertex -17.3 12.9 3
      vertex 17.3 5 3
      vertex 17.3 12.9 3
    endloop
  endfacet
  facet normal 0 0 1
    outer loop
      vertex 17.3 5 3
      vertex -17.3 12.9 3
      vertex -17.3 5 3
    endloop
  endfacet
  facet normal -1 0 0
    outer loop
      vertex -19.3 14.9 0
      vertex -19.3 5 1.07582
      vertex -19.3 14.9 9
    endloop
  endfacet
  facet normal -1 0 0
    outer loop
      vertex -19.3 5 0
      vertex -19.3 5 1.07582
      vertex -19.3 14.9 0
    endloop
  endfacet
  facet normal -1 -0 0
    outer loop
      vertex -19.3 14.9 9
      vertex -19.3 5 1.07582
      vertex -19.3 5 9
    endloop
  endfacet
  facet normal 0 1 -0
    outer loop
      vertex 19.3 14.9 0
      vertex -19.3 14.9 9
      vertex 19.3 14.9 9
    endloop
  endfacet
  facet normal 0 1 0
    outer loop
      vertex -19.3 14.9 9
      vertex 19.3 14.9 0
      vertex -19.3 14.9 0
    endloop
  endfacet
  facet normal 0 -1 0
    outer loop
      vertex 19.1213 5 0.878677
      vertex 19.3 5 0
      vertex 19.3 5 1.07582
    endloop
  endfacet
  facet normal 0 -1 0
    outer loop
      vertex 18.9032 5 0.680969
      vertex 19.3 5 0
      vertex 19.1213 5 0.878677
    endloop
  endfacet
  facet normal 0 -1 0
    outer loop
      vertex 18.6667 5 0.505585
      vertex 19.3 5 0
      vertex 18.9032 5 0.680969
    endloop
  endfacet
  facet normal 0 -1 0
    outer loop
      vertex 18.4142 5 0.354233
      vertex 19.3 5 0
      vertex 18.6667 5 0.505585
    endloop
  endfacet
  facet normal 0 -1 0
    outer loop
      vertex 18.1481 5 0.228363
      vertex 19.3 5 0
      vertex 18.4142 5 0.354233
    endloop
  endfacet
  facet normal 0 -1 0
    outer loop
      vertex 17.8708 5 0.129181
      vertex 19.3 5 0
      vertex 18.1481 5 0.228363
    endloop
  endfacet
  facet normal 0 -1 0
    outer loop
      vertex 17.5853 5 0.0576477
      vertex 19.3 5 0
      vertex 17.8708 5 0.129181
    endloop
  endfacet
  facet normal 0 -1 0
    outer loop
      vertex 17.2941 5 0.0144501
      vertex 19.3 5 0
      vertex 17.5853 5 0.0576477
    endloop
  endfacet
  facet normal 0 -1 0
    outer loop
      vertex 19.3 5 0
      vertex 17.2941 5 0.0144501
      vertex 17 5 0
    endloop
  endfacet
  facet normal 0 -1 0
    outer loop
      vertex -19.3 5 0
      vertex -19.1213 5 0.878677
      vertex -19.3 5 1.07582
    endloop
  endfacet
  facet normal 0 -1 0
    outer loop
      vertex -19.3 5 0
      vertex -18.9032 5 0.680969
      vertex -19.1213 5 0.878677
    endloop
  endfacet
  facet normal 0 -1 0
    outer loop
      vertex -19.3 5 0
      vertex -18.6667 5 0.505585
      vertex -18.9032 5 0.680969
    endloop
  endfacet
  facet normal 0 -1 0
    outer loop
      vertex -19.3 5 0
      vertex -18.4142 5 0.354233
      vertex -18.6667 5 0.505585
    endloop
  endfacet
  facet normal 0 -1 0
    outer loop
      vertex -19.3 5 0
      vertex -18.1481 5 0.228363
      vertex -18.4142 5 0.354233
    endloop
  endfacet
  facet normal 0 -1 0
    outer loop
      vertex -19.3 5 0
      vertex -17.8708 5 0.129181
      vertex -18.1481 5 0.228363
    endloop
  endfacet
  facet normal 0 -1 0
    outer loop
      vertex -19.3 5 0
      vertex -17.5853 5 0.0576477
      vertex -17.8708 5 0.129181
    endloop
  endfacet
  facet normal 0 -1 0
    outer loop
      vertex -19.3 5 0
      vertex -17.2941 5 0.0144501
      vertex -17.5853 5 0.0576477
    endloop
  endfacet
  facet normal 0 -1 -0
    outer loop
      vertex -17.2941 5 0.0144501
      vertex -19.3 5 0
      vertex -17 5 0
    endloop
  endfacet
  facet normal 1 -0 0
    outer loop
      vertex -17.3 5 9
      vertex -17.3 12.9 3
      vertex -17.3 12.9 9
    endloop
  endfacet
  facet normal 1 0 0
    outer loop
      vertex -17.3 12.9 3
      vertex -17.3 5 9
      vertex -17.3 5 3
    endloop
  endfacet
  facet normal 0 0 1
    outer loop
      vertex 19.3 14.9 9
      vertex 17.3 12.9 9
      vertex 19.3 5 9
    endloop
  endfacet
  facet normal 0 0 1
    outer loop
      vertex 19.3 14.9 9
      vertex -17.3 12.9 9
      vertex 17.3 12.9 9
    endloop
  endfacet
  facet normal -0 0 1
    outer loop
      vertex -19.3 14.9 9
      vertex -17.3 12.9 9
      vertex 19.3 14.9 9
    endloop
  endfacet
  facet normal 0 0 1
    outer loop
      vertex -19.3 5 9
      vertex -17.3 12.9 9
      vertex -19.3 14.9 9
    endloop
  endfacet
  facet normal 0 0 1
    outer loop
      vertex -17.3 12.9 9
      vertex -19.3 5 9
      vertex -17.3 5 9
    endloop
  endfacet
  facet normal 0 0 1
    outer loop
      vertex 19.3 5 9
      vertex 17.3 12.9 9
      vertex 17.3 5 9
    endloop
  endfacet
  facet normal -1 0 0
    outer loop
      vertex 17.3 5 3
      vertex 17.3 12.9 9
      vertex 17.3 12.9 3
    endloop
  endfacet
  facet normal -1 -0 0
    outer loop
      vertex 17.3 12.9 9
      vertex 17.3 5 3
      vertex 17.3 5 9
    endloop
  endfacet
  facet normal 0 -1 0
    outer loop
      vertex -17.3 12.9 3
      vertex 17.3 12.9 9
      vertex -17.3 12.9 9
    endloop
  endfacet
  facet normal 0 -1 -0
    outer loop
      vertex 17.3 12.9 9
      vertex -17.3 12.9 3
      vertex 17.3 12.9 3
    endloop
  endfacet
endsolid OpenSCAD_Model
