solid OpenSCAD_Model
  facet normal 0.851658 -0.524098 0
    outer loop
      vertex -6.25 2.86102e-06 63.8
      vertex -4.25 3.25 43.2
      vertex -4.25 3.25 63.8
    endloop
  endfacet
  facet normal 0.851658 -0.524098 0
    outer loop
      vertex -4.25 3.25 43.2
      vertex -6.25 2.86102e-06 63.8
      vertex -6.25 2.86102e-06 43.2
    endloop
  endfacet
  facet normal -0 0 1
    outer loop
      vertex -4.25 3.25 43.2
      vertex 6.25 2.86102e-06 43.2
      vertex 4.25 3.25 43.2
    endloop
  endfacet
  facet normal 0 0 1
    outer loop
      vertex 6.25 2.86102e-06 43.2
      vertex -4.25 3.25 43.2
      vertex -6.25 2.86102e-06 43.2
    endloop
  endfacet
  facet normal 0 -0 1
    outer loop
      vertex 6.25 2.86102e-06 63.8
      vertex 6.25 3.25 63.8
      vertex 4.25 3.25 63.8
    endloop
  endfacet
  facet normal -0 0 1
    outer loop
      vertex -6.25 3.25 63.8
      vertex -6.25 2.86102e-06 63.8
      vertex -4.25 3.25 63.8
    endloop
  endfacet
  facet normal 0 -1 0
    outer loop
      vertex -4.25 3.25 43.2
      vertex 4.25 3.25 63.8
      vertex -4.25 3.25 63.8
    endloop
  endfacet
  facet normal 0 -1 -0
    outer loop
      vertex 4.25 3.25 63.8
      vertex -4.25 3.25 43.2
      vertex 4.25 3.25 43.2
    endloop
  endfacet
  facet normal 0 -1 0
    outer loop
      vertex -4.25 3.25 63.8
      vertex -6.25 3.25 65
      vertex -6.25 3.25 63.8
    endloop
  endfacet
  facet normal 0 -1 0
    outer loop
      vertex -6.25 3.25 65
      vertex -4.25 3.25 63.8
      vertex 6.25 3.25 65
    endloop
  endfacet
  facet normal 0 -1 0
    outer loop
      vertex 4.25 3.25 63.8
      vertex 6.25 3.25 65
      vertex -4.25 3.25 63.8
    endloop
  endfacet
  facet normal 0 -1 -0
    outer loop
      vertex 6.25 3.25 65
      vertex 4.25 3.25 63.8
      vertex 6.25 3.25 63.8
    endloop
  endfacet
  facet normal -0.851658 -0.524098 0
    outer loop
      vertex 6.25 2.86102e-06 43.2
      vertex 4.25 3.25 63.8
      vertex 4.25 3.25 43.2
    endloop
  endfacet
  facet normal -0.851658 -0.524098 0
    outer loop
      vertex 4.25 3.25 63.8
      vertex 6.25 2.86102e-06 43.2
      vertex 6.25 2.86102e-06 63.8
    endloop
  endfacet
  facet normal 1 -0 0
    outer loop
      vertex -6.25 2.86102e-06 65
      vertex -6.25 3.25 63.8
      vertex -6.25 3.25 65
    endloop
  endfacet
  facet normal 1 0 0
    outer loop
      vertex -6.25 3.25 63.8
      vertex -6.25 2.86102e-06 65
      vertex -6.25 2.86102e-06 63.8
    endloop
  endfacet
  facet normal -1 0 0
    outer loop
      vertex 6.25 2.86102e-06 63.8
      vertex 6.25 3.25 65
      vertex 6.25 3.25 63.8
    endloop
  endfacet
  facet normal -1 -0 0
    outer loop
      vertex 6.25 3.25 65
      vertex 6.25 2.86102e-06 63.8
      vertex 6.25 2.86102e-06 65
    endloop
  endfacet
  facet normal 0.0490648 -0.998796 0
    outer loop
      vertex 17.6 2.86102e-06 0
      vertex 17.796 0.00963116 65
      vertex 17.6 2.86102e-06 65
    endloop
  endfacet
  facet normal 0.0490648 -0.998796 0
    outer loop
      vertex 17.796 0.00963116 65
      vertex 17.6 2.86102e-06 0
      vertex 17.796 0.00963116 0
    endloop
  endfacet
  facet normal -0.146739 -0.989175 0
    outer loop
      vertex -17.9902 0.0384398 0
      vertex -17.796 0.00963116 65
      vertex -17.9902 0.0384398 65
    endloop
  endfacet
  facet normal -0.146739 -0.989175 -0
    outer loop
      vertex -17.796 0.00963116 65
      vertex -17.9902 0.0384398 0
      vertex -17.796 0.00963116 0
    endloop
  endfacet
  facet normal 0.0489209 0.998803 -4.07996e-20
    outer loop
      vertex 17.796 14.8904 65
      vertex 17.6 14.9 53.001
      vertex 17.6 14.9 65
    endloop
  endfacet
  facet normal 0.0489209 0.998803 -0
    outer loop
      vertex 17.796 14.8904 0
      vertex 17.6 14.9 53.001
      vertex 17.796 14.8904 65
    endloop
  endfacet
  facet normal 0.0489209 0.998803 0
    outer loop
      vertex 17.6 14.9 53.001
      vertex 17.796 14.8904 0
      vertex 17.6 14.9 2.5
    endloop
  endfacet
  facet normal 0.0489209 0.998803 -0
    outer loop
      vertex 17.6 14.9 0
      vertex 17.6 14.9 2.5
      vertex 17.796 14.8904 0
    endloop
  endfacet
  facet normal -0.427634 -0.903952 0
    outer loop
      vertex -18.5428 0.236163 0
      vertex -18.3654 0.15224 65
      vertex -18.5428 0.236163 65
    endloop
  endfacet
  facet normal -0.427634 -0.903952 -0
    outer loop
      vertex -18.3654 0.15224 65
      vertex -18.5428 0.236163 0
      vertex -18.3654 0.15224 0
    endloop
  endfacet
  facet normal -0.243015 0.970023 0
    outer loop
      vertex -17.9902 14.8616 0
      vertex -18.1806 14.8139 65
      vertex -17.9902 14.8616 65
    endloop
  endfacet
  facet normal -0.243015 0.970023 0
    outer loop
      vertex -18.1806 14.8139 65
      vertex -17.9902 14.8616 0
      vertex -18.1806 14.8139 0
    endloop
  endfacet
  facet normal -0.989176 -0.146733 1.77339e-20
    outer loop
      vertex -19.5616 1.60982 0
      vertex -19.5904 1.80397 65
      vertex -19.5904 1.80397 0
    endloop
  endfacet
  facet normal -0.989176 -0.146733 1.77339e-20
    outer loop
      vertex -19.5904 1.80397 65
      vertex -19.5616 1.60982 0
      vertex -19.5616 1.60982 65
    endloop
  endfacet
  facet normal 0 1 -0
    outer loop
      vertex 17.6 14.9 0
      vertex -17.6 14.9 2.5
      vertex 17.6 14.9 2.5
    endloop
  endfacet
  facet normal 0 1 0
    outer loop
      vertex -17.6 14.9 2.5
      vertex 17.6 14.9 0
      vertex -17.6 14.9 0
    endloop
  endfacet
  facet normal 0 1 -0
    outer loop
      vertex 17.6 14.9 53.001
      vertex 8.6 14.9 65
      vertex 17.6 14.9 65
    endloop
  endfacet
  facet normal 0 1 0
    outer loop
      vertex 8.6 14.9 65
      vertex 17.6 14.9 53.001
      vertex 8.6 14.9 53.001
    endloop
  endfacet
  facet normal 0 1 -0
    outer loop
      vertex -8.6 14.9 53.001
      vertex -17.6 14.9 65
      vertex -8.6 14.9 65
    endloop
  endfacet
  facet normal 0 1 0
    outer loop
      vertex -17.6 14.9 65
      vertex -8.6 14.9 53.001
      vertex -17.6 14.9 53.001
    endloop
  endfacet
  facet normal -0.0489209 0.998803 0
    outer loop
      vertex -17.6 14.9 65
      vertex -17.6 14.9 53.001
      vertex -17.796 14.8904 65
    endloop
  endfacet
  facet normal -0.0489209 0.998803 9.69395e-21
    outer loop
      vertex -17.796 14.8904 0
      vertex -17.6 14.9 53.001
      vertex -17.6 14.9 2.5
    endloop
  endfacet
  facet normal -0.0489209 0.998803 1.95822e-19
    outer loop
      vertex -17.796 14.8904 0
      vertex -17.6 14.9 2.5
      vertex -17.6 14.9 0
    endloop
  endfacet
  facet normal -0.0489209 0.998803 7.5316e-21
    outer loop
      vertex -17.6 14.9 53.001
      vertex -17.796 14.8904 0
      vertex -17.796 14.8904 65
    endloop
  endfacet
  facet normal 0.336863 -0.941554 0
    outer loop
      vertex 18.1806 0.0861235 0
      vertex 18.3654 0.15224 65
      vertex 18.1806 0.0861235 65
    endloop
  endfacet
  facet normal 0.336863 -0.941554 0
    outer loop
      vertex 18.3654 0.15224 65
      vertex 18.1806 0.0861235 0
      vertex 18.3654 0.15224 0
    endloop
  endfacet
  facet normal 0.989182 0.146696 -3.37884e-20
    outer loop
      vertex 19.5904 13.096 65
      vertex 19.5616 13.2902 0
      vertex 19.5616 13.2902 65
    endloop
  endfacet
  facet normal 0.989182 0.146696 -3.37884e-20
    outer loop
      vertex 19.5616 13.2902 0
      vertex 19.5904 13.096 65
      vertex 19.5904 13.096 0
    endloop
  endfacet
  facet normal 0.80335 0.595508 3.56651e-20
    outer loop
      vertex 19.2629 14.0111 65
      vertex 19.146 14.1688 0
      vertex 19.146 14.1688 65
    endloop
  endfacet
  facet normal 0.80335 0.595508 3.56651e-20
    outer loop
      vertex 19.146 14.1688 0
      vertex 19.2629 14.0111 65
      vertex 19.2629 14.0111 0
    endloop
  endfacet
  facet normal -1 0 0
    outer loop
      vertex -19.6 2 0
      vertex -19.6 12.9 65
      vertex -19.6 12.9 0
    endloop
  endfacet
  facet normal -1 -0 0
    outer loop
      vertex -19.6 12.9 65
      vertex -19.6 2 0
      vertex -19.6 2 65
    endloop
  endfacet
  facet normal 0.9038 0.427955 -3.6877e-20
    outer loop
      vertex 19.4478 13.6654 65
      vertex 19.3638 13.8428 0
      vertex 19.3638 13.8428 65
    endloop
  endfacet
  facet normal 0.9038 0.427955 -3.6877e-20
    outer loop
      vertex 19.3638 13.8428 0
      vertex 19.4478 13.6654 65
      vertex 19.4478 13.6654 0
    endloop
  endfacet
  facet normal 0 -1 0
    outer loop
      vertex -17.6 2.86102e-06 65
      vertex -6.25 2.86102e-06 63.8
      vertex -6.25 2.86102e-06 65
    endloop
  endfacet
  facet normal 0 -1 0
    outer loop
      vertex -17.6 2.86102e-06 65
      vertex -6.25 2.86102e-06 43.2
      vertex -6.25 2.86102e-06 63.8
    endloop
  endfacet
  facet normal 0 -1 -0
    outer loop
      vertex -6.25 2.86102e-06 43.2
      vertex -17.6 2.86102e-06 0
      vertex 6.25 2.86102e-06 43.2
    endloop
  endfacet
  facet normal 0 -1 0
    outer loop
      vertex -17.6 2.86102e-06 0
      vertex -6.25 2.86102e-06 43.2
      vertex -17.6 2.86102e-06 65
    endloop
  endfacet
  facet normal 0 -1 0
    outer loop
      vertex 6.25 2.86102e-06 63.8
      vertex 17.6 2.86102e-06 65
      vertex 6.25 2.86102e-06 65
    endloop
  endfacet
  facet normal 0 -1 0
    outer loop
      vertex 6.25 2.86102e-06 43.2
      vertex 17.6 2.86102e-06 65
      vertex 6.25 2.86102e-06 63.8
    endloop
  endfacet
  facet normal 0 -1 0
    outer loop
      vertex 6.25 2.86102e-06 43.2
      vertex 17.6 2.86102e-06 0
      vertex 17.6 2.86102e-06 65
    endloop
  endfacet
  facet normal 0 -1 0
    outer loop
      vertex 17.6 2.86102e-06 0
      vertex 6.25 2.86102e-06 43.2
      vertex -17.6 2.86102e-06 0
    endloop
  endfacet
  facet normal 0.671624 -0.740892 0
    outer loop
      vertex 18.8688 0.453982 0
      vertex 19.0142 0.585788 65
      vertex 18.8688 0.453982 65
    endloop
  endfacet
  facet normal 0.671624 -0.740892 0
    outer loop
      vertex 19.0142 0.585788 65
      vertex 18.8688 0.453982 0
      vertex 19.0142 0.585788 0
    endloop
  endfacet
  facet normal -0.998803 -0.0489135 2.51091e-21
    outer loop
      vertex -19.5904 1.80397 0
      vertex -19.6 2 65
      vertex -19.6 2 0
    endloop
  endfacet
  facet normal -0.998803 -0.0489135 2.51091e-21
    outer loop
      vertex -19.6 2 65
      vertex -19.5904 1.80397 0
      vertex -19.5904 1.80397 65
    endloop
  endfacet
  facet normal -0.857673 0.514196 -5.67368e-20
    outer loop
      vertex -19.3638 13.8428 0
      vertex -19.2629 14.0111 65
      vertex -19.2629 14.0111 0
    endloop
  endfacet
  facet normal -0.857673 0.514196 -5.67368e-20
    outer loop
      vertex -19.2629 14.0111 65
      vertex -19.3638 13.8428 0
      vertex -19.3638 13.8428 65
    endloop
  endfacet
  facet normal -0.146696 0.989182 0
    outer loop
      vertex -17.796 14.8904 0
      vertex -17.9902 14.8616 65
      vertex -17.796 14.8904 65
    endloop
  endfacet
  facet normal -0.146696 0.989182 0
    outer loop
      vertex -17.9902 14.8616 65
      vertex -17.796 14.8904 0
      vertex -17.9902 14.8616 0
    endloop
  endfacet
  facet normal -0.0490648 -0.998796 0
    outer loop
      vertex -17.796 0.00963116 0
      vertex -17.6 2.86102e-06 65
      vertex -17.796 0.00963116 65
    endloop
  endfacet
  facet normal -0.0490648 -0.998796 -0
    outer loop
      vertex -17.6 2.86102e-06 65
      vertex -17.796 0.00963116 0
      vertex -17.6 2.86102e-06 0
    endloop
  endfacet
  facet normal 0.803239 -0.595656 -1.27146e-19
    outer loop
      vertex 19.146 0.731219 65
      vertex 19.2629 0.888858 0
      vertex 19.2629 0.888858 65
    endloop
  endfacet
  facet normal 0.803239 -0.595656 -1.27146e-19
    outer loop
      vertex 19.2629 0.888858 0
      vertex 19.146 0.731219 65
      vertex 19.146 0.731219 0
    endloop
  endfacet
  facet normal -0.671624 -0.740892 0
    outer loop
      vertex -19.0142 0.585788 0
      vertex -18.8688 0.453982 65
      vertex -19.0142 0.585788 65
    endloop
  endfacet
  facet normal -0.671624 -0.740892 -0
    outer loop
      vertex -18.8688 0.453982 65
      vertex -19.0142 0.585788 0
      vertex -18.8688 0.453982 0
    endloop
  endfacet
  facet normal 0.740979 -0.671528 1.27707e-19
    outer loop
      vertex 19.0142 0.585788 65
      vertex 19.146 0.731219 0
      vertex 19.146 0.731219 65
    endloop
  endfacet
  facet normal 0.740979 -0.671528 1.27707e-19
    outer loop
      vertex 19.146 0.731219 0
      vertex 19.0142 0.585788 65
      vertex 19.0142 0.585788 0
    endloop
  endfacet
  facet normal 0.998803 -0.0489135 -2.51091e-21
    outer loop
      vertex 19.5904 1.80397 65
      vertex 19.6 2 0
      vertex 19.6 2 65
    endloop
  endfacet
  facet normal 0.998803 -0.0489135 -2.51091e-21
    outer loop
      vertex 19.6 2 0
      vertex 19.5904 1.80397 65
      vertex 19.5904 1.80397 0
    endloop
  endfacet
  facet normal -0.514222 -0.857657 0
    outer loop
      vertex -18.7111 0.33707 0
      vertex -18.5428 0.236163 65
      vertex -18.7111 0.33707 65
    endloop
  endfacet
  facet normal -0.514222 -0.857657 -0
    outer loop
      vertex -18.5428 0.236163 65
      vertex -18.7111 0.33707 0
      vertex -18.5428 0.236163 0
    endloop
  endfacet
  facet normal -0.94158 0.336788 4.9365e-21
    outer loop
      vertex -19.5139 13.4806 0
      vertex -19.4478 13.6654 65
      vertex -19.4478 13.6654 0
    endloop
  endfacet
  facet normal -0.94158 0.336788 4.9365e-21
    outer loop
      vertex -19.4478 13.6654 65
      vertex -19.5139 13.4806 0
      vertex -19.5139 13.4806 65
    endloop
  endfacet
  facet normal 0.243015 0.970023 -0
    outer loop
      vertex 18.1806 14.8139 0
      vertex 17.9902 14.8616 65
      vertex 18.1806 14.8139 65
    endloop
  endfacet
  facet normal 0.243015 0.970023 0
    outer loop
      vertex 17.9902 14.8616 65
      vertex 18.1806 14.8139 0
      vertex 17.9902 14.8616 0
    endloop
  endfacet
  facet normal -0.336788 0.94158 0
    outer loop
      vertex -18.1806 14.8139 0
      vertex -18.3654 14.7478 65
      vertex -18.1806 14.8139 65
    endloop
  endfacet
  facet normal -0.336788 0.94158 0
    outer loop
      vertex -18.3654 14.7478 65
      vertex -18.1806 14.8139 0
      vertex -18.3654 14.7478 0
    endloop
  endfacet
  facet normal -0.857743 -0.514079 -6.33437e-20
    outer loop
      vertex -19.2629 0.888858 0
      vertex -19.3638 1.05721 65
      vertex -19.3638 1.05721 0
    endloop
  endfacet
  facet normal -0.857743 -0.514079 -6.33437e-20
    outer loop
      vertex -19.3638 1.05721 65
      vertex -19.2629 0.888858 0
      vertex -19.2629 0.888858 65
    endloop
  endfacet
  facet normal 0.336788 0.94158 -0
    outer loop
      vertex 18.3654 14.7478 0
      vertex 18.1806 14.8139 65
      vertex 18.3654 14.7478 65
    endloop
  endfacet
  facet normal 0.336788 0.94158 0
    outer loop
      vertex 18.1806 14.8139 65
      vertex 18.3654 14.7478 0
      vertex 18.1806 14.8139 0
    endloop
  endfacet
  facet normal -0.671607 0.740908 0
    outer loop
      vertex -18.8688 14.446 0
      vertex -19.0142 14.3142 65
      vertex -18.8688 14.446 65
    endloop
  endfacet
  facet normal -0.671607 0.740908 0
    outer loop
      vertex -19.0142 14.3142 65
      vertex -18.8688 14.446 0
      vertex -19.0142 14.3142 0
    endloop
  endfacet
  facet normal -0.998803 0.0489209 -4.79005e-21
    outer loop
      vertex -19.6 12.9 0
      vertex -19.5904 13.096 65
      vertex -19.5904 13.096 0
    endloop
  endfacet
  facet normal -0.998803 0.0489209 -4.79005e-21
    outer loop
      vertex -19.5904 13.096 65
      vertex -19.6 12.9 0
      vertex -19.6 12.9 65
    endloop
  endfacet
  facet normal -0.803239 -0.595656 1.27146e-19
    outer loop
      vertex -19.146 0.731219 0
      vertex -19.2629 0.888858 65
      vertex -19.2629 0.888858 0
    endloop
  endfacet
  facet normal -0.803239 -0.595656 1.27146e-19
    outer loop
      vertex -19.2629 0.888858 65
      vertex -19.146 0.731219 0
      vertex -19.146 0.731219 65
    endloop
  endfacet
  facet normal 0.514196 0.857673 -0
    outer loop
      vertex 18.7111 14.5629 0
      vertex 18.5428 14.6638 65
      vertex 18.7111 14.5629 65
    endloop
  endfacet
  facet normal 0.514196 0.857673 0
    outer loop
      vertex 18.5428 14.6638 65
      vertex 18.7111 14.5629 0
      vertex 18.5428 14.6638 0
    endloop
  endfacet
  facet normal -0.903828 -0.427896 -2.0777e-20
    outer loop
      vertex -19.3638 1.05721 0
      vertex -19.4478 1.23464 65
      vertex -19.4478 1.23464 0
    endloop
  endfacet
  facet normal -0.903828 -0.427896 -2.0777e-20
    outer loop
      vertex -19.4478 1.23464 65
      vertex -19.3638 1.05721 0
      vertex -19.3638 1.05721 65
    endloop
  endfacet
  facet normal 0.857743 -0.514079 6.33437e-20
    outer loop
      vertex 19.2629 0.888858 65
      vertex 19.3638 1.05721 0
      vertex 19.3638 1.05721 65
    endloop
  endfacet
  facet normal 0.857743 -0.514079 6.33437e-20
    outer loop
      vertex 19.3638 1.05721 0
      vertex 19.2629 0.888858 65
      vertex 19.2629 0.888858 0
    endloop
  endfacet
  facet normal 0.146696 0.989182 -0
    outer loop
      vertex 17.9902 14.8616 0
      vertex 17.796 14.8904 65
      vertex 17.9902 14.8616 65
    endloop
  endfacet
  facet normal 0.146696 0.989182 0
    outer loop
      vertex 17.796 14.8904 65
      vertex 17.9902 14.8616 0
      vertex 17.796 14.8904 0
    endloop
  endfacet
  facet normal -0.989182 0.146696 3.37884e-20
    outer loop
      vertex -19.5904 13.096 0
      vertex -19.5616 13.2902 65
      vertex -19.5616 13.2902 0
    endloop
  endfacet
  facet normal -0.989182 0.146696 3.37884e-20
    outer loop
      vertex -19.5616 13.2902 65
      vertex -19.5904 13.096 0
      vertex -19.5904 13.096 65
    endloop
  endfacet
  facet normal 0.94158 0.336788 -4.9365e-21
    outer loop
      vertex 19.5139 13.4806 65
      vertex 19.4478 13.6654 0
      vertex 19.4478 13.6654 65
    endloop
  endfacet
  facet normal 0.94158 0.336788 -4.9365e-21
    outer loop
      vertex 19.4478 13.6654 0
      vertex 19.5139 13.4806 65
      vertex 19.5139 13.4806 0
    endloop
  endfacet
  facet normal -0.336863 -0.941554 0
    outer loop
      vertex -18.3654 0.15224 0
      vertex -18.1806 0.0861235 65
      vertex -18.3654 0.15224 65
    endloop
  endfacet
  facet normal -0.336863 -0.941554 -0
    outer loop
      vertex -18.1806 0.0861235 65
      vertex -18.3654 0.15224 0
      vertex -18.1806 0.0861235 0
    endloop
  endfacet
  facet normal -0.242937 -0.970042 0
    outer loop
      vertex -18.1806 0.0861235 0
      vertex -17.9902 0.0384398 65
      vertex -18.1806 0.0861235 65
    endloop
  endfacet
  facet normal -0.242937 -0.970042 -0
    outer loop
      vertex -17.9902 0.0384398 65
      vertex -18.1806 0.0861235 0
      vertex -17.9902 0.0384398 0
    endloop
  endfacet
  facet normal -0.740908 0.671607 -1.26291e-19
    outer loop
      vertex -19.146 14.1688 0
      vertex -19.0142 14.3142 65
      vertex -19.0142 14.3142 0
    endloop
  endfacet
  facet normal -0.740908 0.671607 -1.26291e-19
    outer loop
      vertex -19.0142 14.3142 65
      vertex -19.146 14.1688 0
      vertex -19.146 14.1688 65
    endloop
  endfacet
  facet normal -0.970023 0.243015 5.11377e-20
    outer loop
      vertex -19.5616 13.2902 0
      vertex -19.5139 13.4806 65
      vertex -19.5139 13.4806 0
    endloop
  endfacet
  facet normal -0.970023 0.243015 5.11377e-20
    outer loop
      vertex -19.5139 13.4806 65
      vertex -19.5616 13.2902 0
      vertex -19.5616 13.2902 65
    endloop
  endfacet
  facet normal 0.970023 0.243015 -5.11377e-20
    outer loop
      vertex 19.5616 13.2902 65
      vertex 19.5139 13.4806 0
      vertex 19.5139 13.4806 65
    endloop
  endfacet
  facet normal 0.970023 0.243015 -5.11377e-20
    outer loop
      vertex 19.5139 13.4806 0
      vertex 19.5616 13.2902 65
      vertex 19.5616 13.2902 0
    endloop
  endfacet
  facet normal 0.427634 -0.903952 0
    outer loop
      vertex 18.3654 0.15224 0
      vertex 18.5428 0.236163 65
      vertex 18.3654 0.15224 65
    endloop
  endfacet
  facet normal 0.427634 -0.903952 0
    outer loop
      vertex 18.5428 0.236163 65
      vertex 18.3654 0.15224 0
      vertex 18.5428 0.236163 0
    endloop
  endfacet
  facet normal -0.595508 0.80335 0
    outer loop
      vertex -18.7111 14.5629 0
      vertex -18.8688 14.446 65
      vertex -18.7111 14.5629 65
    endloop
  endfacet
  facet normal -0.595508 0.80335 0
    outer loop
      vertex -18.8688 14.446 65
      vertex -18.7111 14.5629 0
      vertex -18.8688 14.446 0
    endloop
  endfacet
  facet normal -0.94158 -0.336788 1.6385e-20
    outer loop
      vertex -19.4478 1.23464 0
      vertex -19.5139 1.41944 65
      vertex -19.5139 1.41944 0
    endloop
  endfacet
  facet normal -0.94158 -0.336788 1.6385e-20
    outer loop
      vertex -19.5139 1.41944 65
      vertex -19.4478 1.23464 0
      vertex -19.4478 1.23464 65
    endloop
  endfacet
  facet normal 0.989176 -0.146733 -1.77339e-20
    outer loop
      vertex 19.5616 1.60982 65
      vertex 19.5904 1.80397 0
      vertex 19.5904 1.80397 65
    endloop
  endfacet
  facet normal 0.989176 -0.146733 -1.77339e-20
    outer loop
      vertex 19.5904 1.80397 0
      vertex 19.5616 1.60982 65
      vertex 19.5616 1.60982 0
    endloop
  endfacet
  facet normal 0.857673 0.514196 5.67368e-20
    outer loop
      vertex 19.3638 13.8428 65
      vertex 19.2629 14.0111 0
      vertex 19.2629 14.0111 65
    endloop
  endfacet
  facet normal 0.857673 0.514196 5.67368e-20
    outer loop
      vertex 19.2629 14.0111 0
      vertex 19.3638 13.8428 65
      vertex 19.3638 13.8428 0
    endloop
  endfacet
  facet normal 0.903828 -0.427896 2.0777e-20
    outer loop
      vertex 19.3638 1.05721 65
      vertex 19.4478 1.23464 0
      vertex 19.4478 1.23464 65
    endloop
  endfacet
  facet normal 0.903828 -0.427896 2.0777e-20
    outer loop
      vertex 19.4478 1.23464 0
      vertex 19.3638 1.05721 65
      vertex 19.3638 1.05721 0
    endloop
  endfacet
  facet normal 0.970016 -0.243039 2.90497e-20
    outer loop
      vertex 19.5139 1.41944 65
      vertex 19.5616 1.60982 0
      vertex 19.5616 1.60982 65
    endloop
  endfacet
  facet normal 0.970016 -0.243039 2.90497e-20
    outer loop
      vertex 19.5616 1.60982 0
      vertex 19.5139 1.41944 65
      vertex 19.5139 1.41944 0
    endloop
  endfacet
  facet normal 0.998803 0.0489209 4.79005e-21
    outer loop
      vertex 19.6 12.9 65
      vertex 19.5904 13.096 0
      vertex 19.5904 13.096 65
    endloop
  endfacet
  facet normal 0.998803 0.0489209 4.79005e-21
    outer loop
      vertex 19.5904 13.096 0
      vertex 19.6 12.9 65
      vertex 19.6 12.9 0
    endloop
  endfacet
  facet normal 1 -0 0
    outer loop
      vertex 19.6 2 65
      vertex 19.6 12.9 0
      vertex 19.6 12.9 65
    endloop
  endfacet
  facet normal 1 0 0
    outer loop
      vertex 19.6 12.9 0
      vertex 19.6 2 65
      vertex 19.6 2 0
    endloop
  endfacet
  facet normal -0.740979 -0.671528 -1.27707e-19
    outer loop
      vertex -19.0142 0.585788 0
      vertex -19.146 0.731219 65
      vertex -19.146 0.731219 0
    endloop
  endfacet
  facet normal -0.740979 -0.671528 -1.27707e-19
    outer loop
      vertex -19.146 0.731219 65
      vertex -19.0142 0.585788 0
      vertex -19.0142 0.585788 65
    endloop
  endfacet
  facet normal -0.514196 0.857673 0
    outer loop
      vertex -18.5428 14.6638 0
      vertex -18.7111 14.5629 65
      vertex -18.5428 14.6638 65
    endloop
  endfacet
  facet normal -0.514196 0.857673 0
    outer loop
      vertex -18.7111 14.5629 65
      vertex -18.5428 14.6638 0
      vertex -18.7111 14.5629 0
    endloop
  endfacet
  facet normal -0.970016 -0.243039 -2.90497e-20
    outer loop
      vertex -19.5139 1.41944 0
      vertex -19.5616 1.60982 65
      vertex -19.5616 1.60982 0
    endloop
  endfacet
  facet normal -0.970016 -0.243039 -2.90497e-20
    outer loop
      vertex -19.5616 1.60982 65
      vertex -19.5139 1.41944 0
      vertex -19.5139 1.41944 65
    endloop
  endfacet
  facet normal -0.80335 0.595508 -3.56651e-20
    outer loop
      vertex -19.2629 14.0111 0
      vertex -19.146 14.1688 65
      vertex -19.146 14.1688 0
    endloop
  endfacet
  facet normal -0.80335 0.595508 -3.56651e-20
    outer loop
      vertex -19.146 14.1688 65
      vertex -19.2629 14.0111 0
      vertex -19.2629 14.0111 65
    endloop
  endfacet
  facet normal -0.427955 0.9038 0
    outer loop
      vertex -18.3654 14.7478 0
      vertex -18.5428 14.6638 65
      vertex -18.3654 14.7478 65
    endloop
  endfacet
  facet normal -0.427955 0.9038 0
    outer loop
      vertex -18.5428 14.6638 65
      vertex -18.3654 14.7478 0
      vertex -18.5428 14.6638 0
    endloop
  endfacet
  facet normal 0.146739 -0.989175 0
    outer loop
      vertex 17.796 0.00963116 0
      vertex 17.9902 0.0384398 65
      vertex 17.796 0.00963116 65
    endloop
  endfacet
  facet normal 0.146739 -0.989175 0
    outer loop
      vertex 17.9902 0.0384398 65
      vertex 17.796 0.00963116 0
      vertex 17.9902 0.0384398 0
    endloop
  endfacet
  facet normal 0.514222 -0.857657 0
    outer loop
      vertex 18.5428 0.236163 0
      vertex 18.7111 0.33707 65
      vertex 18.5428 0.236163 65
    endloop
  endfacet
  facet normal 0.514222 -0.857657 0
    outer loop
      vertex 18.7111 0.33707 65
      vertex 18.5428 0.236163 0
      vertex 18.7111 0.33707 0
    endloop
  endfacet
  facet normal -0.595547 -0.80332 0
    outer loop
      vertex -18.8688 0.453982 0
      vertex -18.7111 0.33707 65
      vertex -18.8688 0.453982 65
    endloop
  endfacet
  facet normal -0.595547 -0.80332 -0
    outer loop
      vertex -18.7111 0.33707 65
      vertex -18.8688 0.453982 0
      vertex -18.7111 0.33707 0
    endloop
  endfacet
  facet normal 0.740908 0.671607 1.26291e-19
    outer loop
      vertex 19.146 14.1688 65
      vertex 19.0142 14.3142 0
      vertex 19.0142 14.3142 65
    endloop
  endfacet
  facet normal 0.740908 0.671607 1.26291e-19
    outer loop
      vertex 19.0142 14.3142 0
      vertex 19.146 14.1688 65
      vertex 19.146 14.1688 0
    endloop
  endfacet
  facet normal 0.595547 -0.80332 0
    outer loop
      vertex 18.7111 0.33707 0
      vertex 18.8688 0.453982 65
      vertex 18.7111 0.33707 65
    endloop
  endfacet
  facet normal 0.595547 -0.80332 0
    outer loop
      vertex 18.8688 0.453982 65
      vertex 18.7111 0.33707 0
      vertex 18.8688 0.453982 0
    endloop
  endfacet
  facet normal 0.242937 -0.970042 0
    outer loop
      vertex 17.9902 0.0384398 0
      vertex 18.1806 0.0861235 65
      vertex 17.9902 0.0384398 65
    endloop
  endfacet
  facet normal 0.242937 -0.970042 0
    outer loop
      vertex 18.1806 0.0861235 65
      vertex 17.9902 0.0384398 0
      vertex 18.1806 0.0861235 0
    endloop
  endfacet
  facet normal -0.9038 0.427955 3.6877e-20
    outer loop
      vertex -19.4478 13.6654 0
      vertex -19.3638 13.8428 65
      vertex -19.3638 13.8428 0
    endloop
  endfacet
  facet normal -0.9038 0.427955 3.6877e-20
    outer loop
      vertex -19.3638 13.8428 65
      vertex -19.4478 13.6654 0
      vertex -19.4478 13.6654 65
    endloop
  endfacet
  facet normal 0.94158 -0.336788 -1.6385e-20
    outer loop
      vertex 19.4478 1.23464 65
      vertex 19.5139 1.41944 0
      vertex 19.5139 1.41944 65
    endloop
  endfacet
  facet normal 0.94158 -0.336788 -1.6385e-20
    outer loop
      vertex 19.5139 1.41944 0
      vertex 19.4478 1.23464 65
      vertex 19.4478 1.23464 0
    endloop
  endfacet
  facet normal 0.595508 0.80335 -0
    outer loop
      vertex 18.8688 14.446 0
      vertex 18.7111 14.5629 65
      vertex 18.8688 14.446 65
    endloop
  endfacet
  facet normal 0.595508 0.80335 0
    outer loop
      vertex 18.7111 14.5629 65
      vertex 18.8688 14.446 0
      vertex 18.7111 14.5629 0
    endloop
  endfacet
  facet normal 0.671607 0.740908 -0
    outer loop
      vertex 19.0142 14.3142 0
      vertex 18.8688 14.446 65
      vertex 19.0142 14.3142 65
    endloop
  endfacet
  facet normal 0.671607 0.740908 0
    outer loop
      vertex 18.8688 14.446 65
      vertex 19.0142 14.3142 0
      vertex 18.8688 14.446 0
    endloop
  endfacet
  facet normal 0.427955 0.9038 -0
    outer loop
      vertex 18.5428 14.6638 0
      vertex 18.3654 14.7478 65
      vertex 18.5428 14.6638 65
    endloop
  endfacet
  facet normal 0.427955 0.9038 0
    outer loop
      vertex 18.3654 14.7478 65
      vertex 18.5428 14.6638 0
      vertex 18.3654 14.7478 0
    endloop
  endfacet
  facet normal 0 0 -1
    outer loop
      vertex 17.6 2.86102e-06 0
      vertex 19.6 2 0
      vertex 19.5904 1.80397 0
    endloop
  endfacet
  facet normal -0 0 -1
    outer loop
      vertex 19.6 2 0
      vertex 17.6 2.86102e-06 0
      vertex 19.6 12.9 0
    endloop
  endfacet
  facet normal 0 0 -1
    outer loop
      vertex 17.6 2.86102e-06 0
      vertex 19.5904 1.80397 0
      vertex 19.5616 1.60982 0
    endloop
  endfacet
  facet normal 0 0 -1
    outer loop
      vertex 17.6 14.9 0
      vertex 19.6 12.9 0
      vertex 17.6 2.86102e-06 0
    endloop
  endfacet
  facet normal 0 0 -1
    outer loop
      vertex 17.6 2.86102e-06 0
      vertex 19.5616 1.60982 0
      vertex 19.5139 1.41944 0
    endloop
  endfacet
  facet normal 0 0 -1
    outer loop
      vertex 19.6 12.9 0
      vertex 17.6 14.9 0
      vertex 19.5904 13.096 0
    endloop
  endfacet
  facet normal 0 0 -1
    outer loop
      vertex 17.6 2.86102e-06 0
      vertex 19.5139 1.41944 0
      vertex 19.4478 1.23464 0
    endloop
  endfacet
  facet normal 0 0 -1
    outer loop
      vertex 19.5904 13.096 0
      vertex 17.6 14.9 0
      vertex 19.5616 13.2902 0
    endloop
  endfacet
  facet normal 0 0 -1
    outer loop
      vertex 17.6 2.86102e-06 0
      vertex 19.4478 1.23464 0
      vertex 19.3638 1.05721 0
    endloop
  endfacet
  facet normal 0 0 -1
    outer loop
      vertex 19.5616 13.2902 0
      vertex 17.6 14.9 0
      vertex 19.5139 13.4806 0
    endloop
  endfacet
  facet normal 0 0 -1
    outer loop
      vertex 17.6 2.86102e-06 0
      vertex 19.3638 1.05721 0
      vertex 19.2629 0.888858 0
    endloop
  endfacet
  facet normal 0 0 -1
    outer loop
      vertex 19.5139 13.4806 0
      vertex 17.6 14.9 0
      vertex 19.4478 13.6654 0
    endloop
  endfacet
  facet normal 0 0 -1
    outer loop
      vertex 17.6 2.86102e-06 0
      vertex 19.2629 0.888858 0
      vertex 19.146 0.731219 0
    endloop
  endfacet
  facet normal 0 0 -1
    outer loop
      vertex 19.4478 13.6654 0
      vertex 17.6 14.9 0
      vertex 19.3638 13.8428 0
    endloop
  endfacet
  facet normal 0 0 -1
    outer loop
      vertex 17.6 2.86102e-06 0
      vertex 19.146 0.731219 0
      vertex 19.0142 0.585788 0
    endloop
  endfacet
  facet normal 0 0 -1
    outer loop
      vertex 19.3638 13.8428 0
      vertex 17.6 14.9 0
      vertex 19.2629 14.0111 0
    endloop
  endfacet
  facet normal 0 0 -1
    outer loop
      vertex 17.6 2.86102e-06 0
      vertex 19.0142 0.585788 0
      vertex 18.8688 0.453982 0
    endloop
  endfacet
  facet normal 0 0 -1
    outer loop
      vertex 19.2629 14.0111 0
      vertex 17.6 14.9 0
      vertex 19.146 14.1688 0
    endloop
  endfacet
  facet normal 0 0 -1
    outer loop
      vertex 17.6 2.86102e-06 0
      vertex 18.8688 0.453982 0
      vertex 18.7111 0.33707 0
    endloop
  endfacet
  facet normal 0 0 -1
    outer loop
      vertex 19.146 14.1688 0
      vertex 17.6 14.9 0
      vertex 19.0142 14.3142 0
    endloop
  endfacet
  facet normal 0 0 -1
    outer loop
      vertex 17.6 2.86102e-06 0
      vertex 18.7111 0.33707 0
      vertex 18.5428 0.236163 0
    endloop
  endfacet
  facet normal 0 0 -1
    outer loop
      vertex 19.0142 14.3142 0
      vertex 17.6 14.9 0
      vertex 18.8688 14.446 0
    endloop
  endfacet
  facet normal 0 0 -1
    outer loop
      vertex 17.6 2.86102e-06 0
      vertex 18.5428 0.236163 0
      vertex 18.3654 0.15224 0
    endloop
  endfacet
  facet normal 0 0 -1
    outer loop
      vertex 18.8688 14.446 0
      vertex 17.6 14.9 0
      vertex 18.7111 14.5629 0
    endloop
  endfacet
  facet normal 0 0 -1
    outer loop
      vertex 17.6 2.86102e-06 0
      vertex 18.3654 0.15224 0
      vertex 18.1806 0.0861235 0
    endloop
  endfacet
  facet normal 0 0 -1
    outer loop
      vertex 18.7111 14.5629 0
      vertex 17.6 14.9 0
      vertex 18.5428 14.6638 0
    endloop
  endfacet
  facet normal 0 0 -1
    outer loop
      vertex 17.6 2.86102e-06 0
      vertex 18.1806 0.0861235 0
      vertex 17.9902 0.0384398 0
    endloop
  endfacet
  facet normal 0 0 -1
    outer loop
      vertex 18.5428 14.6638 0
      vertex 17.6 14.9 0
      vertex 18.3654 14.7478 0
    endloop
  endfacet
  facet normal 0 0 -1
    outer loop
      vertex 17.6 2.86102e-06 0
      vertex 17.9902 0.0384398 0
      vertex 17.796 0.00963116 0
    endloop
  endfacet
  facet normal 0 0 -1
    outer loop
      vertex 18.3654 14.7478 0
      vertex 17.6 14.9 0
      vertex 18.1806 14.8139 0
    endloop
  endfacet
  facet normal 0 0 -1
    outer loop
      vertex 18.1806 14.8139 0
      vertex 17.6 14.9 0
      vertex 17.9902 14.8616 0
    endloop
  endfacet
  facet normal 0 0 -1
    outer loop
      vertex 17.9902 14.8616 0
      vertex 17.6 14.9 0
      vertex 17.796 14.8904 0
    endloop
  endfacet
  facet normal 0 0 -1
    outer loop
      vertex -17.6 2.86102e-06 0
      vertex 17.6 14.9 0
      vertex 17.6 2.86102e-06 0
    endloop
  endfacet
  facet normal 0 0 -1
    outer loop
      vertex -17.6 2.86102e-06 0
      vertex -17.6 14.9 0
      vertex 17.6 14.9 0
    endloop
  endfacet
  facet normal 0 0 -1
    outer loop
      vertex -19.6 2 0
      vertex -17.6 2.86102e-06 0
      vertex -17.796 0.00963116 0
    endloop
  endfacet
  facet normal 0 0 -1
    outer loop
      vertex -17.6 2.86102e-06 0
      vertex -19.6 2 0
      vertex -17.6 14.9 0
    endloop
  endfacet
  facet normal 0 0 -1
    outer loop
      vertex -19.6 2 0
      vertex -17.796 0.00963116 0
      vertex -17.9902 0.0384398 0
    endloop
  endfacet
  facet normal 0 0 -1
    outer loop
      vertex -19.6 12.9 0
      vertex -17.6 14.9 0
      vertex -19.6 2 0
    endloop
  endfacet
  facet normal 0 0 -1
    outer loop
      vertex -19.6 2 0
      vertex -17.9902 0.0384398 0
      vertex -18.1806 0.0861235 0
    endloop
  endfacet
  facet normal 0 0 -1
    outer loop
      vertex -17.6 14.9 0
      vertex -19.6 12.9 0
      vertex -17.796 14.8904 0
    endloop
  endfacet
  facet normal 0 0 -1
    outer loop
      vertex -19.6 2 0
      vertex -18.1806 0.0861235 0
      vertex -18.3654 0.15224 0
    endloop
  endfacet
  facet normal 0 0 -1
    outer loop
      vertex -17.796 14.8904 0
      vertex -19.6 12.9 0
      vertex -17.9902 14.8616 0
    endloop
  endfacet
  facet normal 0 0 -1
    outer loop
      vertex -19.6 2 0
      vertex -18.3654 0.15224 0
      vertex -18.5428 0.236163 0
    endloop
  endfacet
  facet normal 0 0 -1
    outer loop
      vertex -17.9902 14.8616 0
      vertex -19.6 12.9 0
      vertex -18.1806 14.8139 0
    endloop
  endfacet
  facet normal 0 0 -1
    outer loop
      vertex -19.6 2 0
      vertex -18.5428 0.236163 0
      vertex -18.7111 0.33707 0
    endloop
  endfacet
  facet normal 0 0 -1
    outer loop
      vertex -18.1806 14.8139 0
      vertex -19.6 12.9 0
      vertex -18.3654 14.7478 0
    endloop
  endfacet
  facet normal 0 0 -1
    outer loop
      vertex -19.6 2 0
      vertex -18.7111 0.33707 0
      vertex -18.8688 0.453982 0
    endloop
  endfacet
  facet normal 0 0 -1
    outer loop
      vertex -18.3654 14.7478 0
      vertex -19.6 12.9 0
      vertex -18.5428 14.6638 0
    endloop
  endfacet
  facet normal 0 0 -1
    outer loop
      vertex -19.6 2 0
      vertex -18.8688 0.453982 0
      vertex -19.0142 0.585788 0
    endloop
  endfacet
  facet normal 0 0 -1
    outer loop
      vertex -18.5428 14.6638 0
      vertex -19.6 12.9 0
      vertex -18.7111 14.5629 0
    endloop
  endfacet
  facet normal 0 0 -1
    outer loop
      vertex -19.6 2 0
      vertex -19.0142 0.585788 0
      vertex -19.146 0.731219 0
    endloop
  endfacet
  facet normal 0 0 -1
    outer loop
      vertex -18.7111 14.5629 0
      vertex -19.6 12.9 0
      vertex -18.8688 14.446 0
    endloop
  endfacet
  facet normal 0 0 -1
    outer loop
      vertex -19.6 2 0
      vertex -19.146 0.731219 0
      vertex -19.2629 0.888858 0
    endloop
  endfacet
  facet normal 0 0 -1
    outer loop
      vertex -18.8688 14.446 0
      vertex -19.6 12.9 0
      vertex -19.0142 14.3142 0
    endloop
  endfacet
  facet normal 0 0 -1
    outer loop
      vertex -19.6 2 0
      vertex -19.2629 0.888858 0
      vertex -19.3638 1.05721 0
    endloop
  endfacet
  facet normal 0 0 -1
    outer loop
      vertex -19.0142 14.3142 0
      vertex -19.6 12.9 0
      vertex -19.146 14.1688 0
    endloop
  endfacet
  facet normal 0 0 -1
    outer loop
      vertex -19.6 2 0
      vertex -19.3638 1.05721 0
      vertex -19.4478 1.23464 0
    endloop
  endfacet
  facet normal 0 0 -1
    outer loop
      vertex -19.146 14.1688 0
      vertex -19.6 12.9 0
      vertex -19.2629 14.0111 0
    endloop
  endfacet
  facet normal 0 0 -1
    outer loop
      vertex -19.6 2 0
      vertex -19.4478 1.23464 0
      vertex -19.5139 1.41944 0
    endloop
  endfacet
  facet normal 0 0 -1
    outer loop
      vertex -19.2629 14.0111 0
      vertex -19.6 12.9 0
      vertex -19.3638 13.8428 0
    endloop
  endfacet
  facet normal 0 0 -1
    outer loop
      vertex -19.6 2 0
      vertex -19.5139 1.41944 0
      vertex -19.5616 1.60982 0
    endloop
  endfacet
  facet normal 0 0 -1
    outer loop
      vertex -19.3638 13.8428 0
      vertex -19.6 12.9 0
      vertex -19.4478 13.6654 0
    endloop
  endfacet
  facet normal 0 0 -1
    outer loop
      vertex -19.6 2 0
      vertex -19.5616 1.60982 0
      vertex -19.5904 1.80397 0
    endloop
  endfacet
  facet normal 0 0 -1
    outer loop
      vertex -19.4478 13.6654 0
      vertex -19.6 12.9 0
      vertex -19.5139 13.4806 0
    endloop
  endfacet
  facet normal 0 0 -1
    outer loop
      vertex -19.5139 13.4806 0
      vertex -19.6 12.9 0
      vertex -19.5616 13.2902 0
    endloop
  endfacet
  facet normal 0 0 -1
    outer loop
      vertex -19.5616 13.2902 0
      vertex -19.6 12.9 0
      vertex -19.5904 13.096 0
    endloop
  endfacet
  facet normal 0 0 1
    outer loop
      vertex 19.6 12.9 65
      vertex 17.5976 12.649 65
      vertex 17.6 12.6 65
    endloop
  endfacet
  facet normal 0 0 1
    outer loop
      vertex 17.796 14.8904 65
      vertex 17.5904 12.6975 65
      vertex 17.5976 12.649 65
    endloop
  endfacet
  facet normal 0 0 1
    outer loop
      vertex 17.796 14.8904 65
      vertex 17.5785 12.7451 65
      vertex 17.5904 12.6975 65
    endloop
  endfacet
  facet normal 0 0 1
    outer loop
      vertex 17.796 14.8904 65
      vertex 17.5619 12.7913 65
      vertex 17.5785 12.7451 65
    endloop
  endfacet
  facet normal 0 0 1
    outer loop
      vertex 17.796 14.8904 65
      vertex 17.541 12.8357 65
      vertex 17.5619 12.7913 65
    endloop
  endfacet
  facet normal 0 0 1
    outer loop
      vertex 17.796 14.8904 65
      vertex 17.5157 12.8778 65
      vertex 17.541 12.8357 65
    endloop
  endfacet
  facet normal 0 0 1
    outer loop
      vertex 17.796 14.8904 65
      vertex 17.4865 12.9172 65
      vertex 17.5157 12.8778 65
    endloop
  endfacet
  facet normal 0 0 1
    outer loop
      vertex 17.796 14.8904 65
      vertex 17.4535 12.9535 65
      vertex 17.4865 12.9172 65
    endloop
  endfacet
  facet normal 0 0 1
    outer loop
      vertex 17.796 14.8904 65
      vertex 17.4172 12.9865 65
      vertex 17.4535 12.9535 65
    endloop
  endfacet
  facet normal 0 0 1
    outer loop
      vertex 17.796 14.8904 65
      vertex 17.3778 13.0157 65
      vertex 17.4172 12.9865 65
    endloop
  endfacet
  facet normal 0 0 1
    outer loop
      vertex 17.796 14.8904 65
      vertex 17.3357 13.041 65
      vertex 17.3778 13.0157 65
    endloop
  endfacet
  facet normal 0 0 1
    outer loop
      vertex 17.796 14.8904 65
      vertex 17.2913 13.0619 65
      vertex 17.3357 13.041 65
    endloop
  endfacet
  facet normal 0 0 1
    outer loop
      vertex 17.6 14.9 65
      vertex 17.2451 13.0785 65
      vertex 17.2913 13.0619 65
    endloop
  endfacet
  facet normal 0 0 1
    outer loop
      vertex 17.6 14.9 65
      vertex 17.1975 13.0904 65
      vertex 17.2451 13.0785 65
    endloop
  endfacet
  facet normal 0 0 1
    outer loop
      vertex 17.6 14.9 65
      vertex 17.149 13.0976 65
      vertex 17.1975 13.0904 65
    endloop
  endfacet
  facet normal 0 0 1
    outer loop
      vertex 17.6 14.9 65
      vertex 17.1 13.1 65
      vertex 17.149 13.0976 65
    endloop
  endfacet
  facet normal -0 0 1
    outer loop
      vertex 8.6 14.9 65
      vertex 17.1 13.1 65
      vertex 17.6 14.9 65
    endloop
  endfacet
  facet normal 0 0 1
    outer loop
      vertex 17.1 13.1 65
      vertex 8.6 14.9 65
      vertex 8.6 13.1 65
    endloop
  endfacet
  facet normal 0 0 1
    outer loop
      vertex 17.5976 12.649 65
      vertex 19.6 12.9 65
      vertex 19.5904 13.096 65
    endloop
  endfacet
  facet normal 0 0 1
    outer loop
      vertex 19.6 12.9 65
      vertex 17.6 5.50001 65
      vertex 19.6 2 65
    endloop
  endfacet
  facet normal 0 0 1
    outer loop
      vertex 17.5976 12.649 65
      vertex 19.5904 13.096 65
      vertex 19.5616 13.2902 65
    endloop
  endfacet
  facet normal -0 0 1
    outer loop
      vertex 17.5976 5.451 65
      vertex 19.6 2 65
      vertex 17.6 5.50001 65
    endloop
  endfacet
  facet normal 0 0 1
    outer loop
      vertex 17.5976 12.649 65
      vertex 19.5616 13.2902 65
      vertex 19.5139 13.4806 65
    endloop
  endfacet
  facet normal -0 0 1
    outer loop
      vertex 17.5904 5.40246 65
      vertex 19.6 2 65
      vertex 17.5976 5.451 65
    endloop
  endfacet
  facet normal 0 0 1
    outer loop
      vertex 17.5976 12.649 65
      vertex 19.5139 13.4806 65
      vertex 19.4478 13.6654 65
    endloop
  endfacet
  facet normal -0 0 1
    outer loop
      vertex 17.5785 5.35487 65
      vertex 19.6 2 65
      vertex 17.5904 5.40246 65
    endloop
  endfacet
  facet normal 0 0 1
    outer loop
      vertex 17.5976 12.649 65
      vertex 19.4478 13.6654 65
      vertex 19.3638 13.8428 65
    endloop
  endfacet
  facet normal -0 0 1
    outer loop
      vertex 17.5619 5.30867 65
      vertex 19.6 2 65
      vertex 17.5785 5.35487 65
    endloop
  endfacet
  facet normal 0 0 1
    outer loop
      vertex 17.5976 12.649 65
      vertex 19.3638 13.8428 65
      vertex 19.2629 14.0111 65
    endloop
  endfacet
  facet normal -0 0 1
    outer loop
      vertex 17.541 5.26431 65
      vertex 19.6 2 65
      vertex 17.5619 5.30867 65
    endloop
  endfacet
  facet normal 0 0 1
    outer loop
      vertex 17.5976 12.649 65
      vertex 19.2629 14.0111 65
      vertex 19.146 14.1688 65
    endloop
  endfacet
  facet normal -0 0 1
    outer loop
      vertex 17.5157 5.22223 65
      vertex 19.6 2 65
      vertex 17.541 5.26431 65
    endloop
  endfacet
  facet normal 0 0 1
    outer loop
      vertex 17.5976 12.649 65
      vertex 19.146 14.1688 65
      vertex 19.0142 14.3142 65
    endloop
  endfacet
  facet normal -0 0 1
    outer loop
      vertex 17.4865 5.18281 65
      vertex 19.6 2 65
      vertex 17.5157 5.22223 65
    endloop
  endfacet
  facet normal 0 0 1
    outer loop
      vertex 17.5976 12.649 65
      vertex 19.0142 14.3142 65
      vertex 18.8688 14.446 65
    endloop
  endfacet
  facet normal -0 0 1
    outer loop
      vertex 17.4535 5.14647 65
      vertex 19.6 2 65
      vertex 17.4865 5.18281 65
    endloop
  endfacet
  facet normal 0 0 1
    outer loop
      vertex 17.5976 12.649 65
      vertex 18.8688 14.446 65
      vertex 18.7111 14.5629 65
    endloop
  endfacet
  facet normal -0 0 1
    outer loop
      vertex 17.4172 5.11351 65
      vertex 19.6 2 65
      vertex 17.4535 5.14647 65
    endloop
  endfacet
  facet normal 0 0 1
    outer loop
      vertex 17.5976 12.649 65
      vertex 18.7111 14.5629 65
      vertex 18.5428 14.6638 65
    endloop
  endfacet
  facet normal -0 0 1
    outer loop
      vertex 17.3778 5.08427 65
      vertex 19.6 2 65
      vertex 17.4172 5.11351 65
    endloop
  endfacet
  facet normal 0 0 1
    outer loop
      vertex 17.5976 12.649 65
      vertex 18.5428 14.6638 65
      vertex 18.3654 14.7478 65
    endloop
  endfacet
  facet normal -0 0 1
    outer loop
      vertex 17.3357 5.05905 65
      vertex 19.6 2 65
      vertex 17.3778 5.08427 65
    endloop
  endfacet
  facet normal 0 0 1
    outer loop
      vertex 17.5976 12.649 65
      vertex 18.3654 14.7478 65
      vertex 18.1806 14.8139 65
    endloop
  endfacet
  facet normal -0 0 1
    outer loop
      vertex 17.2913 5.03807 65
      vertex 19.6 2 65
      vertex 17.3357 5.05905 65
    endloop
  endfacet
  facet normal 0 0 1
    outer loop
      vertex 17.5976 12.649 65
      vertex 18.1806 14.8139 65
      vertex 17.9902 14.8616 65
    endloop
  endfacet
  facet normal -0 0 1
    outer loop
      vertex 17.2451 5.02154 65
      vertex 19.6 2 65
      vertex 17.2913 5.03807 65
    endloop
  endfacet
  facet normal 0 0 1
    outer loop
      vertex 17.5976 12.649 65
      vertex 17.9902 14.8616 65
      vertex 17.796 14.8904 65
    endloop
  endfacet
  facet normal -0 0 1
    outer loop
      vertex 17.1975 5.00962 65
      vertex 19.6 2 65
      vertex 17.2451 5.02154 65
    endloop
  endfacet
  facet normal 0 0 1
    outer loop
      vertex 17.2913 13.0619 65
      vertex 17.796 14.8904 65
      vertex 17.6 14.9 65
    endloop
  endfacet
  facet normal 0 0 1
    outer loop
      vertex 19.6 12.9 65
      vertex 17.6 12.6 65
      vertex 17.6 5.50001 65
    endloop
  endfacet
  facet normal -0 0 1
    outer loop
      vertex 17.149 5.00242 65
      vertex 19.6 2 65
      vertex 17.1975 5.00962 65
    endloop
  endfacet
  facet normal -0 0 1
    outer loop
      vertex 17.1 5.00001 65
      vertex 19.6 2 65
      vertex 17.149 5.00242 65
    endloop
  endfacet
  facet normal 0 -0 1
    outer loop
      vertex 17.6 2.86102e-06 65
      vertex 19.6 2 65
      vertex 17.1 5.00001 65
    endloop
  endfacet
  facet normal 0 0 1
    outer loop
      vertex 19.6 2 65
      vertex 17.6 2.86102e-06 65
      vertex 19.5904 1.80397 65
    endloop
  endfacet
  facet normal 0 0 1
    outer loop
      vertex 19.5616 1.60982 65
      vertex 17.6 2.86102e-06 65
      vertex 19.5139 1.41944 65
    endloop
  endfacet
  facet normal 0 0 1
    outer loop
      vertex 19.5139 1.41944 65
      vertex 17.6 2.86102e-06 65
      vertex 19.4478 1.23464 65
    endloop
  endfacet
  facet normal 0 0 1
    outer loop
      vertex 19.4478 1.23464 65
      vertex 17.6 2.86102e-06 65
      vertex 19.3638 1.05721 65
    endloop
  endfacet
  facet normal 0 0 1
    outer loop
      vertex 19.3638 1.05721 65
      vertex 17.6 2.86102e-06 65
      vertex 19.2629 0.888858 65
    endloop
  endfacet
  facet normal 0 0 1
    outer loop
      vertex 19.2629 0.888858 65
      vertex 17.6 2.86102e-06 65
      vertex 19.146 0.731219 65
    endloop
  endfacet
  facet normal 0 0 1
    outer loop
      vertex 19.146 0.731219 65
      vertex 17.6 2.86102e-06 65
      vertex 19.0142 0.585788 65
    endloop
  endfacet
  facet normal 0 0 1
    outer loop
      vertex 19.0142 0.585788 65
      vertex 17.6 2.86102e-06 65
      vertex 18.8688 0.453982 65
    endloop
  endfacet
  facet normal 0 0 1
    outer loop
      vertex 18.8688 0.453982 65
      vertex 17.6 2.86102e-06 65
      vertex 18.7111 0.33707 65
    endloop
  endfacet
  facet normal 0 0 1
    outer loop
      vertex 18.7111 0.33707 65
      vertex 17.6 2.86102e-06 65
      vertex 18.5428 0.236163 65
    endloop
  endfacet
  facet normal 0 0 1
    outer loop
      vertex 18.3654 0.15224 65
      vertex 17.6 2.86102e-06 65
      vertex 18.1806 0.0861235 65
    endloop
  endfacet
  facet normal 0 0 1
    outer loop
      vertex 18.1806 0.0861235 65
      vertex 17.6 2.86102e-06 65
      vertex 17.9902 0.0384398 65
    endloop
  endfacet
  facet normal 0 0 1
    outer loop
      vertex 17.9902 0.0384398 65
      vertex 17.6 2.86102e-06 65
      vertex 17.796 0.00963116 65
    endloop
  endfacet
  facet normal 0 0 1
    outer loop
      vertex 18.5428 0.236163 65
      vertex 17.6 2.86102e-06 65
      vertex 18.3654 0.15224 65
    endloop
  endfacet
  facet normal 0 0 1
    outer loop
      vertex 19.5904 1.80397 65
      vertex 17.6 2.86102e-06 65
      vertex 19.5616 1.60982 65
    endloop
  endfacet
  facet normal -0 0 1
    outer loop
      vertex 6.25 3.25 65
      vertex 17.6 2.86102e-06 65
      vertex 17.1 5.00001 65
    endloop
  endfacet
  facet normal 0 0 1
    outer loop
      vertex 17.6 2.86102e-06 65
      vertex 6.25 3.25 65
      vertex 6.25 2.86102e-06 65
    endloop
  endfacet
  facet normal 0 0 1
    outer loop
      vertex -8.6 14.9 65
      vertex -17.1 13.1 65
      vertex -8.6 13.1 65
    endloop
  endfacet
  facet normal -0 0 1
    outer loop
      vertex -17.6 14.9 65
      vertex -17.1 13.1 65
      vertex -8.6 14.9 65
    endloop
  endfacet
  facet normal 0 0 1
    outer loop
      vertex -17.1 13.1 65
      vertex -17.6 14.9 65
      vertex -17.149 13.0976 65
    endloop
  endfacet
  facet normal 0 0 1
    outer loop
      vertex -17.149 13.0976 65
      vertex -17.6 14.9 65
      vertex -17.1975 13.0904 65
    endloop
  endfacet
  facet normal 0 0 1
    outer loop
      vertex -17.6 14.9 65
      vertex -17.2451 13.0785 65
      vertex -17.1975 13.0904 65
    endloop
  endfacet
  facet normal 0 0 1
    outer loop
      vertex -17.6 14.9 65
      vertex -17.2913 13.0619 65
      vertex -17.2451 13.0785 65
    endloop
  endfacet
  facet normal -0 0 1
    outer loop
      vertex -17.796 14.8904 65
      vertex -17.2913 13.0619 65
      vertex -17.6 14.9 65
    endloop
  endfacet
  facet normal 0 0 1
    outer loop
      vertex -17.2913 13.0619 65
      vertex -17.796 14.8904 65
      vertex -17.3357 13.041 65
    endloop
  endfacet
  facet normal -0 0 1
    outer loop
      vertex -17.9902 14.8616 65
      vertex -17.3357 13.041 65
      vertex -17.796 14.8904 65
    endloop
  endfacet
  facet normal -0 0 1
    outer loop
      vertex -18.1806 14.8139 65
      vertex -17.3357 13.041 65
      vertex -17.9902 14.8616 65
    endloop
  endfacet
  facet normal 0 0 1
    outer loop
      vertex -17.3357 13.041 65
      vertex -18.1806 14.8139 65
      vertex -17.3778 13.0157 65
    endloop
  endfacet
  facet normal -0 0 1
    outer loop
      vertex -18.3654 14.7478 65
      vertex -17.3778 13.0157 65
      vertex -18.1806 14.8139 65
    endloop
  endfacet
  facet normal 0 0 1
    outer loop
      vertex -17.3778 13.0157 65
      vertex -18.3654 14.7478 65
      vertex -17.4172 12.9865 65
    endloop
  endfacet
  facet normal -0 0 1
    outer loop
      vertex -18.5428 14.6638 65
      vertex -17.4172 12.9865 65
      vertex -18.3654 14.7478 65
    endloop
  endfacet
  facet normal -0 0 1
    outer loop
      vertex -18.7111 14.5629 65
      vertex -17.4172 12.9865 65
      vertex -18.5428 14.6638 65
    endloop
  endfacet
  facet normal 0 0 1
    outer loop
      vertex -17.4172 12.9865 65
      vertex -18.7111 14.5629 65
      vertex -17.4535 12.9535 65
    endloop
  endfacet
  facet normal -0 0 1
    outer loop
      vertex -18.8688 14.446 65
      vertex -17.4535 12.9535 65
      vertex -18.7111 14.5629 65
    endloop
  endfacet
  facet normal 0 0 1
    outer loop
      vertex -17.4535 12.9535 65
      vertex -18.8688 14.446 65
      vertex -17.4865 12.9172 65
    endloop
  endfacet
  facet normal -0 0 1
    outer loop
      vertex -19.0142 14.3142 65
      vertex -17.4865 12.9172 65
      vertex -18.8688 14.446 65
    endloop
  endfacet
  facet normal 0 0 1
    outer loop
      vertex -17.6 12.6 65
      vertex -19.6 12.9 65
      vertex -17.6 5.50001 65
    endloop
  endfacet
  facet normal -0 0 1
    outer loop
      vertex -19.146 14.1688 65
      vertex -17.4865 12.9172 65
      vertex -19.0142 14.3142 65
    endloop
  endfacet
  facet normal 0 0 1
    outer loop
      vertex -19.6 2 65
      vertex -17.6 5.50001 65
      vertex -19.6 12.9 65
    endloop
  endfacet
  facet normal 0 0 1
    outer loop
      vertex -17.4865 12.9172 65
      vertex -19.146 14.1688 65
      vertex -17.5157 12.8778 65
    endloop
  endfacet
  facet normal 0 0 1
    outer loop
      vertex -17.6 5.50001 65
      vertex -19.6 2 65
      vertex -17.6 2.86102e-06 65
    endloop
  endfacet
  facet normal -0 0 1
    outer loop
      vertex -19.2629 14.0111 65
      vertex -17.5157 12.8778 65
      vertex -19.146 14.1688 65
    endloop
  endfacet
  facet normal 0 0 1
    outer loop
      vertex -17.6 2.86102e-06 65
      vertex -19.6 2 65
      vertex -17.796 0.00963116 65
    endloop
  endfacet
  facet normal 0 0 1
    outer loop
      vertex -17.5157 12.8778 65
      vertex -19.2629 14.0111 65
      vertex -17.541 12.8357 65
    endloop
  endfacet
  facet normal 0 0 1
    outer loop
      vertex -17.796 0.00963116 65
      vertex -19.6 2 65
      vertex -17.9902 0.0384398 65
    endloop
  endfacet
  facet normal -0 0 1
    outer loop
      vertex -19.3638 13.8428 65
      vertex -17.541 12.8357 65
      vertex -19.2629 14.0111 65
    endloop
  endfacet
  facet normal 0 0 1
    outer loop
      vertex -17.9902 0.0384398 65
      vertex -19.6 2 65
      vertex -18.1806 0.0861235 65
    endloop
  endfacet
  facet normal -0 0 1
    outer loop
      vertex -19.4478 13.6654 65
      vertex -17.541 12.8357 65
      vertex -19.3638 13.8428 65
    endloop
  endfacet
  facet normal 0 0 1
    outer loop
      vertex -18.1806 0.0861235 65
      vertex -19.6 2 65
      vertex -18.3654 0.15224 65
    endloop
  endfacet
  facet normal 0 0 1
    outer loop
      vertex -17.541 12.8357 65
      vertex -19.4478 13.6654 65
      vertex -17.5619 12.7913 65
    endloop
  endfacet
  facet normal 0 0 1
    outer loop
      vertex -18.3654 0.15224 65
      vertex -19.6 2 65
      vertex -18.5428 0.236163 65
    endloop
  endfacet
  facet normal -0 0 1
    outer loop
      vertex -19.5139 13.4806 65
      vertex -17.5619 12.7913 65
      vertex -19.4478 13.6654 65
    endloop
  endfacet
  facet normal 0 0 1
    outer loop
      vertex -18.5428 0.236163 65
      vertex -19.6 2 65
      vertex -18.7111 0.33707 65
    endloop
  endfacet
  facet normal -0 0 1
    outer loop
      vertex -19.5616 13.2902 65
      vertex -17.5619 12.7913 65
      vertex -19.5139 13.4806 65
    endloop
  endfacet
  facet normal 0 0 1
    outer loop
      vertex -18.7111 0.33707 65
      vertex -19.6 2 65
      vertex -18.8688 0.453982 65
    endloop
  endfacet
  facet normal 0 0 1
    outer loop
      vertex -17.5619 12.7913 65
      vertex -19.5616 13.2902 65
      vertex -17.5785 12.7451 65
    endloop
  endfacet
  facet normal 0 0 1
    outer loop
      vertex -18.8688 0.453982 65
      vertex -19.6 2 65
      vertex -19.0142 0.585788 65
    endloop
  endfacet
  facet normal -0 0 1
    outer loop
      vertex -19.5904 13.096 65
      vertex -17.5785 12.7451 65
      vertex -19.5616 13.2902 65
    endloop
  endfacet
  facet normal 0 0 1
    outer loop
      vertex -19.0142 0.585788 65
      vertex -19.6 2 65
      vertex -19.146 0.731219 65
    endloop
  endfacet
  facet normal 0 0 1
    outer loop
      vertex -17.5785 12.7451 65
      vertex -19.5904 13.096 65
      vertex -17.5904 12.6975 65
    endloop
  endfacet
  facet normal 0 0 1
    outer loop
      vertex -19.146 0.731219 65
      vertex -19.6 2 65
      vertex -19.2629 0.888858 65
    endloop
  endfacet
  facet normal -0 0 1
    outer loop
      vertex -19.6 12.9 65
      vertex -17.5904 12.6975 65
      vertex -19.5904 13.096 65
    endloop
  endfacet
  facet normal 0 0 1
    outer loop
      vertex -19.2629 0.888858 65
      vertex -19.6 2 65
      vertex -19.3638 1.05721 65
    endloop
  endfacet
  facet normal 0 0 1
    outer loop
      vertex -17.5904 12.6975 65
      vertex -19.6 12.9 65
      vertex -17.5976 12.649 65
    endloop
  endfacet
  facet normal 0 0 1
    outer loop
      vertex -19.3638 1.05721 65
      vertex -19.6 2 65
      vertex -19.4478 1.23464 65
    endloop
  endfacet
  facet normal 0 0 1
    outer loop
      vertex -17.5976 12.649 65
      vertex -19.6 12.9 65
      vertex -17.6 12.6 65
    endloop
  endfacet
  facet normal 0 0 1
    outer loop
      vertex -19.4478 1.23464 65
      vertex -19.6 2 65
      vertex -19.5139 1.41944 65
    endloop
  endfacet
  facet normal 0 0 1
    outer loop
      vertex -19.5139 1.41944 65
      vertex -19.6 2 65
      vertex -19.5616 1.60982 65
    endloop
  endfacet
  facet normal 0 0 1
    outer loop
      vertex -19.5616 1.60982 65
      vertex -19.6 2 65
      vertex -19.5904 1.80397 65
    endloop
  endfacet
  facet normal 0 0 1
    outer loop
      vertex 17.1 5.00001 65
      vertex -6.25 3.25 65
      vertex 6.25 3.25 65
    endloop
  endfacet
  facet normal -0 0 1
    outer loop
      vertex -17.1 5.00001 65
      vertex -6.25 3.25 65
      vertex 17.1 5.00001 65
    endloop
  endfacet
  facet normal 0 0 1
    outer loop
      vertex -17.6 2.86102e-06 65
      vertex -6.25 3.25 65
      vertex -17.1 5.00001 65
    endloop
  endfacet
  facet normal 0 0 1
    outer loop
      vertex -17.6 2.86102e-06 65
      vertex -17.1 5.00001 65
      vertex -17.149 5.00242 65
    endloop
  endfacet
  facet normal 0 0 1
    outer loop
      vertex -17.6 2.86102e-06 65
      vertex -17.149 5.00242 65
      vertex -17.1975 5.00962 65
    endloop
  endfacet
  facet normal 0 0 1
    outer loop
      vertex -17.6 2.86102e-06 65
      vertex -17.1975 5.00962 65
      vertex -17.2451 5.02154 65
    endloop
  endfacet
  facet normal 0 0 1
    outer loop
      vertex -17.6 2.86102e-06 65
      vertex -17.2451 5.02154 65
      vertex -17.2913 5.03807 65
    endloop
  endfacet
  facet normal 0 0 1
    outer loop
      vertex -6.25 3.25 65
      vertex -17.6 2.86102e-06 65
      vertex -6.25 2.86102e-06 65
    endloop
  endfacet
  facet normal 0 0 1
    outer loop
      vertex -17.3357 5.05905 65
      vertex -17.6 2.86102e-06 65
      vertex -17.2913 5.03807 65
    endloop
  endfacet
  facet normal 0 0 1
    outer loop
      vertex -17.3778 5.08427 65
      vertex -17.6 2.86102e-06 65
      vertex -17.3357 5.05905 65
    endloop
  endfacet
  facet normal 0 0 1
    outer loop
      vertex -17.4172 5.11351 65
      vertex -17.6 2.86102e-06 65
      vertex -17.3778 5.08427 65
    endloop
  endfacet
  facet normal 0 0 1
    outer loop
      vertex -17.4535 5.14647 65
      vertex -17.6 2.86102e-06 65
      vertex -17.4172 5.11351 65
    endloop
  endfacet
  facet normal 0 0 1
    outer loop
      vertex -17.4865 5.18281 65
      vertex -17.6 2.86102e-06 65
      vertex -17.4535 5.14647 65
    endloop
  endfacet
  facet normal 0 0 1
    outer loop
      vertex -17.5157 5.22223 65
      vertex -17.6 2.86102e-06 65
      vertex -17.4865 5.18281 65
    endloop
  endfacet
  facet normal 0 0 1
    outer loop
      vertex -17.541 5.26431 65
      vertex -17.6 2.86102e-06 65
      vertex -17.5157 5.22223 65
    endloop
  endfacet
  facet normal 0 0 1
    outer loop
      vertex -17.5619 5.30867 65
      vertex -17.6 2.86102e-06 65
      vertex -17.541 5.26431 65
    endloop
  endfacet
  facet normal 0 0 1
    outer loop
      vertex -17.5785 5.35487 65
      vertex -17.6 2.86102e-06 65
      vertex -17.5619 5.30867 65
    endloop
  endfacet
  facet normal 0 0 1
    outer loop
      vertex -17.5904 5.40246 65
      vertex -17.6 2.86102e-06 65
      vertex -17.5785 5.35487 65
    endloop
  endfacet
  facet normal 0 0 1
    outer loop
      vertex -17.5976 5.451 65
      vertex -17.6 2.86102e-06 65
      vertex -17.5904 5.40246 65
    endloop
  endfacet
  facet normal 0 0 1
    outer loop
      vertex -17.6 2.86102e-06 65
      vertex -17.5976 5.451 65
      vertex -17.6 5.50001 65
    endloop
  endfacet
  facet normal -0.513896 0.857852 0
    outer loop
      vertex 17.3778 5.08427 2.5
      vertex 17.3357 5.05905 65
      vertex 17.3778 5.08427 65
    endloop
  endfacet
  facet normal -0.513896 0.857852 0
    outer loop
      vertex 17.3357 5.05905 65
      vertex 17.3778 5.08427 2.5
      vertex 17.3357 5.05905 2.5
    endloop
  endfacet
  facet normal -0.242919 0.970047 0
    outer loop
      vertex 17.2451 5.02154 2.5
      vertex 17.1975 5.00962 65
      vertex 17.2451 5.02154 65
    endloop
  endfacet
  facet normal -0.242919 0.970047 0
    outer loop
      vertex 17.1975 5.00962 65
      vertex 17.2451 5.02154 2.5
      vertex 17.1975 5.00962 2.5
    endloop
  endfacet
  facet normal -0.740309 0.672267 -2.63713e-20
    outer loop
      vertex 17.4535 5.14647 2.5
      vertex 17.4865 5.18281 65
      vertex 17.4865 5.18281 2.5
    endloop
  endfacet
  facet normal -0.740309 0.672267 -2.63713e-20
    outer loop
      vertex 17.4865 5.18281 65
      vertex 17.4535 5.14647 2.5
      vertex 17.4535 5.14647 65
    endloop
  endfacet
  facet normal -0.0491243 0.998793 0
    outer loop
      vertex 17.149 5.00242 2.5
      vertex 17.1 5.00001 65
      vertex 17.149 5.00242 65
    endloop
  endfacet
  facet normal -0.0491243 0.998793 0
    outer loop
      vertex 17.1 5.00001 65
      vertex 17.149 5.00242 2.5
      vertex 17.1 5.00001 2.5
    endloop
  endfacet
  facet normal -0.427228 0.904144 0
    outer loop
      vertex 17.3357 5.05905 2.5
      vertex 17.2913 5.03807 65
      vertex 17.3357 5.05905 65
    endloop
  endfacet
  facet normal -0.427228 0.904144 0
    outer loop
      vertex 17.2913 5.03807 65
      vertex 17.3357 5.05905 2.5
      vertex 17.2913 5.03807 2.5
    endloop
  endfacet
  facet normal 0.595949 0.803023 -0
    outer loop
      vertex -17.3778 5.08427 2.5
      vertex -17.4172 5.11351 65
      vertex -17.3778 5.08427 65
    endloop
  endfacet
  facet normal 0.595949 0.803023 0
    outer loop
      vertex -17.4172 5.11351 65
      vertex -17.3778 5.08427 2.5
      vertex -17.4172 5.11351 2.5
    endloop
  endfacet
  facet normal 0.803413 -0.595423 2.31627e-20
    outer loop
      vertex -17.5157 12.8778 65
      vertex -17.4865 12.9172 2.5
      vertex -17.4865 12.9172 65
    endloop
  endfacet
  facet normal 0.803413 -0.595423 2.31627e-20
    outer loop
      vertex -17.4865 12.9172 2.5
      vertex -17.5157 12.8778 65
      vertex -17.5157 12.8778 2.5
    endloop
  endfacet
  facet normal -0.970143 -0.242536 -6.255e-21
    outer loop
      vertex 17.5904 12.6975 2.5
      vertex 17.5785 12.7451 65
      vertex 17.5785 12.7451 2.5
    endloop
  endfacet
  facet normal -0.970143 -0.242536 -6.255e-21
    outer loop
      vertex 17.5785 12.7451 65
      vertex 17.5904 12.6975 2.5
      vertex 17.5904 12.6975 65
    endloop
  endfacet
  facet normal 0.857025 0.515274 2.76149e-22
    outer loop
      vertex -17.5157 5.22223 65
      vertex -17.541 5.26431 2.5
      vertex -17.541 5.26431 65
    endloop
  endfacet
  facet normal 0.857025 0.515274 2.76149e-22
    outer loop
      vertex -17.541 5.26431 2.5
      vertex -17.5157 5.22223 65
      vertex -17.5157 5.22223 2.5
    endloop
  endfacet
  facet normal 0.242536 -0.970143 2.0213e-06
    outer loop
      vertex -17.2451 13.0785 65
      vertex -17.199 13.09 53.001
      vertex -17.1975 13.0904 65
    endloop
  endfacet
  facet normal 0.24204 -0.970266 0
    outer loop
      vertex -17.2451 13.0785 2.5
      vertex -17.199 13.09 53.001
      vertex -17.2451 13.0785 65
    endloop
  endfacet
  facet normal 0.24204 -0.970266 0
    outer loop
      vertex -17.199 13.09 53.001
      vertex -17.2451 13.0785 2.5
      vertex -17.199 13.09 2.5
    endloop
  endfacet
  facet normal 0.257663 -0.966235 0
    outer loop
      vertex -17.1975 13.0904 65
      vertex -17.199 13.09 53.001
      vertex -17.1975 13.0904 53.001
    endloop
  endfacet
  facet normal 0.803557 0.595228 -8.35593e-21
    outer loop
      vertex -17.4865 5.18281 65
      vertex -17.5157 5.22223 2.5
      vertex -17.5157 5.22223 65
    endloop
  endfacet
  facet normal 0.803557 0.595228 -8.35593e-21
    outer loop
      vertex -17.5157 5.22223 2.5
      vertex -17.4865 5.18281 65
      vertex -17.4865 5.18281 2.5
    endloop
  endfacet
  facet normal 0 -1 0
    outer loop
      vertex -17.1 13.1 53.001
      vertex -8.6 13.1 65
      vertex -17.1 13.1 65
    endloop
  endfacet
  facet normal 0 -1 -0
    outer loop
      vertex -8.6 13.1 65
      vertex -17.1 13.1 53.001
      vertex -8.6 13.1 53.001
    endloop
  endfacet
  facet normal 0 -1 0
    outer loop
      vertex 8.6 13.1 53.001
      vertex 17.1 13.1 65
      vertex 8.6 13.1 65
    endloop
  endfacet
  facet normal 0 -1 -0
    outer loop
      vertex 17.1 13.1 65
      vertex 8.6 13.1 53.001
      vertex 17.1 13.1 53.001
    endloop
  endfacet
  facet normal -0.904773 -0.425895 1.65293e-20
    outer loop
      vertex 17.5619 12.7913 2.5
      vertex 17.541 12.8357 65
      vertex 17.541 12.8357 2.5
    endloop
  endfacet
  facet normal -0.904773 -0.425895 1.65293e-20
    outer loop
      vertex 17.541 12.8357 65
      vertex 17.5619 12.7913 2.5
      vertex 17.5619 12.7913 65
    endloop
  endfacet
  facet normal -0.595949 0.803023 0
    outer loop
      vertex 17.4172 5.11351 2.5
      vertex 17.3778 5.08427 65
      vertex 17.4172 5.11351 65
    endloop
  endfacet
  facet normal -0.595949 0.803023 0
    outer loop
      vertex 17.3778 5.08427 65
      vertex 17.4172 5.11351 2.5
      vertex 17.3778 5.08427 2.5
    endloop
  endfacet
  facet normal -0.336879 0.941548 0
    outer loop
      vertex 17.2913 5.03807 2.5
      vertex 17.2451 5.02154 65
      vertex 17.2913 5.03807 65
    endloop
  endfacet
  facet normal -0.336879 0.941548 0
    outer loop
      vertex 17.2451 5.02154 65
      vertex 17.2913 5.03807 2.5
      vertex 17.2451 5.02154 2.5
    endloop
  endfacet
  facet normal 0.515094 -0.857133 0
    outer loop
      vertex -17.3778 13.0157 2.5
      vertex -17.3357 13.041 65
      vertex -17.3778 13.0157 65
    endloop
  endfacet
  facet normal 0.515094 -0.857133 0
    outer loop
      vertex -17.3357 13.041 65
      vertex -17.3778 13.0157 2.5
      vertex -17.3357 13.041 2.5
    endloop
  endfacet
  facet normal 0.146844 0.98916 -0
    outer loop
      vertex -17.149 5.00242 2.5
      vertex -17.1975 5.00962 65
      vertex -17.149 5.00242 65
    endloop
  endfacet
  facet normal 0.146844 0.98916 0
    outer loop
      vertex -17.1975 5.00962 65
      vertex -17.149 5.00242 2.5
      vertex -17.1975 5.00962 2.5
    endloop
  endfacet
  facet normal -0.146844 0.98916 0
    outer loop
      vertex 17.1975 5.00962 2.5
      vertex 17.149 5.00242 65
      vertex 17.1975 5.00962 65
    endloop
  endfacet
  facet normal -0.146844 0.98916 0
    outer loop
      vertex 17.149 5.00242 65
      vertex 17.1975 5.00962 2.5
      vertex 17.149 5.00242 2.5
    endloop
  endfacet
  facet normal -0.98916 -0.146844 -9.56895e-22
    outer loop
      vertex 17.5976 12.649 2.5
      vertex 17.5904 12.6975 65
      vertex 17.5904 12.6975 2.5
    endloop
  endfacet
  facet normal -0.98916 -0.146844 -9.56895e-22
    outer loop
      vertex 17.5904 12.6975 65
      vertex 17.5976 12.649 2.5
      vertex 17.5976 12.649 65
    endloop
  endfacet
  facet normal 0 1 -0
    outer loop
      vertex 17.1 5.00001 2.5
      vertex -17.1 5.00001 65
      vertex 17.1 5.00001 65
    endloop
  endfacet
  facet normal 0 1 0
    outer loop
      vertex -17.1 5.00001 65
      vertex 17.1 5.00001 2.5
      vertex -17.1 5.00001 2.5
    endloop
  endfacet
  facet normal 0.672226 0.740346 -0
    outer loop
      vertex -17.4172 5.11351 2.5
      vertex -17.4535 5.14647 65
      vertex -17.4172 5.11351 65
    endloop
  endfacet
  facet normal 0.672226 0.740346 0
    outer loop
      vertex -17.4535 5.14647 65
      vertex -17.4172 5.11351 2.5
      vertex -17.4535 5.14647 2.5
    endloop
  endfacet
  facet normal -1 0 0
    outer loop
      vertex 17.6 5.50001 2.5
      vertex 17.6 12.6 65
      vertex 17.6 12.6 2.5
    endloop
  endfacet
  facet normal -1 -0 0
    outer loop
      vertex 17.6 12.6 65
      vertex 17.6 5.50001 2.5
      vertex 17.6 5.50001 65
    endloop
  endfacet
  facet normal 0.0491243 0.998793 -0
    outer loop
      vertex -17.1 5.00001 2.5
      vertex -17.149 5.00242 65
      vertex -17.1 5.00001 65
    endloop
  endfacet
  facet normal 0.0491243 0.998793 0
    outer loop
      vertex -17.149 5.00242 65
      vertex -17.1 5.00001 2.5
      vertex -17.149 5.00242 2.5
    endloop
  endfacet
  facet normal -0.146844 -0.98916 0
    outer loop
      vertex 17.149 13.0976 53.001
      vertex 17.1975 13.0904 65
      vertex 17.149 13.0976 65
    endloop
  endfacet
  facet normal -0.146844 -0.98916 -0
    outer loop
      vertex 17.1975 13.0904 65
      vertex 17.149 13.0976 53.001
      vertex 17.1975 13.0904 53.001
    endloop
  endfacet
  facet normal 0.970143 -0.242536 6.255e-21
    outer loop
      vertex -17.5904 12.6975 65
      vertex -17.5785 12.7451 2.5
      vertex -17.5785 12.7451 65
    endloop
  endfacet
  facet normal 0.970143 -0.242536 6.255e-21
    outer loop
      vertex -17.5785 12.7451 2.5
      vertex -17.5904 12.6975 65
      vertex -17.5904 12.6975 2.5
    endloop
  endfacet
  facet normal -0.970131 0.242584 -7.9645e-22
    outer loop
      vertex 17.5785 5.35487 2.5
      vertex 17.5904 5.40246 65
      vertex 17.5904 5.40246 2.5
    endloop
  endfacet
  facet normal -0.970131 0.242584 -7.9645e-22
    outer loop
      vertex 17.5904 5.40246 65
      vertex 17.5785 5.35487 2.5
      vertex 17.5785 5.35487 65
    endloop
  endfacet
  facet normal 0.146844 -0.98916 0
    outer loop
      vertex -17.1975 13.0904 53.001
      vertex -17.149 13.0976 65
      vertex -17.1975 13.0904 65
    endloop
  endfacet
  facet normal 0.146844 -0.98916 0
    outer loop
      vertex -17.149 13.0976 65
      vertex -17.1975 13.0904 53.001
      vertex -17.149 13.0976 53.001
    endloop
  endfacet
  facet normal 0.0489209 -0.998803 0
    outer loop
      vertex -17.149 13.0976 53.001
      vertex -17.1 13.1 65
      vertex -17.149 13.0976 65
    endloop
  endfacet
  facet normal 0.0489209 -0.998803 0
    outer loop
      vertex -17.1 13.1 65
      vertex -17.149 13.0976 53.001
      vertex -17.1 13.1 53.001
    endloop
  endfacet
  facet normal 1 -0 0
    outer loop
      vertex -17.6 5.50001 65
      vertex -17.6 12.6 2.5
      vertex -17.6 12.6 65
    endloop
  endfacet
  facet normal 1 0 0
    outer loop
      vertex -17.6 12.6 2.5
      vertex -17.6 5.50001 65
      vertex -17.6 5.50001 2.5
    endloop
  endfacet
  facet normal 0.338142 -0.941095 0
    outer loop
      vertex -17.2913 13.0619 2.5
      vertex -17.2451 13.0785 65
      vertex -17.2913 13.0619 65
    endloop
  endfacet
  facet normal 0.338142 -0.941095 0
    outer loop
      vertex -17.2451 13.0785 65
      vertex -17.2913 13.0619 2.5
      vertex -17.2451 13.0785 2.5
    endloop
  endfacet
  facet normal 0.425895 -0.904773 0
    outer loop
      vertex -17.3357 13.041 2.5
      vertex -17.2913 13.0619 65
      vertex -17.3357 13.041 65
    endloop
  endfacet
  facet normal 0.425895 -0.904773 0
    outer loop
      vertex -17.2913 13.0619 65
      vertex -17.3357 13.041 2.5
      vertex -17.2913 13.0619 2.5
    endloop
  endfacet
  facet normal 0.427228 0.904144 -0
    outer loop
      vertex -17.2913 5.03807 2.5
      vertex -17.3357 5.05905 65
      vertex -17.2913 5.03807 65
    endloop
  endfacet
  facet normal 0.427228 0.904144 0
    outer loop
      vertex -17.3357 5.05905 65
      vertex -17.2913 5.03807 2.5
      vertex -17.3357 5.05905 2.5
    endloop
  endfacet
  facet normal 0.989177 0.146726 5.2837e-22
    outer loop
      vertex -17.5904 5.40246 65
      vertex -17.5976 5.451 2.5
      vertex -17.5976 5.451 65
    endloop
  endfacet
  facet normal 0.989177 0.146726 5.2837e-22
    outer loop
      vertex -17.5976 5.451 2.5
      vertex -17.5904 5.40246 65
      vertex -17.5904 5.40246 2.5
    endloop
  endfacet
  facet normal 0.941095 -0.338142 -6.62455e-21
    outer loop
      vertex -17.5785 12.7451 65
      vertex -17.5619 12.7913 2.5
      vertex -17.5619 12.7913 65
    endloop
  endfacet
  facet normal 0.941095 -0.338142 -6.62455e-21
    outer loop
      vertex -17.5619 12.7913 2.5
      vertex -17.5785 12.7451 65
      vertex -17.5785 12.7451 2.5
    endloop
  endfacet
  facet normal -0.338142 -0.941095 0
    outer loop
      vertex 17.2451 13.0785 2.5
      vertex 17.2913 13.0619 65
      vertex 17.2451 13.0785 65
    endloop
  endfacet
  facet normal -0.338142 -0.941095 -0
    outer loop
      vertex 17.2913 13.0619 65
      vertex 17.2451 13.0785 2.5
      vertex 17.2913 13.0619 2.5
    endloop
  endfacet
  facet normal -0.857025 0.515274 -2.76149e-22
    outer loop
      vertex 17.5157 5.22223 2.5
      vertex 17.541 5.26431 65
      vertex 17.541 5.26431 2.5
    endloop
  endfacet
  facet normal -0.857025 0.515274 -2.76149e-22
    outer loop
      vertex 17.541 5.26431 65
      vertex 17.5157 5.22223 2.5
      vertex 17.5157 5.22223 65
    endloop
  endfacet
  facet normal 0.672673 -0.73994 0
    outer loop
      vertex -17.4535 12.9535 2.5
      vertex -17.4172 12.9865 65
      vertex -17.4535 12.9535 65
    endloop
  endfacet
  facet normal 0.672673 -0.73994 0
    outer loop
      vertex -17.4172 12.9865 65
      vertex -17.4535 12.9535 2.5
      vertex -17.4172 12.9865 2.5
    endloop
  endfacet
  facet normal -0.998803 -0.0489209 -1.49853e-21
    outer loop
      vertex 17.6 12.6 2.5
      vertex 17.5976 12.649 65
      vertex 17.5976 12.649 2.5
    endloop
  endfacet
  facet normal -0.998803 -0.0489209 -1.49853e-21
    outer loop
      vertex 17.5976 12.649 65
      vertex 17.6 12.6 2.5
      vertex 17.6 12.6 65
    endloop
  endfacet
  facet normal 0.513896 0.857852 -0
    outer loop
      vertex -17.3357 5.05905 2.5
      vertex -17.3778 5.08427 65
      vertex -17.3357 5.05905 65
    endloop
  endfacet
  facet normal 0.513896 0.857852 0
    outer loop
      vertex -17.3778 5.08427 65
      vertex -17.3357 5.05905 2.5
      vertex -17.3778 5.08427 2.5
    endloop
  endfacet
  facet normal -0.857133 -0.515094 -2.13754e-20
    outer loop
      vertex 17.541 12.8357 2.5
      vertex 17.5157 12.8778 65
      vertex 17.5157 12.8778 2.5
    endloop
  endfacet
  facet normal -0.857133 -0.515094 -2.13754e-20
    outer loop
      vertex 17.5157 12.8778 65
      vertex 17.541 12.8357 2.5
      vertex 17.541 12.8357 65
    endloop
  endfacet
  facet normal -0.941095 0.338142 -7.07686e-21
    outer loop
      vertex 17.5619 5.30867 2.5
      vertex 17.5785 5.35487 65
      vertex 17.5785 5.35487 2.5
    endloop
  endfacet
  facet normal -0.941095 0.338142 -7.07686e-21
    outer loop
      vertex 17.5785 5.35487 65
      vertex 17.5619 5.30867 2.5
      vertex 17.5619 5.30867 65
    endloop
  endfacet
  facet normal -0.904625 0.426209 9.14197e-21
    outer loop
      vertex 17.541 5.26431 2.5
      vertex 17.5619 5.30867 65
      vertex 17.5619 5.30867 2.5
    endloop
  endfacet
  facet normal -0.904625 0.426209 9.14197e-21
    outer loop
      vertex 17.5619 5.30867 65
      vertex 17.541 5.26431 2.5
      vertex 17.541 5.26431 65
    endloop
  endfacet
  facet normal 0.970131 0.242584 7.9645e-22
    outer loop
      vertex -17.5785 5.35487 65
      vertex -17.5904 5.40246 2.5
      vertex -17.5904 5.40246 65
    endloop
  endfacet
  facet normal 0.970131 0.242584 7.9645e-22
    outer loop
      vertex -17.5904 5.40246 2.5
      vertex -17.5785 5.35487 65
      vertex -17.5785 5.35487 2.5
    endloop
  endfacet
  facet normal 0.941095 0.338142 7.07686e-21
    outer loop
      vertex -17.5619 5.30867 65
      vertex -17.5785 5.35487 2.5
      vertex -17.5785 5.35487 65
    endloop
  endfacet
  facet normal 0.941095 0.338142 7.07686e-21
    outer loop
      vertex -17.5785 5.35487 2.5
      vertex -17.5619 5.30867 65
      vertex -17.5619 5.30867 2.5
    endloop
  endfacet
  facet normal -0.0489209 -0.998803 0
    outer loop
      vertex 17.1 13.1 53.001
      vertex 17.149 13.0976 65
      vertex 17.1 13.1 65
    endloop
  endfacet
  facet normal -0.0489209 -0.998803 -0
    outer loop
      vertex 17.149 13.0976 65
      vertex 17.1 13.1 53.001
      vertex 17.149 13.0976 53.001
    endloop
  endfacet
  facet normal 0.740309 0.672267 2.63713e-20
    outer loop
      vertex -17.4535 5.14647 65
      vertex -17.4865 5.18281 2.5
      vertex -17.4865 5.18281 65
    endloop
  endfacet
  facet normal 0.740309 0.672267 2.63713e-20
    outer loop
      vertex -17.4865 5.18281 2.5
      vertex -17.4535 5.14647 65
      vertex -17.4535 5.14647 2.5
    endloop
  endfacet
  facet normal -0.425895 -0.904773 0
    outer loop
      vertex 17.2913 13.0619 2.5
      vertex 17.3357 13.041 65
      vertex 17.2913 13.0619 65
    endloop
  endfacet
  facet normal -0.425895 -0.904773 -0
    outer loop
      vertex 17.3357 13.041 65
      vertex 17.2913 13.0619 2.5
      vertex 17.3357 13.041 2.5
    endloop
  endfacet
  facet normal 0.595423 -0.803413 0
    outer loop
      vertex -17.4172 12.9865 2.5
      vertex -17.3778 13.0157 65
      vertex -17.4172 12.9865 65
    endloop
  endfacet
  facet normal 0.595423 -0.803413 0
    outer loop
      vertex -17.3778 13.0157 65
      vertex -17.4172 12.9865 2.5
      vertex -17.3778 13.0157 2.5
    endloop
  endfacet
  facet normal 0.998803 -0.0489209 1.49853e-21
    outer loop
      vertex -17.6 12.6 65
      vertex -17.5976 12.649 2.5
      vertex -17.5976 12.649 65
    endloop
  endfacet
  facet normal 0.998803 -0.0489209 1.49853e-21
    outer loop
      vertex -17.5976 12.649 2.5
      vertex -17.6 12.6 65
      vertex -17.6 12.6 2.5
    endloop
  endfacet
  facet normal 0.904625 0.426209 -9.14197e-21
    outer loop
      vertex -17.541 5.26431 65
      vertex -17.5619 5.30867 2.5
      vertex -17.5619 5.30867 65
    endloop
  endfacet
  facet normal 0.904625 0.426209 -9.14197e-21
    outer loop
      vertex -17.5619 5.30867 2.5
      vertex -17.541 5.26431 65
      vertex -17.541 5.26431 2.5
    endloop
  endfacet
  facet normal -0.595423 -0.803413 0
    outer loop
      vertex 17.3778 13.0157 2.5
      vertex 17.4172 12.9865 65
      vertex 17.3778 13.0157 65
    endloop
  endfacet
  facet normal -0.595423 -0.803413 -0
    outer loop
      vertex 17.4172 12.9865 65
      vertex 17.3778 13.0157 2.5
      vertex 17.4172 12.9865 2.5
    endloop
  endfacet
  facet normal -0.989177 0.146726 -5.2837e-22
    outer loop
      vertex 17.5904 5.40246 2.5
      vertex 17.5976 5.451 65
      vertex 17.5976 5.451 2.5
    endloop
  endfacet
  facet normal -0.989177 0.146726 -5.2837e-22
    outer loop
      vertex 17.5976 5.451 65
      vertex 17.5904 5.40246 2.5
      vertex 17.5904 5.40246 65
    endloop
  endfacet
  facet normal 0.904773 -0.425895 -1.65293e-20
    outer loop
      vertex -17.5619 12.7913 65
      vertex -17.541 12.8357 2.5
      vertex -17.541 12.8357 65
    endloop
  endfacet
  facet normal 0.904773 -0.425895 -1.65293e-20
    outer loop
      vertex -17.541 12.8357 2.5
      vertex -17.5619 12.7913 65
      vertex -17.5619 12.7913 2.5
    endloop
  endfacet
  facet normal 0.857133 -0.515094 2.13754e-20
    outer loop
      vertex -17.541 12.8357 65
      vertex -17.5157 12.8778 2.5
      vertex -17.5157 12.8778 65
    endloop
  endfacet
  facet normal 0.857133 -0.515094 2.13754e-20
    outer loop
      vertex -17.5157 12.8778 2.5
      vertex -17.541 12.8357 65
      vertex -17.541 12.8357 2.5
    endloop
  endfacet
  facet normal -0.672226 0.740346 0
    outer loop
      vertex 17.4535 5.14647 2.5
      vertex 17.4172 5.11351 65
      vertex 17.4535 5.14647 65
    endloop
  endfacet
  facet normal -0.672226 0.740346 0
    outer loop
      vertex 17.4172 5.11351 65
      vertex 17.4535 5.14647 2.5
      vertex 17.4172 5.11351 2.5
    endloop
  endfacet
  facet normal 0.998803 0.048911 8.1171e-22
    outer loop
      vertex -17.5976 5.451 65
      vertex -17.6 5.50001 2.5
      vertex -17.6 5.50001 65
    endloop
  endfacet
  facet normal 0.998803 0.048911 8.1171e-22
    outer loop
      vertex -17.6 5.50001 2.5
      vertex -17.5976 5.451 65
      vertex -17.5976 5.451 2.5
    endloop
  endfacet
  facet normal -0.803557 0.595228 8.35593e-21
    outer loop
      vertex 17.4865 5.18281 2.5
      vertex 17.5157 5.22223 65
      vertex 17.5157 5.22223 2.5
    endloop
  endfacet
  facet normal -0.803557 0.595228 8.35593e-21
    outer loop
      vertex 17.5157 5.22223 65
      vertex 17.4865 5.18281 2.5
      vertex 17.4865 5.18281 65
    endloop
  endfacet
  facet normal -0.941095 -0.338142 6.62455e-21
    outer loop
      vertex 17.5785 12.7451 2.5
      vertex 17.5619 12.7913 65
      vertex 17.5619 12.7913 2.5
    endloop
  endfacet
  facet normal -0.941095 -0.338142 6.62455e-21
    outer loop
      vertex 17.5619 12.7913 65
      vertex 17.5785 12.7451 2.5
      vertex 17.5785 12.7451 65
    endloop
  endfacet
  facet normal -0.803413 -0.595423 -2.31627e-20
    outer loop
      vertex 17.5157 12.8778 2.5
      vertex 17.4865 12.9172 65
      vertex 17.4865 12.9172 2.5
    endloop
  endfacet
  facet normal -0.803413 -0.595423 -2.31627e-20
    outer loop
      vertex 17.4865 12.9172 65
      vertex 17.5157 12.8778 2.5
      vertex 17.5157 12.8778 65
    endloop
  endfacet
  facet normal 0.336879 0.941548 -0
    outer loop
      vertex -17.2451 5.02154 2.5
      vertex -17.2913 5.03807 65
      vertex -17.2451 5.02154 65
    endloop
  endfacet
  facet normal 0.336879 0.941548 0
    outer loop
      vertex -17.2913 5.03807 65
      vertex -17.2451 5.02154 2.5
      vertex -17.2913 5.03807 2.5
    endloop
  endfacet
  facet normal 0.242919 0.970047 -0
    outer loop
      vertex -17.1975 5.00962 2.5
      vertex -17.2451 5.02154 65
      vertex -17.1975 5.00962 65
    endloop
  endfacet
  facet normal 0.242919 0.970047 0
    outer loop
      vertex -17.2451 5.02154 65
      vertex -17.1975 5.00962 2.5
      vertex -17.2451 5.02154 2.5
    endloop
  endfacet
  facet normal 0.98916 -0.146844 9.56895e-22
    outer loop
      vertex -17.5976 12.649 65
      vertex -17.5904 12.6975 2.5
      vertex -17.5904 12.6975 65
    endloop
  endfacet
  facet normal 0.98916 -0.146844 9.56895e-22
    outer loop
      vertex -17.5904 12.6975 2.5
      vertex -17.5976 12.649 65
      vertex -17.5976 12.649 2.5
    endloop
  endfacet
  facet normal -0.672673 -0.73994 0
    outer loop
      vertex 17.4172 12.9865 2.5
      vertex 17.4535 12.9535 65
      vertex 17.4172 12.9865 65
    endloop
  endfacet
  facet normal -0.672673 -0.73994 -0
    outer loop
      vertex 17.4535 12.9535 65
      vertex 17.4172 12.9865 2.5
      vertex 17.4535 12.9535 2.5
    endloop
  endfacet
  facet normal -0.73994 -0.672673 3.30835e-20
    outer loop
      vertex 17.4865 12.9172 2.5
      vertex 17.4535 12.9535 65
      vertex 17.4535 12.9535 2.5
    endloop
  endfacet
  facet normal -0.73994 -0.672673 3.30835e-20
    outer loop
      vertex 17.4535 12.9535 65
      vertex 17.4865 12.9172 2.5
      vertex 17.4865 12.9172 65
    endloop
  endfacet
  facet normal -0.515094 -0.857133 0
    outer loop
      vertex 17.3357 13.041 2.5
      vertex 17.3778 13.0157 65
      vertex 17.3357 13.041 65
    endloop
  endfacet
  facet normal -0.515094 -0.857133 -0
    outer loop
      vertex 17.3778 13.0157 65
      vertex 17.3357 13.041 2.5
      vertex 17.3778 13.0157 2.5
    endloop
  endfacet
  facet normal -0.242536 -0.970143 0
    outer loop
      vertex 17.1975 13.0904 53.001
      vertex 17.2451 13.0785 65
      vertex 17.1975 13.0904 65
    endloop
  endfacet
  facet normal -0.257663 -0.966235 6.38842e-05
    outer loop
      vertex 17.199 13.09 53.001
      vertex 17.2451 13.0785 65
      vertex 17.1975 13.0904 53.001
    endloop
  endfacet
  facet normal -0.24204 -0.970266 5.17878e-21
    outer loop
      vertex 17.2451 13.0785 2.5
      vertex 17.199 13.09 53.001
      vertex 17.199 13.09 2.5
    endloop
  endfacet
  facet normal -0.24204 -0.970266 4.18454e-21
    outer loop
      vertex 17.199 13.09 53.001
      vertex 17.2451 13.0785 2.5
      vertex 17.2451 13.0785 65
    endloop
  endfacet
  facet normal 0.73994 -0.672673 -3.30835e-20
    outer loop
      vertex -17.4865 12.9172 65
      vertex -17.4535 12.9535 2.5
      vertex -17.4535 12.9535 65
    endloop
  endfacet
  facet normal 0.73994 -0.672673 -3.30835e-20
    outer loop
      vertex -17.4535 12.9535 2.5
      vertex -17.4865 12.9172 65
      vertex -17.4865 12.9172 2.5
    endloop
  endfacet
  facet normal -0.998803 0.048911 -8.1171e-22
    outer loop
      vertex 17.5976 5.451 2.5
      vertex 17.6 5.50001 65
      vertex 17.6 5.50001 2.5
    endloop
  endfacet
  facet normal -0.998803 0.048911 -8.1171e-22
    outer loop
      vertex 17.6 5.50001 65
      vertex 17.5976 5.451 2.5
      vertex 17.5976 5.451 65
    endloop
  endfacet
  facet normal 0 0 1
    outer loop
      vertex 17.6 14.9 2.5
      vertex 17.199 13.09 2.5
      vertex 17.6 13.09 2.5
    endloop
  endfacet
  facet normal 0 0 1
    outer loop
      vertex 17.6 5.50001 2.5
      vertex 17.149 5.00242 2.5
      vertex 17.1975 5.00962 2.5
    endloop
  endfacet
  facet normal 0 0 1
    outer loop
      vertex 17.6 12.6 2.5
      vertex 17.1 5.00001 2.5
      vertex 17.149 5.00242 2.5
    endloop
  endfacet
  facet normal 0 0 1
    outer loop
      vertex 17.199 13.09 2.5
      vertex -17.1 5.00001 2.5
      vertex 17.1 5.00001 2.5
    endloop
  endfacet
  facet normal 0 0 1
    outer loop
      vertex -17.199 13.09 2.5
      vertex 17.199 13.09 2.5
      vertex 17.6 14.9 2.5
    endloop
  endfacet
  facet normal 0 0 1
    outer loop
      vertex 17.199 13.09 2.5
      vertex -17.199 13.09 2.5
      vertex -17.1 5.00001 2.5
    endloop
  endfacet
  facet normal -0 0 1
    outer loop
      vertex -17.6 12.6 2.5
      vertex -17.1 5.00001 2.5
      vertex -17.199 13.09 2.5
    endloop
  endfacet
  facet normal -0 0 1
    outer loop
      vertex -17.6 5.50001 2.5
      vertex -17.1 5.00001 2.5
      vertex -17.6 12.6 2.5
    endloop
  endfacet
  facet normal -0 0 1
    outer loop
      vertex -17.6 14.9 2.5
      vertex -17.199 13.09 2.5
      vertex 17.6 14.9 2.5
    endloop
  endfacet
  facet normal 0 0 1
    outer loop
      vertex -17.6 14.9 2.5
      vertex -17.6 13.09 2.5
      vertex -17.199 13.09 2.5
    endloop
  endfacet
  facet normal 0 0 1
    outer loop
      vertex 17.199 13.09 2.5
      vertex 17.6 12.6 2.5
      vertex 17.5976 12.649 2.5
    endloop
  endfacet
  facet normal 0 0 1
    outer loop
      vertex 17.1 5.00001 2.5
      vertex 17.6 12.6 2.5
      vertex 17.199 13.09 2.5
    endloop
  endfacet
  facet normal 0 0 1
    outer loop
      vertex 17.199 13.09 2.5
      vertex 17.5976 12.649 2.5
      vertex 17.5904 12.6975 2.5
    endloop
  endfacet
  facet normal 0 0 1
    outer loop
      vertex 17.6 12.6 2.5
      vertex 17.149 5.00242 2.5
      vertex 17.6 5.50001 2.5
    endloop
  endfacet
  facet normal 0 0 1
    outer loop
      vertex 17.199 13.09 2.5
      vertex 17.5904 12.6975 2.5
      vertex 17.5785 12.7451 2.5
    endloop
  endfacet
  facet normal 0 0 1
    outer loop
      vertex 17.6 5.50001 2.5
      vertex 17.1975 5.00962 2.5
      vertex 17.5976 5.451 2.5
    endloop
  endfacet
  facet normal 0 0 1
    outer loop
      vertex 17.199 13.09 2.5
      vertex 17.5785 12.7451 2.5
      vertex 17.5619 12.7913 2.5
    endloop
  endfacet
  facet normal 0 0 1
    outer loop
      vertex 17.5976 5.451 2.5
      vertex 17.1975 5.00962 2.5
      vertex 17.5904 5.40246 2.5
    endloop
  endfacet
  facet normal 0 0 1
    outer loop
      vertex 17.199 13.09 2.5
      vertex 17.5619 12.7913 2.5
      vertex 17.541 12.8357 2.5
    endloop
  endfacet
  facet normal 0 0 1
    outer loop
      vertex 17.5904 5.40246 2.5
      vertex 17.1975 5.00962 2.5
      vertex 17.5785 5.35487 2.5
    endloop
  endfacet
  facet normal 0 0 1
    outer loop
      vertex 17.199 13.09 2.5
      vertex 17.541 12.8357 2.5
      vertex 17.5157 12.8778 2.5
    endloop
  endfacet
  facet normal 0 0 1
    outer loop
      vertex 17.5785 5.35487 2.5
      vertex 17.1975 5.00962 2.5
      vertex 17.5619 5.30867 2.5
    endloop
  endfacet
  facet normal 0 0 1
    outer loop
      vertex 17.199 13.09 2.5
      vertex 17.5157 12.8778 2.5
      vertex 17.4865 12.9172 2.5
    endloop
  endfacet
  facet normal 0 0 1
    outer loop
      vertex 17.5619 5.30867 2.5
      vertex 17.1975 5.00962 2.5
      vertex 17.541 5.26431 2.5
    endloop
  endfacet
  facet normal 0 0 1
    outer loop
      vertex 17.199 13.09 2.5
      vertex 17.4865 12.9172 2.5
      vertex 17.4535 12.9535 2.5
    endloop
  endfacet
  facet normal 0 0 1
    outer loop
      vertex 17.541 5.26431 2.5
      vertex 17.1975 5.00962 2.5
      vertex 17.5157 5.22223 2.5
    endloop
  endfacet
  facet normal 0 0 1
    outer loop
      vertex 17.199 13.09 2.5
      vertex 17.4535 12.9535 2.5
      vertex 17.4172 12.9865 2.5
    endloop
  endfacet
  facet normal 0 0 1
    outer loop
      vertex 17.5157 5.22223 2.5
      vertex 17.1975 5.00962 2.5
      vertex 17.4865 5.18281 2.5
    endloop
  endfacet
  facet normal 0 0 1
    outer loop
      vertex 17.199 13.09 2.5
      vertex 17.4172 12.9865 2.5
      vertex 17.3778 13.0157 2.5
    endloop
  endfacet
  facet normal 0 0 1
    outer loop
      vertex 17.4865 5.18281 2.5
      vertex 17.1975 5.00962 2.5
      vertex 17.4535 5.14647 2.5
    endloop
  endfacet
  facet normal 0 0 1
    outer loop
      vertex 17.199 13.09 2.5
      vertex 17.3778 13.0157 2.5
      vertex 17.3357 13.041 2.5
    endloop
  endfacet
  facet normal 0 0 1
    outer loop
      vertex 17.4535 5.14647 2.5
      vertex 17.1975 5.00962 2.5
      vertex 17.4172 5.11351 2.5
    endloop
  endfacet
  facet normal 0 0 1
    outer loop
      vertex 17.199 13.09 2.5
      vertex 17.3357 13.041 2.5
      vertex 17.2913 13.0619 2.5
    endloop
  endfacet
  facet normal 0 0 1
    outer loop
      vertex 17.4172 5.11351 2.5
      vertex 17.1975 5.00962 2.5
      vertex 17.3778 5.08427 2.5
    endloop
  endfacet
  facet normal 0 0 1
    outer loop
      vertex 17.199 13.09 2.5
      vertex 17.2913 13.0619 2.5
      vertex 17.2451 13.0785 2.5
    endloop
  endfacet
  facet normal 0 0 1
    outer loop
      vertex 17.3778 5.08427 2.5
      vertex 17.1975 5.00962 2.5
      vertex 17.3357 5.05905 2.5
    endloop
  endfacet
  facet normal 0 0 1
    outer loop
      vertex 17.3357 5.05905 2.5
      vertex 17.1975 5.00962 2.5
      vertex 17.2913 5.03807 2.5
    endloop
  endfacet
  facet normal 0 0 1
    outer loop
      vertex 17.2913 5.03807 2.5
      vertex 17.1975 5.00962 2.5
      vertex 17.2451 5.02154 2.5
    endloop
  endfacet
  facet normal 0 0 1
    outer loop
      vertex -17.6 12.6 2.5
      vertex -17.199 13.09 2.5
      vertex -17.2451 13.0785 2.5
    endloop
  endfacet
  facet normal 0 0 1
    outer loop
      vertex -17.1 5.00001 2.5
      vertex -17.6 5.50001 2.5
      vertex -17.149 5.00242 2.5
    endloop
  endfacet
  facet normal 0 0 1
    outer loop
      vertex -17.6 12.6 2.5
      vertex -17.2451 13.0785 2.5
      vertex -17.2913 13.0619 2.5
    endloop
  endfacet
  facet normal 0 0 1
    outer loop
      vertex -17.149 5.00242 2.5
      vertex -17.6 5.50001 2.5
      vertex -17.1975 5.00962 2.5
    endloop
  endfacet
  facet normal 0 0 1
    outer loop
      vertex -17.6 12.6 2.5
      vertex -17.2913 13.0619 2.5
      vertex -17.3357 13.041 2.5
    endloop
  endfacet
  facet normal 0 0 1
    outer loop
      vertex -17.1975 5.00962 2.5
      vertex -17.6 5.50001 2.5
      vertex -17.2451 5.02154 2.5
    endloop
  endfacet
  facet normal 0 0 1
    outer loop
      vertex -17.6 12.6 2.5
      vertex -17.3357 13.041 2.5
      vertex -17.3778 13.0157 2.5
    endloop
  endfacet
  facet normal 0 0 1
    outer loop
      vertex -17.2451 5.02154 2.5
      vertex -17.6 5.50001 2.5
      vertex -17.2913 5.03807 2.5
    endloop
  endfacet
  facet normal 0 0 1
    outer loop
      vertex -17.6 12.6 2.5
      vertex -17.3778 13.0157 2.5
      vertex -17.4172 12.9865 2.5
    endloop
  endfacet
  facet normal 0 0 1
    outer loop
      vertex -17.2913 5.03807 2.5
      vertex -17.6 5.50001 2.5
      vertex -17.3357 5.05905 2.5
    endloop
  endfacet
  facet normal 0 0 1
    outer loop
      vertex -17.6 12.6 2.5
      vertex -17.4172 12.9865 2.5
      vertex -17.4535 12.9535 2.5
    endloop
  endfacet
  facet normal 0 0 1
    outer loop
      vertex -17.3357 5.05905 2.5
      vertex -17.6 5.50001 2.5
      vertex -17.3778 5.08427 2.5
    endloop
  endfacet
  facet normal 0 0 1
    outer loop
      vertex -17.6 12.6 2.5
      vertex -17.4535 12.9535 2.5
      vertex -17.4865 12.9172 2.5
    endloop
  endfacet
  facet normal 0 0 1
    outer loop
      vertex -17.3778 5.08427 2.5
      vertex -17.6 5.50001 2.5
      vertex -17.4172 5.11351 2.5
    endloop
  endfacet
  facet normal 0 0 1
    outer loop
      vertex -17.6 12.6 2.5
      vertex -17.4865 12.9172 2.5
      vertex -17.5157 12.8778 2.5
    endloop
  endfacet
  facet normal 0 0 1
    outer loop
      vertex -17.4172 5.11351 2.5
      vertex -17.6 5.50001 2.5
      vertex -17.4535 5.14647 2.5
    endloop
  endfacet
  facet normal 0 0 1
    outer loop
      vertex -17.6 12.6 2.5
      vertex -17.5157 12.8778 2.5
      vertex -17.541 12.8357 2.5
    endloop
  endfacet
  facet normal 0 0 1
    outer loop
      vertex -17.4535 5.14647 2.5
      vertex -17.6 5.50001 2.5
      vertex -17.4865 5.18281 2.5
    endloop
  endfacet
  facet normal 0 0 1
    outer loop
      vertex -17.6 12.6 2.5
      vertex -17.541 12.8357 2.5
      vertex -17.5619 12.7913 2.5
    endloop
  endfacet
  facet normal 0 0 1
    outer loop
      vertex -17.4865 5.18281 2.5
      vertex -17.6 5.50001 2.5
      vertex -17.5157 5.22223 2.5
    endloop
  endfacet
  facet normal 0 0 1
    outer loop
      vertex -17.6 12.6 2.5
      vertex -17.5619 12.7913 2.5
      vertex -17.5785 12.7451 2.5
    endloop
  endfacet
  facet normal 0 0 1
    outer loop
      vertex -17.5157 5.22223 2.5
      vertex -17.6 5.50001 2.5
      vertex -17.541 5.26431 2.5
    endloop
  endfacet
  facet normal 0 0 1
    outer loop
      vertex -17.6 12.6 2.5
      vertex -17.5785 12.7451 2.5
      vertex -17.5904 12.6975 2.5
    endloop
  endfacet
  facet normal 0 0 1
    outer loop
      vertex -17.541 5.26431 2.5
      vertex -17.6 5.50001 2.5
      vertex -17.5619 5.30867 2.5
    endloop
  endfacet
  facet normal 0 0 1
    outer loop
      vertex -17.6 12.6 2.5
      vertex -17.5904 12.6975 2.5
      vertex -17.5976 12.649 2.5
    endloop
  endfacet
  facet normal 0 0 1
    outer loop
      vertex -17.5619 5.30867 2.5
      vertex -17.6 5.50001 2.5
      vertex -17.5785 5.35487 2.5
    endloop
  endfacet
  facet normal 0 0 1
    outer loop
      vertex -17.5785 5.35487 2.5
      vertex -17.6 5.50001 2.5
      vertex -17.5904 5.40246 2.5
    endloop
  endfacet
  facet normal 0 0 1
    outer loop
      vertex -17.5904 5.40246 2.5
      vertex -17.6 5.50001 2.5
      vertex -17.5976 5.451 2.5
    endloop
  endfacet
  facet normal -1 0 0
    outer loop
      vertex 17.6 13.09 2.5
      vertex 17.6 14.9 53.001
      vertex 17.6 14.9 2.5
    endloop
  endfacet
  facet normal -1 -0 0
    outer loop
      vertex 17.6 14.9 53.001
      vertex 17.6 13.09 2.5
      vertex 17.6 13.09 53.001
    endloop
  endfacet
  facet normal 0 0 -1
    outer loop
      vertex -17.1 13.1 53.001
      vertex -8.6 14.9 53.001
      vertex -8.6 13.1 53.001
    endloop
  endfacet
  facet normal 0 0 -1
    outer loop
      vertex -17.6 14.9 53.001
      vertex -17.1 13.1 53.001
      vertex -17.149 13.0976 53.001
    endloop
  endfacet
  facet normal 0 0 -1
    outer loop
      vertex -17.6 14.9 53.001
      vertex -17.149 13.0976 53.001
      vertex -17.1975 13.0904 53.001
    endloop
  endfacet
  facet normal 0 0 -1
    outer loop
      vertex -17.1 13.1 53.001
      vertex -17.6 14.9 53.001
      vertex -8.6 14.9 53.001
    endloop
  endfacet
  facet normal 0 0 -1
    outer loop
      vertex -17.6 13.09 53.001
      vertex -17.1975 13.0904 53.001
      vertex -17.199 13.09 53.001
    endloop
  endfacet
  facet normal -0 0 -1
    outer loop
      vertex -17.1975 13.0904 53.001
      vertex -17.6 13.09 53.001
      vertex -17.6 14.9 53.001
    endloop
  endfacet
  facet normal 0 0 -1
    outer loop
      vertex 17.1975 13.0904 53.001
      vertex 17.6 13.09 53.001
      vertex 17.199 13.09 53.001
    endloop
  endfacet
  facet normal 0 0 -1
    outer loop
      vertex 17.6 13.09 53.001
      vertex 17.1975 13.0904 53.001
      vertex 17.6 14.9 53.001
    endloop
  endfacet
  facet normal 0 0 -1
    outer loop
      vertex 17.149 13.0976 53.001
      vertex 17.6 14.9 53.001
      vertex 17.1975 13.0904 53.001
    endloop
  endfacet
  facet normal 0 0 -1
    outer loop
      vertex 17.1 13.1 53.001
      vertex 17.6 14.9 53.001
      vertex 17.149 13.0976 53.001
    endloop
  endfacet
  facet normal 0 0 -1
    outer loop
      vertex 8.6 14.9 53.001
      vertex 17.1 13.1 53.001
      vertex 8.6 13.1 53.001
    endloop
  endfacet
  facet normal 0 0 -1
    outer loop
      vertex 17.1 13.1 53.001
      vertex 8.6 14.9 53.001
      vertex 17.6 14.9 53.001
    endloop
  endfacet
  facet normal 1 -0 0
    outer loop
      vertex -17.6 13.09 53.001
      vertex -17.6 14.9 2.5
      vertex -17.6 14.9 53.001
    endloop
  endfacet
  facet normal 1 0 0
    outer loop
      vertex -17.6 14.9 2.5
      vertex -17.6 13.09 53.001
      vertex -17.6 13.09 2.5
    endloop
  endfacet
  facet normal 0 1 -0
    outer loop
      vertex -17.199 13.09 2.5
      vertex -17.6 13.09 53.001
      vertex -17.199 13.09 53.001
    endloop
  endfacet
  facet normal 0 1 0
    outer loop
      vertex -17.6 13.09 53.001
      vertex -17.199 13.09 2.5
      vertex -17.6 13.09 2.5
    endloop
  endfacet
  facet normal 0 1 -0
    outer loop
      vertex 17.6 13.09 2.5
      vertex 17.199 13.09 53.001
      vertex 17.6 13.09 53.001
    endloop
  endfacet
  facet normal 0 1 0
    outer loop
      vertex 17.199 13.09 53.001
      vertex 17.6 13.09 2.5
      vertex 17.199 13.09 2.5
    endloop
  endfacet
  facet normal -1 0 0
    outer loop
      vertex 8.6 13.1 53.001
      vertex 8.6 14.9 65
      vertex 8.6 14.9 53.001
    endloop
  endfacet
  facet normal -1 -0 0
    outer loop
      vertex 8.6 14.9 65
      vertex 8.6 13.1 53.001
      vertex 8.6 13.1 65
    endloop
  endfacet
  facet normal 1 -0 0
    outer loop
      vertex -8.6 13.1 65
      vertex -8.6 14.9 53.001
      vertex -8.6 14.9 65
    endloop
  endfacet
  facet normal 1 0 0
    outer loop
      vertex -8.6 14.9 53.001
      vertex -8.6 13.1 65
      vertex -8.6 13.1 53.001
    endloop
  endfacet
endsolid OpenSCAD_Model
