solid OpenSCAD_Model
  facet normal 1 -0 0
    outer loop
      vertex -38 2.5 0.5
      vertex -38 5 0
      vertex -38 5 0.5
    endloop
  endfacet
  facet normal 1 0 0
    outer loop
      vertex -38 5 0
      vertex -38 2.5 0.5
      vertex -38 2.5 0
    endloop
  endfacet
  facet normal 1 -0 0
    outer loop
      vertex -38 11 0.5
      vertex -38 17.5 0
      vertex -38 17.5 0.5
    endloop
  endfacet
  facet normal 1 0 0
    outer loop
      vertex -38 17.5 0
      vertex -38 11 0.5
      vertex -38 11 0
    endloop
  endfacet
  facet normal 0 -1 0
    outer loop
      vertex -42 2.5 0
      vertex -38 2.5 0.5
      vertex -42 2.5 0.5
    endloop
  endfacet
  facet normal 0 -1 -0
    outer loop
      vertex -38 2.5 0.5
      vertex -42 2.5 0
      vertex -38 2.5 0
    endloop
  endfacet
  facet normal 0 1 -0
    outer loop
      vertex -38 17.5 0
      vertex -42 17.5 0.5
      vertex -38 17.5 0.5
    endloop
  endfacet
  facet normal 0 1 0
    outer loop
      vertex -42 17.5 0.5
      vertex -38 17.5 0
      vertex -42 17.5 0
    endloop
  endfacet
  facet normal -1 0 0
    outer loop
      vertex -42 17.5 0
      vertex -42 7.5 0.5
      vertex -42 17.5 0.5
    endloop
  endfacet
  facet normal -1 0 0
    outer loop
      vertex -42 2.5 0
      vertex -42 7.5 0.5
      vertex -42 17.5 0
    endloop
  endfacet
  facet normal -1 -0 0
    outer loop
      vertex -42 7.5 0.5
      vertex -42 2.5 0
      vertex -42 2.5 0.5
    endloop
  endfacet
  facet normal 0 0 1
    outer loop
      vertex -38 17.5 0.5
      vertex -42 17.5 0.5
      vertex -38 11 0.5
    endloop
  endfacet
  facet normal 0 0 1
    outer loop
      vertex -18 -2.5 0.5
      vertex -22 -2.5 0.5
      vertex -18 -5 0.5
    endloop
  endfacet
  facet normal 0 0 1
    outer loop
      vertex 2 17.5 0.5
      vertex -2 17.5 0.5
      vertex 2 11 0.5
    endloop
  endfacet
  facet normal 0 0 1
    outer loop
      vertex 22 -2.5 0.5
      vertex 18 -2.5 0.5
      vertex 22 -5 0.5
    endloop
  endfacet
  facet normal 0 0 1
    outer loop
      vertex 42 17.5 0.5
      vertex 38 17.5 0.5
      vertex 42 11 0.5
    endloop
  endfacet
  facet normal -0 0 1
    outer loop
      vertex 22.3 -12.501 0.5
      vertex 38 -25 0.5
      vertex 23 -10 0.5
    endloop
  endfacet
  facet normal 0 0 1
    outer loop
      vertex 22.3 -12.501 0.5
      vertex 23 -10 0.5
      vertex 22.3 -12.5 0.5
    endloop
  endfacet
  facet normal 0 0 1
    outer loop
      vertex 38 -25 0.5
      vertex 22.3 -12.501 0.5
      vertex 22.1416 -15.1416 0.5
    endloop
  endfacet
  facet normal 0 0 1
    outer loop
      vertex 38 -25 0.5
      vertex 22.1416 -15.1416 0.5
      vertex 38 -31 0.5
    endloop
  endfacet
  facet normal 0 0 1
    outer loop
      vertex 38 -25 0.5
      vertex 42 -25 0.5
      vertex 42 -22.5 0.5
    endloop
  endfacet
  facet normal 0 0 1
    outer loop
      vertex 42 -25 0.5
      vertex 38 -25 0.5
      vertex 42 -31 0.5
    endloop
  endfacet
  facet normal 0 0 1
    outer loop
      vertex 38 -25 0.5
      vertex 42 -22.5 0.5
      vertex 38 -22.5 0.5
    endloop
  endfacet
  facet normal 0 0 1
    outer loop
      vertex 38 -31 0.5
      vertex 42 -31 0.5
      vertex 38 -25 0.5
    endloop
  endfacet
  facet normal 0 0 1
    outer loop
      vertex 42 -31 0.5
      vertex 38 -31 0.5
      vertex 42 -32.5 0.5
    endloop
  endfacet
  facet normal 0 0 1
    outer loop
      vertex 42 -32.5 0.5
      vertex 38 -31 0.5
      vertex 38 -32.5 0.5
    endloop
  endfacet
  facet normal 0 0 1
    outer loop
      vertex 22 -5 0.5
      vertex 37.8584 4.85843 0.5
      vertex 37.7 7.499 0.5
    endloop
  endfacet
  facet normal 0 0 1
    outer loop
      vertex 58 -5 0.5
      vertex 62 -2.5 0.5
      vertex 58 -2.5 0.5
    endloop
  endfacet
  facet normal 0 0 1
    outer loop
      vertex 62 -2.5 0.5
      vertex 58 -5 0.5
      vertex 62 -12.5 0.5
    endloop
  endfacet
  facet normal -0 0 1
    outer loop
      vertex 57 -10 0.5
      vertex 62 -12.5 0.5
      vertex 58 -5 0.5
    endloop
  endfacet
  facet normal 0 0 1
    outer loop
      vertex 57.7 -12.5 0.5
      vertex 57 -10 0.5
      vertex 57.7 -12.501 0.5
    endloop
  endfacet
  facet normal 0 0 1
    outer loop
      vertex 62 -12.5 0.5
      vertex 57 -10 0.5
      vertex 57.7 -12.5 0.5
    endloop
  endfacet
  facet normal -0 0 1
    outer loop
      vertex 42.3 7.499 0.5
      vertex 58 -5 0.5
      vertex 42.3 7.5 0.5
    endloop
  endfacet
  facet normal 0 0 1
    outer loop
      vertex 42 11 0.5
      vertex 42.3 7.5 0.5
      vertex 58 -5 0.5
    endloop
  endfacet
  facet normal 0 0 1
    outer loop
      vertex 38 11 0.5
      vertex 42 11 0.5
      vertex 38 17.5 0.5
    endloop
  endfacet
  facet normal 0 0 1
    outer loop
      vertex 42 11 0.5
      vertex 38 11 0.5
      vertex 42.3 7.5 0.5
    endloop
  endfacet
  facet normal 0 0 1
    outer loop
      vertex 38 11 0.5
      vertex 37.7 7.5 0.5
      vertex 42.3 7.5 0.5
    endloop
  endfacet
  facet normal 0 0 1
    outer loop
      vertex 22 -5 0.5
      vertex 37.7 7.499 0.5
      vertex 37.7 7.5 0.5
    endloop
  endfacet
  facet normal 0 0 1
    outer loop
      vertex 22 -5 0.5
      vertex 37.7 7.5 0.5
      vertex 38 11 0.5
    endloop
  endfacet
  facet normal 0 0 1
    outer loop
      vertex 37.8584 4.85843 0.5
      vertex 22 -5 0.5
      vertex 23 -10 0.5
    endloop
  endfacet
  facet normal 0 0 1
    outer loop
      vertex 17 -10 0.5
      vertex 23 -10 0.5
      vertex 22 -5 0.5
    endloop
  endfacet
  facet normal 0 0 1
    outer loop
      vertex 18 -5 0.5
      vertex 22 -5 0.5
      vertex 18 -2.5 0.5
    endloop
  endfacet
  facet normal 0 0 1
    outer loop
      vertex 17 -10 0.5
      vertex 22 -5 0.5
      vertex 18 -5 0.5
    endloop
  endfacet
  facet normal 0 0 1
    outer loop
      vertex 23 -10 0.5
      vertex 17 -10 0.5
      vertex 22.3 -12.5 0.5
    endloop
  endfacet
  facet normal 0 0 1
    outer loop
      vertex 17.7 -12.5 0.5
      vertex 17 -10 0.5
      vertex 17.7 -12.501 0.5
    endloop
  endfacet
  facet normal 0 0 1
    outer loop
      vertex 22.3 -12.5 0.5
      vertex 17 -10 0.5
      vertex 17.7 -12.5 0.5
    endloop
  endfacet
  facet normal -0 0 1
    outer loop
      vertex 2.3 7.499 0.5
      vertex 18 -5 0.5
      vertex 2.3 7.5 0.5
    endloop
  endfacet
  facet normal 0 0 1
    outer loop
      vertex 2 11 0.5
      vertex 2.3 7.5 0.5
      vertex 18 -5 0.5
    endloop
  endfacet
  facet normal 0 0 1
    outer loop
      vertex -2 11 0.5
      vertex 2 11 0.5
      vertex -2 17.5 0.5
    endloop
  endfacet
  facet normal 0 0 1
    outer loop
      vertex 2 11 0.5
      vertex -2 11 0.5
      vertex 2.3 7.5 0.5
    endloop
  endfacet
  facet normal 0 0 1
    outer loop
      vertex -2 11 0.5
      vertex -2.3 7.5 0.5
      vertex 2.3 7.5 0.5
    endloop
  endfacet
  facet normal 0 0 1
    outer loop
      vertex -18 -5 0.5
      vertex -2.3 7.499 0.5
      vertex -2.3 7.5 0.5
    endloop
  endfacet
  facet normal 0 0 1
    outer loop
      vertex -18 -5 0.5
      vertex -2.3 7.5 0.5
      vertex -2 11 0.5
    endloop
  endfacet
  facet normal 0 0 1
    outer loop
      vertex -2.3 7.499 0.5
      vertex -18 -5 0.5
      vertex -17 -10 0.5
    endloop
  endfacet
  facet normal 0 0 1
    outer loop
      vertex -23 -10 0.5
      vertex -17 -10 0.5
      vertex -18 -5 0.5
    endloop
  endfacet
  facet normal 0 0 1
    outer loop
      vertex -22 -5 0.5
      vertex -18 -5 0.5
      vertex -22 -2.5 0.5
    endloop
  endfacet
  facet normal 0 0 1
    outer loop
      vertex -23 -10 0.5
      vertex -18 -5 0.5
      vertex -22 -5 0.5
    endloop
  endfacet
  facet normal 0 0 1
    outer loop
      vertex -17 -10 0.5
      vertex -23 -10 0.5
      vertex -17.7 -12.5 0.5
    endloop
  endfacet
  facet normal 0 0 1
    outer loop
      vertex -22.3 -12.5 0.5
      vertex -23 -10 0.5
      vertex -22.3 -12.501 0.5
    endloop
  endfacet
  facet normal 0 0 1
    outer loop
      vertex -17.7 -12.5 0.5
      vertex -23 -10 0.5
      vertex -22.3 -12.5 0.5
    endloop
  endfacet
  facet normal -0 0 1
    outer loop
      vertex -37.7 7.499 0.5
      vertex -22 -5 0.5
      vertex -37.7 7.5 0.5
    endloop
  endfacet
  facet normal 0 0 1
    outer loop
      vertex -38 11 0.5
      vertex -37.7 7.5 0.5
      vertex -22 -5 0.5
    endloop
  endfacet
  facet normal 0 0 1
    outer loop
      vertex -42 7.5 0.5
      vertex -38 11 0.5
      vertex -42 17.5 0.5
    endloop
  endfacet
  facet normal 0 0 1
    outer loop
      vertex -38 11 0.5
      vertex -42 7.5 0.5
      vertex -37.7 7.5 0.5
    endloop
  endfacet
  facet normal 0 0 1
    outer loop
      vertex 42 -25 0.5
      vertex 57.7 -12.501 0.5
      vertex 57 -10 0.5
    endloop
  endfacet
  facet normal 0 0 1
    outer loop
      vertex 57.7 -12.501 0.5
      vertex 42 -25 0.5
      vertex 57.8584 -15.1416 0.5
    endloop
  endfacet
  facet normal 0 0 1
    outer loop
      vertex 57.8584 -15.1416 0.5
      vertex 42 -25 0.5
      vertex 42 -31 0.5
    endloop
  endfacet
  facet normal -0 0 1
    outer loop
      vertex 42.1416 4.85843 0.5
      vertex 58 -5 0.5
      vertex 42.3 7.499 0.5
    endloop
  endfacet
  facet normal 0 0 1
    outer loop
      vertex 58 -5 0.5
      vertex 42.1416 4.85843 0.5
      vertex 57 -10 0.5
    endloop
  endfacet
  facet normal -0 0 1
    outer loop
      vertex -17.7 -12.501 0.5
      vertex -2 -25 0.5
      vertex -17 -10 0.5
    endloop
  endfacet
  facet normal 0 0 1
    outer loop
      vertex -17.7 -12.501 0.5
      vertex -17 -10 0.5
      vertex -17.7 -12.5 0.5
    endloop
  endfacet
  facet normal 0 0 1
    outer loop
      vertex -2 -25 0.5
      vertex -17.7 -12.501 0.5
      vertex -17.8584 -15.1416 0.5
    endloop
  endfacet
  facet normal 0 0 1
    outer loop
      vertex -2 -25 0.5
      vertex -17.8584 -15.1416 0.5
      vertex -2 -31 0.5
    endloop
  endfacet
  facet normal 0 0 1
    outer loop
      vertex -2 -25 0.5
      vertex 2 -25 0.5
      vertex 2 -22.5 0.5
    endloop
  endfacet
  facet normal 0 0 1
    outer loop
      vertex 2 -25 0.5
      vertex -2 -25 0.5
      vertex 2 -31 0.5
    endloop
  endfacet
  facet normal 0 0 1
    outer loop
      vertex -2 -25 0.5
      vertex 2 -22.5 0.5
      vertex -2 -22.5 0.5
    endloop
  endfacet
  facet normal 0 0 1
    outer loop
      vertex -2 -31 0.5
      vertex 2 -31 0.5
      vertex -2 -25 0.5
    endloop
  endfacet
  facet normal 0 0 1
    outer loop
      vertex 2 -31 0.5
      vertex -2 -31 0.5
      vertex 2 -32.5 0.5
    endloop
  endfacet
  facet normal 0 0 1
    outer loop
      vertex 2 -32.5 0.5
      vertex -2 -31 0.5
      vertex -2 -32.5 0.5
    endloop
  endfacet
  facet normal 0 0 1
    outer loop
      vertex -2.14157 4.85843 0.5
      vertex -2.3 7.499 0.5
      vertex -17 -10 0.5
    endloop
  endfacet
  facet normal 0 0 1
    outer loop
      vertex 2 -25 0.5
      vertex 17.7 -12.501 0.5
      vertex 17 -10 0.5
    endloop
  endfacet
  facet normal 0 0 1
    outer loop
      vertex 17.7 -12.501 0.5
      vertex 2 -25 0.5
      vertex 17.8584 -15.1416 0.5
    endloop
  endfacet
  facet normal 0 0 1
    outer loop
      vertex 17.8584 -15.1416 0.5
      vertex 2 -25 0.5
      vertex 2 -31 0.5
    endloop
  endfacet
  facet normal -0 0 1
    outer loop
      vertex 2.14157 4.85843 0.5
      vertex 18 -5 0.5
      vertex 2.3 7.499 0.5
    endloop
  endfacet
  facet normal 0 0 1
    outer loop
      vertex 18 -5 0.5
      vertex 2.14157 4.85843 0.5
      vertex 17 -10 0.5
    endloop
  endfacet
  facet normal 0 0 1
    outer loop
      vertex -38 -25 0.5
      vertex -22.3 -12.501 0.5
      vertex -23 -10 0.5
    endloop
  endfacet
  facet normal 0 0 1
    outer loop
      vertex -22.3 -12.501 0.5
      vertex -38 -25 0.5
      vertex -22.1416 -15.1416 0.5
    endloop
  endfacet
  facet normal 0 0 1
    outer loop
      vertex -22.1416 -15.1416 0.5
      vertex -38 -25 0.5
      vertex -38 -31 0.5
    endloop
  endfacet
  facet normal -0 0 1
    outer loop
      vertex -37.8584 4.85843 0.5
      vertex -22 -5 0.5
      vertex -37.7 7.499 0.5
    endloop
  endfacet
  facet normal 0 0 1
    outer loop
      vertex -22 -5 0.5
      vertex -37.8584 4.85843 0.5
      vertex -23 -10 0.5
    endloop
  endfacet
  facet normal -0 0 1
    outer loop
      vertex -42 -22.5 0.5
      vertex -38 -25 0.5
      vertex -38 -22.5 0.5
    endloop
  endfacet
  facet normal 0 0 1
    outer loop
      vertex -42 -32.5 0.5
      vertex -38 -25 0.5
      vertex -42 -22.5 0.5
    endloop
  endfacet
  facet normal 0 0 1
    outer loop
      vertex -38 -25 0.5
      vertex -42 -32.5 0.5
      vertex -38 -31 0.5
    endloop
  endfacet
  facet normal 0 0 1
    outer loop
      vertex -38 -31 0.5
      vertex -42 -32.5 0.5
      vertex -38 -32.5 0.5
    endloop
  endfacet
  facet normal 0 0 -1
    outer loop
      vertex -22 -17.501 0.5
      vertex -18 -17.5 0.5
      vertex -18 -17.501 0.5
    endloop
  endfacet
  facet normal 0 0 -1
    outer loop
      vertex -22 -17.501 0.5
      vertex -22 -17.5 0.5
      vertex -18 -17.5 0.5
    endloop
  endfacet
  facet normal 0 0 -1
    outer loop
      vertex -22.1416 -15.1416 0.5
      vertex -22 -17.5 0.5
      vertex -22 -17.501 0.5
    endloop
  endfacet
  facet normal 0 0 -1
    outer loop
      vertex -22 -17.5 0.5
      vertex -22.1416 -15.1416 0.5
      vertex -22 -15 0.5
    endloop
  endfacet
  facet normal 0 0 -1
    outer loop
      vertex -18 -17.5 0.5
      vertex -17.8584 -15.1416 0.5
      vertex -18 -17.501 0.5
    endloop
  endfacet
  facet normal -0 0 -1
    outer loop
      vertex -17.8584 -15.1416 0.5
      vertex -18 -17.5 0.5
      vertex -18 -15 0.5
    endloop
  endfacet
  facet normal 0 0 -1
    outer loop
      vertex 18 -17.501 0.5
      vertex 22 -17.5 0.5
      vertex 22 -17.501 0.5
    endloop
  endfacet
  facet normal 0 0 -1
    outer loop
      vertex 18 -17.501 0.5
      vertex 18 -17.5 0.5
      vertex 22 -17.5 0.5
    endloop
  endfacet
  facet normal 0 0 -1
    outer loop
      vertex 17.8584 -15.1416 0.5
      vertex 18 -17.5 0.5
      vertex 18 -17.501 0.5
    endloop
  endfacet
  facet normal 0 0 -1
    outer loop
      vertex 18 -17.5 0.5
      vertex 17.8584 -15.1416 0.5
      vertex 18 -15 0.5
    endloop
  endfacet
  facet normal 0 0 -1
    outer loop
      vertex 22 -17.5 0.5
      vertex 22.1416 -15.1416 0.5
      vertex 22 -17.501 0.5
    endloop
  endfacet
  facet normal -0 0 -1
    outer loop
      vertex 22.1416 -15.1416 0.5
      vertex 22 -17.5 0.5
      vertex 22 -15 0.5
    endloop
  endfacet
  facet normal 0 0 -1
    outer loop
      vertex 38 2.499 0.5
      vertex 42 2.5 0.5
      vertex 42 2.499 0.5
    endloop
  endfacet
  facet normal 0 0 -1
    outer loop
      vertex 38 2.499 0.5
      vertex 38 2.5 0.5
      vertex 42 2.5 0.5
    endloop
  endfacet
  facet normal 0 0 -1
    outer loop
      vertex 37.8584 4.85843 0.5
      vertex 38 2.5 0.5
      vertex 38 2.499 0.5
    endloop
  endfacet
  facet normal 0 0 -1
    outer loop
      vertex 38 2.5 0.5
      vertex 37.8584 4.85843 0.5
      vertex 38 5 0.5
    endloop
  endfacet
  facet normal 0 0 -1
    outer loop
      vertex 42 2.5 0.5
      vertex 42.1416 4.85843 0.5
      vertex 42 2.499 0.5
    endloop
  endfacet
  facet normal -0 0 -1
    outer loop
      vertex 42.1416 4.85843 0.5
      vertex 42 2.5 0.5
      vertex 42 5 0.5
    endloop
  endfacet
  facet normal 0 0 -1
    outer loop
      vertex 38 -37.501 0.5
      vertex 42 -37.5 0.5
      vertex 42 -37.501 0.5
    endloop
  endfacet
  facet normal 0 0 -1
    outer loop
      vertex 38 -37.501 0.5
      vertex 38 -37.5 0.5
      vertex 42 -37.5 0.5
    endloop
  endfacet
  facet normal 0 0 -1
    outer loop
      vertex 37.7 -32.501 0.5
      vertex 38 -37.5 0.5
      vertex 38 -37.501 0.5
    endloop
  endfacet
  facet normal 0 0 -1
    outer loop
      vertex 38 -37.5 0.5
      vertex 37.7 -32.501 0.5
      vertex 38 -32.5 0.5
    endloop
  endfacet
  facet normal -0 0 -1
    outer loop
      vertex 38 -32.5 0.5
      vertex 37.7 -32.501 0.5
      vertex 37.7 -32.5 0.5
    endloop
  endfacet
  facet normal 0 0 -1
    outer loop
      vertex 42 -37.5 0.5
      vertex 42.3 -32.501 0.5
      vertex 42 -37.501 0.5
    endloop
  endfacet
  facet normal 0 0 -1
    outer loop
      vertex 42 -32.5 0.5
      vertex 42.3 -32.501 0.5
      vertex 42 -37.5 0.5
    endloop
  endfacet
  facet normal 0 0 -1
    outer loop
      vertex 42.3 -32.501 0.5
      vertex 42 -32.5 0.5
      vertex 42.3 -32.5 0.5
    endloop
  endfacet
  facet normal 0 0 -1
    outer loop
      vertex 58 -17.501 0.5
      vertex 62 -17.5 0.5
      vertex 62 -17.501 0.5
    endloop
  endfacet
  facet normal 0 0 -1
    outer loop
      vertex 58 -17.501 0.5
      vertex 58 -17.5 0.5
      vertex 62 -17.5 0.5
    endloop
  endfacet
  facet normal 0 0 -1
    outer loop
      vertex 57.8584 -15.1416 0.5
      vertex 58 -17.5 0.5
      vertex 58 -17.501 0.5
    endloop
  endfacet
  facet normal 0 0 -1
    outer loop
      vertex 58 -17.5 0.5
      vertex 57.8584 -15.1416 0.5
      vertex 58 -15 0.5
    endloop
  endfacet
  facet normal 0 0 -1
    outer loop
      vertex 62 -17.5 0.5
      vertex 62.3 -12.501 0.5
      vertex 62 -17.501 0.5
    endloop
  endfacet
  facet normal 0 0 -1
    outer loop
      vertex 62 -12.5 0.5
      vertex 62.3 -12.501 0.5
      vertex 62 -17.5 0.5
    endloop
  endfacet
  facet normal 0 0 -1
    outer loop
      vertex 62.3 -12.501 0.5
      vertex 62 -12.5 0.5
      vertex 62.3 -12.5 0.5
    endloop
  endfacet
  facet normal 0 0 -1
    outer loop
      vertex 2 -32.5 0.5
      vertex 2.3 -32.501 0.5
      vertex 2 -37.5 0.5
    endloop
  endfacet
  facet normal 0 0 -1
    outer loop
      vertex 2 -37.501 0.5
      vertex 2 -37.5 0.5
      vertex 2.3 -32.501 0.5
    endloop
  endfacet
  facet normal 0 0 -1
    outer loop
      vertex -2 -37.501 0.5
      vertex 2 -37.5 0.5
      vertex 2 -37.501 0.5
    endloop
  endfacet
  facet normal 0 0 -1
    outer loop
      vertex -2 -37.501 0.5
      vertex -2 -37.5 0.5
      vertex 2 -37.5 0.5
    endloop
  endfacet
  facet normal 0 0 -1
    outer loop
      vertex -2.3 -32.501 0.5
      vertex -2 -37.5 0.5
      vertex -2 -37.501 0.5
    endloop
  endfacet
  facet normal 0 0 -1
    outer loop
      vertex -2.3 -32.501 0.5
      vertex -2 -32.5 0.5
      vertex -2 -37.5 0.5
    endloop
  endfacet
  facet normal -0 0 -1
    outer loop
      vertex -2 -32.5 0.5
      vertex -2.3 -32.501 0.5
      vertex -2.3 -32.5 0.5
    endloop
  endfacet
  facet normal 0 0 -1
    outer loop
      vertex 2.3 -32.501 0.5
      vertex 2 -32.5 0.5
      vertex 2.3 -32.5 0.5
    endloop
  endfacet
  facet normal 0 0 -1
    outer loop
      vertex 2 2.499 0.5
      vertex 2 2.5 0.5
      vertex 2.14157 4.85843 0.5
    endloop
  endfacet
  facet normal 0 0 -1
    outer loop
      vertex -2 2.499 0.5
      vertex 2 2.5 0.5
      vertex 2 2.499 0.5
    endloop
  endfacet
  facet normal 0 0 -1
    outer loop
      vertex -2 2.499 0.5
      vertex -2 2.5 0.5
      vertex 2 2.5 0.5
    endloop
  endfacet
  facet normal 0 0 -1
    outer loop
      vertex -2 2.5 0.5
      vertex -2.14157 4.85843 0.5
      vertex -2 5 0.5
    endloop
  endfacet
  facet normal 0 0 -1
    outer loop
      vertex -2.14157 4.85843 0.5
      vertex -2 2.5 0.5
      vertex -2 2.499 0.5
    endloop
  endfacet
  facet normal -0 0 -1
    outer loop
      vertex 2.14157 4.85843 0.5
      vertex 2 2.5 0.5
      vertex 2 5 0.5
    endloop
  endfacet
  facet normal 0 0 -1
    outer loop
      vertex -42 2.499 0.5
      vertex -38 2.5 0.5
      vertex -38 2.499 0.5
    endloop
  endfacet
  facet normal 0 0 -1
    outer loop
      vertex -42 2.499 0.5
      vertex -42 2.5 0.5
      vertex -38 2.5 0.5
    endloop
  endfacet
  facet normal 0 0 -1
    outer loop
      vertex -42.3 7.499 0.5
      vertex -42 2.5 0.5
      vertex -42 2.499 0.5
    endloop
  endfacet
  facet normal 0 0 -1
    outer loop
      vertex -42 2.5 0.5
      vertex -42.3 7.499 0.5
      vertex -42 7.5 0.5
    endloop
  endfacet
  facet normal -0 0 -1
    outer loop
      vertex -42 7.5 0.5
      vertex -42.3 7.499 0.5
      vertex -42.3 7.5 0.5
    endloop
  endfacet
  facet normal 0 0 -1
    outer loop
      vertex -38 2.5 0.5
      vertex -37.8584 4.85843 0.5
      vertex -38 2.499 0.5
    endloop
  endfacet
  facet normal -0 0 -1
    outer loop
      vertex -37.8584 4.85843 0.5
      vertex -38 2.5 0.5
      vertex -38 5 0.5
    endloop
  endfacet
  facet normal 0 0 -1
    outer loop
      vertex -42 -37.501 0.5
      vertex -38 -37.5 0.5
      vertex -38 -37.501 0.5
    endloop
  endfacet
  facet normal 0 0 -1
    outer loop
      vertex -42 -37.501 0.5
      vertex -42 -37.5 0.5
      vertex -38 -37.5 0.5
    endloop
  endfacet
  facet normal 0 0 -1
    outer loop
      vertex -42.3 -32.501 0.5
      vertex -42 -37.5 0.5
      vertex -42 -37.501 0.5
    endloop
  endfacet
  facet normal 0 0 -1
    outer loop
      vertex -42 -37.5 0.5
      vertex -42.3 -32.501 0.5
      vertex -42 -32.5 0.5
    endloop
  endfacet
  facet normal -0 0 -1
    outer loop
      vertex -42 -32.5 0.5
      vertex -42.3 -32.501 0.5
      vertex -42.3 -32.5 0.5
    endloop
  endfacet
  facet normal 0 0 -1
    outer loop
      vertex -38 -37.5 0.5
      vertex -37.7 -32.501 0.5
      vertex -38 -37.501 0.5
    endloop
  endfacet
  facet normal 0 0 -1
    outer loop
      vertex -38 -32.5 0.5
      vertex -37.7 -32.501 0.5
      vertex -38 -37.5 0.5
    endloop
  endfacet
  facet normal 0 0 -1
    outer loop
      vertex -37.7 -32.501 0.5
      vertex -38 -32.5 0.5
      vertex -37.7 -32.5 0.5
    endloop
  endfacet
  facet normal 0 0 -1
    outer loop
      vertex -42 2.5 0
      vertex -38 5 0
      vertex -38 2.5 0
    endloop
  endfacet
  facet normal -0 0 -1
    outer loop
      vertex -38 5 0
      vertex -42 2.5 0
      vertex -38 11 0
    endloop
  endfacet
  facet normal 0 0 -1
    outer loop
      vertex -42 17.5 0
      vertex -38 11 0
      vertex -42 2.5 0
    endloop
  endfacet
  facet normal 0 0 -1
    outer loop
      vertex -38 11 0
      vertex -42 17.5 0
      vertex -38 17.5 0
    endloop
  endfacet
  facet normal 0 0 -1
    outer loop
      vertex -42 -37.5 0
      vertex -38 -31 0
      vertex -38 -37.5 0
    endloop
  endfacet
  facet normal 0 0 -1
    outer loop
      vertex -42 -22.5 0
      vertex -38 -31 0
      vertex -42 -37.5 0
    endloop
  endfacet
  facet normal 0 0 -1
    outer loop
      vertex -38 -31 0
      vertex -42 -22.5 0
      vertex -38 -25 0
    endloop
  endfacet
  facet normal 0 0 -1
    outer loop
      vertex -38 -25 0
      vertex -42 -22.5 0
      vertex -38 -22.5 0
    endloop
  endfacet
  facet normal -0 0 -1
    outer loop
      vertex -18 -5 0
      vertex -23 -10 0
      vertex -22 -5 0
    endloop
  endfacet
  facet normal 0 0 -1
    outer loop
      vertex -38 -25 0
      vertex -22 -15 0
      vertex -38 -31 0
    endloop
  endfacet
  facet normal -0 0 -1
    outer loop
      vertex -22 -15 0
      vertex -38 -25 0
      vertex -23 -10 0
    endloop
  endfacet
  facet normal 0 0 -1
    outer loop
      vertex -22 -15 0
      vertex -18 -15 0
      vertex -18 -17.5 0
    endloop
  endfacet
  facet normal 0 0 -1
    outer loop
      vertex -23 -10 0
      vertex -18 -15 0
      vertex -22 -15 0
    endloop
  endfacet
  facet normal 0 0 -1
    outer loop
      vertex -22 -15 0
      vertex -18 -17.5 0
      vertex -22 -17.5 0
    endloop
  endfacet
  facet normal 0 0 -1
    outer loop
      vertex -17 -10 0
      vertex -23 -10 0
      vertex -18 -5 0
    endloop
  endfacet
  facet normal 0 0 -1
    outer loop
      vertex -18 -5 0
      vertex -22 -5 0
      vertex -18 -2.5 0
    endloop
  endfacet
  facet normal -0 0 -1
    outer loop
      vertex -18 -2.5 0
      vertex -22 -5 0
      vertex -22 -2.5 0
    endloop
  endfacet
  facet normal 0 0 -1
    outer loop
      vertex -38 5 0
      vertex -22 -5 0
      vertex -23 -10 0
    endloop
  endfacet
  facet normal 0 0 -1
    outer loop
      vertex -22 -5 0
      vertex -38 5 0
      vertex -38 11 0
    endloop
  endfacet
  facet normal 0 0 -1
    outer loop
      vertex -18 -5 0
      vertex -2 5 0
      vertex -17 -10 0
    endloop
  endfacet
  facet normal -0 0 -1
    outer loop
      vertex -2 5 0
      vertex -18 -5 0
      vertex -2 11 0
    endloop
  endfacet
  facet normal 0 0 -1
    outer loop
      vertex -23 -10 0
      vertex -17 -10 0
      vertex -18 -15 0
    endloop
  endfacet
  facet normal 0 0 -1
    outer loop
      vertex -18 -15 0
      vertex -2 -25 0
      vertex -2 -31 0
    endloop
  endfacet
  facet normal 0 0 -1
    outer loop
      vertex -2 -25 0
      vertex -18 -15 0
      vertex -17 -10 0
    endloop
  endfacet
  facet normal 0 0 -1
    outer loop
      vertex -2 5 0
      vertex 2 5 0
      vertex 2 2.5 0
    endloop
  endfacet
  facet normal 0 0 -1
    outer loop
      vertex 2 5 0
      vertex -2 5 0
      vertex 2 11 0
    endloop
  endfacet
  facet normal 0 0 -1
    outer loop
      vertex -2 5 0
      vertex 2 2.5 0
      vertex -2 2.5 0
    endloop
  endfacet
  facet normal -0 0 -1
    outer loop
      vertex 2 11 0
      vertex -2 5 0
      vertex -2 11 0
    endloop
  endfacet
  facet normal 0 0 -1
    outer loop
      vertex 2 11 0
      vertex -2 11 0
      vertex 2 17.5 0
    endloop
  endfacet
  facet normal -0 0 -1
    outer loop
      vertex 2 17.5 0
      vertex -2 11 0
      vertex -2 17.5 0
    endloop
  endfacet
  facet normal 0 0 -1
    outer loop
      vertex -2 -31 0
      vertex 2 -31 0
      vertex 2 -37.5 0
    endloop
  endfacet
  facet normal 0 0 -1
    outer loop
      vertex 2 -31 0
      vertex -2 -31 0
      vertex 2 -25 0
    endloop
  endfacet
  facet normal 0 0 -1
    outer loop
      vertex -2 -31 0
      vertex 2 -37.5 0
      vertex -2 -37.5 0
    endloop
  endfacet
  facet normal 0 0 -1
    outer loop
      vertex -2 -25 0
      vertex 2 -25 0
      vertex -2 -31 0
    endloop
  endfacet
  facet normal 0 0 -1
    outer loop
      vertex 2 -25 0
      vertex -2 -25 0
      vertex 2 -22.5 0
    endloop
  endfacet
  facet normal -0 0 -1
    outer loop
      vertex 2 -22.5 0
      vertex -2 -25 0
      vertex -2 -22.5 0
    endloop
  endfacet
  facet normal -0 0 -1
    outer loop
      vertex 22 -5 0
      vertex 17 -10 0
      vertex 18 -5 0
    endloop
  endfacet
  facet normal 0 0 -1
    outer loop
      vertex 2 -25 0
      vertex 18 -15 0
      vertex 2 -31 0
    endloop
  endfacet
  facet normal -0 0 -1
    outer loop
      vertex 18 -15 0
      vertex 2 -25 0
      vertex 17 -10 0
    endloop
  endfacet
  facet normal 0 0 -1
    outer loop
      vertex 18 -15 0
      vertex 22 -15 0
      vertex 22 -17.5 0
    endloop
  endfacet
  facet normal 0 0 -1
    outer loop
      vertex 17 -10 0
      vertex 22 -15 0
      vertex 18 -15 0
    endloop
  endfacet
  facet normal 0 0 -1
    outer loop
      vertex 18 -15 0
      vertex 22 -17.5 0
      vertex 18 -17.5 0
    endloop
  endfacet
  facet normal 0 0 -1
    outer loop
      vertex 23 -10 0
      vertex 17 -10 0
      vertex 22 -5 0
    endloop
  endfacet
  facet normal 0 0 -1
    outer loop
      vertex 22 -5 0
      vertex 18 -5 0
      vertex 22 -2.5 0
    endloop
  endfacet
  facet normal -0 0 -1
    outer loop
      vertex 22 -2.5 0
      vertex 18 -5 0
      vertex 18 -2.5 0
    endloop
  endfacet
  facet normal 0 0 -1
    outer loop
      vertex 2 5 0
      vertex 18 -5 0
      vertex 17 -10 0
    endloop
  endfacet
  facet normal 0 0 -1
    outer loop
      vertex 18 -5 0
      vertex 2 5 0
      vertex 2 11 0
    endloop
  endfacet
  facet normal 0 0 -1
    outer loop
      vertex 22 -5 0
      vertex 38 5 0
      vertex 23 -10 0
    endloop
  endfacet
  facet normal -0 0 -1
    outer loop
      vertex 38 5 0
      vertex 22 -5 0
      vertex 38 11 0
    endloop
  endfacet
  facet normal 0 0 -1
    outer loop
      vertex 17 -10 0
      vertex 23 -10 0
      vertex 22 -15 0
    endloop
  endfacet
  facet normal 0 0 -1
    outer loop
      vertex 22 -15 0
      vertex 38 -25 0
      vertex 38 -31 0
    endloop
  endfacet
  facet normal 0 0 -1
    outer loop
      vertex 38 -25 0
      vertex 22 -15 0
      vertex 23 -10 0
    endloop
  endfacet
  facet normal 0 0 -1
    outer loop
      vertex 38 5 0
      vertex 42 5 0
      vertex 42 2.5 0
    endloop
  endfacet
  facet normal 0 0 -1
    outer loop
      vertex 42 5 0
      vertex 38 5 0
      vertex 42 11 0
    endloop
  endfacet
  facet normal 0 0 -1
    outer loop
      vertex 38 5 0
      vertex 42 2.5 0
      vertex 38 2.5 0
    endloop
  endfacet
  facet normal -0 0 -1
    outer loop
      vertex 42 11 0
      vertex 38 5 0
      vertex 38 11 0
    endloop
  endfacet
  facet normal 0 0 -1
    outer loop
      vertex 42 11 0
      vertex 38 11 0
      vertex 42 17.5 0
    endloop
  endfacet
  facet normal -0 0 -1
    outer loop
      vertex 42 17.5 0
      vertex 38 11 0
      vertex 38 17.5 0
    endloop
  endfacet
  facet normal 0 0 -1
    outer loop
      vertex 38 -31 0
      vertex 42 -31 0
      vertex 42 -37.5 0
    endloop
  endfacet
  facet normal 0 0 -1
    outer loop
      vertex 42 -31 0
      vertex 38 -31 0
      vertex 42 -25 0
    endloop
  endfacet
  facet normal 0 0 -1
    outer loop
      vertex 38 -31 0
      vertex 42 -37.5 0
      vertex 38 -37.5 0
    endloop
  endfacet
  facet normal 0 0 -1
    outer loop
      vertex 38 -25 0
      vertex 42 -25 0
      vertex 38 -31 0
    endloop
  endfacet
  facet normal 0 0 -1
    outer loop
      vertex 42 -25 0
      vertex 38 -25 0
      vertex 42 -22.5 0
    endloop
  endfacet
  facet normal -0 0 -1
    outer loop
      vertex 42 -22.5 0
      vertex 38 -25 0
      vertex 38 -22.5 0
    endloop
  endfacet
  facet normal 0 0 -1
    outer loop
      vertex 62 -2.5 0
      vertex 57 -10 0
      vertex 58 -5 0
    endloop
  endfacet
  facet normal 0 0 -1
    outer loop
      vertex 42 -25 0
      vertex 58 -15 0
      vertex 42 -31 0
    endloop
  endfacet
  facet normal -0 0 -1
    outer loop
      vertex 58 -15 0
      vertex 42 -25 0
      vertex 57 -10 0
    endloop
  endfacet
  facet normal 0 0 -1
    outer loop
      vertex 58 -15 0
      vertex 62 -17.5 0
      vertex 58 -17.5 0
    endloop
  endfacet
  facet normal 0 0 -1
    outer loop
      vertex 57 -10 0
      vertex 62 -17.5 0
      vertex 58 -15 0
    endloop
  endfacet
  facet normal 0 0 -1
    outer loop
      vertex 62 -17.5 0
      vertex 57 -10 0
      vertex 62 -2.5 0
    endloop
  endfacet
  facet normal -0 0 -1
    outer loop
      vertex 62 -2.5 0
      vertex 58 -5 0
      vertex 58 -2.5 0
    endloop
  endfacet
  facet normal 0 0 -1
    outer loop
      vertex 42 5 0
      vertex 58 -5 0
      vertex 57 -10 0
    endloop
  endfacet
  facet normal 0 0 -1
    outer loop
      vertex 58 -5 0
      vertex 42 5 0
      vertex 42 11 0
    endloop
  endfacet
  facet normal 1 -0 0
    outer loop
      vertex -18 -17.5 0.5
      vertex -18 -15 0
      vertex -18 -15 0.5
    endloop
  endfacet
  facet normal 1 0 0
    outer loop
      vertex -18 -15 0
      vertex -18 -17.5 0.5
      vertex -18 -17.5 0
    endloop
  endfacet
  facet normal 1 -0 0
    outer loop
      vertex -18 -5 0.5
      vertex -18 -2.5 0
      vertex -18 -2.5 0.5
    endloop
  endfacet
  facet normal 1 0 0
    outer loop
      vertex -18 -2.5 0
      vertex -18 -5 0.5
      vertex -18 -5 0
    endloop
  endfacet
  facet normal 0 -1 0
    outer loop
      vertex -22 -17.5 0
      vertex -18 -17.5 0.5
      vertex -22 -17.5 0.5
    endloop
  endfacet
  facet normal 0 -1 -0
    outer loop
      vertex -18 -17.5 0.5
      vertex -22 -17.5 0
      vertex -18 -17.5 0
    endloop
  endfacet
  facet normal 0 1 -0
    outer loop
      vertex -18 -2.5 0
      vertex -22 -2.5 0.5
      vertex -18 -2.5 0.5
    endloop
  endfacet
  facet normal 0 1 0
    outer loop
      vertex -22 -2.5 0.5
      vertex -18 -2.5 0
      vertex -22 -2.5 0
    endloop
  endfacet
  facet normal -1 0 0
    outer loop
      vertex -22 -17.5 0
      vertex -22 -15 0.5
      vertex -22 -15 0
    endloop
  endfacet
  facet normal -1 -0 0
    outer loop
      vertex -22 -15 0.5
      vertex -22 -17.5 0
      vertex -22 -17.5 0.5
    endloop
  endfacet
  facet normal -1 0 0
    outer loop
      vertex -22 -5 0
      vertex -22 -2.5 0.5
      vertex -22 -2.5 0
    endloop
  endfacet
  facet normal -1 -0 0
    outer loop
      vertex -22 -2.5 0.5
      vertex -22 -5 0
      vertex -22 -5 0.5
    endloop
  endfacet
  facet normal 1 -0 0
    outer loop
      vertex -38 -32.5 0.5
      vertex -38 -31 0
      vertex -38 -31 0.5
    endloop
  endfacet
  facet normal 1 0 0
    outer loop
      vertex -38 -37.5 0
      vertex -38 -32.5 0.5
      vertex -38 -37.5 0.5
    endloop
  endfacet
  facet normal 1 0 0
    outer loop
      vertex -38 -32.5 0.5
      vertex -38 -37.5 0
      vertex -38 -31 0
    endloop
  endfacet
  facet normal 1 -0 0
    outer loop
      vertex -38 -25 0.5
      vertex -38 -22.5 0
      vertex -38 -22.5 0.5
    endloop
  endfacet
  facet normal 1 0 0
    outer loop
      vertex -38 -22.5 0
      vertex -38 -25 0.5
      vertex -38 -25 0
    endloop
  endfacet
  facet normal 0 -1 0
    outer loop
      vertex -42 -37.5 0
      vertex -38 -37.5 0.5
      vertex -42 -37.5 0.5
    endloop
  endfacet
  facet normal 0 -1 -0
    outer loop
      vertex -38 -37.5 0.5
      vertex -42 -37.5 0
      vertex -38 -37.5 0
    endloop
  endfacet
  facet normal 0 1 -0
    outer loop
      vertex -38 -22.5 0
      vertex -42 -22.5 0.5
      vertex -38 -22.5 0.5
    endloop
  endfacet
  facet normal 0 1 0
    outer loop
      vertex -42 -22.5 0.5
      vertex -38 -22.5 0
      vertex -42 -22.5 0
    endloop
  endfacet
  facet normal -1 0 0
    outer loop
      vertex -42 -22.5 0
      vertex -42 -32.5 0.5
      vertex -42 -22.5 0.5
    endloop
  endfacet
  facet normal -1 0 0
    outer loop
      vertex -42 -37.5 0
      vertex -42 -32.5 0.5
      vertex -42 -22.5 0
    endloop
  endfacet
  facet normal -1 -0 0
    outer loop
      vertex -42 -32.5 0.5
      vertex -42 -37.5 0
      vertex -42 -37.5 0.5
    endloop
  endfacet
  facet normal 1 -0 0
    outer loop
      vertex 2 2.5 0.5
      vertex 2 5 0
      vertex 2 5 0.5
    endloop
  endfacet
  facet normal 1 0 0
    outer loop
      vertex 2 5 0
      vertex 2 2.5 0.5
      vertex 2 2.5 0
    endloop
  endfacet
  facet normal 1 -0 0
    outer loop
      vertex 2 11 0.5
      vertex 2 17.5 0
      vertex 2 17.5 0.5
    endloop
  endfacet
  facet normal 1 0 0
    outer loop
      vertex 2 17.5 0
      vertex 2 11 0.5
      vertex 2 11 0
    endloop
  endfacet
  facet normal 0 -1 0
    outer loop
      vertex -2 2.5 0
      vertex 2 2.5 0.5
      vertex -2 2.5 0.5
    endloop
  endfacet
  facet normal 0 -1 -0
    outer loop
      vertex 2 2.5 0.5
      vertex -2 2.5 0
      vertex 2 2.5 0
    endloop
  endfacet
  facet normal 0 1 -0
    outer loop
      vertex 2 17.5 0
      vertex -2 17.5 0.5
      vertex 2 17.5 0.5
    endloop
  endfacet
  facet normal 0 1 0
    outer loop
      vertex -2 17.5 0.5
      vertex 2 17.5 0
      vertex -2 17.5 0
    endloop
  endfacet
  facet normal -1 0 0
    outer loop
      vertex -2 2.5 0
      vertex -2 5 0.5
      vertex -2 5 0
    endloop
  endfacet
  facet normal -1 -0 0
    outer loop
      vertex -2 5 0.5
      vertex -2 2.5 0
      vertex -2 2.5 0.5
    endloop
  endfacet
  facet normal -1 0 0
    outer loop
      vertex -2 11 0
      vertex -2 17.5 0.5
      vertex -2 17.5 0
    endloop
  endfacet
  facet normal -1 -0 0
    outer loop
      vertex -2 17.5 0.5
      vertex -2 11 0
      vertex -2 11 0.5
    endloop
  endfacet
  facet normal 1 -0 0
    outer loop
      vertex 22 -17.5 0.5
      vertex 22 -15 0
      vertex 22 -15 0.5
    endloop
  endfacet
  facet normal 1 0 0
    outer loop
      vertex 22 -15 0
      vertex 22 -17.5 0.5
      vertex 22 -17.5 0
    endloop
  endfacet
  facet normal 1 -0 0
    outer loop
      vertex 22 -5 0.5
      vertex 22 -2.5 0
      vertex 22 -2.5 0.5
    endloop
  endfacet
  facet normal 1 0 0
    outer loop
      vertex 22 -2.5 0
      vertex 22 -5 0.5
      vertex 22 -5 0
    endloop
  endfacet
  facet normal 0 -1 0
    outer loop
      vertex 18 -17.5 0
      vertex 22 -17.5 0.5
      vertex 18 -17.5 0.5
    endloop
  endfacet
  facet normal 0 -1 -0
    outer loop
      vertex 22 -17.5 0.5
      vertex 18 -17.5 0
      vertex 22 -17.5 0
    endloop
  endfacet
  facet normal 0 1 -0
    outer loop
      vertex 22 -2.5 0
      vertex 18 -2.5 0.5
      vertex 22 -2.5 0.5
    endloop
  endfacet
  facet normal 0 1 0
    outer loop
      vertex 18 -2.5 0.5
      vertex 22 -2.5 0
      vertex 18 -2.5 0
    endloop
  endfacet
  facet normal -1 0 0
    outer loop
      vertex 18 -17.5 0
      vertex 18 -15 0.5
      vertex 18 -15 0
    endloop
  endfacet
  facet normal -1 -0 0
    outer loop
      vertex 18 -15 0.5
      vertex 18 -17.5 0
      vertex 18 -17.5 0.5
    endloop
  endfacet
  facet normal -1 0 0
    outer loop
      vertex 18 -5 0
      vertex 18 -2.5 0.5
      vertex 18 -2.5 0
    endloop
  endfacet
  facet normal -1 -0 0
    outer loop
      vertex 18 -2.5 0.5
      vertex 18 -5 0
      vertex 18 -5 0.5
    endloop
  endfacet
  facet normal 1 -0 0
    outer loop
      vertex 2 -32.5 0.5
      vertex 2 -31 0
      vertex 2 -31 0.5
    endloop
  endfacet
  facet normal 1 0 0
    outer loop
      vertex 2 -37.5 0
      vertex 2 -32.5 0.5
      vertex 2 -37.5 0.5
    endloop
  endfacet
  facet normal 1 0 0
    outer loop
      vertex 2 -32.5 0.5
      vertex 2 -37.5 0
      vertex 2 -31 0
    endloop
  endfacet
  facet normal 1 -0 0
    outer loop
      vertex 2 -25 0.5
      vertex 2 -22.5 0
      vertex 2 -22.5 0.5
    endloop
  endfacet
  facet normal 1 0 0
    outer loop
      vertex 2 -22.5 0
      vertex 2 -25 0.5
      vertex 2 -25 0
    endloop
  endfacet
  facet normal 0 -1 0
    outer loop
      vertex -2 -37.5 0
      vertex 2 -37.5 0.5
      vertex -2 -37.5 0.5
    endloop
  endfacet
  facet normal 0 -1 -0
    outer loop
      vertex 2 -37.5 0.5
      vertex -2 -37.5 0
      vertex 2 -37.5 0
    endloop
  endfacet
  facet normal 0 1 -0
    outer loop
      vertex 2 -22.5 0
      vertex -2 -22.5 0.5
      vertex 2 -22.5 0.5
    endloop
  endfacet
  facet normal 0 1 0
    outer loop
      vertex -2 -22.5 0.5
      vertex 2 -22.5 0
      vertex -2 -22.5 0
    endloop
  endfacet
  facet normal -1 0 0
    outer loop
      vertex -2 -31 0
      vertex -2 -32.5 0.5
      vertex -2 -31 0.5
    endloop
  endfacet
  facet normal -1 0 0
    outer loop
      vertex -2 -37.5 0
      vertex -2 -32.5 0.5
      vertex -2 -31 0
    endloop
  endfacet
  facet normal -1 -0 0
    outer loop
      vertex -2 -32.5 0.5
      vertex -2 -37.5 0
      vertex -2 -37.5 0.5
    endloop
  endfacet
  facet normal -1 0 0
    outer loop
      vertex -2 -25 0
      vertex -2 -22.5 0.5
      vertex -2 -22.5 0
    endloop
  endfacet
  facet normal -1 -0 0
    outer loop
      vertex -2 -22.5 0.5
      vertex -2 -25 0
      vertex -2 -25 0.5
    endloop
  endfacet
  facet normal 1 -0 0
    outer loop
      vertex 42 2.5 0.5
      vertex 42 5 0
      vertex 42 5 0.5
    endloop
  endfacet
  facet normal 1 0 0
    outer loop
      vertex 42 5 0
      vertex 42 2.5 0.5
      vertex 42 2.5 0
    endloop
  endfacet
  facet normal 1 -0 0
    outer loop
      vertex 42 11 0.5
      vertex 42 17.5 0
      vertex 42 17.5 0.5
    endloop
  endfacet
  facet normal 1 0 0
    outer loop
      vertex 42 17.5 0
      vertex 42 11 0.5
      vertex 42 11 0
    endloop
  endfacet
  facet normal 0 -1 0
    outer loop
      vertex 38 2.5 0
      vertex 42 2.5 0.5
      vertex 38 2.5 0.5
    endloop
  endfacet
  facet normal 0 -1 -0
    outer loop
      vertex 42 2.5 0.5
      vertex 38 2.5 0
      vertex 42 2.5 0
    endloop
  endfacet
  facet normal 0 1 -0
    outer loop
      vertex 42 17.5 0
      vertex 38 17.5 0.5
      vertex 42 17.5 0.5
    endloop
  endfacet
  facet normal 0 1 0
    outer loop
      vertex 38 17.5 0.5
      vertex 42 17.5 0
      vertex 38 17.5 0
    endloop
  endfacet
  facet normal -1 0 0
    outer loop
      vertex 38 2.5 0
      vertex 38 5 0.5
      vertex 38 5 0
    endloop
  endfacet
  facet normal -1 -0 0
    outer loop
      vertex 38 5 0.5
      vertex 38 2.5 0
      vertex 38 2.5 0.5
    endloop
  endfacet
  facet normal -1 0 0
    outer loop
      vertex 38 11 0
      vertex 38 17.5 0.5
      vertex 38 17.5 0
    endloop
  endfacet
  facet normal -1 -0 0
    outer loop
      vertex 38 17.5 0.5
      vertex 38 11 0
      vertex 38 11 0.5
    endloop
  endfacet
  facet normal 1 -0 0
    outer loop
      vertex 62 -12.5 0.5
      vertex 62 -2.5 0
      vertex 62 -2.5 0.5
    endloop
  endfacet
  facet normal 1 0 0
    outer loop
      vertex 62 -17.5 0
      vertex 62 -12.5 0.5
      vertex 62 -17.5 0.5
    endloop
  endfacet
  facet normal 1 0 0
    outer loop
      vertex 62 -12.5 0.5
      vertex 62 -17.5 0
      vertex 62 -2.5 0
    endloop
  endfacet
  facet normal 0 -1 0
    outer loop
      vertex 58 -17.5 0
      vertex 62 -17.5 0.5
      vertex 58 -17.5 0.5
    endloop
  endfacet
  facet normal 0 -1 -0
    outer loop
      vertex 62 -17.5 0.5
      vertex 58 -17.5 0
      vertex 62 -17.5 0
    endloop
  endfacet
  facet normal 0 1 -0
    outer loop
      vertex 62 -2.5 0
      vertex 58 -2.5 0.5
      vertex 62 -2.5 0.5
    endloop
  endfacet
  facet normal 0 1 0
    outer loop
      vertex 58 -2.5 0.5
      vertex 62 -2.5 0
      vertex 58 -2.5 0
    endloop
  endfacet
  facet normal -1 0 0
    outer loop
      vertex 58 -17.5 0
      vertex 58 -15 0.5
      vertex 58 -15 0
    endloop
  endfacet
  facet normal -1 -0 0
    outer loop
      vertex 58 -15 0.5
      vertex 58 -17.5 0
      vertex 58 -17.5 0.5
    endloop
  endfacet
  facet normal -1 0 0
    outer loop
      vertex 58 -5 0
      vertex 58 -2.5 0.5
      vertex 58 -2.5 0
    endloop
  endfacet
  facet normal -1 -0 0
    outer loop
      vertex 58 -2.5 0.5
      vertex 58 -5 0
      vertex 58 -5 0.5
    endloop
  endfacet
  facet normal 1 -0 0
    outer loop
      vertex 42 -32.5 0.5
      vertex 42 -31 0
      vertex 42 -31 0.5
    endloop
  endfacet
  facet normal 1 0 0
    outer loop
      vertex 42 -37.5 0
      vertex 42 -32.5 0.5
      vertex 42 -37.5 0.5
    endloop
  endfacet
  facet normal 1 0 0
    outer loop
      vertex 42 -32.5 0.5
      vertex 42 -37.5 0
      vertex 42 -31 0
    endloop
  endfacet
  facet normal 1 -0 0
    outer loop
      vertex 42 -25 0.5
      vertex 42 -22.5 0
      vertex 42 -22.5 0.5
    endloop
  endfacet
  facet normal 1 0 0
    outer loop
      vertex 42 -22.5 0
      vertex 42 -25 0.5
      vertex 42 -25 0
    endloop
  endfacet
  facet normal 0 -1 0
    outer loop
      vertex 38 -37.5 0
      vertex 42 -37.5 0.5
      vertex 38 -37.5 0.5
    endloop
  endfacet
  facet normal 0 -1 -0
    outer loop
      vertex 42 -37.5 0.5
      vertex 38 -37.5 0
      vertex 42 -37.5 0
    endloop
  endfacet
  facet normal 0 1 -0
    outer loop
      vertex 42 -22.5 0
      vertex 38 -22.5 0.5
      vertex 42 -22.5 0.5
    endloop
  endfacet
  facet normal 0 1 0
    outer loop
      vertex 38 -22.5 0.5
      vertex 42 -22.5 0
      vertex 38 -22.5 0
    endloop
  endfacet
  facet normal -1 0 0
    outer loop
      vertex 38 -31 0
      vertex 38 -32.5 0.5
      vertex 38 -31 0.5
    endloop
  endfacet
  facet normal -1 0 0
    outer loop
      vertex 38 -37.5 0
      vertex 38 -32.5 0.5
      vertex 38 -31 0
    endloop
  endfacet
  facet normal -1 -0 0
    outer loop
      vertex 38 -32.5 0.5
      vertex 38 -37.5 0
      vertex 38 -37.5 0.5
    endloop
  endfacet
  facet normal -1 0 0
    outer loop
      vertex 38 -25 0
      vertex 38 -22.5 0.5
      vertex 38 -22.5 0
    endloop
  endfacet
  facet normal -1 -0 0
    outer loop
      vertex 38 -22.5 0.5
      vertex 38 -25 0
      vertex 38 -25 0.5
    endloop
  endfacet
  facet normal -0.707107 0.707107 0
    outer loop
      vertex -38 -25 0
      vertex -23 -10 0.5
      vertex -23 -10 0
    endloop
  endfacet
  facet normal -0.707107 0.707107 0
    outer loop
      vertex -23 -10 0.5
      vertex -38 -25 0
      vertex -38 -25 0.5
    endloop
  endfacet
  facet normal -0.707107 0.707107 0
    outer loop
      vertex -18 -5 0
      vertex -2 11 0.5
      vertex -2 11 0
    endloop
  endfacet
  facet normal -0.707107 0.707107 0
    outer loop
      vertex -2 11 0.5
      vertex -18 -5 0
      vertex -18 -5 0.5
    endloop
  endfacet
  facet normal 0.707107 -0.707107 -4.57417e-18
    outer loop
      vertex -2.14157 4.85843 0.5
      vertex -2 5 0
      vertex -2 5 0.5
    endloop
  endfacet
  facet normal 0.707107 -0.707107 0
    outer loop
      vertex -17 -10 0
      vertex -2.14157 4.85843 0.5
      vertex -17 -10 0.5
    endloop
  endfacet
  facet normal 0.707107 -0.707107 6.06693e-16
    outer loop
      vertex -2.14157 4.85843 0.5
      vertex -17 -10 0
      vertex -2 5 0
    endloop
  endfacet
  facet normal 0.707107 -0.707107 1.52956e-17
    outer loop
      vertex -22.1416 -15.1416 0.5
      vertex -22 -15 0
      vertex -22 -15 0.5
    endloop
  endfacet
  facet normal 0.707107 -0.707107 0
    outer loop
      vertex -38 -31 0
      vertex -22.1416 -15.1416 0.5
      vertex -38 -31 0.5
    endloop
  endfacet
  facet normal 0.707107 -0.707107 5.34856e-18
    outer loop
      vertex -22.1416 -15.1416 0.5
      vertex -38 -31 0
      vertex -22 -15 0
    endloop
  endfacet
  facet normal -0.707107 -0.707107 0
    outer loop
      vertex -18 -15 0
      vertex -17.8584 -15.1416 0.5
      vertex -18 -15 0.5
    endloop
  endfacet
  facet normal -0.707107 -0.707107 0
    outer loop
      vertex -2 -31 0
      vertex -17.8584 -15.1416 0.5
      vertex -18 -15 0
    endloop
  endfacet
  facet normal -0.707107 -0.707107 -1.15388e-15
    outer loop
      vertex -17.8584 -15.1416 0.5
      vertex -2 -31 0
      vertex -2 -31 0.5
    endloop
  endfacet
  facet normal 0.707107 0.707107 0
    outer loop
      vertex -2 -25 0.5
      vertex -17 -10 0
      vertex -17 -10 0.5
    endloop
  endfacet
  facet normal 0.707107 0.707107 0
    outer loop
      vertex -17 -10 0
      vertex -2 -25 0.5
      vertex -2 -25 0
    endloop
  endfacet
  facet normal -0.707107 0.707107 0
    outer loop
      vertex 2 -25 0
      vertex 17 -10 0.5
      vertex 17 -10 0
    endloop
  endfacet
  facet normal -0.707107 0.707107 0
    outer loop
      vertex 17 -10 0.5
      vertex 2 -25 0
      vertex 2 -25 0.5
    endloop
  endfacet
  facet normal -0.707107 0.707107 0
    outer loop
      vertex 22 -5 0
      vertex 38 11 0.5
      vertex 38 11 0
    endloop
  endfacet
  facet normal -0.707107 0.707107 0
    outer loop
      vertex 38 11 0.5
      vertex 22 -5 0
      vertex 22 -5 0.5
    endloop
  endfacet
  facet normal 0.707032 -0.707182 -5.10279e-18
    outer loop
      vertex 37.8584 4.85843 0.5
      vertex 38 5 0
      vertex 38 5 0.5
    endloop
  endfacet
  facet normal 0.707107 -0.707106 0
    outer loop
      vertex 23 -10 0
      vertex 37.8584 4.85843 0.5
      vertex 23 -10 0.5
    endloop
  endfacet
  facet normal 0.707107 -0.707107 4.24264e-05
    outer loop
      vertex 37.8584 4.85843 0.5
      vertex 23 -10 0
      vertex 38 5 0
    endloop
  endfacet
  facet normal 0.707107 -0.707107 1.52956e-17
    outer loop
      vertex 17.8584 -15.1416 0.5
      vertex 18 -15 0
      vertex 18 -15 0.5
    endloop
  endfacet
  facet normal 0.707107 -0.707107 0
    outer loop
      vertex 2 -31 0
      vertex 17.8584 -15.1416 0.5
      vertex 2 -31 0.5
    endloop
  endfacet
  facet normal 0.707107 -0.707107 5.34856e-18
    outer loop
      vertex 17.8584 -15.1416 0.5
      vertex 2 -31 0
      vertex 18 -15 0
    endloop
  endfacet
  facet normal -0.707107 -0.707107 0
    outer loop
      vertex 22 -15 0
      vertex 22.1416 -15.1416 0.5
      vertex 22 -15 0.5
    endloop
  endfacet
  facet normal -0.707107 -0.707107 0
    outer loop
      vertex 38 -31 0
      vertex 22.1416 -15.1416 0.5
      vertex 22 -15 0
    endloop
  endfacet
  facet normal -0.707107 -0.707107 -1.15388e-15
    outer loop
      vertex 22.1416 -15.1416 0.5
      vertex 38 -31 0
      vertex 38 -31 0.5
    endloop
  endfacet
  facet normal 0.707107 0.707107 0
    outer loop
      vertex 38 -25 0.5
      vertex 23 -10 0
      vertex 23 -10 0.5
    endloop
  endfacet
  facet normal 0.707107 0.707107 0
    outer loop
      vertex 23 -10 0
      vertex 38 -25 0.5
      vertex 38 -25 0
    endloop
  endfacet
  facet normal -0.707032 -0.707182 0
    outer loop
      vertex -38 5 0
      vertex -37.8584 4.85843 0.5
      vertex -38 5 0.5
    endloop
  endfacet
  facet normal -0.707107 -0.707107 4.24264e-05
    outer loop
      vertex -23 -10 0
      vertex -37.8584 4.85843 0.5
      vertex -38 5 0
    endloop
  endfacet
  facet normal -0.707107 -0.707106 -6.452e-16
    outer loop
      vertex -37.8584 4.85843 0.5
      vertex -23 -10 0
      vertex -23 -10 0.5
    endloop
  endfacet
  facet normal 0.707107 0.707107 0
    outer loop
      vertex -22 -5 0.5
      vertex -38 11 0
      vertex -38 11 0.5
    endloop
  endfacet
  facet normal 0.707107 0.707107 0
    outer loop
      vertex -38 11 0
      vertex -22 -5 0.5
      vertex -22 -5 0
    endloop
  endfacet
  facet normal -0.707107 -0.707107 0
    outer loop
      vertex 2 5 0
      vertex 2.14157 4.85843 0.5
      vertex 2 5 0.5
    endloop
  endfacet
  facet normal -0.707107 -0.707107 1.67477e-16
    outer loop
      vertex 17 -10 0
      vertex 2.14157 4.85843 0.5
      vertex 2 5 0
    endloop
  endfacet
  facet normal -0.707107 -0.707107 2.15478e-17
    outer loop
      vertex 2.14157 4.85843 0.5
      vertex 17 -10 0
      vertex 17 -10 0.5
    endloop
  endfacet
  facet normal 0.707107 0.707107 0
    outer loop
      vertex 18 -5 0.5
      vertex 2 11 0
      vertex 2 11 0.5
    endloop
  endfacet
  facet normal 0.707107 0.707107 0
    outer loop
      vertex 2 11 0
      vertex 18 -5 0.5
      vertex 18 -5 0
    endloop
  endfacet
  facet normal -0.707032 -0.707182 0
    outer loop
      vertex 42 5 0
      vertex 42.1416 4.85843 0.5
      vertex 42 5 0.5
    endloop
  endfacet
  facet normal -0.707107 -0.707107 4.24264e-05
    outer loop
      vertex 57 -10 0
      vertex 42.1416 4.85843 0.5
      vertex 42 5 0
    endloop
  endfacet
  facet normal -0.707107 -0.707106 -6.452e-16
    outer loop
      vertex 42.1416 4.85843 0.5
      vertex 57 -10 0
      vertex 57 -10 0.5
    endloop
  endfacet
  facet normal 0.707107 0.707107 0
    outer loop
      vertex 58 -5 0.5
      vertex 42 11 0
      vertex 42 11 0.5
    endloop
  endfacet
  facet normal 0.707107 0.707107 0
    outer loop
      vertex 42 11 0
      vertex 58 -5 0.5
      vertex 58 -5 0
    endloop
  endfacet
  facet normal -0.707107 0.707107 0
    outer loop
      vertex 42 -25 0
      vertex 57 -10 0.5
      vertex 57 -10 0
    endloop
  endfacet
  facet normal -0.707107 0.707107 0
    outer loop
      vertex 57 -10 0.5
      vertex 42 -25 0
      vertex 42 -25 0.5
    endloop
  endfacet
  facet normal 0.707107 -0.707107 1.53511e-17
    outer loop
      vertex 57.8584 -15.1416 0.5
      vertex 58 -15 0
      vertex 58 -15 0.5
    endloop
  endfacet
  facet normal 0.707107 -0.707107 0
    outer loop
      vertex 42 -31 0
      vertex 57.8584 -15.1416 0.5
      vertex 42 -31 0.5
    endloop
  endfacet
  facet normal 0.707107 -0.707107 -5.02416e-15
    outer loop
      vertex 57.8584 -15.1416 0.5
      vertex 42 -31 0
      vertex 58 -15 0
    endloop
  endfacet
  facet normal -0 0 1
    outer loop
      vertex -42.3 14 9.2
      vertex -37.7 7.499 9.2
      vertex -37.7 14 9.2
    endloop
  endfacet
  facet normal 0 0 1
    outer loop
      vertex -37.7 7.499 9.2
      vertex -42.3 14 9.2
      vertex -42.3 7.499 9.2
    endloop
  endfacet
  facet normal 0 1 0
    outer loop
      vertex -42 7.5 0.5
      vertex -37.7 7.5 6.2
      vertex -37.7 7.5 0.5
    endloop
  endfacet
  facet normal 0 1 0
    outer loop
      vertex -37.7 7.5 6.2
      vertex -42 7.5 0.5
      vertex -42.3 7.5 6.2
    endloop
  endfacet
  facet normal 0 1 0
    outer loop
      vertex -42.3 7.5 6.2
      vertex -42 7.5 0.5
      vertex -42.3 7.5 0.5
    endloop
  endfacet
  facet normal 1 0 0
    outer loop
      vertex -37.7 14 9.2
      vertex -37.7 7.5 6.2
      vertex -37.7 14 6.2
    endloop
  endfacet
  facet normal 1 -0 0
    outer loop
      vertex -37.7 7.499 9.2
      vertex -37.7 7.5 6.2
      vertex -37.7 14 9.2
    endloop
  endfacet
  facet normal 1 0 0
    outer loop
      vertex -37.7 7.499 0.5
      vertex -37.7 7.5 6.2
      vertex -37.7 7.499 9.2
    endloop
  endfacet
  facet normal 1 0 0
    outer loop
      vertex -37.7 7.5 6.2
      vertex -37.7 7.499 0.5
      vertex -37.7 7.5 0.5
    endloop
  endfacet
  facet normal 0 -0.0598923 0.998205
    outer loop
      vertex -37.7 7.499 9.2
      vertex -42 2.499 8.9
      vertex -38 2.499 8.9
    endloop
  endfacet
  facet normal 0 -0.0598923 0.998205
    outer loop
      vertex -42 2.499 8.9
      vertex -37.7 7.499 9.2
      vertex -42.3 7.499 9.2
    endloop
  endfacet
  facet normal 0.998206 -0.0598794 0
    outer loop
      vertex -37.7 7.499 9.2
      vertex -37.8584 4.85843 0.5
      vertex -37.7 7.499 0.5
    endloop
  endfacet
  facet normal 0.998205 -0.0598925 3.99676e-06
    outer loop
      vertex -38 2.499 8.9
      vertex -37.8584 4.85843 0.5
      vertex -37.7 7.499 9.2
    endloop
  endfacet
  facet normal 0.998204 -0.0599067 5.45941e-19
    outer loop
      vertex -37.8584 4.85843 0.5
      vertex -38 2.499 8.9
      vertex -38 2.499 0.5
    endloop
  endfacet
  facet normal -0.998205 -0.0598923 -0
    outer loop
      vertex -42 2.499 8.9
      vertex -42.3 7.499 0.5
      vertex -42 2.499 0.5
    endloop
  endfacet
  facet normal -0.998205 -0.0598923 0
    outer loop
      vertex -42.3 7.499 0.5
      vertex -42 2.499 8.9
      vertex -42.3 7.499 9.2
    endloop
  endfacet
  facet normal 0 -1 0
    outer loop
      vertex -42 2.499 0.5
      vertex -38 2.499 8.9
      vertex -42 2.499 8.9
    endloop
  endfacet
  facet normal 0 -1 -0
    outer loop
      vertex -38 2.499 8.9
      vertex -42 2.499 0.5
      vertex -38 2.499 0.5
    endloop
  endfacet
  facet normal -1 0 0
    outer loop
      vertex -42.3 7.5 6.2
      vertex -42.3 14 9.2
      vertex -42.3 14 6.2
    endloop
  endfacet
  facet normal -1 0 0
    outer loop
      vertex -42.3 7.5 6.2
      vertex -42.3 7.499 9.2
      vertex -42.3 14 9.2
    endloop
  endfacet
  facet normal -1 0 0
    outer loop
      vertex -42.3 7.499 9.2
      vertex -42.3 7.5 6.2
      vertex -42.3 7.499 0.5
    endloop
  endfacet
  facet normal -1 0 0
    outer loop
      vertex -42.3 7.5 0.5
      vertex -42.3 7.499 0.5
      vertex -42.3 7.5 6.2
    endloop
  endfacet
  facet normal 0 1 -0
    outer loop
      vertex -37.7 14 6.2
      vertex -42.3 14 9.2
      vertex -37.7 14 9.2
    endloop
  endfacet
  facet normal 0 1 0
    outer loop
      vertex -42.3 14 9.2
      vertex -37.7 14 6.2
      vertex -42.3 14 6.2
    endloop
  endfacet
  facet normal 0 0 -1
    outer loop
      vertex -42.3 7.5 6.2
      vertex -37.7 14 6.2
      vertex -37.7 7.5 6.2
    endloop
  endfacet
  facet normal -0 0 -1
    outer loop
      vertex -37.7 14 6.2
      vertex -42.3 7.5 6.2
      vertex -42.3 14 6.2
    endloop
  endfacet
  facet normal -0 0 1
    outer loop
      vertex -22.3 -6 9.2
      vertex -17.7 -12.501 9.2
      vertex -17.7 -6 9.2
    endloop
  endfacet
  facet normal 0 0 1
    outer loop
      vertex -17.7 -12.501 9.2
      vertex -22.3 -6 9.2
      vertex -22.3 -12.501 9.2
    endloop
  endfacet
  facet normal 0 1 -0
    outer loop
      vertex -17.7 -12.5 0.5
      vertex -22.3 -12.5 6.2
      vertex -17.7 -12.5 6.2
    endloop
  endfacet
  facet normal 0 1 0
    outer loop
      vertex -22.3 -12.5 6.2
      vertex -17.7 -12.5 0.5
      vertex -22.3 -12.5 0.5
    endloop
  endfacet
  facet normal 1 0 0
    outer loop
      vertex -17.7 -6 9.2
      vertex -17.7 -12.5 6.2
      vertex -17.7 -6 6.2
    endloop
  endfacet
  facet normal 1 -0 0
    outer loop
      vertex -17.7 -12.501 9.2
      vertex -17.7 -12.5 6.2
      vertex -17.7 -6 9.2
    endloop
  endfacet
  facet normal 1 0 0
    outer loop
      vertex -17.7 -12.501 0.5
      vertex -17.7 -12.5 6.2
      vertex -17.7 -12.501 9.2
    endloop
  endfacet
  facet normal 1 0 0
    outer loop
      vertex -17.7 -12.5 6.2
      vertex -17.7 -12.501 0.5
      vertex -17.7 -12.5 0.5
    endloop
  endfacet
  facet normal 4.43292e-18 -0.0598923 0.998205
    outer loop
      vertex -17.7 -12.501 9.2
      vertex -22 -17.501 8.9
      vertex -18 -17.501 8.9
    endloop
  endfacet
  facet normal 3.85471e-18 -0.0598923 0.998205
    outer loop
      vertex -22 -17.501 8.9
      vertex -17.7 -12.501 9.2
      vertex -22.3 -12.501 9.2
    endloop
  endfacet
  facet normal 0.998206 -0.0598787 0
    outer loop
      vertex -17.7 -12.501 9.2
      vertex -17.8584 -15.1416 0.5
      vertex -17.7 -12.501 0.5
    endloop
  endfacet
  facet normal 0.998205 -0.0598925 4.20712e-06
    outer loop
      vertex -18 -17.501 8.9
      vertex -17.8584 -15.1416 0.5
      vertex -17.7 -12.501 9.2
    endloop
  endfacet
  facet normal 0.998204 -0.0599075 -8.85241e-19
    outer loop
      vertex -17.8584 -15.1416 0.5
      vertex -18 -17.501 8.9
      vertex -18 -17.501 0.5
    endloop
  endfacet
  facet normal -0.998206 -0.0598787 -3.66279e-19
    outer loop
      vertex -22.1416 -15.1416 0.5
      vertex -22.3 -12.501 9.2
      vertex -22.3 -12.501 0.5
    endloop
  endfacet
  facet normal -0.998204 -0.0599075 -0
    outer loop
      vertex -22 -17.501 8.9
      vertex -22.1416 -15.1416 0.5
      vertex -22 -17.501 0.5
    endloop
  endfacet
  facet normal -0.998205 -0.0598925 4.20712e-06
    outer loop
      vertex -22.1416 -15.1416 0.5
      vertex -22 -17.501 8.9
      vertex -22.3 -12.501 9.2
    endloop
  endfacet
  facet normal 0 -1 0
    outer loop
      vertex -22 -17.501 0.5
      vertex -18 -17.501 8.9
      vertex -22 -17.501 8.9
    endloop
  endfacet
  facet normal 0 -1 -0
    outer loop
      vertex -18 -17.501 8.9
      vertex -22 -17.501 0.5
      vertex -18 -17.501 0.5
    endloop
  endfacet
  facet normal -1 0 0
    outer loop
      vertex -22.3 -12.5 6.2
      vertex -22.3 -6 9.2
      vertex -22.3 -6 6.2
    endloop
  endfacet
  facet normal -1 0 0
    outer loop
      vertex -22.3 -12.5 6.2
      vertex -22.3 -12.501 9.2
      vertex -22.3 -6 9.2
    endloop
  endfacet
  facet normal -1 0 0
    outer loop
      vertex -22.3 -12.501 9.2
      vertex -22.3 -12.5 6.2
      vertex -22.3 -12.501 0.5
    endloop
  endfacet
  facet normal -1 0 0
    outer loop
      vertex -22.3 -12.5 0.5
      vertex -22.3 -12.501 0.5
      vertex -22.3 -12.5 6.2
    endloop
  endfacet
  facet normal 0 1 -0
    outer loop
      vertex -17.7 -6 6.2
      vertex -22.3 -6 9.2
      vertex -17.7 -6 9.2
    endloop
  endfacet
  facet normal 0 1 0
    outer loop
      vertex -22.3 -6 9.2
      vertex -17.7 -6 6.2
      vertex -22.3 -6 6.2
    endloop
  endfacet
  facet normal 0 0 -1
    outer loop
      vertex -22.3 -12.5 6.2
      vertex -17.7 -6 6.2
      vertex -17.7 -12.5 6.2
    endloop
  endfacet
  facet normal -0 0 -1
    outer loop
      vertex -17.7 -6 6.2
      vertex -22.3 -12.5 6.2
      vertex -22.3 -6 6.2
    endloop
  endfacet
  facet normal -0 0 1
    outer loop
      vertex -42.3 -26 9.2
      vertex -37.7 -32.501 9.2
      vertex -37.7 -26 9.2
    endloop
  endfacet
  facet normal 0 0 1
    outer loop
      vertex -37.7 -32.501 9.2
      vertex -42.3 -26 9.2
      vertex -42.3 -32.501 9.2
    endloop
  endfacet
  facet normal 0 1 0
    outer loop
      vertex -38 -32.5 0.5
      vertex -37.7 -32.5 6.2
      vertex -37.7 -32.5 0.5
    endloop
  endfacet
  facet normal 0 1 0
    outer loop
      vertex -37.7 -32.5 6.2
      vertex -38 -32.5 0.5
      vertex -42.3 -32.5 6.2
    endloop
  endfacet
  facet normal 0 1 -0
    outer loop
      vertex -42 -32.5 0.5
      vertex -42.3 -32.5 6.2
      vertex -38 -32.5 0.5
    endloop
  endfacet
  facet normal 0 1 0
    outer loop
      vertex -42.3 -32.5 6.2
      vertex -42 -32.5 0.5
      vertex -42.3 -32.5 0.5
    endloop
  endfacet
  facet normal 1 0 0
    outer loop
      vertex -37.7 -26 9.2
      vertex -37.7 -32.5 6.2
      vertex -37.7 -26 6.2
    endloop
  endfacet
  facet normal 1 -0 0
    outer loop
      vertex -37.7 -32.501 9.2
      vertex -37.7 -32.5 6.2
      vertex -37.7 -26 9.2
    endloop
  endfacet
  facet normal 1 0 0
    outer loop
      vertex -37.7 -32.501 0.5
      vertex -37.7 -32.5 6.2
      vertex -37.7 -32.501 9.2
    endloop
  endfacet
  facet normal 1 0 0
    outer loop
      vertex -37.7 -32.5 6.2
      vertex -37.7 -32.501 0.5
      vertex -37.7 -32.5 0.5
    endloop
  endfacet
  facet normal 0 -0.0598923 0.998205
    outer loop
      vertex -37.7 -32.501 9.2
      vertex -42 -37.501 8.9
      vertex -38 -37.501 8.9
    endloop
  endfacet
  facet normal 0 -0.0598923 0.998205
    outer loop
      vertex -42 -37.501 8.9
      vertex -37.7 -32.501 9.2
      vertex -42.3 -32.501 9.2
    endloop
  endfacet
  facet normal 0.998205 -0.0598923 0
    outer loop
      vertex -38 -37.501 8.9
      vertex -37.7 -32.501 0.5
      vertex -37.7 -32.501 9.2
    endloop
  endfacet
  facet normal 0.998205 -0.0598923 0
    outer loop
      vertex -37.7 -32.501 0.5
      vertex -38 -37.501 8.9
      vertex -38 -37.501 0.5
    endloop
  endfacet
  facet normal -0.998205 -0.0598923 -0
    outer loop
      vertex -42 -37.501 8.9
      vertex -42.3 -32.501 0.5
      vertex -42 -37.501 0.5
    endloop
  endfacet
  facet normal -0.998205 -0.0598923 0
    outer loop
      vertex -42.3 -32.501 0.5
      vertex -42 -37.501 8.9
      vertex -42.3 -32.501 9.2
    endloop
  endfacet
  facet normal 0 -1 0
    outer loop
      vertex -42 -37.501 0.5
      vertex -38 -37.501 8.9
      vertex -42 -37.501 8.9
    endloop
  endfacet
  facet normal 0 -1 -0
    outer loop
      vertex -38 -37.501 8.9
      vertex -42 -37.501 0.5
      vertex -38 -37.501 0.5
    endloop
  endfacet
  facet normal -1 0 0
    outer loop
      vertex -42.3 -32.5 6.2
      vertex -42.3 -26 9.2
      vertex -42.3 -26 6.2
    endloop
  endfacet
  facet normal -1 0 0
    outer loop
      vertex -42.3 -32.5 6.2
      vertex -42.3 -32.501 9.2
      vertex -42.3 -26 9.2
    endloop
  endfacet
  facet normal -1 0 0
    outer loop
      vertex -42.3 -32.501 9.2
      vertex -42.3 -32.5 6.2
      vertex -42.3 -32.501 0.5
    endloop
  endfacet
  facet normal -1 0 0
    outer loop
      vertex -42.3 -32.5 0.5
      vertex -42.3 -32.501 0.5
      vertex -42.3 -32.5 6.2
    endloop
  endfacet
  facet normal 0 1 -0
    outer loop
      vertex -37.7 -26 6.2
      vertex -42.3 -26 9.2
      vertex -37.7 -26 9.2
    endloop
  endfacet
  facet normal 0 1 0
    outer loop
      vertex -42.3 -26 9.2
      vertex -37.7 -26 6.2
      vertex -42.3 -26 6.2
    endloop
  endfacet
  facet normal 0 0 -1
    outer loop
      vertex -42.3 -32.5 6.2
      vertex -37.7 -26 6.2
      vertex -37.7 -32.5 6.2
    endloop
  endfacet
  facet normal -0 0 -1
    outer loop
      vertex -37.7 -26 6.2
      vertex -42.3 -32.5 6.2
      vertex -42.3 -26 6.2
    endloop
  endfacet
  facet normal -0 0 1
    outer loop
      vertex -2.3 14 9.2
      vertex 2.3 7.499 9.2
      vertex 2.3 14 9.2
    endloop
  endfacet
  facet normal 0 0 1
    outer loop
      vertex 2.3 7.499 9.2
      vertex -2.3 14 9.2
      vertex -2.3 7.499 9.2
    endloop
  endfacet
  facet normal 0 1 -0
    outer loop
      vertex 2.3 7.5 0.5
      vertex -2.3 7.5 6.2
      vertex 2.3 7.5 6.2
    endloop
  endfacet
  facet normal 0 1 0
    outer loop
      vertex -2.3 7.5 6.2
      vertex 2.3 7.5 0.5
      vertex -2.3 7.5 0.5
    endloop
  endfacet
  facet normal 1 0 0
    outer loop
      vertex 2.3 14 9.2
      vertex 2.3 7.5 6.2
      vertex 2.3 14 6.2
    endloop
  endfacet
  facet normal 1 -0 0
    outer loop
      vertex 2.3 7.499 9.2
      vertex 2.3 7.5 6.2
      vertex 2.3 14 9.2
    endloop
  endfacet
  facet normal 1 0 0
    outer loop
      vertex 2.3 7.499 0.5
      vertex 2.3 7.5 6.2
      vertex 2.3 7.499 9.2
    endloop
  endfacet
  facet normal 1 0 0
    outer loop
      vertex 2.3 7.5 6.2
      vertex 2.3 7.499 0.5
      vertex 2.3 7.5 0.5
    endloop
  endfacet
  facet normal 0 -0.0598923 0.998205
    outer loop
      vertex 2.3 7.499 9.2
      vertex -2 2.499 8.9
      vertex 2 2.499 8.9
    endloop
  endfacet
  facet normal 0 -0.0598923 0.998205
    outer loop
      vertex -2 2.499 8.9
      vertex 2.3 7.499 9.2
      vertex -2.3 7.499 9.2
    endloop
  endfacet
  facet normal 0.998205 -0.0598907 0
    outer loop
      vertex 2.3 7.499 9.2
      vertex 2.14157 4.85843 0.5
      vertex 2.3 7.499 0.5
    endloop
  endfacet
  facet normal 0.998205 -0.0598923 4.9083e-07
    outer loop
      vertex 2 2.499 8.9
      vertex 2.14157 4.85843 0.5
      vertex 2.3 7.499 9.2
    endloop
  endfacet
  facet normal 0.998205 -0.0598941 9.19104e-20
    outer loop
      vertex 2.14157 4.85843 0.5
      vertex 2 2.499 8.9
      vertex 2 2.499 0.5
    endloop
  endfacet
  facet normal -0.998205 -0.0598907 -7.61261e-19
    outer loop
      vertex -2.14157 4.85843 0.5
      vertex -2.3 7.499 9.2
      vertex -2.3 7.499 0.5
    endloop
  endfacet
  facet normal -0.998205 -0.0598941 -0
    outer loop
      vertex -2 2.499 8.9
      vertex -2.14157 4.85843 0.5
      vertex -2 2.499 0.5
    endloop
  endfacet
  facet normal -0.998205 -0.0598923 4.9083e-07
    outer loop
      vertex -2.14157 4.85843 0.5
      vertex -2 2.499 8.9
      vertex -2.3 7.499 9.2
    endloop
  endfacet
  facet normal 0 -1 0
    outer loop
      vertex -2 2.499 0.5
      vertex 2 2.499 8.9
      vertex -2 2.499 8.9
    endloop
  endfacet
  facet normal 0 -1 -0
    outer loop
      vertex 2 2.499 8.9
      vertex -2 2.499 0.5
      vertex 2 2.499 0.5
    endloop
  endfacet
  facet normal -1 0 0
    outer loop
      vertex -2.3 7.5 6.2
      vertex -2.3 14 9.2
      vertex -2.3 14 6.2
    endloop
  endfacet
  facet normal -1 0 0
    outer loop
      vertex -2.3 7.5 6.2
      vertex -2.3 7.499 9.2
      vertex -2.3 14 9.2
    endloop
  endfacet
  facet normal -1 0 0
    outer loop
      vertex -2.3 7.499 9.2
      vertex -2.3 7.5 6.2
      vertex -2.3 7.499 0.5
    endloop
  endfacet
  facet normal -1 0 0
    outer loop
      vertex -2.3 7.5 0.5
      vertex -2.3 7.499 0.5
      vertex -2.3 7.5 6.2
    endloop
  endfacet
  facet normal 0 1 -0
    outer loop
      vertex 2.3 14 6.2
      vertex -2.3 14 9.2
      vertex 2.3 14 9.2
    endloop
  endfacet
  facet normal 0 1 0
    outer loop
      vertex -2.3 14 9.2
      vertex 2.3 14 6.2
      vertex -2.3 14 6.2
    endloop
  endfacet
  facet normal 0 0 -1
    outer loop
      vertex -2.3 7.5 6.2
      vertex 2.3 14 6.2
      vertex 2.3 7.5 6.2
    endloop
  endfacet
  facet normal -0 0 -1
    outer loop
      vertex 2.3 14 6.2
      vertex -2.3 7.5 6.2
      vertex -2.3 14 6.2
    endloop
  endfacet
  facet normal -0 0 1
    outer loop
      vertex 17.7 -6 9.2
      vertex 22.3 -12.501 9.2
      vertex 22.3 -6 9.2
    endloop
  endfacet
  facet normal 0 0 1
    outer loop
      vertex 22.3 -12.501 9.2
      vertex 17.7 -6 9.2
      vertex 17.7 -12.501 9.2
    endloop
  endfacet
  facet normal 0 1 -0
    outer loop
      vertex 22.3 -12.5 0.5
      vertex 17.7 -12.5 6.2
      vertex 22.3 -12.5 6.2
    endloop
  endfacet
  facet normal 0 1 0
    outer loop
      vertex 17.7 -12.5 6.2
      vertex 22.3 -12.5 0.5
      vertex 17.7 -12.5 0.5
    endloop
  endfacet
  facet normal 1 0 0
    outer loop
      vertex 22.3 -6 9.2
      vertex 22.3 -12.5 6.2
      vertex 22.3 -6 6.2
    endloop
  endfacet
  facet normal 1 -0 0
    outer loop
      vertex 22.3 -12.501 9.2
      vertex 22.3 -12.5 6.2
      vertex 22.3 -6 9.2
    endloop
  endfacet
  facet normal 1 0 0
    outer loop
      vertex 22.3 -12.501 0.5
      vertex 22.3 -12.5 6.2
      vertex 22.3 -12.501 9.2
    endloop
  endfacet
  facet normal 1 0 0
    outer loop
      vertex 22.3 -12.5 6.2
      vertex 22.3 -12.501 0.5
      vertex 22.3 -12.5 0.5
    endloop
  endfacet
  facet normal 4.43292e-18 -0.0598923 0.998205
    outer loop
      vertex 22.3 -12.501 9.2
      vertex 18 -17.501 8.9
      vertex 22 -17.501 8.9
    endloop
  endfacet
  facet normal 3.85471e-18 -0.0598923 0.998205
    outer loop
      vertex 18 -17.501 8.9
      vertex 22.3 -12.501 9.2
      vertex 17.7 -12.501 9.2
    endloop
  endfacet
  facet normal 0.998206 -0.0598787 0
    outer loop
      vertex 22.3 -12.501 9.2
      vertex 22.1416 -15.1416 0.5
      vertex 22.3 -12.501 0.5
    endloop
  endfacet
  facet normal 0.998205 -0.0598925 4.20712e-06
    outer loop
      vertex 22 -17.501 8.9
      vertex 22.1416 -15.1416 0.5
      vertex 22.3 -12.501 9.2
    endloop
  endfacet
  facet normal 0.998204 -0.0599075 -8.85241e-19
    outer loop
      vertex 22.1416 -15.1416 0.5
      vertex 22 -17.501 8.9
      vertex 22 -17.501 0.5
    endloop
  endfacet
  facet normal -0.998206 -0.0598787 -3.66279e-19
    outer loop
      vertex 17.8584 -15.1416 0.5
      vertex 17.7 -12.501 9.2
      vertex 17.7 -12.501 0.5
    endloop
  endfacet
  facet normal -0.998204 -0.0599075 -0
    outer loop
      vertex 18 -17.501 8.9
      vertex 17.8584 -15.1416 0.5
      vertex 18 -17.501 0.5
    endloop
  endfacet
  facet normal -0.998205 -0.0598925 4.20712e-06
    outer loop
      vertex 17.8584 -15.1416 0.5
      vertex 18 -17.501 8.9
      vertex 17.7 -12.501 9.2
    endloop
  endfacet
  facet normal 0 -1 0
    outer loop
      vertex 18 -17.501 0.5
      vertex 22 -17.501 8.9
      vertex 18 -17.501 8.9
    endloop
  endfacet
  facet normal 0 -1 -0
    outer loop
      vertex 22 -17.501 8.9
      vertex 18 -17.501 0.5
      vertex 22 -17.501 0.5
    endloop
  endfacet
  facet normal -1 0 0
    outer loop
      vertex 17.7 -12.5 6.2
      vertex 17.7 -6 9.2
      vertex 17.7 -6 6.2
    endloop
  endfacet
  facet normal -1 0 0
    outer loop
      vertex 17.7 -12.5 6.2
      vertex 17.7 -12.501 9.2
      vertex 17.7 -6 9.2
    endloop
  endfacet
  facet normal -1 0 0
    outer loop
      vertex 17.7 -12.501 9.2
      vertex 17.7 -12.5 6.2
      vertex 17.7 -12.501 0.5
    endloop
  endfacet
  facet normal -1 0 0
    outer loop
      vertex 17.7 -12.5 0.5
      vertex 17.7 -12.501 0.5
      vertex 17.7 -12.5 6.2
    endloop
  endfacet
  facet normal 0 1 -0
    outer loop
      vertex 22.3 -6 6.2
      vertex 17.7 -6 9.2
      vertex 22.3 -6 9.2
    endloop
  endfacet
  facet normal 0 1 0
    outer loop
      vertex 17.7 -6 9.2
      vertex 22.3 -6 6.2
      vertex 17.7 -6 6.2
    endloop
  endfacet
  facet normal 0 0 -1
    outer loop
      vertex 17.7 -12.5 6.2
      vertex 22.3 -6 6.2
      vertex 22.3 -12.5 6.2
    endloop
  endfacet
  facet normal -0 0 -1
    outer loop
      vertex 22.3 -6 6.2
      vertex 17.7 -12.5 6.2
      vertex 17.7 -6 6.2
    endloop
  endfacet
  facet normal -0 0 1
    outer loop
      vertex -2.3 -26 9.2
      vertex 2.3 -32.501 9.2
      vertex 2.3 -26 9.2
    endloop
  endfacet
  facet normal 0 0 1
    outer loop
      vertex 2.3 -32.501 9.2
      vertex -2.3 -26 9.2
      vertex -2.3 -32.501 9.2
    endloop
  endfacet
  facet normal 0 1 0
    outer loop
      vertex 2 -32.5 0.5
      vertex 2.3 -32.5 6.2
      vertex 2.3 -32.5 0.5
    endloop
  endfacet
  facet normal 0 1 0
    outer loop
      vertex 2.3 -32.5 6.2
      vertex 2 -32.5 0.5
      vertex -2.3 -32.5 6.2
    endloop
  endfacet
  facet normal 0 1 -0
    outer loop
      vertex -2 -32.5 0.5
      vertex -2.3 -32.5 6.2
      vertex 2 -32.5 0.5
    endloop
  endfacet
  facet normal 0 1 0
    outer loop
      vertex -2.3 -32.5 6.2
      vertex -2 -32.5 0.5
      vertex -2.3 -32.5 0.5
    endloop
  endfacet
  facet normal 1 0 0
    outer loop
      vertex 2.3 -26 9.2
      vertex 2.3 -32.5 6.2
      vertex 2.3 -26 6.2
    endloop
  endfacet
  facet normal 1 -0 0
    outer loop
      vertex 2.3 -32.501 9.2
      vertex 2.3 -32.5 6.2
      vertex 2.3 -26 9.2
    endloop
  endfacet
  facet normal 1 0 0
    outer loop
      vertex 2.3 -32.501 0.5
      vertex 2.3 -32.5 6.2
      vertex 2.3 -32.501 9.2
    endloop
  endfacet
  facet normal 1 0 0
    outer loop
      vertex 2.3 -32.5 6.2
      vertex 2.3 -32.501 0.5
      vertex 2.3 -32.5 0.5
    endloop
  endfacet
  facet normal 0 -0.0598923 0.998205
    outer loop
      vertex 2.3 -32.501 9.2
      vertex -2 -37.501 8.9
      vertex 2 -37.501 8.9
    endloop
  endfacet
  facet normal 0 -0.0598923 0.998205
    outer loop
      vertex -2 -37.501 8.9
      vertex 2.3 -32.501 9.2
      vertex -2.3 -32.501 9.2
    endloop
  endfacet
  facet normal 0.998205 -0.0598923 0
    outer loop
      vertex 2 -37.501 8.9
      vertex 2.3 -32.501 0.5
      vertex 2.3 -32.501 9.2
    endloop
  endfacet
  facet normal 0.998205 -0.0598923 0
    outer loop
      vertex 2.3 -32.501 0.5
      vertex 2 -37.501 8.9
      vertex 2 -37.501 0.5
    endloop
  endfacet
  facet normal -0.998205 -0.0598923 -0
    outer loop
      vertex -2 -37.501 8.9
      vertex -2.3 -32.501 0.5
      vertex -2 -37.501 0.5
    endloop
  endfacet
  facet normal -0.998205 -0.0598923 0
    outer loop
      vertex -2.3 -32.501 0.5
      vertex -2 -37.501 8.9
      vertex -2.3 -32.501 9.2
    endloop
  endfacet
  facet normal 0 -1 0
    outer loop
      vertex -2 -37.501 0.5
      vertex 2 -37.501 8.9
      vertex -2 -37.501 8.9
    endloop
  endfacet
  facet normal 0 -1 -0
    outer loop
      vertex 2 -37.501 8.9
      vertex -2 -37.501 0.5
      vertex 2 -37.501 0.5
    endloop
  endfacet
  facet normal -1 0 0
    outer loop
      vertex -2.3 -32.5 6.2
      vertex -2.3 -26 9.2
      vertex -2.3 -26 6.2
    endloop
  endfacet
  facet normal -1 0 0
    outer loop
      vertex -2.3 -32.5 6.2
      vertex -2.3 -32.501 9.2
      vertex -2.3 -26 9.2
    endloop
  endfacet
  facet normal -1 0 0
    outer loop
      vertex -2.3 -32.501 9.2
      vertex -2.3 -32.5 6.2
      vertex -2.3 -32.501 0.5
    endloop
  endfacet
  facet normal -1 0 0
    outer loop
      vertex -2.3 -32.5 0.5
      vertex -2.3 -32.501 0.5
      vertex -2.3 -32.5 6.2
    endloop
  endfacet
  facet normal 0 1 -0
    outer loop
      vertex 2.3 -26 6.2
      vertex -2.3 -26 9.2
      vertex 2.3 -26 9.2
    endloop
  endfacet
  facet normal 0 1 0
    outer loop
      vertex -2.3 -26 9.2
      vertex 2.3 -26 6.2
      vertex -2.3 -26 6.2
    endloop
  endfacet
  facet normal 0 0 -1
    outer loop
      vertex -2.3 -32.5 6.2
      vertex 2.3 -26 6.2
      vertex 2.3 -32.5 6.2
    endloop
  endfacet
  facet normal -0 0 -1
    outer loop
      vertex 2.3 -26 6.2
      vertex -2.3 -32.5 6.2
      vertex -2.3 -26 6.2
    endloop
  endfacet
  facet normal -0 0 1
    outer loop
      vertex 37.7 14 9.2
      vertex 42.3 7.499 9.2
      vertex 42.3 14 9.2
    endloop
  endfacet
  facet normal 0 0 1
    outer loop
      vertex 42.3 7.499 9.2
      vertex 37.7 14 9.2
      vertex 37.7 7.499 9.2
    endloop
  endfacet
  facet normal 0 1 -0
    outer loop
      vertex 42.3 7.5 0.5
      vertex 37.7 7.5 6.2
      vertex 42.3 7.5 6.2
    endloop
  endfacet
  facet normal 0 1 0
    outer loop
      vertex 37.7 7.5 6.2
      vertex 42.3 7.5 0.5
      vertex 37.7 7.5 0.5
    endloop
  endfacet
  facet normal 1 0 0
    outer loop
      vertex 42.3 14 9.2
      vertex 42.3 7.5 6.2
      vertex 42.3 14 6.2
    endloop
  endfacet
  facet normal 1 -0 0
    outer loop
      vertex 42.3 7.499 9.2
      vertex 42.3 7.5 6.2
      vertex 42.3 14 9.2
    endloop
  endfacet
  facet normal 1 0 0
    outer loop
      vertex 42.3 7.499 0.5
      vertex 42.3 7.5 6.2
      vertex 42.3 7.499 9.2
    endloop
  endfacet
  facet normal 1 0 0
    outer loop
      vertex 42.3 7.5 6.2
      vertex 42.3 7.499 0.5
      vertex 42.3 7.5 0.5
    endloop
  endfacet
  facet normal 0 -0.0598923 0.998205
    outer loop
      vertex 42.3 7.499 9.2
      vertex 38 2.499 8.9
      vertex 42 2.499 8.9
    endloop
  endfacet
  facet normal 0 -0.0598923 0.998205
    outer loop
      vertex 38 2.499 8.9
      vertex 42.3 7.499 9.2
      vertex 37.7 7.499 9.2
    endloop
  endfacet
  facet normal 0.998206 -0.0598794 0
    outer loop
      vertex 42.3 7.499 9.2
      vertex 42.1416 4.85843 0.5
      vertex 42.3 7.499 0.5
    endloop
  endfacet
  facet normal 0.998205 -0.0598925 3.99676e-06
    outer loop
      vertex 42 2.499 8.9
      vertex 42.1416 4.85843 0.5
      vertex 42.3 7.499 9.2
    endloop
  endfacet
  facet normal 0.998204 -0.0599067 5.45941e-19
    outer loop
      vertex 42.1416 4.85843 0.5
      vertex 42 2.499 8.9
      vertex 42 2.499 0.5
    endloop
  endfacet
  facet normal -0.998206 -0.0598794 6.49115e-19
    outer loop
      vertex 37.8584 4.85843 0.5
      vertex 37.7 7.499 9.2
      vertex 37.7 7.499 0.5
    endloop
  endfacet
  facet normal -0.998204 -0.0599067 -0
    outer loop
      vertex 38 2.499 8.9
      vertex 37.8584 4.85843 0.5
      vertex 38 2.499 0.5
    endloop
  endfacet
  facet normal -0.998205 -0.0598925 3.99676e-06
    outer loop
      vertex 37.8584 4.85843 0.5
      vertex 38 2.499 8.9
      vertex 37.7 7.499 9.2
    endloop
  endfacet
  facet normal 0 -1 0
    outer loop
      vertex 38 2.499 0.5
      vertex 42 2.499 8.9
      vertex 38 2.499 8.9
    endloop
  endfacet
  facet normal 0 -1 -0
    outer loop
      vertex 42 2.499 8.9
      vertex 38 2.499 0.5
      vertex 42 2.499 0.5
    endloop
  endfacet
  facet normal -1 0 0
    outer loop
      vertex 37.7 7.5 6.2
      vertex 37.7 14 9.2
      vertex 37.7 14 6.2
    endloop
  endfacet
  facet normal -1 0 0
    outer loop
      vertex 37.7 7.5 6.2
      vertex 37.7 7.499 9.2
      vertex 37.7 14 9.2
    endloop
  endfacet
  facet normal -1 0 0
    outer loop
      vertex 37.7 7.499 9.2
      vertex 37.7 7.5 6.2
      vertex 37.7 7.499 0.5
    endloop
  endfacet
  facet normal -1 0 0
    outer loop
      vertex 37.7 7.5 0.5
      vertex 37.7 7.499 0.5
      vertex 37.7 7.5 6.2
    endloop
  endfacet
  facet normal 0 1 -0
    outer loop
      vertex 42.3 14 6.2
      vertex 37.7 14 9.2
      vertex 42.3 14 9.2
    endloop
  endfacet
  facet normal 0 1 0
    outer loop
      vertex 37.7 14 9.2
      vertex 42.3 14 6.2
      vertex 37.7 14 6.2
    endloop
  endfacet
  facet normal 0 0 -1
    outer loop
      vertex 37.7 7.5 6.2
      vertex 42.3 14 6.2
      vertex 42.3 7.5 6.2
    endloop
  endfacet
  facet normal -0 0 -1
    outer loop
      vertex 42.3 14 6.2
      vertex 37.7 7.5 6.2
      vertex 37.7 14 6.2
    endloop
  endfacet
  facet normal -0 0 1
    outer loop
      vertex 57.7 -6 9.2
      vertex 62.3 -12.501 9.2
      vertex 62.3 -6 9.2
    endloop
  endfacet
  facet normal 0 0 1
    outer loop
      vertex 62.3 -12.501 9.2
      vertex 57.7 -6 9.2
      vertex 57.7 -12.501 9.2
    endloop
  endfacet
  facet normal 0 1 0
    outer loop
      vertex 62 -12.5 0.5
      vertex 62.3 -12.5 6.2
      vertex 62.3 -12.5 0.5
    endloop
  endfacet
  facet normal 0 1 0
    outer loop
      vertex 62.3 -12.5 6.2
      vertex 62 -12.5 0.5
      vertex 57.7 -12.5 6.2
    endloop
  endfacet
  facet normal 0 1 0
    outer loop
      vertex 57.7 -12.5 6.2
      vertex 62 -12.5 0.5
      vertex 57.7 -12.5 0.5
    endloop
  endfacet
  facet normal 1 0 0
    outer loop
      vertex 62.3 -6 9.2
      vertex 62.3 -12.5 6.2
      vertex 62.3 -6 6.2
    endloop
  endfacet
  facet normal 1 -0 0
    outer loop
      vertex 62.3 -12.501 9.2
      vertex 62.3 -12.5 6.2
      vertex 62.3 -6 9.2
    endloop
  endfacet
  facet normal 1 0 0
    outer loop
      vertex 62.3 -12.501 0.5
      vertex 62.3 -12.5 6.2
      vertex 62.3 -12.501 9.2
    endloop
  endfacet
  facet normal 1 0 0
    outer loop
      vertex 62.3 -12.5 6.2
      vertex 62.3 -12.501 0.5
      vertex 62.3 -12.5 0.5
    endloop
  endfacet
  facet normal 4.43292e-18 -0.0598923 0.998205
    outer loop
      vertex 62.3 -12.501 9.2
      vertex 58 -17.501 8.9
      vertex 62 -17.501 8.9
    endloop
  endfacet
  facet normal 3.85471e-18 -0.0598923 0.998205
    outer loop
      vertex 58 -17.501 8.9
      vertex 62.3 -12.501 9.2
      vertex 57.7 -12.501 9.2
    endloop
  endfacet
  facet normal 0.998205 -0.0598923 2.03812e-18
    outer loop
      vertex 62 -17.501 8.9
      vertex 62.3 -12.501 0.5
      vertex 62.3 -12.501 9.2
    endloop
  endfacet
  facet normal 0.998205 -0.0598923 2.11091e-18
    outer loop
      vertex 62.3 -12.501 0.5
      vertex 62 -17.501 8.9
      vertex 62 -17.501 0.5
    endloop
  endfacet
  facet normal -0.998206 -0.0598787 -3.66279e-19
    outer loop
      vertex 57.8584 -15.1416 0.5
      vertex 57.7 -12.501 9.2
      vertex 57.7 -12.501 0.5
    endloop
  endfacet
  facet normal -0.998204 -0.0599075 -0
    outer loop
      vertex 58 -17.501 8.9
      vertex 57.8584 -15.1416 0.5
      vertex 58 -17.501 0.5
    endloop
  endfacet
  facet normal -0.998205 -0.0598925 4.20712e-06
    outer loop
      vertex 57.8584 -15.1416 0.5
      vertex 58 -17.501 8.9
      vertex 57.7 -12.501 9.2
    endloop
  endfacet
  facet normal 0 -1 0
    outer loop
      vertex 58 -17.501 0.5
      vertex 62 -17.501 8.9
      vertex 58 -17.501 8.9
    endloop
  endfacet
  facet normal 0 -1 -0
    outer loop
      vertex 62 -17.501 8.9
      vertex 58 -17.501 0.5
      vertex 62 -17.501 0.5
    endloop
  endfacet
  facet normal -1 0 0
    outer loop
      vertex 57.7 -12.5 6.2
      vertex 57.7 -6 9.2
      vertex 57.7 -6 6.2
    endloop
  endfacet
  facet normal -1 0 0
    outer loop
      vertex 57.7 -12.5 6.2
      vertex 57.7 -12.501 9.2
      vertex 57.7 -6 9.2
    endloop
  endfacet
  facet normal -1 0 0
    outer loop
      vertex 57.7 -12.501 9.2
      vertex 57.7 -12.5 6.2
      vertex 57.7 -12.501 0.5
    endloop
  endfacet
  facet normal -1 0 0
    outer loop
      vertex 57.7 -12.5 0.5
      vertex 57.7 -12.501 0.5
      vertex 57.7 -12.5 6.2
    endloop
  endfacet
  facet normal 0 1 -0
    outer loop
      vertex 62.3 -6 6.2
      vertex 57.7 -6 9.2
      vertex 62.3 -6 9.2
    endloop
  endfacet
  facet normal 0 1 0
    outer loop
      vertex 57.7 -6 9.2
      vertex 62.3 -6 6.2
      vertex 57.7 -6 6.2
    endloop
  endfacet
  facet normal 0 0 -1
    outer loop
      vertex 57.7 -12.5 6.2
      vertex 62.3 -6 6.2
      vertex 62.3 -12.5 6.2
    endloop
  endfacet
  facet normal -0 0 -1
    outer loop
      vertex 62.3 -6 6.2
      vertex 57.7 -12.5 6.2
      vertex 57.7 -6 6.2
    endloop
  endfacet
  facet normal -0 0 1
    outer loop
      vertex 37.7 -26 9.2
      vertex 42.3 -32.501 9.2
      vertex 42.3 -26 9.2
    endloop
  endfacet
  facet normal 0 0 1
    outer loop
      vertex 42.3 -32.501 9.2
      vertex 37.7 -26 9.2
      vertex 37.7 -32.501 9.2
    endloop
  endfacet
  facet normal 0 1 0
    outer loop
      vertex 42 -32.5 0.5
      vertex 42.3 -32.5 6.2
      vertex 42.3 -32.5 0.5
    endloop
  endfacet
  facet normal 0 1 0
    outer loop
      vertex 42.3 -32.5 6.2
      vertex 42 -32.5 0.5
      vertex 37.7 -32.5 6.2
    endloop
  endfacet
  facet normal 0 1 -0
    outer loop
      vertex 38 -32.5 0.5
      vertex 37.7 -32.5 6.2
      vertex 42 -32.5 0.5
    endloop
  endfacet
  facet normal 0 1 0
    outer loop
      vertex 37.7 -32.5 6.2
      vertex 38 -32.5 0.5
      vertex 37.7 -32.5 0.5
    endloop
  endfacet
  facet normal 1 0 0
    outer loop
      vertex 42.3 -26 9.2
      vertex 42.3 -32.5 6.2
      vertex 42.3 -26 6.2
    endloop
  endfacet
  facet normal 1 -0 0
    outer loop
      vertex 42.3 -32.501 9.2
      vertex 42.3 -32.5 6.2
      vertex 42.3 -26 9.2
    endloop
  endfacet
  facet normal 1 0 0
    outer loop
      vertex 42.3 -32.501 0.5
      vertex 42.3 -32.5 6.2
      vertex 42.3 -32.501 9.2
    endloop
  endfacet
  facet normal 1 0 0
    outer loop
      vertex 42.3 -32.5 6.2
      vertex 42.3 -32.501 0.5
      vertex 42.3 -32.5 0.5
    endloop
  endfacet
  facet normal 0 -0.0598923 0.998205
    outer loop
      vertex 42.3 -32.501 9.2
      vertex 38 -37.501 8.9
      vertex 42 -37.501 8.9
    endloop
  endfacet
  facet normal 0 -0.0598923 0.998205
    outer loop
      vertex 38 -37.501 8.9
      vertex 42.3 -32.501 9.2
      vertex 37.7 -32.501 9.2
    endloop
  endfacet
  facet normal 0.998205 -0.0598923 0
    outer loop
      vertex 42 -37.501 8.9
      vertex 42.3 -32.501 0.5
      vertex 42.3 -32.501 9.2
    endloop
  endfacet
  facet normal 0.998205 -0.0598923 0
    outer loop
      vertex 42.3 -32.501 0.5
      vertex 42 -37.501 8.9
      vertex 42 -37.501 0.5
    endloop
  endfacet
  facet normal -0.998205 -0.0598923 -0
    outer loop
      vertex 38 -37.501 8.9
      vertex 37.7 -32.501 0.5
      vertex 38 -37.501 0.5
    endloop
  endfacet
  facet normal -0.998205 -0.0598923 0
    outer loop
      vertex 37.7 -32.501 0.5
      vertex 38 -37.501 8.9
      vertex 37.7 -32.501 9.2
    endloop
  endfacet
  facet normal 0 -1 0
    outer loop
      vertex 38 -37.501 0.5
      vertex 42 -37.501 8.9
      vertex 38 -37.501 8.9
    endloop
  endfacet
  facet normal 0 -1 -0
    outer loop
      vertex 42 -37.501 8.9
      vertex 38 -37.501 0.5
      vertex 42 -37.501 0.5
    endloop
  endfacet
  facet normal -1 0 0
    outer loop
      vertex 37.7 -32.5 6.2
      vertex 37.7 -26 9.2
      vertex 37.7 -26 6.2
    endloop
  endfacet
  facet normal -1 0 0
    outer loop
      vertex 37.7 -32.5 6.2
      vertex 37.7 -32.501 9.2
      vertex 37.7 -26 9.2
    endloop
  endfacet
  facet normal -1 0 0
    outer loop
      vertex 37.7 -32.501 9.2
      vertex 37.7 -32.5 6.2
      vertex 37.7 -32.501 0.5
    endloop
  endfacet
  facet normal -1 0 0
    outer loop
      vertex 37.7 -32.5 0.5
      vertex 37.7 -32.501 0.5
      vertex 37.7 -32.5 6.2
    endloop
  endfacet
  facet normal 0 1 -0
    outer loop
      vertex 42.3 -26 6.2
      vertex 37.7 -26 9.2
      vertex 42.3 -26 9.2
    endloop
  endfacet
  facet normal 0 1 0
    outer loop
      vertex 37.7 -26 9.2
      vertex 42.3 -26 6.2
      vertex 37.7 -26 6.2
    endloop
  endfacet
  facet normal 0 0 -1
    outer loop
      vertex 37.7 -32.5 6.2
      vertex 42.3 -26 6.2
      vertex 42.3 -32.5 6.2
    endloop
  endfacet
  facet normal -0 0 -1
    outer loop
      vertex 42.3 -26 6.2
      vertex 37.7 -32.5 6.2
      vertex 37.7 -26 6.2
    endloop
  endfacet
endsolid OpenSCAD_Model
