solid OpenSCAD_Model
  facet normal 1 -0 0
    outer loop
      vertex -38 2.5 0.5
      vertex -38 5 0
      vertex -38 5 0.5
    endloop
  endfacet
  facet normal 1 0 0
    outer loop
      vertex -38 5 0
      vertex -38 2.5 0.5
      vertex -38 2.5 0
    endloop
  endfacet
  facet normal 1 -0 0
    outer loop
      vertex -38 11 0.5
      vertex -38 17.5 0
      vertex -38 17.5 0.5
    endloop
  endfacet
  facet normal 1 0 0
    outer loop
      vertex -38 17.5 0
      vertex -38 11 0.5
      vertex -38 11 0
    endloop
  endfacet
  facet normal 0 -1 0
    outer loop
      vertex -42 2.5 0
      vertex -38 2.5 0.5
      vertex -42 2.5 0.5
    endloop
  endfacet
  facet normal 0 -1 -0
    outer loop
      vertex -38 2.5 0.5
      vertex -42 2.5 0
      vertex -38 2.5 0
    endloop
  endfacet
  facet normal 0 -1 0
    outer loop
      vertex -42 2.5 0.5
      vertex -42.3 2.5 9.2
      vertex -42.3 2.5 0.5
    endloop
  endfacet
  facet normal 0 -1 0
    outer loop
      vertex -42.3 2.5 9.2
      vertex -42 2.5 0.5
      vertex -37.7 2.5 9.2
    endloop
  endfacet
  facet normal 0 -1 0
    outer loop
      vertex -38 2.5 0.5
      vertex -37.7 2.5 9.2
      vertex -42 2.5 0.5
    endloop
  endfacet
  facet normal 0 -1 -0
    outer loop
      vertex -37.7 2.5 9.2
      vertex -38 2.5 0.5
      vertex -37.7 2.5 0.5
    endloop
  endfacet
  facet normal 0 1 -0
    outer loop
      vertex -38 17.5 0
      vertex -42 17.5 0.5
      vertex -38 17.5 0.5
    endloop
  endfacet
  facet normal 0 1 0
    outer loop
      vertex -42 17.5 0.5
      vertex -38 17.5 0
      vertex -42 17.5 0
    endloop
  endfacet
  facet normal -1 0 0
    outer loop
      vertex -42 17.5 0
      vertex -42 7.5 0.5
      vertex -42 17.5 0.5
    endloop
  endfacet
  facet normal -1 0 0
    outer loop
      vertex -42 2.5 0
      vertex -42 7.5 0.5
      vertex -42 17.5 0
    endloop
  endfacet
  facet normal -1 -0 0
    outer loop
      vertex -42 7.5 0.5
      vertex -42 2.5 0
      vertex -42 2.5 0.5
    endloop
  endfacet
  facet normal 0 0 -1
    outer loop
      vertex 37.7 -37.5 0.5
      vertex 38 -32.5 0.5
      vertex 38 -37.5 0.5
    endloop
  endfacet
  facet normal -0 0 -1
    outer loop
      vertex 38 -32.5 0.5
      vertex 37.7 -37.5 0.5
      vertex 37.7 -32.5 0.5
    endloop
  endfacet
  facet normal 0 0 -1
    outer loop
      vertex 42 -37.5 0.5
      vertex 42.3 -32.5 0.5
      vertex 42.3 -37.5 0.5
    endloop
  endfacet
  facet normal -0 0 -1
    outer loop
      vertex 42.3 -32.5 0.5
      vertex 42 -37.5 0.5
      vertex 42 -32.5 0.5
    endloop
  endfacet
  facet normal 0 0 -1
    outer loop
      vertex 37.7 4.7 0.5
      vertex 38 2.5 0.5
      vertex 37.7 2.5 0.5
    endloop
  endfacet
  facet normal 0 0 -1
    outer loop
      vertex 38 2.5 0.5
      vertex 37.7 4.7 0.5
      vertex 38 5 0.5
    endloop
  endfacet
  facet normal 0 0 -1
    outer loop
      vertex 42 2.5 0.5
      vertex 42.3 4.7 0.5
      vertex 42.3 2.5 0.5
    endloop
  endfacet
  facet normal -0 0 -1
    outer loop
      vertex 42.3 4.7 0.5
      vertex 42 2.5 0.5
      vertex 42 5 0.5
    endloop
  endfacet
  facet normal 0 0 -1
    outer loop
      vertex 57.7 -15.3 0.5
      vertex 58 -17.5 0.5
      vertex 57.7 -17.5 0.5
    endloop
  endfacet
  facet normal 0 0 -1
    outer loop
      vertex 58 -17.5 0.5
      vertex 57.7 -15.3 0.5
      vertex 58 -15 0.5
    endloop
  endfacet
  facet normal 0 0 -1
    outer loop
      vertex 62 -17.5 0.5
      vertex 62.3 -12.5 0.5
      vertex 62.3 -17.5 0.5
    endloop
  endfacet
  facet normal -0 0 -1
    outer loop
      vertex 62.3 -12.5 0.5
      vertex 62 -17.5 0.5
      vertex 62 -12.5 0.5
    endloop
  endfacet
  facet normal 0 0 1
    outer loop
      vertex -38 17.5 0.5
      vertex -42 17.5 0.5
      vertex -38 11 0.5
    endloop
  endfacet
  facet normal 0 0 1
    outer loop
      vertex -18 -2.5 0.5
      vertex -22 -2.5 0.5
      vertex -18 -5 0.5
    endloop
  endfacet
  facet normal 0 0 1
    outer loop
      vertex 2 17.5 0.5
      vertex -2 17.5 0.5
      vertex 2 11 0.5
    endloop
  endfacet
  facet normal 0 0 1
    outer loop
      vertex 22 -2.5 0.5
      vertex 18 -2.5 0.5
      vertex 22 -5 0.5
    endloop
  endfacet
  facet normal 0 0 1
    outer loop
      vertex 42 17.5 0.5
      vertex 38 17.5 0.5
      vertex 42 11 0.5
    endloop
  endfacet
  facet normal 0 0 1
    outer loop
      vertex 58 -5 0.5
      vertex 62 -2.5 0.5
      vertex 58 -2.5 0.5
    endloop
  endfacet
  facet normal 0 0 1
    outer loop
      vertex 62 -2.5 0.5
      vertex 58 -5 0.5
      vertex 62 -12.5 0.5
    endloop
  endfacet
  facet normal -0 0 1
    outer loop
      vertex 57 -10 0.5
      vertex 62 -12.5 0.5
      vertex 58 -5 0.5
    endloop
  endfacet
  facet normal 0 0 1
    outer loop
      vertex 57.7 -12.5 0.5
      vertex 57 -10 0.5
      vertex 57.7 -15.3 0.5
    endloop
  endfacet
  facet normal 0 0 1
    outer loop
      vertex 62 -12.5 0.5
      vertex 57 -10 0.5
      vertex 57.7 -12.5 0.5
    endloop
  endfacet
  facet normal -0 0 1
    outer loop
      vertex 42.3 4.7 0.5
      vertex 58 -5 0.5
      vertex 42.3 7.5 0.5
    endloop
  endfacet
  facet normal 0 0 1
    outer loop
      vertex 42 11 0.5
      vertex 42.3 7.5 0.5
      vertex 58 -5 0.5
    endloop
  endfacet
  facet normal 0 0 1
    outer loop
      vertex 38 11 0.5
      vertex 42 11 0.5
      vertex 38 17.5 0.5
    endloop
  endfacet
  facet normal 0 0 1
    outer loop
      vertex 42 11 0.5
      vertex 38 11 0.5
      vertex 42.3 7.5 0.5
    endloop
  endfacet
  facet normal 0 0 1
    outer loop
      vertex 38 11 0.5
      vertex 37.7 7.5 0.5
      vertex 42.3 7.5 0.5
    endloop
  endfacet
  facet normal 0 0 1
    outer loop
      vertex 22 -5 0.5
      vertex 37.7 4.7 0.5
      vertex 37.7 7.5 0.5
    endloop
  endfacet
  facet normal 0 0 1
    outer loop
      vertex 22 -5 0.5
      vertex 37.7 7.5 0.5
      vertex 38 11 0.5
    endloop
  endfacet
  facet normal 0 0 1
    outer loop
      vertex 37.7 4.7 0.5
      vertex 22 -5 0.5
      vertex 23 -10 0.5
    endloop
  endfacet
  facet normal 0 0 1
    outer loop
      vertex 17 -10 0.5
      vertex 23 -10 0.5
      vertex 22 -5 0.5
    endloop
  endfacet
  facet normal 0 0 1
    outer loop
      vertex 18 -5 0.5
      vertex 22 -5 0.5
      vertex 18 -2.5 0.5
    endloop
  endfacet
  facet normal 0 0 1
    outer loop
      vertex 17 -10 0.5
      vertex 22 -5 0.5
      vertex 18 -5 0.5
    endloop
  endfacet
  facet normal 0 0 1
    outer loop
      vertex 23 -10 0.5
      vertex 17 -10 0.5
      vertex 22.3 -12.5 0.5
    endloop
  endfacet
  facet normal 0 0 1
    outer loop
      vertex 17.7 -12.5 0.5
      vertex 17 -10 0.5
      vertex 17.7 -15.3 0.5
    endloop
  endfacet
  facet normal 0 0 1
    outer loop
      vertex 22.3 -12.5 0.5
      vertex 17 -10 0.5
      vertex 17.7 -12.5 0.5
    endloop
  endfacet
  facet normal -0 0 1
    outer loop
      vertex 2.3 4.7 0.5
      vertex 18 -5 0.5
      vertex 2.3 7.5 0.5
    endloop
  endfacet
  facet normal 0 0 1
    outer loop
      vertex 2 11 0.5
      vertex 2.3 7.5 0.5
      vertex 18 -5 0.5
    endloop
  endfacet
  facet normal 0 0 1
    outer loop
      vertex -2 11 0.5
      vertex 2 11 0.5
      vertex -2 17.5 0.5
    endloop
  endfacet
  facet normal 0 0 1
    outer loop
      vertex 2 11 0.5
      vertex -2 11 0.5
      vertex 2.3 7.5 0.5
    endloop
  endfacet
  facet normal 0 0 1
    outer loop
      vertex -2 11 0.5
      vertex -2.3 7.5 0.5
      vertex 2.3 7.5 0.5
    endloop
  endfacet
  facet normal 0 0 1
    outer loop
      vertex -18 -5 0.5
      vertex -2.3 4.7 0.5
      vertex -2.3 7.5 0.5
    endloop
  endfacet
  facet normal 0 0 1
    outer loop
      vertex -18 -5 0.5
      vertex -2.3 7.5 0.5
      vertex -2 11 0.5
    endloop
  endfacet
  facet normal 0 0 1
    outer loop
      vertex -2.3 4.7 0.5
      vertex -18 -5 0.5
      vertex -17 -10 0.5
    endloop
  endfacet
  facet normal 0 0 1
    outer loop
      vertex -23 -10 0.5
      vertex -17 -10 0.5
      vertex -18 -5 0.5
    endloop
  endfacet
  facet normal 0 0 1
    outer loop
      vertex -22 -5 0.5
      vertex -18 -5 0.5
      vertex -22 -2.5 0.5
    endloop
  endfacet
  facet normal 0 0 1
    outer loop
      vertex -23 -10 0.5
      vertex -18 -5 0.5
      vertex -22 -5 0.5
    endloop
  endfacet
  facet normal 0 0 1
    outer loop
      vertex -17 -10 0.5
      vertex -23 -10 0.5
      vertex -17.7 -12.5 0.5
    endloop
  endfacet
  facet normal 0 0 1
    outer loop
      vertex -22.3 -12.5 0.5
      vertex -23 -10 0.5
      vertex -22.3 -15.3 0.5
    endloop
  endfacet
  facet normal 0 0 1
    outer loop
      vertex -17.7 -12.5 0.5
      vertex -23 -10 0.5
      vertex -22.3 -12.5 0.5
    endloop
  endfacet
  facet normal -0 0 1
    outer loop
      vertex -37.7 4.7 0.5
      vertex -22 -5 0.5
      vertex -37.7 7.5 0.5
    endloop
  endfacet
  facet normal 0 0 1
    outer loop
      vertex -38 11 0.5
      vertex -37.7 7.5 0.5
      vertex -22 -5 0.5
    endloop
  endfacet
  facet normal 0 0 1
    outer loop
      vertex -42 7.5 0.5
      vertex -38 11 0.5
      vertex -42 17.5 0.5
    endloop
  endfacet
  facet normal 0 0 1
    outer loop
      vertex -38 11 0.5
      vertex -42 7.5 0.5
      vertex -37.7 7.5 0.5
    endloop
  endfacet
  facet normal 0 0 1
    outer loop
      vertex 42 -25 0.5
      vertex 57.7 -15.3 0.5
      vertex 57 -10 0.5
    endloop
  endfacet
  facet normal 0 0 1
    outer loop
      vertex 57.7 -15.3 0.5
      vertex 42 -25 0.5
      vertex 42 -31 0.5
    endloop
  endfacet
  facet normal 0 0 1
    outer loop
      vertex 58 -5 0.5
      vertex 42.3 4.7 0.5
      vertex 57 -10 0.5
    endloop
  endfacet
  facet normal -0 0 1
    outer loop
      vertex 22.3 -15.3 0.5
      vertex 38 -25 0.5
      vertex 23 -10 0.5
    endloop
  endfacet
  facet normal 0 0 1
    outer loop
      vertex 22.3 -15.3 0.5
      vertex 23 -10 0.5
      vertex 22.3 -12.5 0.5
    endloop
  endfacet
  facet normal 0 0 1
    outer loop
      vertex 38 -25 0.5
      vertex 22.3 -15.3 0.5
      vertex 38 -31 0.5
    endloop
  endfacet
  facet normal 0 0 1
    outer loop
      vertex 38 -25 0.5
      vertex 42 -25 0.5
      vertex 42 -22.5 0.5
    endloop
  endfacet
  facet normal 0 0 1
    outer loop
      vertex 42 -25 0.5
      vertex 38 -25 0.5
      vertex 42 -31 0.5
    endloop
  endfacet
  facet normal 0 0 1
    outer loop
      vertex 38 -25 0.5
      vertex 42 -22.5 0.5
      vertex 38 -22.5 0.5
    endloop
  endfacet
  facet normal 0 0 1
    outer loop
      vertex 38 -31 0.5
      vertex 42 -31 0.5
      vertex 38 -25 0.5
    endloop
  endfacet
  facet normal 0 0 1
    outer loop
      vertex 42 -31 0.5
      vertex 38 -31 0.5
      vertex 42 -32.5 0.5
    endloop
  endfacet
  facet normal 0 0 1
    outer loop
      vertex 42 -32.5 0.5
      vertex 38 -31 0.5
      vertex 38 -32.5 0.5
    endloop
  endfacet
  facet normal 0 0 1
    outer loop
      vertex 2 -25 0.5
      vertex 17.7 -15.3 0.5
      vertex 17 -10 0.5
    endloop
  endfacet
  facet normal 0 0 1
    outer loop
      vertex 17.7 -15.3 0.5
      vertex 2 -25 0.5
      vertex 2 -31 0.5
    endloop
  endfacet
  facet normal 0 0 1
    outer loop
      vertex 18 -5 0.5
      vertex 2.3 4.7 0.5
      vertex 17 -10 0.5
    endloop
  endfacet
  facet normal -0 0 1
    outer loop
      vertex -17.7 -15.3 0.5
      vertex -2 -25 0.5
      vertex -17 -10 0.5
    endloop
  endfacet
  facet normal 0 0 1
    outer loop
      vertex -17.7 -15.3 0.5
      vertex -17 -10 0.5
      vertex -17.7 -12.5 0.5
    endloop
  endfacet
  facet normal 0 0 1
    outer loop
      vertex -2 -25 0.5
      vertex -17.7 -15.3 0.5
      vertex -2 -31 0.5
    endloop
  endfacet
  facet normal 0 0 1
    outer loop
      vertex -2 -25 0.5
      vertex 2 -25 0.5
      vertex 2 -22.5 0.5
    endloop
  endfacet
  facet normal 0 0 1
    outer loop
      vertex 2 -25 0.5
      vertex -2 -25 0.5
      vertex 2 -31 0.5
    endloop
  endfacet
  facet normal 0 0 1
    outer loop
      vertex -2 -25 0.5
      vertex 2 -22.5 0.5
      vertex -2 -22.5 0.5
    endloop
  endfacet
  facet normal 0 0 1
    outer loop
      vertex -2 -31 0.5
      vertex 2 -31 0.5
      vertex -2 -25 0.5
    endloop
  endfacet
  facet normal 0 0 1
    outer loop
      vertex 2 -31 0.5
      vertex -2 -31 0.5
      vertex 2 -32.5 0.5
    endloop
  endfacet
  facet normal 0 0 1
    outer loop
      vertex 2 -32.5 0.5
      vertex -2 -31 0.5
      vertex -2 -32.5 0.5
    endloop
  endfacet
  facet normal 0 0 1
    outer loop
      vertex -38 -25 0.5
      vertex -22.3 -15.3 0.5
      vertex -23 -10 0.5
    endloop
  endfacet
  facet normal 0 0 1
    outer loop
      vertex -22.3 -15.3 0.5
      vertex -38 -25 0.5
      vertex -38 -31 0.5
    endloop
  endfacet
  facet normal 0 0 1
    outer loop
      vertex -22 -5 0.5
      vertex -37.7 4.7 0.5
      vertex -23 -10 0.5
    endloop
  endfacet
  facet normal -0 0 1
    outer loop
      vertex -42 -22.5 0.5
      vertex -38 -25 0.5
      vertex -38 -22.5 0.5
    endloop
  endfacet
  facet normal 0 0 1
    outer loop
      vertex -42 -32.5 0.5
      vertex -38 -25 0.5
      vertex -42 -22.5 0.5
    endloop
  endfacet
  facet normal 0 0 1
    outer loop
      vertex -38 -25 0.5
      vertex -42 -32.5 0.5
      vertex -38 -31 0.5
    endloop
  endfacet
  facet normal 0 0 1
    outer loop
      vertex -38 -31 0.5
      vertex -42 -32.5 0.5
      vertex -38 -32.5 0.5
    endloop
  endfacet
  facet normal 0 0 -1
    outer loop
      vertex -42.3 -37.5 0.5
      vertex -42 -32.5 0.5
      vertex -42 -37.5 0.5
    endloop
  endfacet
  facet normal -0 0 -1
    outer loop
      vertex -42 -32.5 0.5
      vertex -42.3 -37.5 0.5
      vertex -42.3 -32.5 0.5
    endloop
  endfacet
  facet normal 0 0 -1
    outer loop
      vertex -38 -37.5 0.5
      vertex -37.7 -32.5 0.5
      vertex -37.7 -37.5 0.5
    endloop
  endfacet
  facet normal -0 0 -1
    outer loop
      vertex -37.7 -32.5 0.5
      vertex -38 -37.5 0.5
      vertex -38 -32.5 0.5
    endloop
  endfacet
  facet normal 0 0 -1
    outer loop
      vertex -42.3 2.5 0.5
      vertex -42 7.5 0.5
      vertex -42 2.5 0.5
    endloop
  endfacet
  facet normal -0 0 -1
    outer loop
      vertex -42 7.5 0.5
      vertex -42.3 2.5 0.5
      vertex -42.3 7.5 0.5
    endloop
  endfacet
  facet normal 0 0 -1
    outer loop
      vertex -38 2.5 0.5
      vertex -37.7 4.7 0.5
      vertex -37.7 2.5 0.5
    endloop
  endfacet
  facet normal -0 0 -1
    outer loop
      vertex -37.7 4.7 0.5
      vertex -38 2.5 0.5
      vertex -38 5 0.5
    endloop
  endfacet
  facet normal 0 0 -1
    outer loop
      vertex -22.3 -15.3 0.5
      vertex -22 -17.5 0.5
      vertex -22.3 -17.5 0.5
    endloop
  endfacet
  facet normal 0 0 -1
    outer loop
      vertex -22 -17.5 0.5
      vertex -22.3 -15.3 0.5
      vertex -22 -15 0.5
    endloop
  endfacet
  facet normal 0 0 -1
    outer loop
      vertex -18 -17.5 0.5
      vertex -17.7 -15.3 0.5
      vertex -17.7 -17.5 0.5
    endloop
  endfacet
  facet normal -0 0 -1
    outer loop
      vertex -17.7 -15.3 0.5
      vertex -18 -17.5 0.5
      vertex -18 -15 0.5
    endloop
  endfacet
  facet normal 0 0 -1
    outer loop
      vertex -2.3 -37.5 0.5
      vertex -2 -32.5 0.5
      vertex -2 -37.5 0.5
    endloop
  endfacet
  facet normal -0 0 -1
    outer loop
      vertex -2 -32.5 0.5
      vertex -2.3 -37.5 0.5
      vertex -2.3 -32.5 0.5
    endloop
  endfacet
  facet normal 0 0 -1
    outer loop
      vertex 2 -37.5 0.5
      vertex 2.3 -32.5 0.5
      vertex 2.3 -37.5 0.5
    endloop
  endfacet
  facet normal -0 0 -1
    outer loop
      vertex 2.3 -32.5 0.5
      vertex 2 -37.5 0.5
      vertex 2 -32.5 0.5
    endloop
  endfacet
  facet normal 0 0 -1
    outer loop
      vertex -2.3 4.7 0.5
      vertex -2 2.5 0.5
      vertex -2.3 2.5 0.5
    endloop
  endfacet
  facet normal 0 0 -1
    outer loop
      vertex -2 2.5 0.5
      vertex -2.3 4.7 0.5
      vertex -2 5 0.5
    endloop
  endfacet
  facet normal 0 0 -1
    outer loop
      vertex 2 2.5 0.5
      vertex 2.3 4.7 0.5
      vertex 2.3 2.5 0.5
    endloop
  endfacet
  facet normal -0 0 -1
    outer loop
      vertex 2.3 4.7 0.5
      vertex 2 2.5 0.5
      vertex 2 5 0.5
    endloop
  endfacet
  facet normal 0 0 -1
    outer loop
      vertex 17.7 -15.3 0.5
      vertex 18 -17.5 0.5
      vertex 17.7 -17.5 0.5
    endloop
  endfacet
  facet normal 0 0 -1
    outer loop
      vertex 18 -17.5 0.5
      vertex 17.7 -15.3 0.5
      vertex 18 -15 0.5
    endloop
  endfacet
  facet normal 0 0 -1
    outer loop
      vertex 22 -17.5 0.5
      vertex 22.3 -15.3 0.5
      vertex 22.3 -17.5 0.5
    endloop
  endfacet
  facet normal -0 0 -1
    outer loop
      vertex 22.3 -15.3 0.5
      vertex 22 -17.5 0.5
      vertex 22 -15 0.5
    endloop
  endfacet
  facet normal 0 0 -1
    outer loop
      vertex -42 2.5 0
      vertex -38 5 0
      vertex -38 2.5 0
    endloop
  endfacet
  facet normal -0 0 -1
    outer loop
      vertex -38 5 0
      vertex -42 2.5 0
      vertex -38 11 0
    endloop
  endfacet
  facet normal 0 0 -1
    outer loop
      vertex -42 17.5 0
      vertex -38 11 0
      vertex -42 2.5 0
    endloop
  endfacet
  facet normal 0 0 -1
    outer loop
      vertex -38 11 0
      vertex -42 17.5 0
      vertex -38 17.5 0
    endloop
  endfacet
  facet normal 0 0 -1
    outer loop
      vertex -42 -37.5 0
      vertex -38 -31 0
      vertex -38 -37.5 0
    endloop
  endfacet
  facet normal 0 0 -1
    outer loop
      vertex -42 -22.5 0
      vertex -38 -31 0
      vertex -42 -37.5 0
    endloop
  endfacet
  facet normal 0 0 -1
    outer loop
      vertex -38 -31 0
      vertex -42 -22.5 0
      vertex -38 -25 0
    endloop
  endfacet
  facet normal 0 0 -1
    outer loop
      vertex -38 -25 0
      vertex -42 -22.5 0
      vertex -38 -22.5 0
    endloop
  endfacet
  facet normal -0 0 -1
    outer loop
      vertex -18 -5 0
      vertex -23 -10 0
      vertex -22 -5 0
    endloop
  endfacet
  facet normal 0 0 -1
    outer loop
      vertex -38 -25 0
      vertex -22 -15 0
      vertex -38 -31 0
    endloop
  endfacet
  facet normal -0 0 -1
    outer loop
      vertex -22 -15 0
      vertex -38 -25 0
      vertex -23 -10 0
    endloop
  endfacet
  facet normal 0 0 -1
    outer loop
      vertex -22 -15 0
      vertex -18 -15 0
      vertex -18 -17.5 0
    endloop
  endfacet
  facet normal 0 0 -1
    outer loop
      vertex -23 -10 0
      vertex -18 -15 0
      vertex -22 -15 0
    endloop
  endfacet
  facet normal 0 0 -1
    outer loop
      vertex -22 -15 0
      vertex -18 -17.5 0
      vertex -22 -17.5 0
    endloop
  endfacet
  facet normal 0 0 -1
    outer loop
      vertex -17 -10 0
      vertex -23 -10 0
      vertex -18 -5 0
    endloop
  endfacet
  facet normal 0 0 -1
    outer loop
      vertex -18 -5 0
      vertex -22 -5 0
      vertex -18 -2.5 0
    endloop
  endfacet
  facet normal -0 0 -1
    outer loop
      vertex -18 -2.5 0
      vertex -22 -5 0
      vertex -22 -2.5 0
    endloop
  endfacet
  facet normal 0 0 -1
    outer loop
      vertex -38 5 0
      vertex -22 -5 0
      vertex -23 -10 0
    endloop
  endfacet
  facet normal 0 0 -1
    outer loop
      vertex -22 -5 0
      vertex -38 5 0
      vertex -38 11 0
    endloop
  endfacet
  facet normal 0 0 -1
    outer loop
      vertex -18 -5 0
      vertex -2 5 0
      vertex -17 -10 0
    endloop
  endfacet
  facet normal -0 0 -1
    outer loop
      vertex -2 5 0
      vertex -18 -5 0
      vertex -2 11 0
    endloop
  endfacet
  facet normal 0 0 -1
    outer loop
      vertex -23 -10 0
      vertex -17 -10 0
      vertex -18 -15 0
    endloop
  endfacet
  facet normal 0 0 -1
    outer loop
      vertex -18 -15 0
      vertex -2 -25 0
      vertex -2 -31 0
    endloop
  endfacet
  facet normal 0 0 -1
    outer loop
      vertex -2 -25 0
      vertex -18 -15 0
      vertex -17 -10 0
    endloop
  endfacet
  facet normal 0 0 -1
    outer loop
      vertex -2 5 0
      vertex 2 5 0
      vertex 2 2.5 0
    endloop
  endfacet
  facet normal 0 0 -1
    outer loop
      vertex 2 5 0
      vertex -2 5 0
      vertex 2 11 0
    endloop
  endfacet
  facet normal 0 0 -1
    outer loop
      vertex -2 5 0
      vertex 2 2.5 0
      vertex -2 2.5 0
    endloop
  endfacet
  facet normal -0 0 -1
    outer loop
      vertex 2 11 0
      vertex -2 5 0
      vertex -2 11 0
    endloop
  endfacet
  facet normal 0 0 -1
    outer loop
      vertex 2 11 0
      vertex -2 11 0
      vertex 2 17.5 0
    endloop
  endfacet
  facet normal -0 0 -1
    outer loop
      vertex 2 17.5 0
      vertex -2 11 0
      vertex -2 17.5 0
    endloop
  endfacet
  facet normal 0 0 -1
    outer loop
      vertex -2 -31 0
      vertex 2 -31 0
      vertex 2 -37.5 0
    endloop
  endfacet
  facet normal 0 0 -1
    outer loop
      vertex 2 -31 0
      vertex -2 -31 0
      vertex 2 -25 0
    endloop
  endfacet
  facet normal 0 0 -1
    outer loop
      vertex -2 -31 0
      vertex 2 -37.5 0
      vertex -2 -37.5 0
    endloop
  endfacet
  facet normal 0 0 -1
    outer loop
      vertex -2 -25 0
      vertex 2 -25 0
      vertex -2 -31 0
    endloop
  endfacet
  facet normal 0 0 -1
    outer loop
      vertex 2 -25 0
      vertex -2 -25 0
      vertex 2 -22.5 0
    endloop
  endfacet
  facet normal -0 0 -1
    outer loop
      vertex 2 -22.5 0
      vertex -2 -25 0
      vertex -2 -22.5 0
    endloop
  endfacet
  facet normal -0 0 -1
    outer loop
      vertex 22 -5 0
      vertex 17 -10 0
      vertex 18 -5 0
    endloop
  endfacet
  facet normal 0 0 -1
    outer loop
      vertex 2 -25 0
      vertex 18 -15 0
      vertex 2 -31 0
    endloop
  endfacet
  facet normal -0 0 -1
    outer loop
      vertex 18 -15 0
      vertex 2 -25 0
      vertex 17 -10 0
    endloop
  endfacet
  facet normal 0 0 -1
    outer loop
      vertex 18 -15 0
      vertex 22 -15 0
      vertex 22 -17.5 0
    endloop
  endfacet
  facet normal 0 0 -1
    outer loop
      vertex 17 -10 0
      vertex 22 -15 0
      vertex 18 -15 0
    endloop
  endfacet
  facet normal 0 0 -1
    outer loop
      vertex 18 -15 0
      vertex 22 -17.5 0
      vertex 18 -17.5 0
    endloop
  endfacet
  facet normal 0 0 -1
    outer loop
      vertex 23 -10 0
      vertex 17 -10 0
      vertex 22 -5 0
    endloop
  endfacet
  facet normal 0 0 -1
    outer loop
      vertex 22 -5 0
      vertex 18 -5 0
      vertex 22 -2.5 0
    endloop
  endfacet
  facet normal -0 0 -1
    outer loop
      vertex 22 -2.5 0
      vertex 18 -5 0
      vertex 18 -2.5 0
    endloop
  endfacet
  facet normal 0 0 -1
    outer loop
      vertex 2 5 0
      vertex 18 -5 0
      vertex 17 -10 0
    endloop
  endfacet
  facet normal 0 0 -1
    outer loop
      vertex 18 -5 0
      vertex 2 5 0
      vertex 2 11 0
    endloop
  endfacet
  facet normal 0 0 -1
    outer loop
      vertex 22 -5 0
      vertex 38 5 0
      vertex 23 -10 0
    endloop
  endfacet
  facet normal -0 0 -1
    outer loop
      vertex 38 5 0
      vertex 22 -5 0
      vertex 38 11 0
    endloop
  endfacet
  facet normal 0 0 -1
    outer loop
      vertex 17 -10 0
      vertex 23 -10 0
      vertex 22 -15 0
    endloop
  endfacet
  facet normal 0 0 -1
    outer loop
      vertex 22 -15 0
      vertex 38 -25 0
      vertex 38 -31 0
    endloop
  endfacet
  facet normal 0 0 -1
    outer loop
      vertex 38 -25 0
      vertex 22 -15 0
      vertex 23 -10 0
    endloop
  endfacet
  facet normal 0 0 -1
    outer loop
      vertex 38 5 0
      vertex 42 5 0
      vertex 42 2.5 0
    endloop
  endfacet
  facet normal 0 0 -1
    outer loop
      vertex 42 5 0
      vertex 38 5 0
      vertex 42 11 0
    endloop
  endfacet
  facet normal 0 0 -1
    outer loop
      vertex 38 5 0
      vertex 42 2.5 0
      vertex 38 2.5 0
    endloop
  endfacet
  facet normal -0 0 -1
    outer loop
      vertex 42 11 0
      vertex 38 5 0
      vertex 38 11 0
    endloop
  endfacet
  facet normal 0 0 -1
    outer loop
      vertex 42 11 0
      vertex 38 11 0
      vertex 42 17.5 0
    endloop
  endfacet
  facet normal -0 0 -1
    outer loop
      vertex 42 17.5 0
      vertex 38 11 0
      vertex 38 17.5 0
    endloop
  endfacet
  facet normal 0 0 -1
    outer loop
      vertex 38 -31 0
      vertex 42 -31 0
      vertex 42 -37.5 0
    endloop
  endfacet
  facet normal 0 0 -1
    outer loop
      vertex 42 -31 0
      vertex 38 -31 0
      vertex 42 -25 0
    endloop
  endfacet
  facet normal 0 0 -1
    outer loop
      vertex 38 -31 0
      vertex 42 -37.5 0
      vertex 38 -37.5 0
    endloop
  endfacet
  facet normal 0 0 -1
    outer loop
      vertex 38 -25 0
      vertex 42 -25 0
      vertex 38 -31 0
    endloop
  endfacet
  facet normal 0 0 -1
    outer loop
      vertex 42 -25 0
      vertex 38 -25 0
      vertex 42 -22.5 0
    endloop
  endfacet
  facet normal -0 0 -1
    outer loop
      vertex 42 -22.5 0
      vertex 38 -25 0
      vertex 38 -22.5 0
    endloop
  endfacet
  facet normal 0 0 -1
    outer loop
      vertex 62 -2.5 0
      vertex 57 -10 0
      vertex 58 -5 0
    endloop
  endfacet
  facet normal 0 0 -1
    outer loop
      vertex 42 -25 0
      vertex 58 -15 0
      vertex 42 -31 0
    endloop
  endfacet
  facet normal -0 0 -1
    outer loop
      vertex 58 -15 0
      vertex 42 -25 0
      vertex 57 -10 0
    endloop
  endfacet
  facet normal 0 0 -1
    outer loop
      vertex 58 -15 0
      vertex 62 -17.5 0
      vertex 58 -17.5 0
    endloop
  endfacet
  facet normal 0 0 -1
    outer loop
      vertex 57 -10 0
      vertex 62 -17.5 0
      vertex 58 -15 0
    endloop
  endfacet
  facet normal 0 0 -1
    outer loop
      vertex 62 -17.5 0
      vertex 57 -10 0
      vertex 62 -2.5 0
    endloop
  endfacet
  facet normal -0 0 -1
    outer loop
      vertex 62 -2.5 0
      vertex 58 -5 0
      vertex 58 -2.5 0
    endloop
  endfacet
  facet normal 0 0 -1
    outer loop
      vertex 42 5 0
      vertex 58 -5 0
      vertex 57 -10 0
    endloop
  endfacet
  facet normal 0 0 -1
    outer loop
      vertex 58 -5 0
      vertex 42 5 0
      vertex 42 11 0
    endloop
  endfacet
  facet normal 1 -0 0
    outer loop
      vertex -18 -17.5 0.5
      vertex -18 -15 0
      vertex -18 -15 0.5
    endloop
  endfacet
  facet normal 1 0 0
    outer loop
      vertex -18 -15 0
      vertex -18 -17.5 0.5
      vertex -18 -17.5 0
    endloop
  endfacet
  facet normal 1 -0 0
    outer loop
      vertex -18 -5 0.5
      vertex -18 -2.5 0
      vertex -18 -2.5 0.5
    endloop
  endfacet
  facet normal 1 0 0
    outer loop
      vertex -18 -2.5 0
      vertex -18 -5 0.5
      vertex -18 -5 0
    endloop
  endfacet
  facet normal 0 -1 0
    outer loop
      vertex -22 -17.5 0
      vertex -18 -17.5 0.5
      vertex -22 -17.5 0.5
    endloop
  endfacet
  facet normal 0 -1 -0
    outer loop
      vertex -18 -17.5 0.5
      vertex -22 -17.5 0
      vertex -18 -17.5 0
    endloop
  endfacet
  facet normal 0 -1 0
    outer loop
      vertex -22 -17.5 0.5
      vertex -22.3 -17.5 9.2
      vertex -22.3 -17.5 0.5
    endloop
  endfacet
  facet normal 0 -1 0
    outer loop
      vertex -22.3 -17.5 9.2
      vertex -22 -17.5 0.5
      vertex -17.7 -17.5 9.2
    endloop
  endfacet
  facet normal 0 -1 0
    outer loop
      vertex -18 -17.5 0.5
      vertex -17.7 -17.5 9.2
      vertex -22 -17.5 0.5
    endloop
  endfacet
  facet normal 0 -1 -0
    outer loop
      vertex -17.7 -17.5 9.2
      vertex -18 -17.5 0.5
      vertex -17.7 -17.5 0.5
    endloop
  endfacet
  facet normal 0 1 -0
    outer loop
      vertex -18 -2.5 0
      vertex -22 -2.5 0.5
      vertex -18 -2.5 0.5
    endloop
  endfacet
  facet normal 0 1 0
    outer loop
      vertex -22 -2.5 0.5
      vertex -18 -2.5 0
      vertex -22 -2.5 0
    endloop
  endfacet
  facet normal -1 0 0
    outer loop
      vertex -22 -17.5 0
      vertex -22 -15 0.5
      vertex -22 -15 0
    endloop
  endfacet
  facet normal -1 -0 0
    outer loop
      vertex -22 -15 0.5
      vertex -22 -17.5 0
      vertex -22 -17.5 0.5
    endloop
  endfacet
  facet normal -1 0 0
    outer loop
      vertex -22 -5 0
      vertex -22 -2.5 0.5
      vertex -22 -2.5 0
    endloop
  endfacet
  facet normal -1 -0 0
    outer loop
      vertex -22 -2.5 0.5
      vertex -22 -5 0
      vertex -22 -5 0.5
    endloop
  endfacet
  facet normal 1 -0 0
    outer loop
      vertex -38 -32.5 0.5
      vertex -38 -31 0
      vertex -38 -31 0.5
    endloop
  endfacet
  facet normal 1 0 0
    outer loop
      vertex -38 -37.5 0
      vertex -38 -32.5 0.5
      vertex -38 -37.5 0.5
    endloop
  endfacet
  facet normal 1 0 0
    outer loop
      vertex -38 -32.5 0.5
      vertex -38 -37.5 0
      vertex -38 -31 0
    endloop
  endfacet
  facet normal 1 -0 0
    outer loop
      vertex -38 -25 0.5
      vertex -38 -22.5 0
      vertex -38 -22.5 0.5
    endloop
  endfacet
  facet normal 1 0 0
    outer loop
      vertex -38 -22.5 0
      vertex -38 -25 0.5
      vertex -38 -25 0
    endloop
  endfacet
  facet normal 0 -1 0
    outer loop
      vertex -42 -37.5 0
      vertex -38 -37.5 0.5
      vertex -42 -37.5 0.5
    endloop
  endfacet
  facet normal 0 -1 -0
    outer loop
      vertex -38 -37.5 0.5
      vertex -42 -37.5 0
      vertex -38 -37.5 0
    endloop
  endfacet
  facet normal 0 -1 0
    outer loop
      vertex -42 -37.5 0.5
      vertex -42.3 -37.5 9.2
      vertex -42.3 -37.5 0.5
    endloop
  endfacet
  facet normal 0 -1 0
    outer loop
      vertex -42.3 -37.5 9.2
      vertex -42 -37.5 0.5
      vertex -37.7 -37.5 9.2
    endloop
  endfacet
  facet normal 0 -1 0
    outer loop
      vertex -38 -37.5 0.5
      vertex -37.7 -37.5 9.2
      vertex -42 -37.5 0.5
    endloop
  endfacet
  facet normal 0 -1 -0
    outer loop
      vertex -37.7 -37.5 9.2
      vertex -38 -37.5 0.5
      vertex -37.7 -37.5 0.5
    endloop
  endfacet
  facet normal 0 1 -0
    outer loop
      vertex -38 -22.5 0
      vertex -42 -22.5 0.5
      vertex -38 -22.5 0.5
    endloop
  endfacet
  facet normal 0 1 0
    outer loop
      vertex -42 -22.5 0.5
      vertex -38 -22.5 0
      vertex -42 -22.5 0
    endloop
  endfacet
  facet normal -1 0 0
    outer loop
      vertex -42 -22.5 0
      vertex -42 -32.5 0.5
      vertex -42 -22.5 0.5
    endloop
  endfacet
  facet normal -1 0 0
    outer loop
      vertex -42 -37.5 0
      vertex -42 -32.5 0.5
      vertex -42 -22.5 0
    endloop
  endfacet
  facet normal -1 -0 0
    outer loop
      vertex -42 -32.5 0.5
      vertex -42 -37.5 0
      vertex -42 -37.5 0.5
    endloop
  endfacet
  facet normal 1 -0 0
    outer loop
      vertex 2 2.5 0.5
      vertex 2 5 0
      vertex 2 5 0.5
    endloop
  endfacet
  facet normal 1 0 0
    outer loop
      vertex 2 5 0
      vertex 2 2.5 0.5
      vertex 2 2.5 0
    endloop
  endfacet
  facet normal 1 -0 0
    outer loop
      vertex 2 11 0.5
      vertex 2 17.5 0
      vertex 2 17.5 0.5
    endloop
  endfacet
  facet normal 1 0 0
    outer loop
      vertex 2 17.5 0
      vertex 2 11 0.5
      vertex 2 11 0
    endloop
  endfacet
  facet normal 0 -1 0
    outer loop
      vertex -2 2.5 0
      vertex 2 2.5 0.5
      vertex -2 2.5 0.5
    endloop
  endfacet
  facet normal 0 -1 -0
    outer loop
      vertex 2 2.5 0.5
      vertex -2 2.5 0
      vertex 2 2.5 0
    endloop
  endfacet
  facet normal 0 -1 0
    outer loop
      vertex -2 2.5 0.5
      vertex -2.3 2.5 9.2
      vertex -2.3 2.5 0.5
    endloop
  endfacet
  facet normal 0 -1 0
    outer loop
      vertex -2.3 2.5 9.2
      vertex -2 2.5 0.5
      vertex 2.3 2.5 9.2
    endloop
  endfacet
  facet normal 0 -1 0
    outer loop
      vertex 2 2.5 0.5
      vertex 2.3 2.5 9.2
      vertex -2 2.5 0.5
    endloop
  endfacet
  facet normal 0 -1 -0
    outer loop
      vertex 2.3 2.5 9.2
      vertex 2 2.5 0.5
      vertex 2.3 2.5 0.5
    endloop
  endfacet
  facet normal 0 1 -0
    outer loop
      vertex 2 17.5 0
      vertex -2 17.5 0.5
      vertex 2 17.5 0.5
    endloop
  endfacet
  facet normal 0 1 0
    outer loop
      vertex -2 17.5 0.5
      vertex 2 17.5 0
      vertex -2 17.5 0
    endloop
  endfacet
  facet normal -1 0 0
    outer loop
      vertex -2 2.5 0
      vertex -2 5 0.5
      vertex -2 5 0
    endloop
  endfacet
  facet normal -1 -0 0
    outer loop
      vertex -2 5 0.5
      vertex -2 2.5 0
      vertex -2 2.5 0.5
    endloop
  endfacet
  facet normal -1 0 0
    outer loop
      vertex -2 11 0
      vertex -2 17.5 0.5
      vertex -2 17.5 0
    endloop
  endfacet
  facet normal -1 -0 0
    outer loop
      vertex -2 17.5 0.5
      vertex -2 11 0
      vertex -2 11 0.5
    endloop
  endfacet
  facet normal 1 -0 0
    outer loop
      vertex 22 -17.5 0.5
      vertex 22 -15 0
      vertex 22 -15 0.5
    endloop
  endfacet
  facet normal 1 0 0
    outer loop
      vertex 22 -15 0
      vertex 22 -17.5 0.5
      vertex 22 -17.5 0
    endloop
  endfacet
  facet normal 1 -0 0
    outer loop
      vertex 22 -5 0.5
      vertex 22 -2.5 0
      vertex 22 -2.5 0.5
    endloop
  endfacet
  facet normal 1 0 0
    outer loop
      vertex 22 -2.5 0
      vertex 22 -5 0.5
      vertex 22 -5 0
    endloop
  endfacet
  facet normal 0 -1 0
    outer loop
      vertex 18 -17.5 0
      vertex 22 -17.5 0.5
      vertex 18 -17.5 0.5
    endloop
  endfacet
  facet normal 0 -1 -0
    outer loop
      vertex 22 -17.5 0.5
      vertex 18 -17.5 0
      vertex 22 -17.5 0
    endloop
  endfacet
  facet normal 0 -1 0
    outer loop
      vertex 18 -17.5 0.5
      vertex 17.7 -17.5 9.2
      vertex 17.7 -17.5 0.5
    endloop
  endfacet
  facet normal 0 -1 0
    outer loop
      vertex 17.7 -17.5 9.2
      vertex 18 -17.5 0.5
      vertex 22.3 -17.5 9.2
    endloop
  endfacet
  facet normal 0 -1 0
    outer loop
      vertex 22 -17.5 0.5
      vertex 22.3 -17.5 9.2
      vertex 18 -17.5 0.5
    endloop
  endfacet
  facet normal 0 -1 -0
    outer loop
      vertex 22.3 -17.5 9.2
      vertex 22 -17.5 0.5
      vertex 22.3 -17.5 0.5
    endloop
  endfacet
  facet normal 0 1 -0
    outer loop
      vertex 22 -2.5 0
      vertex 18 -2.5 0.5
      vertex 22 -2.5 0.5
    endloop
  endfacet
  facet normal 0 1 0
    outer loop
      vertex 18 -2.5 0.5
      vertex 22 -2.5 0
      vertex 18 -2.5 0
    endloop
  endfacet
  facet normal -1 0 0
    outer loop
      vertex 18 -17.5 0
      vertex 18 -15 0.5
      vertex 18 -15 0
    endloop
  endfacet
  facet normal -1 -0 0
    outer loop
      vertex 18 -15 0.5
      vertex 18 -17.5 0
      vertex 18 -17.5 0.5
    endloop
  endfacet
  facet normal -1 0 0
    outer loop
      vertex 18 -5 0
      vertex 18 -2.5 0.5
      vertex 18 -2.5 0
    endloop
  endfacet
  facet normal -1 -0 0
    outer loop
      vertex 18 -2.5 0.5
      vertex 18 -5 0
      vertex 18 -5 0.5
    endloop
  endfacet
  facet normal 1 -0 0
    outer loop
      vertex 2 -32.5 0.5
      vertex 2 -31 0
      vertex 2 -31 0.5
    endloop
  endfacet
  facet normal 1 0 0
    outer loop
      vertex 2 -37.5 0
      vertex 2 -32.5 0.5
      vertex 2 -37.5 0.5
    endloop
  endfacet
  facet normal 1 0 0
    outer loop
      vertex 2 -32.5 0.5
      vertex 2 -37.5 0
      vertex 2 -31 0
    endloop
  endfacet
  facet normal 1 -0 0
    outer loop
      vertex 2 -25 0.5
      vertex 2 -22.5 0
      vertex 2 -22.5 0.5
    endloop
  endfacet
  facet normal 1 0 0
    outer loop
      vertex 2 -22.5 0
      vertex 2 -25 0.5
      vertex 2 -25 0
    endloop
  endfacet
  facet normal 0 -1 0
    outer loop
      vertex -2 -37.5 0
      vertex 2 -37.5 0.5
      vertex -2 -37.5 0.5
    endloop
  endfacet
  facet normal 0 -1 -0
    outer loop
      vertex 2 -37.5 0.5
      vertex -2 -37.5 0
      vertex 2 -37.5 0
    endloop
  endfacet
  facet normal 0 -1 0
    outer loop
      vertex -2 -37.5 0.5
      vertex -2.3 -37.5 9.2
      vertex -2.3 -37.5 0.5
    endloop
  endfacet
  facet normal 0 -1 0
    outer loop
      vertex -2.3 -37.5 9.2
      vertex -2 -37.5 0.5
      vertex 2.3 -37.5 9.2
    endloop
  endfacet
  facet normal 0 -1 0
    outer loop
      vertex 2 -37.5 0.5
      vertex 2.3 -37.5 9.2
      vertex -2 -37.5 0.5
    endloop
  endfacet
  facet normal 0 -1 -0
    outer loop
      vertex 2.3 -37.5 9.2
      vertex 2 -37.5 0.5
      vertex 2.3 -37.5 0.5
    endloop
  endfacet
  facet normal 0 1 -0
    outer loop
      vertex 2 -22.5 0
      vertex -2 -22.5 0.5
      vertex 2 -22.5 0.5
    endloop
  endfacet
  facet normal 0 1 0
    outer loop
      vertex -2 -22.5 0.5
      vertex 2 -22.5 0
      vertex -2 -22.5 0
    endloop
  endfacet
  facet normal -1 0 0
    outer loop
      vertex -2 -31 0
      vertex -2 -32.5 0.5
      vertex -2 -31 0.5
    endloop
  endfacet
  facet normal -1 0 0
    outer loop
      vertex -2 -37.5 0
      vertex -2 -32.5 0.5
      vertex -2 -31 0
    endloop
  endfacet
  facet normal -1 -0 0
    outer loop
      vertex -2 -32.5 0.5
      vertex -2 -37.5 0
      vertex -2 -37.5 0.5
    endloop
  endfacet
  facet normal -1 0 0
    outer loop
      vertex -2 -25 0
      vertex -2 -22.5 0.5
      vertex -2 -22.5 0
    endloop
  endfacet
  facet normal -1 -0 0
    outer loop
      vertex -2 -22.5 0.5
      vertex -2 -25 0
      vertex -2 -25 0.5
    endloop
  endfacet
  facet normal 1 -0 0
    outer loop
      vertex 42 2.5 0.5
      vertex 42 5 0
      vertex 42 5 0.5
    endloop
  endfacet
  facet normal 1 0 0
    outer loop
      vertex 42 5 0
      vertex 42 2.5 0.5
      vertex 42 2.5 0
    endloop
  endfacet
  facet normal 1 -0 0
    outer loop
      vertex 42 11 0.5
      vertex 42 17.5 0
      vertex 42 17.5 0.5
    endloop
  endfacet
  facet normal 1 0 0
    outer loop
      vertex 42 17.5 0
      vertex 42 11 0.5
      vertex 42 11 0
    endloop
  endfacet
  facet normal 0 -1 0
    outer loop
      vertex 38 2.5 0
      vertex 42 2.5 0.5
      vertex 38 2.5 0.5
    endloop
  endfacet
  facet normal 0 -1 -0
    outer loop
      vertex 42 2.5 0.5
      vertex 38 2.5 0
      vertex 42 2.5 0
    endloop
  endfacet
  facet normal 0 -1 0
    outer loop
      vertex 38 2.5 0.5
      vertex 37.7 2.5 9.2
      vertex 37.7 2.5 0.5
    endloop
  endfacet
  facet normal 0 -1 0
    outer loop
      vertex 37.7 2.5 9.2
      vertex 38 2.5 0.5
      vertex 42.3 2.5 9.2
    endloop
  endfacet
  facet normal 0 -1 0
    outer loop
      vertex 42 2.5 0.5
      vertex 42.3 2.5 9.2
      vertex 38 2.5 0.5
    endloop
  endfacet
  facet normal 0 -1 -0
    outer loop
      vertex 42.3 2.5 9.2
      vertex 42 2.5 0.5
      vertex 42.3 2.5 0.5
    endloop
  endfacet
  facet normal 0 1 -0
    outer loop
      vertex 42 17.5 0
      vertex 38 17.5 0.5
      vertex 42 17.5 0.5
    endloop
  endfacet
  facet normal 0 1 0
    outer loop
      vertex 38 17.5 0.5
      vertex 42 17.5 0
      vertex 38 17.5 0
    endloop
  endfacet
  facet normal -1 0 0
    outer loop
      vertex 38 2.5 0
      vertex 38 5 0.5
      vertex 38 5 0
    endloop
  endfacet
  facet normal -1 -0 0
    outer loop
      vertex 38 5 0.5
      vertex 38 2.5 0
      vertex 38 2.5 0.5
    endloop
  endfacet
  facet normal -1 0 0
    outer loop
      vertex 38 11 0
      vertex 38 17.5 0.5
      vertex 38 17.5 0
    endloop
  endfacet
  facet normal -1 -0 0
    outer loop
      vertex 38 17.5 0.5
      vertex 38 11 0
      vertex 38 11 0.5
    endloop
  endfacet
  facet normal 1 -0 0
    outer loop
      vertex 62 -12.5 0.5
      vertex 62 -2.5 0
      vertex 62 -2.5 0.5
    endloop
  endfacet
  facet normal 1 0 0
    outer loop
      vertex 62 -17.5 0
      vertex 62 -12.5 0.5
      vertex 62 -17.5 0.5
    endloop
  endfacet
  facet normal 1 0 0
    outer loop
      vertex 62 -12.5 0.5
      vertex 62 -17.5 0
      vertex 62 -2.5 0
    endloop
  endfacet
  facet normal 0 -1 0
    outer loop
      vertex 58 -17.5 0
      vertex 62 -17.5 0.5
      vertex 58 -17.5 0.5
    endloop
  endfacet
  facet normal 0 -1 -0
    outer loop
      vertex 62 -17.5 0.5
      vertex 58 -17.5 0
      vertex 62 -17.5 0
    endloop
  endfacet
  facet normal 0 -1 0
    outer loop
      vertex 58 -17.5 0.5
      vertex 57.7 -17.5 9.2
      vertex 57.7 -17.5 0.5
    endloop
  endfacet
  facet normal 0 -1 0
    outer loop
      vertex 57.7 -17.5 9.2
      vertex 58 -17.5 0.5
      vertex 62.3 -17.5 9.2
    endloop
  endfacet
  facet normal 0 -1 0
    outer loop
      vertex 62 -17.5 0.5
      vertex 62.3 -17.5 9.2
      vertex 58 -17.5 0.5
    endloop
  endfacet
  facet normal 0 -1 -0
    outer loop
      vertex 62.3 -17.5 9.2
      vertex 62 -17.5 0.5
      vertex 62.3 -17.5 0.5
    endloop
  endfacet
  facet normal 0 1 -0
    outer loop
      vertex 62 -2.5 0
      vertex 58 -2.5 0.5
      vertex 62 -2.5 0.5
    endloop
  endfacet
  facet normal 0 1 0
    outer loop
      vertex 58 -2.5 0.5
      vertex 62 -2.5 0
      vertex 58 -2.5 0
    endloop
  endfacet
  facet normal -1 0 0
    outer loop
      vertex 58 -17.5 0
      vertex 58 -15 0.5
      vertex 58 -15 0
    endloop
  endfacet
  facet normal -1 -0 0
    outer loop
      vertex 58 -15 0.5
      vertex 58 -17.5 0
      vertex 58 -17.5 0.5
    endloop
  endfacet
  facet normal -1 0 0
    outer loop
      vertex 58 -5 0
      vertex 58 -2.5 0.5
      vertex 58 -2.5 0
    endloop
  endfacet
  facet normal -1 -0 0
    outer loop
      vertex 58 -2.5 0.5
      vertex 58 -5 0
      vertex 58 -5 0.5
    endloop
  endfacet
  facet normal 1 -0 0
    outer loop
      vertex 42 -32.5 0.5
      vertex 42 -31 0
      vertex 42 -31 0.5
    endloop
  endfacet
  facet normal 1 0 0
    outer loop
      vertex 42 -37.5 0
      vertex 42 -32.5 0.5
      vertex 42 -37.5 0.5
    endloop
  endfacet
  facet normal 1 0 0
    outer loop
      vertex 42 -32.5 0.5
      vertex 42 -37.5 0
      vertex 42 -31 0
    endloop
  endfacet
  facet normal 1 -0 0
    outer loop
      vertex 42 -25 0.5
      vertex 42 -22.5 0
      vertex 42 -22.5 0.5
    endloop
  endfacet
  facet normal 1 0 0
    outer loop
      vertex 42 -22.5 0
      vertex 42 -25 0.5
      vertex 42 -25 0
    endloop
  endfacet
  facet normal 0 -1 0
    outer loop
      vertex 38 -37.5 0
      vertex 42 -37.5 0.5
      vertex 38 -37.5 0.5
    endloop
  endfacet
  facet normal 0 -1 -0
    outer loop
      vertex 42 -37.5 0.5
      vertex 38 -37.5 0
      vertex 42 -37.5 0
    endloop
  endfacet
  facet normal 0 -1 0
    outer loop
      vertex 38 -37.5 0.5
      vertex 37.7 -37.5 9.2
      vertex 37.7 -37.5 0.5
    endloop
  endfacet
  facet normal 0 -1 0
    outer loop
      vertex 37.7 -37.5 9.2
      vertex 38 -37.5 0.5
      vertex 42.3 -37.5 9.2
    endloop
  endfacet
  facet normal 0 -1 0
    outer loop
      vertex 42 -37.5 0.5
      vertex 42.3 -37.5 9.2
      vertex 38 -37.5 0.5
    endloop
  endfacet
  facet normal 0 -1 -0
    outer loop
      vertex 42.3 -37.5 9.2
      vertex 42 -37.5 0.5
      vertex 42.3 -37.5 0.5
    endloop
  endfacet
  facet normal 0 1 -0
    outer loop
      vertex 42 -22.5 0
      vertex 38 -22.5 0.5
      vertex 42 -22.5 0.5
    endloop
  endfacet
  facet normal 0 1 0
    outer loop
      vertex 38 -22.5 0.5
      vertex 42 -22.5 0
      vertex 38 -22.5 0
    endloop
  endfacet
  facet normal -1 0 0
    outer loop
      vertex 38 -31 0
      vertex 38 -32.5 0.5
      vertex 38 -31 0.5
    endloop
  endfacet
  facet normal -1 0 0
    outer loop
      vertex 38 -37.5 0
      vertex 38 -32.5 0.5
      vertex 38 -31 0
    endloop
  endfacet
  facet normal -1 -0 0
    outer loop
      vertex 38 -32.5 0.5
      vertex 38 -37.5 0
      vertex 38 -37.5 0.5
    endloop
  endfacet
  facet normal -1 0 0
    outer loop
      vertex 38 -25 0
      vertex 38 -22.5 0.5
      vertex 38 -22.5 0
    endloop
  endfacet
  facet normal -1 -0 0
    outer loop
      vertex 38 -22.5 0.5
      vertex 38 -25 0
      vertex 38 -25 0.5
    endloop
  endfacet
  facet normal -0.707107 0.707107 0
    outer loop
      vertex -38 -25 0
      vertex -23 -10 0.5
      vertex -23 -10 0
    endloop
  endfacet
  facet normal -0.707107 0.707107 0
    outer loop
      vertex -23 -10 0.5
      vertex -38 -25 0
      vertex -38 -25 0.5
    endloop
  endfacet
  facet normal -0.707107 0.707107 0
    outer loop
      vertex -18 -5 0
      vertex -2 11 0.5
      vertex -2 11 0
    endloop
  endfacet
  facet normal -0.707107 0.707107 0
    outer loop
      vertex -2 11 0.5
      vertex -18 -5 0
      vertex -18 -5 0.5
    endloop
  endfacet
  facet normal 0.707107 -0.707107 -2.8785e-17
    outer loop
      vertex -2.3 4.7 0.5
      vertex -2 5 0
      vertex -2 5 0.5
    endloop
  endfacet
  facet normal 0.707107 -0.707107 0
    outer loop
      vertex -17 -10 0
      vertex -2.3 4.7 0.5
      vertex -17 -10 0.5
    endloop
  endfacet
  facet normal 0.707107 -0.707107 2.8471e-17
    outer loop
      vertex -2.3 4.7 0.5
      vertex -17 -10 0
      vertex -2 5 0
    endloop
  endfacet
  facet normal 0.707107 -0.707107 -2.61682e-18
    outer loop
      vertex -22.3 -15.3 0.5
      vertex -22 -15 0
      vertex -22 -15 0.5
    endloop
  endfacet
  facet normal 0.707107 -0.707107 0
    outer loop
      vertex -38 -31 0
      vertex -22.3 -15.3 0.5
      vertex -38 -31 0.5
    endloop
  endfacet
  facet normal 0.707107 -0.707107 -2.82617e-17
    outer loop
      vertex -22.3 -15.3 0.5
      vertex -38 -31 0
      vertex -22 -15 0
    endloop
  endfacet
  facet normal -0.707107 -0.707107 0
    outer loop
      vertex -18 -15 0
      vertex -17.7 -15.3 0.5
      vertex -18 -15 0.5
    endloop
  endfacet
  facet normal -0.707107 -0.707107 0
    outer loop
      vertex -2 -31 0
      vertex -17.7 -15.3 0.5
      vertex -18 -15 0
    endloop
  endfacet
  facet normal -0.707107 -0.707107 2.68816e-16
    outer loop
      vertex -17.7 -15.3 0.5
      vertex -2 -31 0
      vertex -2 -31 0.5
    endloop
  endfacet
  facet normal 0.707107 0.707107 0
    outer loop
      vertex -2 -25 0.5
      vertex -17 -10 0
      vertex -17 -10 0.5
    endloop
  endfacet
  facet normal 0.707107 0.707107 0
    outer loop
      vertex -17 -10 0
      vertex -2 -25 0.5
      vertex -2 -25 0
    endloop
  endfacet
  facet normal -0.707107 0.707107 0
    outer loop
      vertex 2 -25 0
      vertex 17 -10 0.5
      vertex 17 -10 0
    endloop
  endfacet
  facet normal -0.707107 0.707107 0
    outer loop
      vertex 17 -10 0.5
      vertex 2 -25 0
      vertex 2 -25 0.5
    endloop
  endfacet
  facet normal -0.707107 0.707107 0
    outer loop
      vertex 22 -5 0
      vertex 38 11 0.5
      vertex 38 11 0
    endloop
  endfacet
  facet normal -0.707107 0.707107 0
    outer loop
      vertex 38 11 0.5
      vertex 22 -5 0
      vertex 22 -5 0.5
    endloop
  endfacet
  facet normal 0.707107 -0.707107 -2.61682e-18
    outer loop
      vertex 37.7 4.7 0.5
      vertex 38 5 0
      vertex 38 5 0.5
    endloop
  endfacet
  facet normal 0.707107 -0.707107 0
    outer loop
      vertex 23 -10 0
      vertex 37.7 4.7 0.5
      vertex 23 -10 0.5
    endloop
  endfacet
  facet normal 0.707107 -0.707107 -3.7565e-15
    outer loop
      vertex 37.7 4.7 0.5
      vertex 23 -10 0
      vertex 38 5 0
    endloop
  endfacet
  facet normal 0.707107 -0.707107 -2.61682e-18
    outer loop
      vertex 17.7 -15.3 0.5
      vertex 18 -15 0
      vertex 18 -15 0.5
    endloop
  endfacet
  facet normal 0.707107 -0.707107 0
    outer loop
      vertex 2 -31 0
      vertex 17.7 -15.3 0.5
      vertex 2 -31 0.5
    endloop
  endfacet
  facet normal 0.707107 -0.707107 -2.82617e-17
    outer loop
      vertex 17.7 -15.3 0.5
      vertex 2 -31 0
      vertex 18 -15 0
    endloop
  endfacet
  facet normal -0.707107 -0.707107 0
    outer loop
      vertex 22 -15 0
      vertex 22.3 -15.3 0.5
      vertex 22 -15 0.5
    endloop
  endfacet
  facet normal -0.707107 -0.707107 0
    outer loop
      vertex 38 -31 0
      vertex 22.3 -15.3 0.5
      vertex 22 -15 0
    endloop
  endfacet
  facet normal -0.707107 -0.707107 2.68816e-16
    outer loop
      vertex 22.3 -15.3 0.5
      vertex 38 -31 0
      vertex 38 -31 0.5
    endloop
  endfacet
  facet normal 0.707107 0.707107 0
    outer loop
      vertex 38 -25 0.5
      vertex 23 -10 0
      vertex 23 -10 0.5
    endloop
  endfacet
  facet normal 0.707107 0.707107 0
    outer loop
      vertex 23 -10 0
      vertex 38 -25 0.5
      vertex 38 -25 0
    endloop
  endfacet
  facet normal -0.707107 -0.707107 0
    outer loop
      vertex -38 5 0
      vertex -37.7 4.7 0.5
      vertex -38 5 0.5
    endloop
  endfacet
  facet normal -0.707107 -0.707107 -4.01944e-15
    outer loop
      vertex -23 -10 0
      vertex -37.7 4.7 0.5
      vertex -38 5 0
    endloop
  endfacet
  facet normal -0.707107 -0.707107 4.78504e-17
    outer loop
      vertex -37.7 4.7 0.5
      vertex -23 -10 0
      vertex -23 -10 0.5
    endloop
  endfacet
  facet normal 0.707107 0.707107 0
    outer loop
      vertex -22 -5 0.5
      vertex -38 11 0
      vertex -38 11 0.5
    endloop
  endfacet
  facet normal 0.707107 0.707107 0
    outer loop
      vertex -38 11 0
      vertex -22 -5 0.5
      vertex -22 -5 0
    endloop
  endfacet
  facet normal -0.707107 -0.707107 0
    outer loop
      vertex 2 5 0
      vertex 2.3 4.7 0.5
      vertex 2 5 0.5
    endloop
  endfacet
  facet normal -0.707107 -0.707107 1.00486e-15
    outer loop
      vertex 17 -10 0
      vertex 2.3 4.7 0.5
      vertex 2 5 0
    endloop
  endfacet
  facet normal -0.707107 -0.707107 -3.96475e-16
    outer loop
      vertex 2.3 4.7 0.5
      vertex 17 -10 0
      vertex 17 -10 0.5
    endloop
  endfacet
  facet normal 0.707107 0.707107 0
    outer loop
      vertex 18 -5 0.5
      vertex 2 11 0
      vertex 2 11 0.5
    endloop
  endfacet
  facet normal 0.707107 0.707107 0
    outer loop
      vertex 2 11 0
      vertex 18 -5 0.5
      vertex 18 -5 0
    endloop
  endfacet
  facet normal -0.707107 -0.707107 0
    outer loop
      vertex 42 5 0
      vertex 42.3 4.7 0.5
      vertex 42 5 0.5
    endloop
  endfacet
  facet normal -0.707107 -0.707107 -4.01944e-15
    outer loop
      vertex 57 -10 0
      vertex 42.3 4.7 0.5
      vertex 42 5 0
    endloop
  endfacet
  facet normal -0.707107 -0.707107 4.78504e-17
    outer loop
      vertex 42.3 4.7 0.5
      vertex 57 -10 0
      vertex 57 -10 0.5
    endloop
  endfacet
  facet normal 0.707107 0.707107 0
    outer loop
      vertex 58 -5 0.5
      vertex 42 11 0
      vertex 42 11 0.5
    endloop
  endfacet
  facet normal 0.707107 0.707107 0
    outer loop
      vertex 42 11 0
      vertex 58 -5 0.5
      vertex 58 -5 0
    endloop
  endfacet
  facet normal -0.707107 0.707107 0
    outer loop
      vertex 42 -25 0
      vertex 57 -10 0.5
      vertex 57 -10 0
    endloop
  endfacet
  facet normal -0.707107 0.707107 0
    outer loop
      vertex 57 -10 0.5
      vertex 42 -25 0
      vertex 42 -25 0.5
    endloop
  endfacet
  facet normal 0.707107 -0.707107 1.04673e-17
    outer loop
      vertex 57.7 -15.3 0.5
      vertex 58 -15 0
      vertex 58 -15 0.5
    endloop
  endfacet
  facet normal 0.707107 -0.707107 0
    outer loop
      vertex 42 -31 0
      vertex 57.7 -15.3 0.5
      vertex 42 -31 0.5
    endloop
  endfacet
  facet normal 0.707107 -0.707107 -4.98975e-15
    outer loop
      vertex 57.7 -15.3 0.5
      vertex 42 -31 0
      vertex 58 -15 0
    endloop
  endfacet
  facet normal 1 0 0
    outer loop
      vertex -37.7 15 9.2
      vertex -37.7 7.5 6.2
      vertex -37.7 15 6.2
    endloop
  endfacet
  facet normal 1 0 0
    outer loop
      vertex -37.7 7.5 6.2
      vertex -37.7 4.7 0.5
      vertex -37.7 7.5 0.5
    endloop
  endfacet
  facet normal 1 -0 0
    outer loop
      vertex -37.7 2.5 9.2
      vertex -37.7 7.5 6.2
      vertex -37.7 15 9.2
    endloop
  endfacet
  facet normal 1 0 0
    outer loop
      vertex -37.7 2.5 0.5
      vertex -37.7 7.5 6.2
      vertex -37.7 2.5 9.2
    endloop
  endfacet
  facet normal 1 0 0
    outer loop
      vertex -37.7 7.5 6.2
      vertex -37.7 2.5 0.5
      vertex -37.7 4.7 0.5
    endloop
  endfacet
  facet normal 0 1 0
    outer loop
      vertex -42 7.5 0.5
      vertex -37.7 7.5 6.2
      vertex -37.7 7.5 0.5
    endloop
  endfacet
  facet normal 0 1 0
    outer loop
      vertex -37.7 7.5 6.2
      vertex -42 7.5 0.5
      vertex -42.3 7.5 6.2
    endloop
  endfacet
  facet normal 0 1 0
    outer loop
      vertex -42.3 7.5 6.2
      vertex -42 7.5 0.5
      vertex -42.3 7.5 0.5
    endloop
  endfacet
  facet normal -1 0 0
    outer loop
      vertex -42.3 7.5 6.2
      vertex -42.3 15 9.2
      vertex -42.3 15 6.2
    endloop
  endfacet
  facet normal -1 0 0
    outer loop
      vertex -42.3 7.5 6.2
      vertex -42.3 2.5 9.2
      vertex -42.3 15 9.2
    endloop
  endfacet
  facet normal -1 0 0
    outer loop
      vertex -42.3 2.5 9.2
      vertex -42.3 7.5 6.2
      vertex -42.3 2.5 0.5
    endloop
  endfacet
  facet normal -1 0 0
    outer loop
      vertex -42.3 7.5 0.5
      vertex -42.3 2.5 0.5
      vertex -42.3 7.5 6.2
    endloop
  endfacet
  facet normal 0 0 -1
    outer loop
      vertex -42.3 7.5 6.2
      vertex -37.7 15 6.2
      vertex -37.7 7.5 6.2
    endloop
  endfacet
  facet normal -0 0 -1
    outer loop
      vertex -37.7 15 6.2
      vertex -42.3 7.5 6.2
      vertex -42.3 15 6.2
    endloop
  endfacet
  facet normal 0 1 -0
    outer loop
      vertex -37.7 15 6.2
      vertex -42.3 15 9.2
      vertex -37.7 15 9.2
    endloop
  endfacet
  facet normal 0 1 0
    outer loop
      vertex -42.3 15 9.2
      vertex -37.7 15 6.2
      vertex -42.3 15 6.2
    endloop
  endfacet
  facet normal -0 0 1
    outer loop
      vertex -42.3 15 9.2
      vertex -37.7 2.5 9.2
      vertex -37.7 15 9.2
    endloop
  endfacet
  facet normal 0 0 1
    outer loop
      vertex -37.7 2.5 9.2
      vertex -42.3 15 9.2
      vertex -42.3 2.5 9.2
    endloop
  endfacet
  facet normal 1 0 0
    outer loop
      vertex -17.7 -5 9.2
      vertex -17.7 -12.5 6.2
      vertex -17.7 -5 6.2
    endloop
  endfacet
  facet normal 1 0 0
    outer loop
      vertex -17.7 -12.5 6.2
      vertex -17.7 -15.3 0.5
      vertex -17.7 -12.5 0.5
    endloop
  endfacet
  facet normal 1 -0 0
    outer loop
      vertex -17.7 -17.5 9.2
      vertex -17.7 -12.5 6.2
      vertex -17.7 -5 9.2
    endloop
  endfacet
  facet normal 1 0 0
    outer loop
      vertex -17.7 -17.5 0.5
      vertex -17.7 -12.5 6.2
      vertex -17.7 -17.5 9.2
    endloop
  endfacet
  facet normal 1 0 0
    outer loop
      vertex -17.7 -12.5 6.2
      vertex -17.7 -17.5 0.5
      vertex -17.7 -15.3 0.5
    endloop
  endfacet
  facet normal 0 1 -0
    outer loop
      vertex -17.7 -12.5 0.5
      vertex -22.3 -12.5 6.2
      vertex -17.7 -12.5 6.2
    endloop
  endfacet
  facet normal 0 1 0
    outer loop
      vertex -22.3 -12.5 6.2
      vertex -17.7 -12.5 0.5
      vertex -22.3 -12.5 0.5
    endloop
  endfacet
  facet normal -1 0 0
    outer loop
      vertex -22.3 -12.5 6.2
      vertex -22.3 -5 9.2
      vertex -22.3 -5 6.2
    endloop
  endfacet
  facet normal -1 0 0
    outer loop
      vertex -22.3 -17.5 0.5
      vertex -22.3 -12.5 6.2
      vertex -22.3 -15.3 0.5
    endloop
  endfacet
  facet normal -1 0 0
    outer loop
      vertex -22.3 -12.5 6.2
      vertex -22.3 -17.5 9.2
      vertex -22.3 -5 9.2
    endloop
  endfacet
  facet normal -1 0 0
    outer loop
      vertex -22.3 -17.5 9.2
      vertex -22.3 -12.5 6.2
      vertex -22.3 -17.5 0.5
    endloop
  endfacet
  facet normal -1 0 0
    outer loop
      vertex -22.3 -12.5 0.5
      vertex -22.3 -15.3 0.5
      vertex -22.3 -12.5 6.2
    endloop
  endfacet
  facet normal 0 0 -1
    outer loop
      vertex -22.3 -12.5 6.2
      vertex -17.7 -5 6.2
      vertex -17.7 -12.5 6.2
    endloop
  endfacet
  facet normal -0 0 -1
    outer loop
      vertex -17.7 -5 6.2
      vertex -22.3 -12.5 6.2
      vertex -22.3 -5 6.2
    endloop
  endfacet
  facet normal 0 1 -0
    outer loop
      vertex -17.7 -5 6.2
      vertex -22.3 -5 9.2
      vertex -17.7 -5 9.2
    endloop
  endfacet
  facet normal 0 1 0
    outer loop
      vertex -22.3 -5 9.2
      vertex -17.7 -5 6.2
      vertex -22.3 -5 6.2
    endloop
  endfacet
  facet normal -0 0 1
    outer loop
      vertex -22.3 -5 9.2
      vertex -17.7 -17.5 9.2
      vertex -17.7 -5 9.2
    endloop
  endfacet
  facet normal 0 0 1
    outer loop
      vertex -17.7 -17.5 9.2
      vertex -22.3 -5 9.2
      vertex -22.3 -17.5 9.2
    endloop
  endfacet
  facet normal 1 0 0
    outer loop
      vertex -37.7 -25 9.2
      vertex -37.7 -32.5 6.2
      vertex -37.7 -25 6.2
    endloop
  endfacet
  facet normal 1 -0 0
    outer loop
      vertex -37.7 -37.5 9.2
      vertex -37.7 -32.5 6.2
      vertex -37.7 -25 9.2
    endloop
  endfacet
  facet normal 1 0 0
    outer loop
      vertex -37.7 -37.5 0.5
      vertex -37.7 -32.5 6.2
      vertex -37.7 -37.5 9.2
    endloop
  endfacet
  facet normal 1 0 0
    outer loop
      vertex -37.7 -32.5 6.2
      vertex -37.7 -37.5 0.5
      vertex -37.7 -32.5 0.5
    endloop
  endfacet
  facet normal 0 1 0
    outer loop
      vertex -38 -32.5 0.5
      vertex -37.7 -32.5 6.2
      vertex -37.7 -32.5 0.5
    endloop
  endfacet
  facet normal 0 1 0
    outer loop
      vertex -37.7 -32.5 6.2
      vertex -38 -32.5 0.5
      vertex -42.3 -32.5 6.2
    endloop
  endfacet
  facet normal 0 1 -0
    outer loop
      vertex -42 -32.5 0.5
      vertex -42.3 -32.5 6.2
      vertex -38 -32.5 0.5
    endloop
  endfacet
  facet normal 0 1 0
    outer loop
      vertex -42.3 -32.5 6.2
      vertex -42 -32.5 0.5
      vertex -42.3 -32.5 0.5
    endloop
  endfacet
  facet normal -1 0 0
    outer loop
      vertex -42.3 -32.5 6.2
      vertex -42.3 -25 9.2
      vertex -42.3 -25 6.2
    endloop
  endfacet
  facet normal -1 0 0
    outer loop
      vertex -42.3 -32.5 6.2
      vertex -42.3 -37.5 9.2
      vertex -42.3 -25 9.2
    endloop
  endfacet
  facet normal -1 0 0
    outer loop
      vertex -42.3 -37.5 9.2
      vertex -42.3 -32.5 6.2
      vertex -42.3 -37.5 0.5
    endloop
  endfacet
  facet normal -1 0 0
    outer loop
      vertex -42.3 -32.5 0.5
      vertex -42.3 -37.5 0.5
      vertex -42.3 -32.5 6.2
    endloop
  endfacet
  facet normal 0 0 -1
    outer loop
      vertex -42.3 -32.5 6.2
      vertex -37.7 -25 6.2
      vertex -37.7 -32.5 6.2
    endloop
  endfacet
  facet normal -0 0 -1
    outer loop
      vertex -37.7 -25 6.2
      vertex -42.3 -32.5 6.2
      vertex -42.3 -25 6.2
    endloop
  endfacet
  facet normal 0 1 -0
    outer loop
      vertex -37.7 -25 6.2
      vertex -42.3 -25 9.2
      vertex -37.7 -25 9.2
    endloop
  endfacet
  facet normal 0 1 0
    outer loop
      vertex -42.3 -25 9.2
      vertex -37.7 -25 6.2
      vertex -42.3 -25 6.2
    endloop
  endfacet
  facet normal -0 0 1
    outer loop
      vertex -42.3 -25 9.2
      vertex -37.7 -37.5 9.2
      vertex -37.7 -25 9.2
    endloop
  endfacet
  facet normal 0 0 1
    outer loop
      vertex -37.7 -37.5 9.2
      vertex -42.3 -25 9.2
      vertex -42.3 -37.5 9.2
    endloop
  endfacet
  facet normal 1 0 0
    outer loop
      vertex 2.3 15 9.2
      vertex 2.3 7.5 6.2
      vertex 2.3 15 6.2
    endloop
  endfacet
  facet normal 1 0 0
    outer loop
      vertex 2.3 7.5 6.2
      vertex 2.3 4.7 0.5
      vertex 2.3 7.5 0.5
    endloop
  endfacet
  facet normal 1 -0 0
    outer loop
      vertex 2.3 2.5 9.2
      vertex 2.3 7.5 6.2
      vertex 2.3 15 9.2
    endloop
  endfacet
  facet normal 1 0 0
    outer loop
      vertex 2.3 2.5 0.5
      vertex 2.3 7.5 6.2
      vertex 2.3 2.5 9.2
    endloop
  endfacet
  facet normal 1 0 0
    outer loop
      vertex 2.3 7.5 6.2
      vertex 2.3 2.5 0.5
      vertex 2.3 4.7 0.5
    endloop
  endfacet
  facet normal 0 1 -0
    outer loop
      vertex 2.3 7.5 0.5
      vertex -2.3 7.5 6.2
      vertex 2.3 7.5 6.2
    endloop
  endfacet
  facet normal 0 1 0
    outer loop
      vertex -2.3 7.5 6.2
      vertex 2.3 7.5 0.5
      vertex -2.3 7.5 0.5
    endloop
  endfacet
  facet normal -1 0 0
    outer loop
      vertex -2.3 7.5 6.2
      vertex -2.3 15 9.2
      vertex -2.3 15 6.2
    endloop
  endfacet
  facet normal -1 0 0
    outer loop
      vertex -2.3 2.5 0.5
      vertex -2.3 7.5 6.2
      vertex -2.3 4.7 0.5
    endloop
  endfacet
  facet normal -1 0 0
    outer loop
      vertex -2.3 7.5 6.2
      vertex -2.3 2.5 9.2
      vertex -2.3 15 9.2
    endloop
  endfacet
  facet normal -1 0 0
    outer loop
      vertex -2.3 2.5 9.2
      vertex -2.3 7.5 6.2
      vertex -2.3 2.5 0.5
    endloop
  endfacet
  facet normal -1 0 0
    outer loop
      vertex -2.3 7.5 0.5
      vertex -2.3 4.7 0.5
      vertex -2.3 7.5 6.2
    endloop
  endfacet
  facet normal 0 0 -1
    outer loop
      vertex -2.3 7.5 6.2
      vertex 2.3 15 6.2
      vertex 2.3 7.5 6.2
    endloop
  endfacet
  facet normal -0 0 -1
    outer loop
      vertex 2.3 15 6.2
      vertex -2.3 7.5 6.2
      vertex -2.3 15 6.2
    endloop
  endfacet
  facet normal 0 1 -0
    outer loop
      vertex 2.3 15 6.2
      vertex -2.3 15 9.2
      vertex 2.3 15 9.2
    endloop
  endfacet
  facet normal 0 1 0
    outer loop
      vertex -2.3 15 9.2
      vertex 2.3 15 6.2
      vertex -2.3 15 6.2
    endloop
  endfacet
  facet normal -0 0 1
    outer loop
      vertex -2.3 15 9.2
      vertex 2.3 2.5 9.2
      vertex 2.3 15 9.2
    endloop
  endfacet
  facet normal 0 0 1
    outer loop
      vertex 2.3 2.5 9.2
      vertex -2.3 15 9.2
      vertex -2.3 2.5 9.2
    endloop
  endfacet
  facet normal 1 0 0
    outer loop
      vertex 22.3 -5 9.2
      vertex 22.3 -12.5 6.2
      vertex 22.3 -5 6.2
    endloop
  endfacet
  facet normal 1 0 0
    outer loop
      vertex 22.3 -12.5 6.2
      vertex 22.3 -15.3 0.5
      vertex 22.3 -12.5 0.5
    endloop
  endfacet
  facet normal 1 -0 0
    outer loop
      vertex 22.3 -17.5 9.2
      vertex 22.3 -12.5 6.2
      vertex 22.3 -5 9.2
    endloop
  endfacet
  facet normal 1 0 0
    outer loop
      vertex 22.3 -17.5 0.5
      vertex 22.3 -12.5 6.2
      vertex 22.3 -17.5 9.2
    endloop
  endfacet
  facet normal 1 0 0
    outer loop
      vertex 22.3 -12.5 6.2
      vertex 22.3 -17.5 0.5
      vertex 22.3 -15.3 0.5
    endloop
  endfacet
  facet normal 0 1 -0
    outer loop
      vertex 22.3 -12.5 0.5
      vertex 17.7 -12.5 6.2
      vertex 22.3 -12.5 6.2
    endloop
  endfacet
  facet normal 0 1 0
    outer loop
      vertex 17.7 -12.5 6.2
      vertex 22.3 -12.5 0.5
      vertex 17.7 -12.5 0.5
    endloop
  endfacet
  facet normal -1 0 0
    outer loop
      vertex 17.7 -12.5 6.2
      vertex 17.7 -5 9.2
      vertex 17.7 -5 6.2
    endloop
  endfacet
  facet normal -1 0 0
    outer loop
      vertex 17.7 -17.5 0.5
      vertex 17.7 -12.5 6.2
      vertex 17.7 -15.3 0.5
    endloop
  endfacet
  facet normal -1 0 0
    outer loop
      vertex 17.7 -12.5 6.2
      vertex 17.7 -17.5 9.2
      vertex 17.7 -5 9.2
    endloop
  endfacet
  facet normal -1 0 0
    outer loop
      vertex 17.7 -17.5 9.2
      vertex 17.7 -12.5 6.2
      vertex 17.7 -17.5 0.5
    endloop
  endfacet
  facet normal -1 0 0
    outer loop
      vertex 17.7 -12.5 0.5
      vertex 17.7 -15.3 0.5
      vertex 17.7 -12.5 6.2
    endloop
  endfacet
  facet normal 0 0 -1
    outer loop
      vertex 17.7 -12.5 6.2
      vertex 22.3 -5 6.2
      vertex 22.3 -12.5 6.2
    endloop
  endfacet
  facet normal -0 0 -1
    outer loop
      vertex 22.3 -5 6.2
      vertex 17.7 -12.5 6.2
      vertex 17.7 -5 6.2
    endloop
  endfacet
  facet normal 0 1 -0
    outer loop
      vertex 22.3 -5 6.2
      vertex 17.7 -5 9.2
      vertex 22.3 -5 9.2
    endloop
  endfacet
  facet normal 0 1 0
    outer loop
      vertex 17.7 -5 9.2
      vertex 22.3 -5 6.2
      vertex 17.7 -5 6.2
    endloop
  endfacet
  facet normal -0 0 1
    outer loop
      vertex 17.7 -5 9.2
      vertex 22.3 -17.5 9.2
      vertex 22.3 -5 9.2
    endloop
  endfacet
  facet normal 0 0 1
    outer loop
      vertex 22.3 -17.5 9.2
      vertex 17.7 -5 9.2
      vertex 17.7 -17.5 9.2
    endloop
  endfacet
  facet normal 1 0 0
    outer loop
      vertex 2.3 -25 9.2
      vertex 2.3 -32.5 6.2
      vertex 2.3 -25 6.2
    endloop
  endfacet
  facet normal 1 -0 0
    outer loop
      vertex 2.3 -37.5 9.2
      vertex 2.3 -32.5 6.2
      vertex 2.3 -25 9.2
    endloop
  endfacet
  facet normal 1 0 0
    outer loop
      vertex 2.3 -37.5 0.5
      vertex 2.3 -32.5 6.2
      vertex 2.3 -37.5 9.2
    endloop
  endfacet
  facet normal 1 0 0
    outer loop
      vertex 2.3 -32.5 6.2
      vertex 2.3 -37.5 0.5
      vertex 2.3 -32.5 0.5
    endloop
  endfacet
  facet normal 0 1 0
    outer loop
      vertex 2 -32.5 0.5
      vertex 2.3 -32.5 6.2
      vertex 2.3 -32.5 0.5
    endloop
  endfacet
  facet normal 0 1 0
    outer loop
      vertex 2.3 -32.5 6.2
      vertex 2 -32.5 0.5
      vertex -2.3 -32.5 6.2
    endloop
  endfacet
  facet normal 0 1 -0
    outer loop
      vertex -2 -32.5 0.5
      vertex -2.3 -32.5 6.2
      vertex 2 -32.5 0.5
    endloop
  endfacet
  facet normal 0 1 0
    outer loop
      vertex -2.3 -32.5 6.2
      vertex -2 -32.5 0.5
      vertex -2.3 -32.5 0.5
    endloop
  endfacet
  facet normal -1 0 0
    outer loop
      vertex -2.3 -32.5 6.2
      vertex -2.3 -25 9.2
      vertex -2.3 -25 6.2
    endloop
  endfacet
  facet normal -1 0 0
    outer loop
      vertex -2.3 -32.5 6.2
      vertex -2.3 -37.5 9.2
      vertex -2.3 -25 9.2
    endloop
  endfacet
  facet normal -1 0 0
    outer loop
      vertex -2.3 -37.5 9.2
      vertex -2.3 -32.5 6.2
      vertex -2.3 -37.5 0.5
    endloop
  endfacet
  facet normal -1 0 0
    outer loop
      vertex -2.3 -32.5 0.5
      vertex -2.3 -37.5 0.5
      vertex -2.3 -32.5 6.2
    endloop
  endfacet
  facet normal 0 0 -1
    outer loop
      vertex -2.3 -32.5 6.2
      vertex 2.3 -25 6.2
      vertex 2.3 -32.5 6.2
    endloop
  endfacet
  facet normal -0 0 -1
    outer loop
      vertex 2.3 -25 6.2
      vertex -2.3 -32.5 6.2
      vertex -2.3 -25 6.2
    endloop
  endfacet
  facet normal 0 1 -0
    outer loop
      vertex 2.3 -25 6.2
      vertex -2.3 -25 9.2
      vertex 2.3 -25 9.2
    endloop
  endfacet
  facet normal 0 1 0
    outer loop
      vertex -2.3 -25 9.2
      vertex 2.3 -25 6.2
      vertex -2.3 -25 6.2
    endloop
  endfacet
  facet normal -0 0 1
    outer loop
      vertex -2.3 -25 9.2
      vertex 2.3 -37.5 9.2
      vertex 2.3 -25 9.2
    endloop
  endfacet
  facet normal 0 0 1
    outer loop
      vertex 2.3 -37.5 9.2
      vertex -2.3 -25 9.2
      vertex -2.3 -37.5 9.2
    endloop
  endfacet
  facet normal 1 0 0
    outer loop
      vertex 42.3 15 9.2
      vertex 42.3 7.5 6.2
      vertex 42.3 15 6.2
    endloop
  endfacet
  facet normal 1 0 0
    outer loop
      vertex 42.3 7.5 6.2
      vertex 42.3 4.7 0.5
      vertex 42.3 7.5 0.5
    endloop
  endfacet
  facet normal 1 -0 0
    outer loop
      vertex 42.3 2.5 9.2
      vertex 42.3 7.5 6.2
      vertex 42.3 15 9.2
    endloop
  endfacet
  facet normal 1 0 0
    outer loop
      vertex 42.3 2.5 0.5
      vertex 42.3 7.5 6.2
      vertex 42.3 2.5 9.2
    endloop
  endfacet
  facet normal 1 0 0
    outer loop
      vertex 42.3 7.5 6.2
      vertex 42.3 2.5 0.5
      vertex 42.3 4.7 0.5
    endloop
  endfacet
  facet normal 0 1 -0
    outer loop
      vertex 42.3 7.5 0.5
      vertex 37.7 7.5 6.2
      vertex 42.3 7.5 6.2
    endloop
  endfacet
  facet normal 0 1 0
    outer loop
      vertex 37.7 7.5 6.2
      vertex 42.3 7.5 0.5
      vertex 37.7 7.5 0.5
    endloop
  endfacet
  facet normal -1 0 0
    outer loop
      vertex 37.7 7.5 6.2
      vertex 37.7 15 9.2
      vertex 37.7 15 6.2
    endloop
  endfacet
  facet normal -1 0 0
    outer loop
      vertex 37.7 2.5 0.5
      vertex 37.7 7.5 6.2
      vertex 37.7 4.7 0.5
    endloop
  endfacet
  facet normal -1 0 0
    outer loop
      vertex 37.7 7.5 6.2
      vertex 37.7 2.5 9.2
      vertex 37.7 15 9.2
    endloop
  endfacet
  facet normal -1 0 0
    outer loop
      vertex 37.7 2.5 9.2
      vertex 37.7 7.5 6.2
      vertex 37.7 2.5 0.5
    endloop
  endfacet
  facet normal -1 0 0
    outer loop
      vertex 37.7 7.5 0.5
      vertex 37.7 4.7 0.5
      vertex 37.7 7.5 6.2
    endloop
  endfacet
  facet normal 0 0 -1
    outer loop
      vertex 37.7 7.5 6.2
      vertex 42.3 15 6.2
      vertex 42.3 7.5 6.2
    endloop
  endfacet
  facet normal -0 0 -1
    outer loop
      vertex 42.3 15 6.2
      vertex 37.7 7.5 6.2
      vertex 37.7 15 6.2
    endloop
  endfacet
  facet normal 0 1 -0
    outer loop
      vertex 42.3 15 6.2
      vertex 37.7 15 9.2
      vertex 42.3 15 9.2
    endloop
  endfacet
  facet normal 0 1 0
    outer loop
      vertex 37.7 15 9.2
      vertex 42.3 15 6.2
      vertex 37.7 15 6.2
    endloop
  endfacet
  facet normal -0 0 1
    outer loop
      vertex 37.7 15 9.2
      vertex 42.3 2.5 9.2
      vertex 42.3 15 9.2
    endloop
  endfacet
  facet normal 0 0 1
    outer loop
      vertex 42.3 2.5 9.2
      vertex 37.7 15 9.2
      vertex 37.7 2.5 9.2
    endloop
  endfacet
  facet normal 1 0 0
    outer loop
      vertex 62.3 -5 9.2
      vertex 62.3 -12.5 6.2
      vertex 62.3 -5 6.2
    endloop
  endfacet
  facet normal 1 -0 0
    outer loop
      vertex 62.3 -17.5 9.2
      vertex 62.3 -12.5 6.2
      vertex 62.3 -5 9.2
    endloop
  endfacet
  facet normal 1 0 0
    outer loop
      vertex 62.3 -17.5 0.5
      vertex 62.3 -12.5 6.2
      vertex 62.3 -17.5 9.2
    endloop
  endfacet
  facet normal 1 0 0
    outer loop
      vertex 62.3 -12.5 6.2
      vertex 62.3 -17.5 0.5
      vertex 62.3 -12.5 0.5
    endloop
  endfacet
  facet normal 0 1 0
    outer loop
      vertex 62 -12.5 0.5
      vertex 62.3 -12.5 6.2
      vertex 62.3 -12.5 0.5
    endloop
  endfacet
  facet normal 0 1 0
    outer loop
      vertex 62.3 -12.5 6.2
      vertex 62 -12.5 0.5
      vertex 57.7 -12.5 6.2
    endloop
  endfacet
  facet normal 0 1 0
    outer loop
      vertex 57.7 -12.5 6.2
      vertex 62 -12.5 0.5
      vertex 57.7 -12.5 0.5
    endloop
  endfacet
  facet normal -1 0 0
    outer loop
      vertex 57.7 -12.5 6.2
      vertex 57.7 -5 9.2
      vertex 57.7 -5 6.2
    endloop
  endfacet
  facet normal -1 0 0
    outer loop
      vertex 57.7 -17.5 0.5
      vertex 57.7 -12.5 6.2
      vertex 57.7 -15.3 0.5
    endloop
  endfacet
  facet normal -1 0 0
    outer loop
      vertex 57.7 -12.5 6.2
      vertex 57.7 -17.5 9.2
      vertex 57.7 -5 9.2
    endloop
  endfacet
  facet normal -1 0 0
    outer loop
      vertex 57.7 -17.5 9.2
      vertex 57.7 -12.5 6.2
      vertex 57.7 -17.5 0.5
    endloop
  endfacet
  facet normal -1 0 0
    outer loop
      vertex 57.7 -12.5 0.5
      vertex 57.7 -15.3 0.5
      vertex 57.7 -12.5 6.2
    endloop
  endfacet
  facet normal 0 0 -1
    outer loop
      vertex 57.7 -12.5 6.2
      vertex 62.3 -5 6.2
      vertex 62.3 -12.5 6.2
    endloop
  endfacet
  facet normal -0 0 -1
    outer loop
      vertex 62.3 -5 6.2
      vertex 57.7 -12.5 6.2
      vertex 57.7 -5 6.2
    endloop
  endfacet
  facet normal 0 1 -0
    outer loop
      vertex 62.3 -5 6.2
      vertex 57.7 -5 9.2
      vertex 62.3 -5 9.2
    endloop
  endfacet
  facet normal 0 1 0
    outer loop
      vertex 57.7 -5 9.2
      vertex 62.3 -5 6.2
      vertex 57.7 -5 6.2
    endloop
  endfacet
  facet normal -0 0 1
    outer loop
      vertex 57.7 -5 9.2
      vertex 62.3 -17.5 9.2
      vertex 62.3 -5 9.2
    endloop
  endfacet
  facet normal 0 0 1
    outer loop
      vertex 62.3 -17.5 9.2
      vertex 57.7 -5 9.2
      vertex 57.7 -17.5 9.2
    endloop
  endfacet
  facet normal 1 0 0
    outer loop
      vertex 42.3 -25 9.2
      vertex 42.3 -32.5 6.2
      vertex 42.3 -25 6.2
    endloop
  endfacet
  facet normal 1 -0 0
    outer loop
      vertex 42.3 -37.5 9.2
      vertex 42.3 -32.5 6.2
      vertex 42.3 -25 9.2
    endloop
  endfacet
  facet normal 1 0 0
    outer loop
      vertex 42.3 -37.5 0.5
      vertex 42.3 -32.5 6.2
      vertex 42.3 -37.5 9.2
    endloop
  endfacet
  facet normal 1 0 0
    outer loop
      vertex 42.3 -32.5 6.2
      vertex 42.3 -37.5 0.5
      vertex 42.3 -32.5 0.5
    endloop
  endfacet
  facet normal 0 1 0
    outer loop
      vertex 42 -32.5 0.5
      vertex 42.3 -32.5 6.2
      vertex 42.3 -32.5 0.5
    endloop
  endfacet
  facet normal 0 1 0
    outer loop
      vertex 42.3 -32.5 6.2
      vertex 42 -32.5 0.5
      vertex 37.7 -32.5 6.2
    endloop
  endfacet
  facet normal 0 1 -0
    outer loop
      vertex 38 -32.5 0.5
      vertex 37.7 -32.5 6.2
      vertex 42 -32.5 0.5
    endloop
  endfacet
  facet normal 0 1 0
    outer loop
      vertex 37.7 -32.5 6.2
      vertex 38 -32.5 0.5
      vertex 37.7 -32.5 0.5
    endloop
  endfacet
  facet normal -1 0 0
    outer loop
      vertex 37.7 -32.5 6.2
      vertex 37.7 -25 9.2
      vertex 37.7 -25 6.2
    endloop
  endfacet
  facet normal -1 0 0
    outer loop
      vertex 37.7 -32.5 6.2
      vertex 37.7 -37.5 9.2
      vertex 37.7 -25 9.2
    endloop
  endfacet
  facet normal -1 0 0
    outer loop
      vertex 37.7 -37.5 9.2
      vertex 37.7 -32.5 6.2
      vertex 37.7 -37.5 0.5
    endloop
  endfacet
  facet normal -1 0 0
    outer loop
      vertex 37.7 -32.5 0.5
      vertex 37.7 -37.5 0.5
      vertex 37.7 -32.5 6.2
    endloop
  endfacet
  facet normal 0 0 -1
    outer loop
      vertex 37.7 -32.5 6.2
      vertex 42.3 -25 6.2
      vertex 42.3 -32.5 6.2
    endloop
  endfacet
  facet normal -0 0 -1
    outer loop
      vertex 42.3 -25 6.2
      vertex 37.7 -32.5 6.2
      vertex 37.7 -25 6.2
    endloop
  endfacet
  facet normal 0 1 -0
    outer loop
      vertex 42.3 -25 6.2
      vertex 37.7 -25 9.2
      vertex 42.3 -25 9.2
    endloop
  endfacet
  facet normal 0 1 0
    outer loop
      vertex 37.7 -25 9.2
      vertex 42.3 -25 6.2
      vertex 37.7 -25 6.2
    endloop
  endfacet
  facet normal -0 0 1
    outer loop
      vertex 37.7 -25 9.2
      vertex 42.3 -37.5 9.2
      vertex 42.3 -25 9.2
    endloop
  endfacet
  facet normal 0 0 1
    outer loop
      vertex 42.3 -37.5 9.2
      vertex 37.7 -25 9.2
      vertex 37.7 -37.5 9.2
    endloop
  endfacet
endsolid OpenSCAD_Model
